<?xml version="1.0" encoding="utf-8"?>
<!-- Generator: Adobe Illustrator 19.2.1, SVG Export Plug-In . SVG Version: 6.00 Build 0)  -->
<svg version="1.2" baseProfile="tiny" id="图层_1"
	 xmlns="http://www.w3.org/2000/svg" xmlns:xlink="http://www.w3.org/1999/xlink" x="0px" y="0px" viewBox="0 0 100 100"
	 xml:space="preserve">
<path fill="#E53A35" d="M20.8,90.7c0.1-0.2,0.2-0.4,0.3-0.5c0,0,0.3,0,0.3,0.3c0,0,0.2-0.1,0.4-0.6c0,0,0.2,0.3,0.2,0.6
	c0,0.1,0,0.2,0,0.3H20.8L20.8,90.7z M20.3,90.7l-0.3,0c0.1-0.2,0.2-0.3,0.2-0.5c0-0.3,0.1-0.9-0.3-1.5c-0.3-0.4-0.7-0.4-0.7-0.4
	c-0.7,0-1,0.5-0.9,0.9c0.1,0.5,0.9,0.2,0.9,0.2l0-0.2c0-0.3-0.4-0.4-0.4-0.4s0.2,0,0.4,0.1c0.2,0.1,0.6,0.5,0.6,0.7
	c0,0.1-0.4,0.4-0.4,0.4s0.2,0.2,0.2,0.5c0,0.1,0,0.1,0,0.2l-0.3,0c0-0.1-0.1-0.1-0.1-0.1c-0.3-0.1-0.5-0.1-0.8-0.4
	c-0.3-0.3-0.6-1-0.2-1.6c0.1-0.2,0.3-0.4,0.4-0.4c0.2-0.1,0.7-0.2,1.1,0c0.2,0.1,0.3,0.3,0.5,0.5c0.1,0.2,0.3,0.6,0.4,0.8
	c0.1,0.3,0.2,0.5,0.2,0.6C20.6,90.1,20.6,90.3,20.3,90.7z M20.3,91.3c0.1-0.2,0.3-0.4,0.5-0.6H22c0,0.1,0,0.2,0,0.4
	c0,0.1,0,0.1,0,0.2H20.3L20.3,91.3z M19.3,90.7l0.3,0c-0.1,0.2-0.3,0.5-0.3,0.5S19.4,90.9,19.3,90.7L19.3,90.7z M20,90.7l0.3,0
	c0,0,0,0,0,0c-0.2,0.2-0.3,0.4-0.5,0.6h-0.1c0-0.1,0-0.1,0.1-0.2C19.8,91,19.9,90.8,20,90.7L20,90.7z M18.8,91.3h-0.5
	C18.2,91,17.9,91,17.9,91s-0.1-0.1,0.5,0C18.6,91,18.7,91.1,18.8,91.3z M20.1,91.6c0,0,0.1-0.1,0.3-0.3H22c-0.1,0.2-0.4,0.4-0.7,0.4
	C20.6,91.6,20.1,91.6,20.1,91.6L20.1,91.6z M18.3,91.3c0.1,0.2,0.1,0.5,0.1,1.1c-0.2,1.1-0.1,1.8,0.6,2.3h0.8c0,0,0,0,0,0v-0.8
	c0,0-0.3,0.1-0.3,0.3c0,0.2-0.5,0.1-0.5-0.4c0-0.5,0-1.5,1.1-1.6c1.1-0.2,1.7,0.6,1.6,1.2c-0.1,0.6-0.5,0.7-0.7,0.5
	c-0.2-0.1-0.6-0.6-0.3-0.6c0.3,0,0.2,0.1,0.4,0.3c0.2,0.1,0.2-0.4,0.2-0.4L20.8,93l-0.2-0.4c0,0-0.1,0.3-0.3,0.3
	c-0.1,0-0.4,0-0.4-0.2l-0.1,0.2c0,0-0.6,0-0.6,0.3c0,0.3,0.1,0.3,0.1,0.3s0.2-0.5,0.4-0.2c0.1,0.3,0.7,1.3,1.1,1.3
	c0.5,0,1-1,1.3-1.1c0.2-0.2,0.5-0.4,0.5-0.4L21.9,93c0,0-0.5-1.3-1.4-1.3c-0.9,0.1-1.4,0.4-1.4,0.4s0-0.5-0.3-0.8H18.3L18.3,91.3z
	 M19.7,91.3h0.1c-0.1,0.2-0.2,0.3-0.2,0.3S19.6,91.4,19.7,91.3L19.7,91.3z M24.6,94.7h-1.2c-0.3-0.4-0.7-0.6-0.7-0.6s0-0.1,0-0.4
	c0.1-0.4,0.3-0.7,0.4-0.7c0,0,0.1,0,0.1,0.1c0,0.2,0.1,0.5,0.1,0.5l0.1,0.2c0,0,0.8-0.3,1-0.4c0.2-0.1,0.2,0,0.2,0l-0.7,1l0.1,0.1
	C24.3,94.5,24.5,94.5,24.6,94.7L24.6,94.7z M23.1,94.7l-0.7,0c-0.3,0-0.7,0-0.7,0s0.2-0.3,0.4-0.4c0.2-0.1,0.5,0,0.8,0.2
	C23,94.5,23.1,94.6,23.1,94.7L23.1,94.7z M18.7,94.7h-0.7c0.1-0.1,0.3-0.3,0.4-0.3C18.5,94.4,18.6,94.5,18.7,94.7z M17.9,94.7h0.7
	c0.1,0.1,0.1,0.3,0.1,0.6c0,0,0.3,0,0.5,0.1h-0.9c0-0.1,0.1-0.2,0.1-0.3c0,0,0.1-0.5-0.2-0.3c-0.4,0.2-0.4,0.1-0.4,0.1
	S17.9,94.7,17.9,94.7L17.9,94.7z M18.9,94.7c0.1,0.1,0.3,0.2,0.5,0.3c0.4,0.2,0.7,0.3,1,0.4h0.9c0.3-0.1,0.6-0.2,1-0.4
	c0,0-0.2-0.1-0.5,0c-0.3,0-1.4,0.4-2-0.3H18.9L18.9,94.7z M22.4,94.7l0.7,0c0.2,0.2,0.4,0.4,0.5,0.7h-0.4c0-0.1-0.1-0.3-0.1-0.4
	C23,94.8,22.7,94.7,22.4,94.7L22.4,94.7z M23.4,94.7c0.1,0.1,0.2,0.3,0.3,0.4c0,0,0.7-0.3,1.2-0.2c0,0-0.1-0.1-0.3-0.2H23.4
	L23.4,94.7z M24.6,95.3L24.6,95.3C24.6,95.3,24.6,95.3,24.6,95.3L24.6,95.3L24.6,95.3z M22.5,95.3c0.1-0.1,0.1-0.1,0.1-0.1
	s-0.1,0.1-0.2,0.1H22.5z M18.3,95.3h0.9c0,0,0.1,0.1,0.1,0.2c0,0.3-0.2,0.6-0.5,0.7c0,0,0.5-0.7,0.2-0.7c-0.3,0-0.7,0.1-0.7,0.5
	c0,0.5,0.2,1.5,2.4,0.9c0,0,0,0.2,0,0.5h-0.2c0,0,0,0,0-0.1c0,0-1.4,0.1-2-0.3C18,96.9,17.9,96.2,18.3,95.3L18.3,95.3z M20.4,95.3
	c0.3,0.1,0.6,0.1,0.9,0H20.4L20.4,95.3z M22.4,95.3c-0.2,0.1-0.5,0.3-0.8,0.3c-0.5,0-1.2-0.1-2,0.2c-0.7,0.4-0.6,1-0.6,1
	s0.1-0.1,0.3-0.3c0.2-0.2,0.6-0.1,0.7,0.1c0.1,0.2,0.5,0.2,0.8,0.1c0.3-0.1,0.5-0.1,0.5-0.1c-0.2,0.5-0.3,0.7-0.2,0.8h1
	c0.1-0.4,0-0.6,0-1.1c0-0.5,0.3-0.9,0.4-1.1H22.4L22.4,95.3z M23.2,95.3h0.4c0,0.1,0.1,0.3,0.1,0.3c-0.1,0.4-0.5,0.3-0.5,0.3
	C23.2,95.8,23.3,95.6,23.2,95.3L23.2,95.3z M24.6,95.3c-0.1,0.1-0.2,0.3-0.3,0.5c-0.2,0.2-1.1,0.8-1.1,1.3c0,0.1,0.1,0.3,0.2,0.4
	h1.5c0-0.1,0.3-0.2,0.3-0.2l-0.4-0.2l-0.1-0.4c0,0-0.5,0-0.4,0.2c0.1,0.2,0.3,0.1,0.3,0.4c0,0.3-0.4,0-0.6-0.3
	c-0.1-0.2,0-0.5,0.5-0.7c0.5-0.1,1.1,0.3,1.2,1.2H26c0,0,0-0.1,0-0.2c0.1-0.9-1.3-1.4-1.3-1.4L24.6,95.3L24.6,95.3L24.6,95.3z
	 M28.7,97.5h-1.6c0.3-0.3,0.5-0.3,0.7-0.3c0.2,0,0.3,0,0.7,0.2C28.6,97.5,28.7,97.5,28.7,97.5L28.7,97.5z M26.4,97.5h-0.3
	c0-0.2,0-0.5,0-0.9c-0.1-0.5,0.3-0.8,0.6-0.8c0.3,0.1,0.4,0.1,0.7,0c0.3,0,0.6,0.2,0.6,0.2c-0.5,0.2-0.6,0.4-0.6,0.4
	c0.2,0,0.3,0.3,0.3,0.3C27.2,96.8,26.7,97.2,26.4,97.5L26.4,97.5z M22.8,97.5h-0.3c-0.1-0.6,0-1.3,0.4-1.9c0,0,0.1,0.2,0,0.5
	C22.9,96.3,22.7,96.9,22.8,97.5L22.8,97.5z M20,97.5c-0.2,0-0.6-0.1-0.9,0H20z M19.1,97.5H20c0.2,0,0.3,0.1,0.3,0.1
	c0.1,1.9-0.6,1.9-0.6,1.9l-0.1-0.8c-0.6,1.1-1.3,0.8-1.3,0.8s0-0.3,0.1-0.6c0.1-0.4,0.6-0.8,0.6-0.8l-0.7-0.1
	C18.4,97.7,18.8,97.6,19.1,97.5L19.1,97.5z M20.5,97.5c-0.2,1.6,0.5,2.1,0.8,2.2c0.3,0.1,1.2,0,1.3-0.2c0.2-0.2,0.3-0.2,0.5-0.1
	c0.2,0.1,0,0.5,0,0.5s0.4-0.3,0.3-0.7c-0.1-0.4-0.8-0.2-0.8-0.2l0-0.2c0-0.3-0.2-0.4-0.5-0.3c-0.3,0.1-0.3,0.5-0.3,0.5
	s0.2,0,0.3-0.2c0.2-0.2,0.1,0.2,0.1,0.2c-0.1,0.6-1,0.4-1.3-0.1c-0.2-0.3-0.2-1-0.2-1.5H20.5L20.5,97.5z M21.1,97.5h1
	c0,0.1,0,0.2-0.1,0.3c-0.1,0.6-0.5,1-1,1c0,0,0.5-0.4,0.4-0.8C21.3,97.7,21.2,97.7,21.1,97.5L21.1,97.5z M22.5,97.5h0.3
	c0,0.3,0.2,0.5,0.4,0.6H24c0,0-0.1,0.3-0.3,0.3c-0.2,0-0.1,0.5,0.3,0.5c0.4,0,1.4,0,1.6-1.1c0-0.1,0-0.3,0-0.4H26
	c-0.1,0.8-0.4,1.3-0.4,1.3s1,0.1,1.1,0.7c0.1,0.6,0,0.5,0,0.5s0.1-0.7-1.3-0.5c-1.4,0.2-2,0-2.6-1.1C22.7,98.1,22.5,97.8,22.5,97.5
	L22.5,97.5z M23.4,97.5h1.5c0,0,0,0,0,0c0,0.1,0,0.4,0.2,0.5l-0.2,0.1c0,0,0,0.6-0.3,0.6c-0.3,0-0.3-0.1-0.3-0.1s0.5-0.2,0.2-0.4
	C24.3,98.1,23.7,97.8,23.4,97.5L23.4,97.5z M26.2,97.5c0,0.2,0,0.3,0,0.3s0.1-0.1,0.3-0.3H26.2L26.2,97.5z M27.1,97.5
	C27.1,97.5,27,97.6,27.1,97.5c-0.4,0.4-0.9,0.7-0.9,0.7s0.3,0,0.4-0.1c0.3-0.2,0.6-0.4,0.9-0.5c0.3-0.1,0.9-0.1,1.4,0.3
	c0.5,0.3,0.4,0.7,0.4,0.7c0,0.8-0.5,1-0.9,0.9c-0.4-0.1-0.2-0.9-0.2-0.9l0.2,0c0.3,0,0.4,0.4,0.4,0.4s0-0.3,0-0.4
	c-0.1-0.2-0.5-0.6-0.7-0.6c-0.1,0-0.4,0.4-0.4,0.4s-0.2-0.2-0.4-0.2c-0.3-0.1-0.6,0.3-0.6,0.3s0.5-0.2,0.6,0.1
	c0.1,0.3,0.1,0.5,0.4,0.8c0.3,0.3,0.9,0.6,1.6,0.2c0.4-0.2,0.5-0.4,0.5-1.1c0-0.4-0.3-0.7-0.6-0.9c-0.1-0.1-0.2-0.1-0.3-0.2H27.1z
	 M28.7,2.5h-1.6c0,0,0,0-0.1-0.1c-0.3-0.3-0.8-0.7-0.8-0.7s0.3,0,0.4,0.1c0.3,0.2,0.6,0.4,0.9,0.5C27.8,2.4,28.4,2.5,29,2
	c0.5-0.3,0.4-0.7,0.4-0.7c0-0.8-0.5-1-0.9-0.9c-0.4,0.1-0.2,0.9-0.2,0.9l0.2,0c0.3,0,0.4-0.4,0.4-0.4s0,0.2,0,0.4
	c-0.1,0.2-0.5,0.6-0.7,0.6c-0.1,0-0.4-0.4-0.4-0.4s-0.2,0.2-0.4,0.2c-0.3,0.1-0.6-0.3-0.6-0.3s0.5,0.2,0.6-0.1
	c0.1-0.3,0.1-0.5,0.4-0.8c0.3-0.3,0.9-0.6,1.6-0.2c0.4,0.2,0.5,0.4,0.5,1.1c0,0.4-0.3,0.7-0.6,0.9C28.9,2.4,28.8,2.4,28.7,2.5
	L28.7,2.5z M26.4,2.5c-0.1-0.2-0.3-0.3-0.3-0.3s0,0.1,0,0.3H26.4L26.4,2.5z M26,2.5c-0.1-0.8-0.4-1.3-0.4-1.3s1-0.1,1.1-0.7
	c0.1-0.6,0-0.5,0-0.5s0.1,0.7-1.3,0.5c-1.4-0.2-2,0-2.6,1.1c-0.2,0.3-0.3,0.6-0.4,0.9h0.3c0-0.3,0.2-0.5,0.4-0.6H24
	c0,0-0.1-0.3-0.3-0.3C23.5,1.5,23.6,1,24,1c0.4,0,1.4,0,1.6,1.1c0,0.1,0,0.3,0,0.4H26L26,2.5z M24.9,2.5l-1.5,0
	c0.3-0.3,0.9-0.6,1.1-0.7c0.3-0.1-0.2-0.4-0.2-0.4s0-0.1,0.3-0.1c0.3,0,0.3,0.6,0.3,0.6L25.1,2C24.9,2,24.9,2.3,24.9,2.5
	C24.9,2.5,24.9,2.5,24.9,2.5L24.9,2.5z M22.1,2.5h-1c0.1-0.1,0.2-0.2,0.3-0.4C21.5,1.7,21,1.2,21,1.2c0.6-0.1,0.9,0.4,1,1
	C22.1,2.3,22.1,2.4,22.1,2.5L22.1,2.5z M20.7,2.5h-0.2c-0.2-1.6,0.5-2.1,0.8-2.2c0.3-0.1,1.2,0,1.3,0.2c0.2,0.2,0.3,0.2,0.5,0.1
	c0.2-0.1,0-0.5,0-0.5s0.4,0.3,0.3,0.7c-0.1,0.4-0.8,0.2-0.8,0.2l0,0.2c0,0.3-0.2,0.4-0.5,0.3c-0.3-0.1-0.3-0.5-0.3-0.5
	s0.2,0,0.3,0.2c0.2,0.2,0.1-0.2,0.1-0.2c-0.1-0.6-1-0.4-1.3,0.1C20.7,1.2,20.7,2,20.7,2.5L20.7,2.5z M20,2.5c0.2,0,0.3-0.1,0.3-0.1
	c0.1-1.9-0.6-1.9-0.6-1.9l-0.1,0.8c-0.6-1.1-1.3-0.8-1.3-0.8s0,0.3,0.1,0.6c0.1,0.4,0.6,0.8,0.6,0.8l-0.7,0.1
	c0.2,0.3,0.6,0.5,0.9,0.6H20z M19.1,2.5H20C19.8,2.5,19.4,2.6,19.1,2.5L19.1,2.5z M20.5,2.5C20.5,2.5,20.5,2.5,20.5,2.5
	c0,0.1-1.3,0-2,0.3c-0.6,0.3-0.6,1-0.2,1.8h0.9c0,0,0.1-0.1,0.1-0.2c0-0.3-0.2-0.6-0.5-0.7c0,0,0.5,0.7,0.2,0.7
	c-0.3,0-0.7-0.1-0.7-0.5c0-0.5,0.3-1.5,2.4-0.9c0,0,0-0.2,0-0.5H20.5L20.5,2.5z M21.1,2.5c-0.1,0.1,0,0.3,0.2,0.8c0,0-0.2,0-0.5-0.1
	c-0.3-0.1-0.6-0.1-0.8,0.1c-0.1,0.2-0.5,0.3-0.7,0.1c-0.2-0.2-0.2-0.3-0.2-0.3s-0.1,0.6,0.6,1c0.7,0.4,1.5,0.2,2,0.2
	c0.3,0,0.6,0.1,0.8,0.3l0.1,0c-0.2-0.2-0.4-0.6-0.4-1.1c0-0.5,0-0.8,0-1.1H21.1L21.1,2.5z M22.5,2.5h0.3c-0.1,0.6,0,1.2,0.1,1.4
	c0.1,0.3,0,0.5,0,0.5C22.5,3.8,22.3,3.1,22.5,2.5L22.5,2.5z M23.4,2.5l1.5,0c0,0.1,0.3,0.2,0.3,0.2l-0.4,0.2l-0.1,0.4
	c0,0-0.5,0-0.4-0.2c0.1-0.2,0.3-0.1,0.3-0.4c0-0.3-0.4,0-0.6,0.2c-0.1,0.2,0,0.5,0.5,0.7c0.5,0.1,1.1-0.3,1.2-1.2H26
	c0,0,0,0.1,0,0.2c0.1,0.9-1.3,1.4-1.3,1.4l-0.1,0.6h0c-0.1-0.1-0.2-0.3-0.3-0.5c-0.2-0.2-1.1-0.8-1.1-1.3
	C23.2,2.8,23.3,2.6,23.4,2.5L23.4,2.5z M26.2,2.5c0,0.2,0,0.5,0,0.9c-0.1,0.5,0.3,0.8,0.6,0.8c0.3-0.1,0.4-0.1,0.7,0
	c0.3,0,0.6-0.2,0.6-0.2c-0.5-0.2-0.6-0.4-0.6-0.4c0.2,0,0.3-0.3,0.3-0.3c-0.4-0.1-0.9-0.5-1.2-0.8H26.2L26.2,2.5z M27.1,2.5h1.6
	c-0.1,0-0.1,0.1-0.3,0.1c-0.4,0.1-0.5,0.2-0.7,0.2C27.6,2.8,27.4,2.7,27.1,2.5L27.1,2.5z M23.6,4.7c0-0.1,0.1-0.3,0.1-0.3
	c-0.1-0.4-0.5-0.3-0.5-0.3c0,0.1,0,0.3,0,0.6L23.6,4.7L23.6,4.7z M21.3,4.7h-0.9C20.7,4.6,21,4.6,21.3,4.7z M18.3,4.7h0.9
	c-0.2,0.1-0.5,0.1-0.5,0.1c0,0.2,0,0.4-0.1,0.6h-0.7c0-0.1-0.1-0.1-0.1-0.1s0-0.1,0.4,0.1C18.6,5.5,18.5,5,18.5,5
	C18.4,4.8,18.4,4.7,18.3,4.7L18.3,4.7z M20.4,4.7c-0.3,0.1-0.6,0.2-1,0.4c-0.2,0.1-0.4,0.2-0.5,0.3h0.8c0.6-0.6,1.7-0.3,2-0.3
	c0.3,0.1,0.5,0,0.5,0c-0.3-0.2-0.6-0.3-1-0.4H20.4L20.4,4.7z M22.4,4.7l0.1,0c0.1,0.1,0.1,0.1,0.1,0.1S22.6,4.7,22.4,4.7L22.4,4.7z
	 M23.2,4.7c0,0.1-0.1,0.3-0.1,0.4c-0.1,0.2-0.4,0.3-0.7,0.3h0.7c0.2-0.2,0.4-0.4,0.5-0.7L23.2,4.7L23.2,4.7z M24.6,4.7L24.6,4.7
	L24.6,4.7C24.6,4.7,24.6,4.7,24.6,4.7L24.6,4.7z M24.6,5.3h-1.2c0.1-0.1,0.2-0.3,0.3-0.4c0,0,0.7,0.3,1.2,0.2
	C24.9,5.1,24.8,5.2,24.6,5.3z M20.1,8.4c0,0,0.1,0.1,0.3,0.3H22c-0.1-0.2-0.4-0.4-0.7-0.4C20.6,8.4,20.1,8.4,20.1,8.4L20.1,8.4z
	 M17.9,5.3h0.7c-0.1,0.1-0.2,0.2-0.3,0.3C18.2,5.7,18,5.5,17.9,5.3L17.9,5.3z M18.9,5.3h0.8c0,0,0,0,0,0v0.8c0,0-0.3-0.1-0.3-0.3
	c0-0.2-0.5-0.1-0.5,0.4c0,0.5,0,1.5,1.1,1.6c1.1,0.2,1.7-0.6,1.6-1.2c-0.1-0.6-0.5-0.7-0.7-0.5c-0.2,0.1-0.6,0.6-0.3,0.6
	c0.3,0,0.2-0.1,0.4-0.3c0.2-0.1,0.2,0.4,0.2,0.4L20.8,7l-0.2,0.4c0,0-0.1-0.3-0.3-0.3c-0.1,0-0.4,0-0.4,0.2l-0.1-0.2
	c0,0-0.6,0-0.6-0.3c0-0.3,0.1-0.3,0.1-0.3s0.2,0.5,0.4,0.2c0.1-0.3,0.7-1.3,1.1-1.3c0.5,0,1,1,1.3,1.1c0.2,0.2,0.5,0.4,0.5,0.4
	L21.9,7c0,0-0.5,1.3-1.4,1.3c-0.9-0.1-1.4-0.4-1.4-0.4s0,0.5-0.3,0.8h-0.5c0.1-0.2,0.1-0.5,0.1-1.1C18.2,6.5,18.3,5.9,18.9,5.3
	L18.9,5.3z M22.4,5.3c-0.3,0-0.7,0-0.7,0s0.2,0.3,0.4,0.4c0.2,0.1,0.5,0,0.8-0.2c0,0,0.1-0.1,0.2-0.2H22.4L22.4,5.3z M23.4,5.3h1.2
	c-0.1,0.1-0.3,0.2-0.5,0.2L24,5.7l0.7,1c0,0,0,0.1-0.2,0c-0.2-0.1-1-0.4-1-0.4l-0.1,0.2c0,0-0.1,0.3-0.1,0.5C23.3,7,23.2,7,23.2,7
	c0,0-0.3-0.3-0.4-0.7c-0.1-0.4,0-0.4,0-0.4S23.1,5.7,23.4,5.3L23.4,5.3z M19.8,8.7c-0.1-0.2-0.2-0.3-0.2-0.3s0,0.1,0.1,0.3H19.8z
	 M20.3,8.7c0.1,0.2,0.3,0.4,0.5,0.6H22c0-0.1,0-0.2,0-0.4c0-0.1,0-0.1,0-0.2H20.3L20.3,8.7z M18.3,8.7h0.5C18.7,8.9,18.6,9,18.4,9
	c-0.6,0.1-0.5,0-0.5,0S18.2,9,18.3,8.7L18.3,8.7z M19.7,8.7h0.1c0.1,0.2,0.3,0.4,0.5,0.6c0,0,0,0,0,0H20c-0.1-0.1-0.2-0.3-0.3-0.4
	C19.7,8.8,19.7,8.8,19.7,8.7L19.7,8.7z M19.6,9.3h-0.3c0.1-0.2,0-0.5,0-0.5S19.5,9.1,19.6,9.3z M20.8,9.3c0.1,0.2,0.2,0.4,0.3,0.5
	c0,0,0.3,0,0.3-0.3c0,0,0.2,0.1,0.4,0.6c0,0,0.2-0.3,0.2-0.6c0-0.1,0-0.2,0-0.3H20.8L20.8,9.3z M19.3,9.3h0.3c0,0.1,0,0.1,0,0.2
	c0,0.3-0.2,0.5-0.2,0.5s0.4,0.3,0.4,0.4c0,0.1-0.4,0.6-0.6,0.7c-0.2,0.1-0.4,0.1-0.4,0.1s0.4-0.1,0.4-0.4l0-0.2c0,0-0.8-0.2-0.9,0.2
	c-0.1,0.5,0.1,0.9,0.9,0.9c0,0,0.4,0,0.7-0.4c0.4-0.6,0.4-1.2,0.3-1.5c0-0.1-0.1-0.3-0.2-0.5h0.3c0.3,0.3,0.4,0.5,0.4,0.7
	c0,0.1-0.1,0.3-0.2,0.6c-0.1,0.2-0.2,0.6-0.4,0.8c-0.1,0.2-0.2,0.3-0.5,0.5c-0.4,0.2-0.9,0.1-1.1,0c-0.1-0.1-0.3-0.2-0.4-0.4
	c-0.4-0.7-0.1-1.3,0.2-1.6c0.3-0.3,0.5-0.3,0.8-0.4C19.2,9.4,19.3,9.4,19.3,9.3z M79.2,90.7c-0.1-0.2-0.2-0.4-0.3-0.5
	c0,0-0.3,0-0.3,0.3c0,0-0.2-0.1-0.4-0.6c0,0-0.2,0.3-0.2,0.6c0,0.1,0,0.2,0,0.3L79.2,90.7L79.2,90.7z M80.7,90.7l-0.3,0
	c0-0.1,0-0.1,0-0.2c0.1-0.3,0.2-0.5,0.2-0.5s-0.4-0.3-0.4-0.4c0-0.1,0.4-0.6,0.6-0.7c0.2-0.1,0.4-0.1,0.4-0.1s-0.4,0.1-0.4,0.4
	l0,0.2c0,0,0.8,0.2,0.8-0.2c0.1-0.5-0.1-0.9-0.9-0.9c0,0-0.4,0-0.7,0.4c-0.5,0.6-0.4,1.2-0.4,1.5c0,0.1,0.1,0.3,0.2,0.5l-0.3,0
	c-0.3-0.3-0.3-0.5-0.3-0.7c0-0.1,0.1-0.3,0.2-0.6c0.1-0.2,0.2-0.6,0.4-0.8c0.1-0.2,0.2-0.3,0.5-0.5c0.4-0.2,0.9-0.1,1.1,0
	c0.1,0.1,0.3,0.2,0.4,0.4c0.4,0.7,0.1,1.3-0.2,1.6c-0.3,0.3-0.5,0.3-0.8,0.4C80.8,90.6,80.7,90.6,80.7,90.7z M79.7,91.3
	c-0.1-0.2-0.3-0.4-0.5-0.6l-1.1,0c0,0.1,0,0.2,0,0.4c0,0.1,0,0.1,0,0.2H79.7L79.7,91.3z M79.7,90.7l0.3,0c0.1,0.1,0.2,0.3,0.3,0.4
	c0,0.1,0.1,0.1,0.1,0.2h-0.1C80.1,91.1,79.9,90.9,79.7,90.7C79.7,90.7,79.7,90.7,79.7,90.7L79.7,90.7z M80.4,90.7l0.3,0
	c-0.1,0.2,0,0.5,0,0.5S80.5,90.9,80.4,90.7L80.4,90.7z M81.7,91.3l-0.5,0c0.1-0.1,0.2-0.3,0.4-0.3c0.6-0.1,0.5,0,0.5,0
	S81.9,91,81.7,91.3z M79.9,91.6c0,0-0.1-0.1-0.3-0.3H78c0.1,0.2,0.4,0.4,0.7,0.4C79.4,91.6,79.9,91.6,79.9,91.6L79.9,91.6z
	 M80.2,91.3h0.1c0.1,0.2,0.1,0.3,0.1,0.3S80.3,91.5,80.2,91.3L80.2,91.3z M81.2,91.3l0.5,0c-0.1,0.2-0.1,0.5-0.1,1.1
	c0.2,1.1,0.1,1.8-0.6,2.3h-0.8c0,0,0,0,0,0v-0.8c0,0,0.3,0.1,0.3,0.3c0,0.2,0.5,0.1,0.5-0.4c0-0.5,0-1.5-1.1-1.6
	c-1.1-0.2-1.7,0.6-1.6,1.2c0.1,0.6,0.5,0.7,0.7,0.5c0.2-0.1,0.6-0.6,0.3-0.6c-0.3,0-0.2,0.1-0.4,0.3c-0.2,0.1-0.2-0.4-0.2-0.4
	l0.4-0.1l0.2-0.4c0,0,0.1,0.3,0.3,0.3c0.1,0,0.4,0,0.4-0.2l0.1,0.2c0,0,0.6,0,0.6,0.3c0,0.3-0.1,0.3-0.1,0.3s-0.2-0.5-0.4-0.2
	c-0.1,0.3-0.6,1.3-1.1,1.3c-0.5,0-1-1-1.3-1.1c-0.2-0.2-0.5-0.4-0.5-0.4l0.6-0.1c0,0,0.5-1.3,1.4-1.3c0.9,0.1,1.4,0.4,1.4,0.4
	S80.9,91.6,81.2,91.3L81.2,91.3z M82.1,94.7c-0.1-0.1-0.3-0.3-0.4-0.3c-0.1,0-0.2,0.1-0.3,0.3L82.1,94.7L82.1,94.7z M77.6,94.7
	c0.4,0,0.7,0,0.7,0s-0.2-0.3-0.4-0.4c-0.2-0.1-0.5,0-0.8,0.2c-0.1,0-0.1,0.1-0.2,0.2H77.6L77.6,94.7z M76.6,94.7h-1.2
	c0.1-0.1,0.3-0.2,0.5-0.2l0.1-0.1l-0.7-1c0,0,0-0.1,0.2,0c0.2,0.1,1,0.4,1,0.4l0.1-0.2c0,0,0.1-0.3,0.1-0.5c0-0.2,0.1-0.1,0.1-0.1
	c0,0,0.3,0.3,0.4,0.7c0.1,0.4,0,0.4,0,0.4S76.9,94.3,76.6,94.7z M75.4,94.7h1.2c-0.1,0.1-0.2,0.3-0.3,0.4c0,0-0.7-0.3-1.2-0.2
	C75.1,94.9,75.2,94.8,75.4,94.7L75.4,94.7z M76.9,94.7c-0.2,0.2-0.4,0.4-0.5,0.7h0.4c0-0.1,0.1-0.3,0.1-0.4c0.1-0.2,0.4-0.3,0.7-0.3
	H76.9L76.9,94.7z M80.3,94.7h0.8c-0.1,0.1-0.3,0.2-0.5,0.3c-0.4,0.2-0.7,0.3-1,0.4h-0.9c-0.3-0.1-0.6-0.2-1-0.4c0,0,0.2-0.1,0.5,0
	C78.6,95,79.7,95.3,80.3,94.7L80.3,94.7z M81.3,94.7c-0.1,0.1-0.1,0.3-0.1,0.6c0,0-0.3,0-0.5,0.1h0.9c0-0.1-0.1-0.2-0.1-0.3
	c0,0-0.1-0.5,0.2-0.3c0.4,0.2,0.4,0.1,0.4,0.1s0-0.1-0.1-0.1L81.3,94.7L81.3,94.7z M77.6,95.3L77.6,95.3c-0.2-0.1-0.2-0.1-0.2-0.1
	S77.4,95.3,77.6,95.3L77.6,95.3z M75.4,95.3L75.4,95.3L75.4,95.3C75.4,95.3,75.4,95.3,75.4,95.3z M75.4,95.3L75.4,95.3
	c0.1,0.1,0.2,0.3,0.4,0.5c0.2,0.2,1.1,0.8,1.1,1.3c0,0.1-0.1,0.3-0.2,0.4h-1.5c0-0.1-0.3-0.2-0.3-0.2l0.4-0.2l0.1-0.4
	c0,0,0.5,0,0.4,0.2c-0.1,0.2-0.3,0.1-0.3,0.4c0,0.3,0.4,0,0.6-0.3c0.1-0.2,0-0.5-0.5-0.7c-0.5-0.1-1.1,0.3-1.2,1.2H74
	c0,0,0-0.1,0-0.2c-0.1-0.9,1.3-1.4,1.3-1.4L75.4,95.3L75.4,95.3z M76.4,95.3c0,0.1-0.1,0.3,0,0.3c0.1,0.4,0.5,0.3,0.5,0.3
	c0-0.1,0-0.3,0-0.6H76.4L76.4,95.3z M77.5,95.3L77.5,95.3c0.3,0.1,0.6,0.3,0.9,0.3c0.5,0,1.2-0.1,2,0.2c0.7,0.4,0.6,1,0.6,1
	s-0.1-0.1-0.2-0.3c-0.2-0.2-0.6-0.1-0.7,0.1c-0.1,0.2-0.5,0.2-0.8,0.1c-0.2-0.1-0.5-0.1-0.5-0.1c0.2,0.5,0.3,0.7,0.2,0.8h-1
	c-0.1-0.4,0-0.6,0-1.1C77.9,95.9,77.6,95.5,77.5,95.3L77.5,95.3z M78.7,95.3c0.3,0.1,0.6,0.1,0.9,0H78.7L78.7,95.3z M80.8,95.3
	c0,0-0.1,0.1-0.1,0.2c0,0.3,0.2,0.6,0.5,0.7c0,0-0.5-0.7-0.2-0.7c0.3,0,0.7,0.1,0.7,0.5c0,0.5-0.3,1.5-2.4,0.9c0,0,0,0.2,0,0.5h0.2
	c0,0,0,0,0-0.1c0,0,1.4,0.1,2-0.3c0.6-0.3,0.6-1,0.2-1.8H80.8L80.8,95.3z M80.9,97.5c-0.4-0.1-0.7,0-0.9,0H80.9L80.9,97.5z
	 M77.5,97.5c0.1-0.6,0-1.3-0.4-1.9c0,0-0.1,0.2,0,0.5c0,0.2,0.2,0.9,0.1,1.4H77.5L77.5,97.5z M73.8,97.5c0-0.2,0-0.5,0-0.9
	c0.1-0.5-0.3-0.8-0.6-0.8c-0.3,0.1-0.4,0.1-0.7,0c-0.3,0-0.6,0.2-0.6,0.2c0.5,0.2,0.6,0.4,0.6,0.4c-0.2,0-0.3,0.3-0.3,0.3
	c0.4,0.1,0.9,0.5,1.2,0.8H73.8L73.8,97.5z M72.9,97.5h-1.6c0.1,0,0.1-0.1,0.3-0.1c0.4-0.1,0.5-0.2,0.7-0.2
	C72.4,97.2,72.6,97.3,72.9,97.5z M71.3,97.5h1.6c0,0,0,0,0.1,0.1c0.3,0.3,0.8,0.7,0.8,0.7s-0.2,0-0.4-0.1c-0.3-0.2-0.6-0.4-0.9-0.5
	c-0.3-0.1-0.9-0.1-1.4,0.3c-0.5,0.3-0.4,0.7-0.4,0.7c0,0.8,0.5,1,0.9,0.9c0.5-0.1,0.2-0.9,0.2-0.9l-0.2,0c-0.3,0-0.4,0.4-0.4,0.4
	s0-0.3,0.1-0.4c0-0.2,0.5-0.6,0.6-0.6c0.1,0,0.4,0.4,0.4,0.4s0.2-0.2,0.4-0.2c0.3-0.1,0.7,0.3,0.7,0.3s-0.5-0.2-0.6,0.1
	c-0.1,0.3-0.1,0.5-0.4,0.8c-0.3,0.3-0.9,0.6-1.6,0.2c-0.4-0.2-0.5-0.4-0.5-1.1c0-0.4,0.3-0.7,0.7-0.9C71.1,97.6,71.2,97.6,71.3,97.5
	L71.3,97.5z M73.6,97.5c0.1,0.2,0.3,0.3,0.3,0.3s0-0.1,0-0.3H73.6L73.6,97.5z M74,97.5c0.1,0.8,0.4,1.3,0.4,1.3s-1,0.1-1.1,0.7
	c-0.1,0.6,0,0.5,0,0.5s-0.1-0.7,1.3-0.5c1.4,0.2,2,0,2.6-1.1c0.2-0.3,0.3-0.6,0.4-0.9h-0.3c0,0.3-0.2,0.5-0.4,0.6H76
	c0,0,0.1,0.3,0.3,0.3c0.2,0,0.1,0.5-0.3,0.5c-0.5,0-1.4,0-1.6-1.1c0-0.1,0-0.3,0-0.4H74L74,97.5z M75.1,97.5h1.5
	c-0.3,0.3-0.9,0.6-1.1,0.7c-0.3,0.1,0.2,0.4,0.2,0.4s0,0.1-0.3,0.1c-0.3,0-0.3-0.6-0.3-0.6L74.9,98C75.1,98,75.1,97.7,75.1,97.5
	C75.1,97.5,75.1,97.5,75.1,97.5L75.1,97.5z M77.9,97.5h1c-0.1,0.1-0.2,0.2-0.3,0.4c-0.1,0.4,0.4,0.8,0.4,0.8c-0.6,0.1-0.9-0.4-1-1
	C77.9,97.7,77.9,97.6,77.9,97.5L77.9,97.5z M79.3,97.5h0.2c0.3,1.6-0.5,2.1-0.8,2.2c-0.3,0.1-1.1,0-1.3-0.2
	c-0.2-0.2-0.3-0.2-0.5-0.1c-0.2,0.1,0,0.5,0,0.5s-0.4-0.3-0.3-0.7c0.1-0.4,0.8-0.2,0.8-0.2l0-0.2c0-0.3,0.2-0.4,0.5-0.3
	c0.4,0.1,0.3,0.5,0.3,0.5s-0.2,0-0.3-0.2c-0.2-0.2-0.1,0.2-0.1,0.2c0.1,0.6,1,0.4,1.3-0.1C79.3,98.8,79.3,98,79.3,97.5L79.3,97.5z
	 M80,97.5c-0.2,0-0.3,0.1-0.3,0.1c-0.1,1.9,0.6,1.9,0.6,1.9l0.1-0.8c0.6,1.1,1.3,0.8,1.3,0.8s0-0.3-0.1-0.6
	c-0.1-0.4-0.6-0.8-0.6-0.8l0.7-0.1c-0.2-0.3-0.6-0.5-0.9-0.6H80z M80.9,2.5l-0.9,0c-0.2,0-0.3-0.1-0.3-0.1c-0.1-1.9,0.6-1.9,0.6-1.9
	l0.1,0.8c0.6-1.1,1.3-0.8,1.3-0.8s0,0.3-0.1,0.6c-0.1,0.4-0.6,0.8-0.6,0.8l0.7,0.1C81.6,2.3,81.2,2.4,80.9,2.5L80.9,2.5z M79.5,2.5
	c0.2-1.6-0.5-2.1-0.8-2.2c-0.3-0.1-1.1,0-1.3,0.2c-0.2,0.2-0.3,0.2-0.5,0.1c-0.2-0.1,0-0.5,0-0.5s-0.4,0.3-0.3,0.7
	c0.1,0.4,0.8,0.2,0.8,0.2l0,0.2c0,0.3,0.2,0.4,0.5,0.3c0.4-0.1,0.3-0.5,0.3-0.5S78,1,77.9,1.2c-0.2,0.2-0.1-0.2-0.1-0.2
	c0.1-0.6,1-0.4,1.3,0.1c0.2,0.3,0.2,1,0.2,1.5L79.5,2.5L79.5,2.5z M78.9,2.5h-1c0-0.1,0-0.2,0.1-0.3c0.1-0.6,0.5-1,1-1
	c0,0-0.5,0.4-0.4,0.8C78.7,2.3,78.8,2.3,78.9,2.5L78.9,2.5z M77.5,2.5l-0.3,0c0-0.2-0.2-0.5-0.4-0.6l-0.8,0c0,0,0.1-0.3,0.3-0.3
	C76.5,1.5,76.4,1,76,1c-0.5,0-1.4,0-1.6,1.1c0,0.1,0,0.3,0,0.4l-0.3,0c0.1-0.8,0.4-1.3,0.4-1.3s-1-0.1-1.1-0.7c-0.1-0.6,0-0.5,0-0.5
	s-0.1,0.7,1.3,0.5c1.4-0.2,2,0,2.6,1.1C77.3,1.9,77.5,2.2,77.5,2.5L77.5,2.5z M76.6,2.5h-1.5c0,0,0,0,0,0c0-0.1,0-0.4-0.2-0.5
	l0.2-0.1c0,0,0-0.6,0.3-0.6c0.3,0,0.3,0.1,0.3,0.1s-0.4,0.2-0.2,0.4C75.7,1.9,76.3,2.2,76.6,2.5L76.6,2.5z M73.8,2.5
	c0-0.2,0-0.3,0-0.3s-0.1,0.1-0.2,0.3L73.8,2.5L73.8,2.5z M72.9,2.5C72.9,2.5,73,2.4,72.9,2.5c0.4-0.4,0.9-0.7,0.9-0.7
	s-0.3,0-0.4,0.1c-0.3,0.2-0.6,0.4-0.9,0.5C72.2,2.4,71.6,2.5,71,2c-0.5-0.3-0.4-0.7-0.4-0.7c0-0.8,0.5-1,0.9-0.9
	c0.5,0.1,0.2,0.9,0.2,0.9l-0.2,0c-0.3,0-0.4-0.4-0.4-0.4s0,0.3,0.1,0.4c0,0.2,0.5,0.6,0.6,0.6c0.1,0,0.4-0.4,0.4-0.4
	s0.2,0.2,0.4,0.2c0.3,0.1,0.7-0.3,0.7-0.3s-0.5,0.2-0.6-0.1c-0.1-0.3-0.1-0.5-0.4-0.8c-0.3-0.3-0.9-0.6-1.6-0.2
	c-0.4,0.2-0.5,0.4-0.5,1.1c0,0.4,0.3,0.7,0.7,0.9c0.1,0.1,0.2,0.1,0.3,0.2H72.9z M71.3,2.5h1.6c-0.3,0.3-0.5,0.3-0.7,0.3
	c-0.2,0-0.3,0-0.7-0.2C71.4,2.6,71.3,2.5,71.3,2.5L71.3,2.5z M73.6,2.5c-0.3,0.3-0.8,0.7-1.2,0.8c0,0,0,0.3,0.3,0.3
	c0,0-0.1,0.2-0.6,0.4c0,0,0.3,0.2,0.6,0.2c0.3,0,0.4,0,0.7,0c0.3,0,0.6-0.3,0.6-0.8c0-0.4,0-0.7,0-0.9L73.6,2.5L73.6,2.5z M74,2.5
	l0.3,0c0,0.9,0.7,1.4,1.2,1.2c0.6-0.1,0.7-0.5,0.5-0.7c-0.1-0.2-0.6-0.6-0.6-0.3c0,0.3,0.1,0.2,0.3,0.4c0.1,0.2-0.4,0.2-0.4,0.2
	l-0.1-0.4l-0.4-0.2c0,0,0.2-0.1,0.3-0.2h1.5c0.1,0.1,0.2,0.3,0.2,0.4c0,0.5-0.9,1-1.1,1.3c-0.1,0.2-0.3,0.4-0.3,0.5h0l-0.1-0.6
	c0,0-1.3-0.5-1.3-1.4C74,2.6,74,2.5,74,2.5L74,2.5z M77.2,2.5l0.3,0c0.1,0.6,0,1.3-0.4,1.9c0,0-0.1-0.2,0-0.5
	C77.1,3.7,77.3,3.1,77.2,2.5L77.2,2.5z M77.9,2.5c-0.1,0.4,0,0.6,0,1.1c0,0.5-0.3,0.9-0.4,1.1h0.1c0.2-0.1,0.5-0.3,0.8-0.3
	c0.5,0,1.2,0.1,2-0.2c0.7-0.4,0.6-1,0.6-1s-0.1,0.1-0.3,0.3c-0.2,0.2-0.6,0.1-0.7-0.1c-0.1-0.2-0.5-0.2-0.8-0.1
	c-0.3,0.1-0.5,0.1-0.5,0.1c0.2-0.5,0.3-0.7,0.2-0.8H77.9L77.9,2.5z M79.3,2.5l0.2,0c0,0,0,0,0,0.1c0,0,1.4-0.1,2,0.3
	c0.6,0.3,0.6,1,0.2,1.8h-0.9c0,0-0.1-0.1-0.1-0.2c0-0.3,0.2-0.6,0.5-0.7c0,0-0.5,0.7-0.2,0.7c0.3,0,0.7-0.1,0.7-0.5
	c0-0.5-0.3-1.5-2.4-0.9C79.3,3,79.3,2.8,79.3,2.5L79.3,2.5z M80,2.5l0.9,0C80.6,2.6,80.2,2.5,80,2.5L80,2.5z M79.6,4.7h-0.9
	C79,4.6,79.3,4.6,79.6,4.7L79.6,4.7z M76.8,4.7c-0.1-0.3,0-0.5,0-0.6c0,0-0.4-0.1-0.5,0.3c0,0.1,0,0.2,0,0.3H76.8z M75.4,4.7
	L75.4,4.7C75.4,4.7,75.4,4.7,75.4,4.7L75.4,4.7L75.4,4.7z M76.4,4.7h0.4c0,0.1,0.1,0.2,0.1,0.4c0.1,0.2,0.4,0.3,0.7,0.3h-0.7
	C76.7,5.2,76.5,4.9,76.4,4.7L76.4,4.7z M77.5,4.7c-0.1,0.1-0.1,0.1-0.1,0.1S77.4,4.7,77.5,4.7L77.5,4.7L77.5,4.7z M78.7,4.7h0.9
	c0.3,0.1,0.6,0.2,1,0.4c0.2,0.1,0.4,0.2,0.5,0.3h-0.8c-0.6-0.6-1.7-0.3-2-0.3c-0.3,0.1-0.5,0-0.5,0C78.1,4.8,78.4,4.7,78.7,4.7
	L78.7,4.7z M80.8,4.7c0.2,0.1,0.5,0.1,0.5,0.1c0,0.2,0,0.4,0.1,0.6h0.7c0-0.1,0.1-0.1,0.1-0.1s0-0.1-0.4,0.1C81.4,5.5,81.6,5,81.6,5
	c0-0.1,0.1-0.2,0.1-0.3H80.8L80.8,4.7z M76.6,5.3c-0.1-0.1-0.2-0.3-0.2-0.4c0,0-0.7,0.3-1.2,0.2c0,0,0.1,0.1,0.2,0.2H76.6z
	 M79.9,8.4c0,0-0.1,0.1-0.3,0.3l-1.6,0c0.1-0.2,0.4-0.4,0.7-0.4C79.4,8.4,79.9,8.4,79.9,8.4L79.9,8.4z M75.4,5.3h1.2
	c0.3,0.4,0.7,0.6,0.7,0.6s0,0.1,0,0.4C77.1,6.7,76.9,7,76.8,7c0,0-0.1,0-0.1-0.1c0-0.2-0.1-0.5-0.1-0.5l-0.1-0.2c0,0-0.8,0.3-1,0.4
	c-0.2,0.1-0.2,0-0.2,0l0.7-1l-0.1-0.1C75.7,5.5,75.5,5.5,75.4,5.3L75.4,5.3z M76.9,5.3c0.1,0.1,0.1,0.1,0.2,0.2
	c0.3,0.2,0.6,0.3,0.8,0.2c0.2-0.1,0.4-0.4,0.4-0.4s-0.3,0-0.7,0H76.9L76.9,5.3z M80.3,5.3C80.3,5.4,80.3,5.4,80.3,5.3l0,0.8
	c0,0,0.3-0.1,0.3-0.3c0-0.2,0.5-0.1,0.5,0.4c0,0.5,0,1.5-1.1,1.6c-1.1,0.2-1.7-0.6-1.6-1.2c0.1-0.6,0.5-0.7,0.7-0.5
	c0.2,0.1,0.6,0.6,0.3,0.6c-0.3,0-0.2-0.1-0.4-0.3c-0.2-0.1-0.2,0.4-0.2,0.4L79.2,7l0.2,0.4c0,0,0.1-0.3,0.3-0.3c0.1,0,0.4,0,0.4,0.2
	l0.1-0.2c0,0,0.6,0,0.6-0.3c0-0.3-0.1-0.3-0.1-0.3S80.5,7,80.4,6.7c-0.1-0.3-0.6-1.3-1.1-1.3c-0.5,0-1,1-1.3,1.1
	c-0.2,0.2-0.5,0.4-0.5,0.4L78.1,7c0,0,0.5,1.3,1.4,1.3c0.9-0.1,1.4-0.4,1.4-0.4s0,0.5,0.3,0.8l0.5,0c-0.1-0.2-0.1-0.5-0.1-1.1
	c0.2-1.1,0.1-1.8-0.5-2.3H80.3L80.3,5.3z M81.3,5.3h0.7c-0.1,0.1-0.3,0.3-0.4,0.3C81.5,5.6,81.4,5.5,81.3,5.3L81.3,5.3z M80.3,8.7
	l-0.1,0c0.1-0.2,0.2-0.3,0.2-0.3S80.4,8.6,80.3,8.7z M79.7,8.7c-0.1,0.2-0.3,0.4-0.5,0.6H78c0-0.1,0-0.2,0-0.4c0-0.1,0-0.1,0-0.2
	L79.7,8.7L79.7,8.7z M80.2,8.7l0.1,0c0,0.1,0,0.1-0.1,0.2C80.2,9,80.1,9.2,80,9.3h-0.3c0,0,0,0,0,0C79.9,9.1,80.1,8.9,80.2,8.7
	L80.2,8.7z M81.2,8.7l0.5,0C81.9,9,82.1,9,82.1,9s0.1,0.1-0.5,0C81.4,9,81.3,8.9,81.2,8.7L81.2,8.7z M80.7,9.3h-0.3
	c0.1-0.2,0.3-0.5,0.3-0.5S80.6,9.1,80.7,9.3z M79.2,9.3c-0.1,0.2-0.2,0.4-0.3,0.5c0,0-0.3,0-0.3-0.3c0,0-0.2,0.1-0.4,0.6
	c0,0-0.2-0.3-0.2-0.6c0-0.1,0-0.2,0-0.3H79.2L79.2,9.3z M79.7,9.3H80c-0.1,0.2-0.2,0.3-0.2,0.5c0,0.3-0.1,0.9,0.4,1.5
	c0.3,0.4,0.7,0.4,0.7,0.4c0.7,0,1-0.5,0.9-0.9c-0.1-0.5-0.8-0.2-0.8-0.2l0,0.2c0,0.3,0.4,0.4,0.4,0.4s-0.3,0-0.4-0.1
	c-0.2-0.1-0.6-0.5-0.6-0.7c0-0.1,0.4-0.4,0.4-0.4s-0.2-0.2-0.2-0.5c0-0.1,0-0.1,0-0.2h0.3c0,0.1,0.1,0.1,0.2,0.1
	c0.3,0.1,0.5,0.1,0.8,0.4c0.3,0.3,0.6,1,0.2,1.6c-0.1,0.2-0.3,0.4-0.4,0.4c-0.2,0.1-0.6,0.2-1.1,0c-0.2-0.1-0.3-0.3-0.5-0.5
	c-0.1-0.2-0.3-0.6-0.4-0.8c-0.1-0.3-0.2-0.5-0.2-0.6C79.4,9.9,79.4,9.7,79.7,9.3z M18.7,13.3h-0.3v74h0.3V13.3z M81.1,13.3h-0.3v74
	h0.3V13.3z M69.5,98.7H30.2V99h39.2V98.7z M69.5,0.7H30.2v0.2h39.2V0.7z"/>
</svg>
