<?xml version="1.0" encoding="utf-8"?>
<!-- Generator: Adobe Illustrator 19.2.1, SVG Export Plug-In . SVG Version: 6.00 Build 0)  -->
<svg version="1.2" baseProfile="tiny" id="图层_1"
	 xmlns="http://www.w3.org/2000/svg" xmlns:xlink="http://www.w3.org/1999/xlink" x="0px" y="0px" viewBox="0 0 100 100"
	 xml:space="preserve">
<path fill="#E53A35" d="M80.5,0.5c0,0-0.7-0.2-1.3,0.7h1.1c0,0,0-0.1,0.1-0.1C80.5,0.8,80.5,0.5,80.5,0.5L80.5,0.5z M79.2,1.2
	l-0.1-0.7c0,0-0.4,0-0.5,0.7H79.2L79.2,1.2z M78.2,1.2h-0.3c0-0.1-0.1-0.2-0.1-0.2c-0.3-0.4-1.2-0.7-1.3-0.1c0,0,0,0.4,0.1,0.2
	C76.8,1,77,0.9,77,0.9s0,0.1,0,0.3h-0.7c0,0,0-0.1,0-0.1l0-0.2c0,0-0.7,0.2-0.8-0.2c-0.1-0.4,0.3-0.7,0.3-0.7s-0.2,0.5,0,0.5
	c0.2,0,0.3,0,0.5-0.2c0.2-0.2,1-0.3,1.3-0.2C77.7,0.3,78.1,0.6,78.2,1.2L78.2,1.2z M75.7,1.2c-0.5-0.7-1.2-0.9-2.4-0.7
	C72,0.7,72,0,72,0s-0.1-0.1,0,0.5c0.1,0.5,0.7,0.6,1,0.7h0.7C74,1,74.5,1,74.7,1c0.2,0,0.3,0.1,0.4,0.2H75.7L75.7,1.2z M71.6,1.2
	l-1,0c0-0.2,0.1-0.7-0.3-0.8c-0.4-0.1-0.9,0.1-0.9,0.8h-0.9l0-0.3h-11v0c0,0-0.1,0-0.1,0c-0.3,0.1-0.8,0.1-1.1,0.1
	c-0.3,0-0.6-0.1-0.9-0.3c-0.3-0.1-0.9-0.1-0.9-0.1s0.1,0.2,0.8,0.5h-0.8c-0.1-0.2,0-0.3-0.1-0.3c-0.1-0.1-0.5,0.1-0.7-0.1
	c-0.2-0.1-0.2-0.3-0.4-0.3c-0.2-0.1-0.4-0.2-0.4-0.2c1.6,0,2,0.2,2.3,0.3c0.3,0.2,0.7,0.1,0.8-0.1c0.1-0.2,0.3-0.2,0.3-0.2
	c0.3,0.1-0.2,0.5-0.2,0.5c0.6,0.2,0.6-0.3,0.6-0.3s0.1-0.3,0.2-0.1c0.2,0.1,0,0.5,0,0.5c0.5,0.2,0.4-0.3,0.6-0.4
	c0.1-0.1,0.3-0.1,0.3,0c0,0,0,0.1,0,0.2h10.7V0.3c0-0.1,0.1-0.2,0.2-0.2l0.2,0c0.1,0,0.2,0.1,0.2,0.2l0,0.6c0.1-0.2,0.2-0.4,0.5-0.6
	c0.6-0.4,1.3-0.1,1.6,0.2C71.5,0.7,71.5,0.9,71.6,1.2L71.6,1.2z M70.1,1.2C70,1.1,70,0.9,70,0.9s0,0.1,0,0.3H70.1L70.1,1.2z
	 M52.4,1.2h-0.6c0-0.3-0.1-0.7-0.1-0.7s0.3,0,0.5,0.1c0.2,0.1,0.4,0.2,0.5,0.3C52.7,1.1,52.5,1.1,52.4,1.2L52.4,1.2z M51.3,1.2h-0.5
	c0-0.1,0-0.1,0-0.1s-0.4,0-0.4,0.1h-0.1c0.1,0,0.1-0.2,0.1-0.2s-0.1-0.1-0.2,0c-0.1,0.1-0.1,0.2,0,0.2H50C49.9,1,49.6,1,49.6,1.1
	c0,0,0,0,0,0.1h-0.2c-0.1,0-0.2,0-0.3,0c0,0,0,0,0,0h-0.3C49,0.9,49.5,0.8,50,0.8C50.6,0.8,51.1,0.9,51.3,1.2L51.3,1.2z M48.4,1.2
	h-0.6c-0.1-0.1-0.3-0.1-0.2-0.3c0.1-0.1,0.3-0.2,0.5-0.3c0.2-0.1,0.4-0.1,0.4-0.1S48.4,0.9,48.4,1.2L48.4,1.2z M45.7,1.2h-0.9
	c0.7-0.3,0.9-0.5,0.9-0.5s-0.6,0-0.9,0.1c-0.3,0.1-0.7,0.3-0.9,0.3c-0.3,0-0.8,0-1.1-0.1c-0.1,0-0.2-0.1-0.2-0.2v0.1h-11l0,0.3h-0.9
	c-0.1-0.7-0.5-0.9-0.9-0.8c-0.4,0.1-0.3,0.6-0.2,0.8h-1c0.1-0.3,0.1-0.5,0.4-0.7c0.3-0.3,0.9-0.6,1.6-0.2c0.3,0.2,0.5,0.4,0.5,0.6
	V0.3c0-0.1,0.1-0.2,0.2-0.2l0.2,0c0.1,0,0.2,0.1,0.2,0.2l0,0.4h10.9c0-0.1,0-0.1,0-0.2c0-0.1,0.2-0.1,0.3,0c0.1,0.1,0.1,0.5,0.6,0.4
	c0,0-0.2-0.3,0-0.5c0.2-0.2,0.3,0.1,0.3,0.1s0,0.5,0.6,0.3c0,0-0.4-0.3-0.2-0.5c0,0,0.2,0,0.3,0.2c0.1,0.2,0.5,0.3,0.8,0.1
	c0.3-0.2,0.7-0.3,2.3-0.3c0,0-0.2,0.1-0.4,0.2c-0.2,0.1-0.2,0.2-0.4,0.3c-0.2,0.1-0.5,0-0.7,0.1C45.7,0.9,45.8,1.1,45.7,1.2
	L45.7,1.2z M30,1.2c0-0.1,0-0.3,0-0.3s0,0.2-0.1,0.3H30L30,1.2z M27,1.2h-0.6C26,1,25.5,1,25.3,1c-0.2,0-0.3,0.1-0.4,0.2h-0.6
	c0.5-0.7,1.2-0.9,2.4-0.7C28,0.7,28,0,28,0s0.1-0.1,0,0.5C27.9,1,27.3,1.2,27,1.2L27,1.2z M23.8,1.2C23.8,1.2,23.8,1.1,23.8,1.2
	l0-0.3c0,0,0.7,0.2,0.8-0.2c0.1-0.4-0.3-0.7-0.3-0.7s0.2,0.5,0,0.5c-0.2,0-0.3,0-0.5-0.2c-0.2-0.2-1-0.3-1.3-0.2
	c-0.2,0.1-0.6,0.3-0.8,0.9h0.3c0-0.1,0.1-0.2,0.1-0.2c0.3-0.4,1.2-0.7,1.3-0.1c0,0,0,0.4-0.1,0.2C23.2,1,23,0.9,23,0.9s0,0.1,0,0.3
	H23.8L23.8,1.2z M21.4,1.2h-0.6l0.1-0.7C20.9,0.5,21.2,0.5,21.4,1.2L21.4,1.2z M20.7,1.2h-1.1c0,0,0-0.1-0.1-0.1
	c-0.1-0.3-0.1-0.6-0.1-0.6S20.1,0.3,20.7,1.2L20.7,1.2z M51.4,0.6c0,0-0.3-0.1-0.3,0.1c0,0.2,0.3,0.1,0.3,0.1V0.6L51.4,0.6z
	 M48.9,0.6v0.2c0,0,0.3,0.1,0.3-0.1C49.2,0.5,48.9,0.6,48.9,0.6z M79.3,1.2c0,0,0,0.1,0,0.1L79.3,1.2h-0.7c0,0.1,0,0.2,0,0.3h1.7
	c0.1-0.1,0.1-0.2,0.2-0.3H79.3L79.3,1.2z M19.6,1.2h1.1c0,0,0,0.1,0,0.1l0-0.1h0.6c0,0.1,0,0.2,0,0.3h-1.7
	C19.8,1.4,19.7,1.3,19.6,1.2L19.6,1.2z M21.8,1.2h0.3c0,0.1,0,0.2-0.1,0.3h-0.3C21.7,1.4,21.8,1.3,21.8,1.2L21.8,1.2z M23.1,1.2h0.8
	c0,0.2-0.2,0.3-0.5,0.2C23.1,1.4,23.1,1.3,23.1,1.2L23.1,1.2z M24.3,1.2h0.6c0,0.1,0,0.2,0,0.3h-0.8C24.1,1.4,24.2,1.3,24.3,1.2
	L24.3,1.2z M26.4,1.2H27c-0.1,0-0.1,0-0.1,0s0.1,0.1,0.1,0.3h-0.3C26.6,1.4,26.5,1.3,26.4,1.2L26.4,1.2z M28.4,1.2h1
	c0,0.1,0,0.1,0,0.1l0.2,0c0.1,0,0.2,0,0.2-0.1H30c0,0.1,0,0.1,0,0.1c0,0,0,0.1-0.1,0.1l-2,0c0,0,0,0,0,0S28.3,1.6,28.4,1.2
	C28.4,1.3,28.4,1.2,28.4,1.2L28.4,1.2z M30.6,1.2h0.9v0.2h11v0.1H30.6c0-0.1,0-0.2,0-0.2C30.6,1.3,30.6,1.3,30.6,1.2L30.6,1.2z
	 M44.8,1.2h0.9c0,0.1-0.1,0.1-0.2,0.2c-0.1,0-0.1,0.1-0.2,0.1l-0.4,0c0,0,0-0.1,0-0.1c0,0-0.1,0-0.1,0.1h-0.7
	C44.4,1.4,44.7,1.3,44.8,1.2L44.8,1.2z M47.8,1.2h0.6c0,0.1,0,0.1,0,0.2c0,0,0,0.1,0,0.1h-0.2C48.1,1.3,47.9,1.3,47.8,1.2
	C47.8,1.2,47.8,1.2,47.8,1.2L47.8,1.2z M48.8,1.2h0.3c-0.1,0.1,0.1,0.2,0.1,0.3h-0.5C48.7,1.4,48.7,1.3,48.8,1.2L48.8,1.2z
	 M49.4,1.2h0.2c0.1,0.1,0.2,0.1,0.2,0.1s-0.1,0.1-0.1,0.1l-0.3,0c0,0,0-0.1,0-0.1C49.5,1.3,49.5,1.2,49.4,1.2L49.4,1.2z M50,1.2h0.2
	c0,0,0,0,0.1,0c0,0,0,0,0.1,0h0.1c0,0,0,0,0,0c0,0.2,0.2,0.1,0.3,0.1c0.1,0,0.1,0,0.1-0.1h0.5c0,0.1,0.1,0.2,0.1,0.3l-0.3,0
	c0,0-0.2-0.1-0.3-0.1c-0.1,0-0.2,0-0.3,0.1h-0.2c0,0,0-0.1,0-0.1C50.2,1.3,50,1.3,50,1.2C50,1.3,50,1.2,50,1.2L50,1.2z M51.8,1.2
	h0.6c0,0,0,0,0,0c-0.1,0.1-0.3,0.1-0.3,0.3l-0.2,0c0,0,0-0.1,0-0.1C51.8,1.3,51.8,1.3,51.8,1.2L51.8,1.2z M54.5,1.2h0.8
	c0.2,0.1,0.4,0.2,0.7,0.3h-0.7c-0.1-0.1-0.1-0.1-0.1-0.1c0,0,0,0.1,0,0.1h-0.4c0,0-0.1-0.1-0.2-0.1C54.5,1.3,54.5,1.3,54.5,1.2
	L54.5,1.2z M68.5,1.2h0.9c0,0,0,0.1,0,0.1c0,0,0,0.1,0,0.2l-11.9,0c0,0,0-0.1,0-0.1s0,0,0,0l11,0V1.2L68.5,1.2z M70,1.2h0.1
	c0,0.1,0.1,0.1,0.2,0.1l0.2,0c0,0,0,0,0-0.1l1,0c0,0,0,0.1,0,0.1c0.1,0.3,0.6,0.1,0.6,0.1s0,0-0.1,0l-2,0c0,0-0.1-0.1-0.1-0.1
	C70,1.3,70,1.3,70,1.2L70,1.2z M73,1.2h0.7c-0.1,0.1-0.2,0.2-0.3,0.3l-0.4,0c0.1-0.2,0.1-0.2,0.1-0.2S73.1,1.2,73,1.2L73,1.2z
	 M75.1,1.2h0.6c0,0.1,0.1,0.2,0.2,0.3l-0.7,0C75.2,1.4,75.2,1.3,75.1,1.2L75.1,1.2z M76.2,1.2h0.7c0,0.1-0.1,0.2-0.2,0.2
	C76.4,1.5,76.2,1.4,76.2,1.2L76.2,1.2z M77.9,1.2h0.3c0,0.1,0,0.2,0.1,0.3H78C78,1.4,78,1.3,77.9,1.2L77.9,1.2z M77.5,1.5l-0.5,0
	c0.2-0.2,0.4-0.3,0.7-0.3C77.8,1.2,77.6,1.3,77.5,1.5L77.5,1.5z M74.3,1.5h-0.3c0-0.1,0.1-0.2,0.2-0.2c0.3,0,0.3,0.1,0.3,0.1
	S74.4,1.4,74.3,1.5L74.3,1.5z M53.8,1.5h-0.6c0.1-0.1,0.2-0.1,0.3-0.1C53.7,1.4,53.7,1.4,53.8,1.5L53.8,1.5z M46.9,1.5l-0.6,0
	c0.1,0,0.2-0.1,0.2-0.1C46.7,1.4,46.9,1.4,46.9,1.5L46.9,1.5z M42.7,1.5L42.7,1.5C42.6,1.4,42.6,1.4,42.7,1.5
	C42.6,1.4,42.7,1.5,42.7,1.5L42.7,1.5z M26.1,1.5l-0.4,0c-0.1-0.1-0.2-0.1-0.2-0.1s0-0.1,0.3-0.1C26,1.3,26,1.4,26.1,1.5L26.1,1.5z
	 M22.9,1.5h-0.5c-0.1-0.2-0.3-0.3-0.3-0.3C22.5,1.2,22.8,1.3,22.9,1.5z M78.5,1.5c0,0.1,0,0.3,0,0.4l2,0l-0.6-0.1
	c0,0,0.2-0.1,0.3-0.3H78.5L78.5,1.5z M19.8,1.5h1.7c0,0.1,0,0.3,0,0.4h-2l0.6-0.1C20.1,1.8,20,1.7,19.8,1.5L19.8,1.5z M21.7,1.5H22
	c0,0.1,0,0.3,0,0.4h-0.3C21.7,1.8,21.7,1.6,21.7,1.5L21.7,1.5z M22.5,1.5h0.5c0.1,0.1,0.2,0.3,0.2,0.4h-0.5
	C22.6,1.8,22.6,1.6,22.5,1.5L22.5,1.5z M24.1,1.5h0.8c0,0,0,0,0.1,0c0.2,0,0.3,0.3,0.3,0.3h-0.8c0,0,0,0-0.1,0.1h-0.4
	C23.9,1.8,24,1.7,24.1,1.5C24.1,1.5,24.1,1.5,24.1,1.5L24.1,1.5z M25.7,1.5l0.4,0c0,0.2,0,0.4,0,0.4l0.1,0.1h-0.8
	c0.1-0.1,0.2-0.1,0.3-0.2C25.9,1.7,25.8,1.6,25.7,1.5L25.7,1.5z M26.7,1.5H27c0,0.1,0.1,0.3,0.1,0.4h-0.3
	C26.8,1.7,26.7,1.6,26.7,1.5L26.7,1.5z M27.9,1.5l2,0c-0.1,0.2-0.3,0.4-0.5,0.4l-0.1,0c-0.1-0.1-0.4-0.4-0.4-0.4s-0.2,0.2-0.5,0.2
	C28.3,1.8,28,1.6,27.9,1.5L27.9,1.5z M30.6,1.5h11.9l0,0.2h-11v0.2l-0.6,0V1.7c0,0.1-0.1,0.1-0.1,0.2h-0.4
	C30.5,1.7,30.6,1.6,30.6,1.5L30.6,1.5z M42.6,1.5c-0.1,0.1-0.1,0.3,0,0.4H44c0.1-0.1,0.1-0.1,0.2-0.1c0.1,0,0.2,0,0.3,0.1h0.1
	c0-0.1,0.1-0.1,0.1-0.2c0-0.1,0.1-0.2,0.2-0.2h-0.7c0,0,0,0,0,0C43.1,1.9,42.8,1.6,42.6,1.5L42.6,1.5L42.6,1.5z M45,1.5l0.4,0
	c-0.2,0.2-0.2,0.3-0.2,0.4l-0.2,0C44.9,1.8,45,1.6,45,1.5L45,1.5z M46.3,1.5l0.6,0C47,1.6,47,1.6,47,1.7c0,0.2-0.1,0.2-0.3,0
	c-0.1-0.2-0.3-0.1-0.3,0c0,0.1,0,0.1,0,0.2h-0.4c0,0,0.1,0,0.1-0.1C46.1,1.7,46.2,1.6,46.3,1.5L46.3,1.5z M48.1,1.5h0.2
	c0,0.1,0,0.3-0.1,0.4l-0.3,0c0,0,0.1-0.1,0.1-0.2C48.1,1.6,48.1,1.5,48.1,1.5L48.1,1.5z M48.7,1.5h0.5c0,0,0,0,0,0s-0.1,0.2,0,0.3
	c0.1,0.1,0.3,0,0.3,0s0.1,0,0,0.1h-0.7C48.8,1.8,48.7,1.7,48.7,1.5C48.7,1.5,48.7,1.5,48.7,1.5L48.7,1.5z M49.5,1.5
	c0,0.1,0,0.1,0.1,0.1c0.2,0,0,0.2,0.1,0.2c0.1,0,0.2,0.1,0.2,0.1s0,0,0,0h0.2c0,0,0,0,0,0c0-0.1,0.1-0.2,0.2-0.1
	c0.1,0.1,0.2-0.2,0.4,0c0.1,0.1,0.1,0.1,0.1,0.1l0.4,0c0.1-0.1,0.2-0.2,0.2-0.4c0,0,0,0,0,0l-0.3,0c0,0,0,0,0,0s-0.1,0.2-0.4,0.1
	c-0.1,0-0.2-0.1-0.1-0.1h-0.2c0,0.1,0,0.1,0,0.1s-0.3,0.1-0.4,0c0,0,0-0.1,0-0.1L49.5,1.5L49.5,1.5z M51.8,1.5l0.2,0
	c0,0.1,0,0.1,0,0.3c0,0.1,0,0.1,0.1,0.2h-0.3C51.8,1.8,51.8,1.6,51.8,1.5L51.8,1.5z M53.2,1.5h0.6c0.1,0.1,0.2,0.2,0.3,0.4
	c0,0,0,0,0.1,0.1l-0.4,0c0-0.1,0-0.1,0-0.2c-0.1-0.1-0.2-0.2-0.4,0c-0.2,0.2-0.3,0.2-0.3,0C53.1,1.6,53.2,1.5,53.2,1.5L53.2,1.5z
	 M54.8,1.5h0.4c0,0.2,0,0.3,0,0.4H55C55,1.8,55,1.6,54.8,1.5L54.8,1.5z M55.3,1.5H56c0,0,0,0,0,0c1,0.4,1.4,0.1,1.5,0l11.9,0
	c0,0.1,0.1,0.3,0.3,0.4h-0.4c-0.1-0.1-0.1-0.1-0.1-0.2l0,0.2h-0.6V1.7H57.6c0,0.1,0,0.2,0,0.2h-1.5c-0.1-0.1-0.1-0.1-0.2-0.1
	c-0.1,0-0.2,0-0.2,0.1h-0.1c0-0.1-0.1-0.1-0.1-0.2C55.4,1.6,55.4,1.6,55.3,1.5L55.3,1.5z M70.1,1.5l2,0c-0.1,0.1-0.4,0.3-0.6,0.3
	c-0.3-0.1-0.5-0.2-0.5-0.2s-0.2,0.3-0.4,0.4h-0.1C70.5,1.8,70.2,1.6,70.1,1.5L70.1,1.5z M73,1.5l0.4,0c-0.1,0.1-0.2,0.3-0.2,0.4
	l-0.3,0C72.9,1.7,73,1.6,73,1.5L73,1.5z M73.9,1.5h0.3c-0.1,0.1-0.2,0.2,0,0.3c0.1,0,0.2,0.1,0.3,0.2l-0.8,0l0.1-0.1
	C73.9,1.8,73.9,1.7,73.9,1.5L73.9,1.5z M75.1,1.5l0.7,0c0,0,0,0,0,0.1c0.1,0.1,0.1,0.2,0.2,0.4h-0.4c0,0,0,0-0.1-0.1h-0.8
	C74.8,1.8,74.9,1.5,75.1,1.5C75.1,1.5,75.1,1.5,75.1,1.5L75.1,1.5z M77.1,1.5l0.5,0c-0.1,0.1-0.2,0.3-0.2,0.4h-0.5
	C76.9,1.8,77,1.6,77.1,1.5L77.1,1.5z M78,1.5h0.3c0,0.1,0,0.3,0,0.4l-0.3,0C78,1.8,78,1.6,78,1.5L78,1.5z M72.4,1.9h-0.2
	c0,0,0,0,0,0c0.2-0.1,0.5-0.1,0.5-0.1S72.5,1.8,72.4,1.9L72.4,1.9z M50.4,1.9L50.4,1.9C50.4,1.9,50.4,1.9,50.4,1.9
	C50.4,1.9,50.4,1.9,50.4,1.9L50.4,1.9z M27.9,1.9l-0.3,0c-0.1-0.1-0.2-0.2-0.2-0.2S27.7,1.8,27.9,1.9C27.9,1.9,27.9,1.9,27.9,1.9z
	 M78.5,1.9c0,0.1,0,0.3,0,0.5c0,0,0.2,0.1,0.4,0.1h0.7c0.3-0.1,0.7-0.2,1-0.6l-0.1,0L78.5,1.9L78.5,1.9z M19.5,1.9h2
	c0,0.1,0,0.3,0,0.5c0,0-0.2,0.1-0.4,0.1l-0.7,0C20.1,2.4,19.7,2.3,19.5,1.9L19.5,1.9L19.5,1.9z M21.7,1.9H22c0,0.2,0,0.4,0,0.6h-0.2
	C21.7,2.3,21.7,2.1,21.7,1.9L21.7,1.9z M22.7,1.9h0.5c0,0.1,0,0.2,0.1,0.3c0,0.1,0,0.2,0.1,0.3h-1c0.1-0.2,0.2-0.2,0.3-0.4
	C22.6,2,22.7,2,22.7,1.9L22.7,1.9z M23.9,1.9h0.4c-0.2,0.2-0.3,0.4-0.3,0.6h-0.3C23.8,2.3,23.8,2.1,23.9,1.9L23.9,1.9z M25.4,1.9
	h0.8L26.3,2c-0.2,0-0.2,0.3-0.2,0.5c0,0,0,0,0,0.1l-1.5,0C24.8,2.3,25.1,2.1,25.4,1.9L25.4,1.9z M26.8,1.9h0.3
	c0,0.2,0.1,0.4,0.1,0.6l-0.3,0c0-0.1,0-0.3,0-0.4C26.9,2,26.8,2,26.8,1.9L26.8,1.9z M27.6,1.9l0.3,0c0.3,0.2,0.6,0.4,0.9,0.5
	c0.3,0,0.9,0.1,1.5-0.4c0,0,0.1-0.1,0.1-0.1h0.4c-0.1,0.1-0.2,0.2-0.4,0.3c-0.1,0.1-0.3,0.2-0.5,0.3h-1.5c0,0-0.1-0.1-0.1-0.1
	C28.1,2.2,27.8,2,27.6,1.9L27.6,1.9z M29.3,1.9C29.3,1.9,29.3,1.9,29.3,1.9c0.1,0,0.1,0,0.1,0L29.3,1.9L29.3,1.9z M30.9,1.9l0.6,0
	v0.2c0,0.1-0.1,0.2-0.2,0.2h-0.2c-0.1,0-0.2-0.1-0.2-0.2V1.9L30.9,1.9z M42.6,1.9H44c-0.2,0.1-0.4,0.4-0.5,0.4
	c-0.2,0,0.3-0.4,0.1-0.4C43.3,1.9,42.8,2.1,42.6,1.9C42.6,1.9,42.6,1.9,42.6,1.9L42.6,1.9z M44.5,1.9h0.1C44.6,2,44.5,2,44.5,1.9
	C44.5,2,44.5,2,44.5,1.9L44.5,1.9z M45,1.9l0.2,0C45.1,2,45.1,2,45,1.9C45,2,45,1.9,45,1.9L45,1.9z M45.9,1.9h0.4
	c0,0.3,0.3,0.4,0.9,0.4c0.3,0,0.5-0.1,0.7-0.1c0,0,0,0,0,0C47.4,2.3,47.5,2,47.5,2s0.3,0.1,0.5-0.1l0.3,0c0,0,0,0.1-0.1,0.1
	c0,0,0.1,0,0.1,0c0.2,0,0.2,0.2,0,0.3c-0.1,0.1-0.3,0.2-0.6,0.2l-1,0c-0.3-0.1-0.5-0.3-0.5-0.5c-0.1,0.1-0.1,0.2-0.4,0.3
	c-0.4,0.1-0.4-0.2-0.4-0.2s0-0.2,0.2-0.1C45.7,2.1,45.8,2,45.9,1.9L45.9,1.9z M48.9,1.9h0.7c0,0,0,0,0,0c-0.1,0.2,0.2,0.2,0.3,0.1
	C50.1,2,50,2,50,1.9h0.2c0,0.1,0,0.1,0.2,0.2c0.1,0,0.1-0.1,0-0.2h0c0.1,0.1,0.3,0,0.3,0s0.1,0,0.1,0l0.4,0C51,2.1,50.6,2.3,50,2.3
	C49.5,2.3,49.1,2.1,48.9,1.9L48.9,1.9z M51.9,1.9h0.3c0.2,0.2,0.5,0.1,0.5,0.1s0.1,0.2-0.4,0.1h0c0.2,0.1,0.4,0.1,0.7,0.1
	c0.5,0,0.9,0,0.9-0.4l0.4,0C54.4,2,54.5,2.1,54.6,2c0.1-0.1,0.2,0.1,0.2,0.1s0,0.4-0.4,0.2C54,2.2,54,2.2,54,2
	c-0.1,0.2-0.2,0.4-0.5,0.5h-1c-0.3-0.1-0.5-0.2-0.6-0.2C51.6,2.2,51.7,2,51.9,1.9C51.9,2,51.9,2,52,2C51.9,2,51.9,2,51.9,1.9
	L51.9,1.9z M55,1.9h0.2C55.2,1.9,55.2,2,55,1.9C55.1,2,55.1,2,55,1.9L55,1.9z M55.6,1.9h0.1C55.7,2,55.6,2,55.6,1.9
	C55.6,2,55.6,2,55.6,1.9L55.6,1.9z M56.1,1.9h1.5c0,0,0,0,0,0c-0.2,0.1-0.7,0-0.9,0c-0.2,0,0.2,0.4,0.1,0.4
	C56.6,2.3,56.3,2.1,56.1,1.9L56.1,1.9z M68.5,1.9h0.6v0.2c0,0.1-0.1,0.2-0.2,0.2h-0.2c-0.1,0-0.2-0.1-0.2-0.2L68.5,1.9L68.5,1.9z
	 M69.2,1.9h0.4c0,0,0.1,0.1,0.1,0.1c0.6,0.5,1.2,0.4,1.5,0.4c0.3-0.1,0.6-0.3,0.9-0.5h0.2c-0.2,0.1-0.4,0.3-0.6,0.5
	c0,0-0.1,0.1-0.1,0.1h-1.5c-0.2-0.1-0.4-0.2-0.5-0.3C69.5,2.1,69.3,2,69.2,1.9L69.2,1.9z M70.6,1.9C70.6,1.9,70.6,1.9,70.6,1.9
	c0.1,0,0.1,0,0.1,0H70.6L70.6,1.9z M72.9,1.9l0.3,0c0,0.1,0,0.1,0,0.2c0,0.1,0,0.3,0,0.4h-0.3C72.8,2.3,72.8,2.1,72.9,1.9L72.9,1.9z
	 M73.8,1.9l0.8,0c0.3,0.1,0.6,0.4,0.8,0.6h-1.5c0,0,0,0,0-0.1c0-0.1,0-0.4-0.2-0.5L73.8,1.9L73.8,1.9z M75.7,1.9h0.4
	c0.1,0.2,0.1,0.4,0.2,0.6l-0.3,0C75.9,2.3,75.8,2.1,75.7,1.9L75.7,1.9z M76.8,1.9h0.5c0,0,0,0.1,0,0.2c0.1,0.2,0.3,0.3,0.3,0.4h-1
	c0-0.1,0-0.2,0.1-0.3C76.8,2.1,76.8,2,76.8,1.9L76.8,1.9z M78,1.9l0.3,0c0,0.2,0,0.4,0,0.6H78C78,2.3,78,2.1,78,1.9L78,1.9z
	 M72.6,2.5c0-0.2,0-0.3,0-0.3s-0.1,0.1-0.3,0.3L72.6,2.5L72.6,2.5z M51.2,2.5c0.1,0,0.1,0,0.1,0V2.3c0,0-0.3-0.1-0.3,0.1
	c0,0.1,0.1,0.1,0.1,0.1H51.2L51.2,2.5z M49.1,2.5c0.1,0,0.1,0,0.1-0.1c0-0.2-0.3-0.1-0.3-0.1l0,0.2c0,0,0,0,0.1,0H49.1L49.1,2.5z
	 M27.7,2.5c-0.2-0.2-0.3-0.3-0.3-0.3s0,0.1,0,0.3H27.7z M78.9,2.5c0.2,0,0.4,0,0.7,0H78.9L78.9,2.5z M20.4,2.5l0.7,0
	C20.9,2.5,20.7,2.6,20.4,2.5L20.4,2.5z M21.7,2.5C21.8,2.5,21.8,2.5,21.7,2.5c0,0-1.3,0-2,0.3c-0.2,0.1-0.3,0.2-0.4,0.4l0.5,0
	C20.2,2.9,20.8,2.7,22,3c0,0,0-0.2,0-0.5H21.7L21.7,2.5z M22.3,2.5h1c0,0.2,0,0.4,0,0.7l-0.9,0C22.3,2.8,22.3,2.6,22.3,2.5L22.3,2.5
	z M23.7,2.5H24c0,0.2,0,0.5,0,0.7h-0.3C23.6,3,23.7,2.7,23.7,2.5L23.7,2.5z M24.6,2.5l1.5,0c0.1,0.1,0.3,0.2,0.3,0.2L26,2.9
	l-0.1,0.3l-0.5,0c0,0,0,0,0-0.1c0.1-0.2,0.3,0,0.3-0.4c0-0.3-0.4,0-0.6,0.2c0,0.1,0,0.1,0,0.2h-0.6c0-0.1-0.1-0.2-0.1-0.3
	C24.4,2.8,24.5,2.6,24.6,2.5L24.6,2.5z M26.9,2.5l0.3,0c0,0,0,0.1,0,0.1c0,0.2,0,0.4-0.1,0.5h-0.4C26.8,3,26.9,2.8,26.9,2.5
	L26.9,2.5z M27.4,2.5h0.3c0.2,0.2,0.6,0.5,0.9,0.7h-1.2C27.4,2.9,27.4,2.7,27.4,2.5L27.4,2.5z M28.4,2.5c0.3,0.2,0.5,0.3,0.6,0.3
	c0.1,0,0.3-0.1,0.6-0.2c0.1,0,0.2-0.1,0.3-0.1H28.4L28.4,2.5z M46.7,2.5l1,0c-0.2,0-0.5,0.1-0.8,0C46.9,2.5,46.8,2.5,46.7,2.5
	L46.7,2.5z M49,2.5h0.1C49.1,2.5,49,2.5,49,2.5L49,2.5z M51.1,2.5h0.1C51.2,2.5,51.2,2.5,51.1,2.5L51.1,2.5z M52.4,2.5h1
	c-0.1,0-0.2,0-0.2,0C52.9,2.6,52.6,2.6,52.4,2.5L52.4,2.5z M70.2,2.5h1.5c-0.3,0.2-0.5,0.3-0.6,0.3c-0.1,0-0.3-0.1-0.6-0.2
	C70.3,2.6,70.3,2.5,70.2,2.5L70.2,2.5z M72.3,2.5c-0.2,0.2-0.6,0.5-0.9,0.7h1.2c0-0.3,0-0.5,0-0.7L72.3,2.5L72.3,2.5z M72.8,2.5h0.3
	c0,0.3,0.1,0.5,0.2,0.7h-0.4c-0.1-0.2-0.1-0.3-0.1-0.5C72.8,2.6,72.8,2.6,72.8,2.5L72.8,2.5z M73.9,2.5h1.5c0.1,0.1,0.2,0.3,0.2,0.4
	c0,0.1,0,0.2-0.1,0.3l-0.6,0c0-0.1,0-0.1,0-0.2c-0.1-0.2-0.6-0.6-0.6-0.2c0,0.3,0.1,0.2,0.3,0.4c0,0,0,0,0,0.1h-0.5L74,2.9l-0.4-0.2
	C73.6,2.7,73.8,2.6,73.9,2.5L73.9,2.5z M76,2.5l0.3,0c0,0.2,0.1,0.5,0,0.7l-0.3,0C76,3,76,2.7,76,2.5L76,2.5z M76.7,2.5h1
	c0,0.1,0,0.3-0.2,0.7h-0.9C76.6,2.9,76.6,2.8,76.7,2.5L76.7,2.5z M78,2.5h0.2c0,0,0,0,0,0c0,0,1.4-0.1,2,0.3
	c0.2,0.1,0.3,0.2,0.4,0.4h-0.5C79.8,2.9,79.2,2.7,78,3C78,3,78,2.8,78,2.5L78,2.5z M79.7,3.2L79.7,3.2L79.7,3.2L79.7,3.2L79.7,3.2z
	 M78.4,3.2c-0.1,0-0.2,0-0.2,0H78.4L78.4,3.2z M21.8,3.2h-0.2C21.7,3.2,21.8,3.2,21.8,3.2L21.8,3.2z M20.3,3.2L20.3,3.2L20.3,3.2
	L20.3,3.2z M19.4,3.2l0.5,0c-0.2,0.3-0.3,0.6-0.3,0.8c0,0.2,0.1,0.4,0.2,0.5h-0.3C19.3,3.9,19.3,3.5,19.4,3.2L19.4,3.2z M20.3,3.2
	L20.3,3.2c0,0,0.1,0.1,0.3,0.3c0.2,0.2,0.6,0.1,0.7-0.1c0.1-0.1,0.2-0.2,0.3-0.2h0.2c0.1,0,0.1,0,0.2,0c0.3,0.1,0.5,0.1,0.5,0.1
	c0,0,0-0.1,0-0.1l0.9,0c0,0.1,0,0.2,0,0.4c0,0.3,0.1,0.6,0.2,0.8h-0.4c-0.1,0-0.2,0-0.3,0c-0.5,0-1.2,0.1-2-0.2
	C20.2,3.8,20.3,3.3,20.3,3.2L20.3,3.2z M23.7,3.2H24c0,0.3,0.1,0.6,0.1,0.7c0,0.2,0,0.4,0,0.5h0C23.8,4,23.7,3.6,23.7,3.2L23.7,3.2z
	 M24.5,3.2h0.6c0,0.2,0.2,0.4,0.6,0.5c0.3,0.1,0.8-0.1,1-0.5h0.4C26.8,3.8,26,4.1,26,4.1l0,0.3h-0.2c0-0.1-0.1-0.2-0.2-0.2
	C25.4,4,24.7,3.6,24.5,3.2L24.5,3.2z M25.5,3.2c0,0.1,0.4,0.1,0.4,0.1l0-0.1L25.5,3.2L25.5,3.2z M27.4,3.2h1.2
	c0.1,0,0.2,0.1,0.2,0.1c0,0,0,0.3-0.2,0.3c0,0,0.1,0.2,0.6,0.4c0,0-0.3,0.2-0.6,0.2c-0.3,0-0.4,0-0.7,0c-0.3,0-0.7-0.3-0.6-0.8
	C27.4,3.3,27.4,3.3,27.4,3.2L27.4,3.2z M71.4,3.2h1.2c0,0.1,0,0.1,0,0.2c0.1,0.5-0.3,0.8-0.6,0.8c-0.3-0.1-0.4-0.1-0.7,0
	c-0.3,0-0.6-0.2-0.6-0.2c0.5-0.2,0.6-0.4,0.6-0.4c-0.2,0-0.2-0.3-0.2-0.3C71.3,3.3,71.3,3.2,71.4,3.2L71.4,3.2z M72.9,3.2h0.4
	c0.2,0.4,0.7,0.6,1,0.5c0.4-0.1,0.6-0.3,0.6-0.5l0.6,0c-0.2,0.4-0.9,0.8-1,1c-0.1,0.1-0.1,0.2-0.2,0.2l-0.2,0l0-0.3
	C74,4.1,73.2,3.8,72.9,3.2L72.9,3.2z M74.1,3.2l0,0.1c0,0,0.4,0,0.4-0.1H74.1L74.1,3.2z M76,3.2l0.3,0c0,0.4-0.2,0.8-0.4,1.2h0
	c0-0.1-0.1-0.3,0-0.5C75.9,3.8,76,3.5,76,3.2L76,3.2z M76.6,3.2h0.9c0,0,0,0.1,0,0.1c0,0,0.2,0,0.5-0.1c0.1,0,0.1,0,0.2,0h0.2
	c0.1,0,0.3,0.1,0.3,0.2c0.1,0.2,0.5,0.3,0.7,0.1c0.1-0.2,0.2-0.3,0.3-0.3h0c0,0.1,0.1,0.6-0.6,0.9c-0.7,0.4-1.5,0.2-1.9,0.2
	c-0.1,0-0.2,0-0.3,0h-0.4c0.1-0.2,0.3-0.5,0.3-0.8C76.7,3.4,76.7,3.3,76.6,3.2L76.6,3.2z M80.1,3.2h0.5c0.1,0.3,0.1,0.7-0.1,1.2
	l-0.3,0c0.1-0.1,0.2-0.2,0.2-0.5C80.4,3.8,80.4,3.4,80.1,3.2L80.1,3.2z M79.7,4.4c0-0.2,0.3-0.6,0.3-0.6c-0.2,0.1-0.5,0.3-0.5,0.6
	L79.7,4.4L79.7,4.4z M75.5,4.4c0-0.2,0-0.3,0-0.4c0,0-0.4-0.1-0.5,0.3c0,0,0,0.1,0,0.1L75.5,4.4L75.5,4.4z M24.9,4.4
	c0,0,0-0.1,0-0.1C24.8,3.9,24.5,4,24.5,4c0,0.1,0,0.2,0,0.4H24.9L24.9,4.4z M20.5,4.4c0-0.3-0.2-0.5-0.5-0.6c0,0,0.3,0.4,0.3,0.6
	H20.5z M19.5,4.4h0.3c0.1,0.1,0.3,0.1,0.5,0.1c0.1,0,0.1,0,0.1-0.1h0.2c0,0,0,0,0,0.1c0,0.1,0,0.1-0.1,0.2l-0.9,0
	C19.5,4.6,19.5,4.5,19.5,4.4L19.5,4.4z M23.1,4.4h0.4c0.1,0.1,0.1,0.2,0.2,0.2h-0.1C23.5,4.6,23.3,4.5,23.1,4.4L23.1,4.4z M24.1,4.4
	L24.1,4.4C24.1,4.4,24.1,4.4,24.1,4.4C24.1,4.4,24.1,4.4,24.1,4.4L24.1,4.4z M24.5,4.4h0.5c0,0.1,0,0.2-0.1,0.2h-0.4
	C24.5,4.6,24.5,4.5,24.5,4.4L24.5,4.4z M25.7,4.4h0.2l0,0.2h0C25.8,4.6,25.8,4.5,25.7,4.4L25.7,4.4z M74.1,4.4l0.2,0
	c-0.1,0.1-0.1,0.2-0.2,0.2l0,0L74.1,4.4L74.1,4.4z M75.1,4.4l0.5,0c0,0.1,0,0.2,0,0.2h-0.4C75.1,4.6,75.1,4.5,75.1,4.4L75.1,4.4z
	 M75.9,4.4L75.9,4.4L75.9,4.4C75.9,4.4,75.9,4.4,75.9,4.4L75.9,4.4z M76.4,4.4h0.4c-0.2,0.1-0.4,0.2-0.5,0.2l-0.1,0
	C76.3,4.6,76.4,4.5,76.4,4.4L76.4,4.4z M79.5,4.4l0.2,0c0,0,0,0.1,0.1,0.1c0.1,0,0.3,0,0.5-0.1l0.3,0c0,0.1-0.1,0.2-0.1,0.2l-0.9,0
	C79.5,4.6,79.5,4.6,79.5,4.4C79.5,4.5,79.5,4.4,79.5,4.4L79.5,4.4z M78.3,4.6h-0.8C77.8,4.6,78.1,4.6,78.3,4.6L78.3,4.6z M22.5,4.6
	l-0.8,0C21.9,4.6,22.2,4.6,22.5,4.6z M19.6,4.6l0.9,0c0,0,0,0-0.1,0.1L19.6,4.6C19.6,4.7,19.6,4.7,19.6,4.6L19.6,4.6z M21.7,4.6
	l0.8,0c0.1,0,0.1,0,0.2,0.1h-1.3C21.5,4.7,21.6,4.7,21.7,4.6L21.7,4.6z M23.7,4.6L23.7,4.6c0.1,0,0.1,0,0.1,0.1L23.7,4.6
	C23.7,4.7,23.7,4.7,23.7,4.6L23.7,4.6z M24.4,4.6h0.4c0,0,0,0,0,0.1L24.4,4.6C24.4,4.7,24.4,4.7,24.4,4.6L24.4,4.6z M25.9,4.6
	L25.9,4.6L25.9,4.6C25.9,4.7,25.9,4.7,25.9,4.6L25.9,4.6z M74.1,4.6L74.1,4.6C74.1,4.7,74.1,4.7,74.1,4.6L74.1,4.6L74.1,4.6z
	 M75.1,4.6h0.4c0,0,0,0,0,0.1L75.1,4.6C75.1,4.7,75.1,4.7,75.1,4.6L75.1,4.6z M76.2,4.6L76.2,4.6C76.3,4.7,76.3,4.7,76.2,4.6
	L76.2,4.6C76.2,4.7,76.2,4.7,76.2,4.6L76.2,4.6z M77.5,4.6h0.8c0.1,0,0.2,0,0.2,0.1h-1.3C77.4,4.7,77.4,4.7,77.5,4.6L77.5,4.6z
	 M79.6,4.6l0.9,0c0,0,0,0,0,0.1L79.6,4.6C79.6,4.7,79.6,4.7,79.6,4.6z M19.6,4.7h0.8C20.2,4.8,20,4.8,20,4.8c0,0,0,0,0,0h-0.3
	C19.6,4.8,19.6,4.7,19.6,4.7L19.6,4.7z M21.4,4.7h1.3c0.1,0,0.2,0.1,0.3,0.1h-2C21.2,4.8,21.3,4.7,21.4,4.7L21.4,4.7z M23.7,4.7
	L23.7,4.7c0.1,0,0.1,0.1,0.1,0.1S23.8,4.8,23.7,4.7L23.7,4.7z M24.4,4.7h0.4c0,0,0,0.1-0.1,0.1l-0.4,0C24.4,4.8,24.4,4.7,24.4,4.7
	L24.4,4.7z M75.1,4.7l0.4,0c0,0,0,0.1,0,0.1l-0.4,0C75.2,4.8,75.2,4.7,75.1,4.7L75.1,4.7z M76.2,4.7L76.2,4.7
	C76.2,4.8,76.1,4.8,76.2,4.7C76.1,4.8,76.1,4.8,76.2,4.7L76.2,4.7z M77.3,4.7h1.3c0.1,0,0.2,0.1,0.3,0.1l-2,0
	C77.1,4.8,77.2,4.7,77.3,4.7L77.3,4.7z M79.6,4.7h0.8c0,0,0,0.1-0.1,0.1H80c0,0,0,0,0,0C80,4.8,79.8,4.8,79.6,4.7z M19.6,4.8H20
	c0,0.2,0,0.3-0.1,0.5h-0.2c0.1-0.1,0-0.3,0-0.3C19.7,4.9,19.6,4.9,19.6,4.8L19.6,4.8z M21.1,4.8h2c0.1,0.1,0.3,0.1,0.4,0.2
	c0,0-0.2,0.1-0.5,0c-0.3,0-1.4-0.3-2,0.2h-0.8c0.1-0.1,0.3-0.2,0.4-0.3C20.8,4.9,20.9,4.9,21.1,4.8L21.1,4.8z M24.4,4.8l0.4,0
	c-0.1,0.2-0.2,0.3-0.4,0.5H24c0.2,0,0.3-0.1,0.3-0.2C24.3,5,24.4,4.9,24.4,4.8L24.4,4.8z M75.2,4.8l0.4,0c0,0.1,0.1,0.1,0.1,0.2
	c0.1,0.1,0.2,0.2,0.3,0.2h-0.5C75.4,5.1,75.3,5,75.2,4.8L75.2,4.8z M77,4.8l2,0c0.1,0.1,0.3,0.1,0.4,0.2c0.1,0.1,0.3,0.2,0.4,0.3H79
	c-0.6-0.5-1.7-0.2-2-0.2c-0.3,0.1-0.5,0-0.5,0C76.7,5,76.8,4.9,77,4.8L77,4.8z M80,4.8h0.3c0,0,0,0.1-0.1,0.1c0,0-0.1,0.2,0,0.3
	h-0.2C80,5.2,80,5,80,4.8L80,4.8z M80.9,5.3h-0.3C80.9,5.1,80.9,5.2,80.9,5.3C80.9,5.2,80.9,5.2,80.9,5.3L80.9,5.3z M75.3,5.3
	c-0.1-0.1-0.1-0.2-0.2-0.3c0,0-0.7,0.3-1.2,0.2c0,0,0.1,0.1,0.2,0.2H75.3L75.3,5.3z M26,5.3c0.1-0.1,0.2-0.2,0.2-0.2
	c-0.5,0.1-1.2-0.2-1.2-0.2c-0.1,0.1-0.1,0.2-0.2,0.3H26L26,5.3z M19.4,5.3h-0.3c0,0,0,0,0,0S19.1,5.1,19.4,5.3z M19.1,5.3h0.3
	c0,0,0,0,0,0c0.1,0.1,0.2,0,0.2,0h0.2c-0.1,0.2-0.2,0.3-0.3,0.3C19.4,5.7,19.2,5.4,19.1,5.3L19.1,5.3z M20.3,5.3
	c-0.7,0.5-0.8,1.2-0.7,2.4c0.1,0.6,0,0.9-0.1,1.1H20c0.2-0.3,0.3-0.9,0.3-0.9s0.5,0.3,1.4,0.4c0.9,0,1.4-1.3,1.4-1.3l0.6-0.1
	c0,0-0.3-0.2-0.5-0.4C23,6.3,22.5,5.4,22,5.4c-0.5,0-1,1-1.1,1.3c-0.1,0.3-0.4-0.2-0.4-0.2s-0.1,0-0.1,0.3c0,0.3,0.6,0.3,0.6,0.3
	l0.1,0.2c0-0.2,0.3-0.2,0.5-0.2c0.1,0,0.3,0.3,0.3,0.3L22,7l0.4-0.1c0,0,0-0.5-0.2-0.4c-0.2,0.2-0.1,0.3-0.4,0.3
	c-0.3,0,0-0.4,0.3-0.6c0.2-0.1,0.5,0,0.7,0.5c0.1,0.6-0.5,1.4-1.6,1.2c-1.1-0.2-1.1-1.2-1.1-1.6c0-0.5,0.5-0.5,0.5-0.3
	c0,0.2,0.3,0.3,0.3,0.3V5.4c0,0,0.1-0.1,0.1-0.1H20.3L20.3,5.3z M24,5.3h0.5c-0.1,0.1-0.2,0.2-0.3,0.2c-0.3,0.2-0.6,0.3-0.8,0.2
	C23.2,5.6,23,5.4,23,5.4S23.6,5.4,24,5.3L24,5.3z M24.7,5.3C24.4,5.7,24,5.9,24,5.9s0,0.1,0,0.4C24.1,6.7,24.4,7,24.4,7
	c0,0,0.1,0,0.2-0.1c0-0.2,0.1-0.5,0.1-0.5l0.1-0.2c0,0,0.8,0.3,1,0.4c0.2,0.1,0.2,0,0.2,0l-0.7-1l0.1-0.2c0.3,0,0.5-0.1,0.6-0.3
	H24.7L24.7,5.3z M74,5.3h1.2C75.6,5.7,76,5.9,76,5.9s0,0.1,0,0.4C75.9,6.7,75.6,7,75.6,7c0,0-0.1,0-0.2-0.1c0-0.2-0.1-0.5-0.1-0.5
	l-0.1-0.2c0,0-0.8,0.3-1,0.4c-0.2,0.1-0.2,0-0.2,0l0.7-1l-0.1-0.2C74.4,5.5,74.2,5.4,74,5.3L74,5.3z M75.6,5.3
	c0.1,0.1,0.2,0.2,0.3,0.2c0.3,0.2,0.6,0.3,0.8,0.2C76.8,5.6,77,5.4,77,5.4s-0.6,0-1-0.1H75.6L75.6,5.3z M79,5.3h0.8
	c0.7,0.5,0.8,1.2,0.7,2.4c-0.1,0.6,0,0.9,0.1,1.1H80c-0.2-0.3-0.3-0.9-0.3-0.9s-0.5,0.3-1.4,0.4c-0.9,0-1.4-1.3-1.4-1.3l-0.6-0.1
	c0,0,0.3-0.2,0.5-0.4C77,6.3,77.5,5.4,78,5.4c0.5,0,1,1,1.1,1.3c0.1,0.3,0.4-0.2,0.4-0.2s0.1,0,0.1,0.3c0,0.3-0.6,0.3-0.6,0.3
	l-0.1,0.2c0-0.2-0.3-0.2-0.5-0.2c-0.1,0-0.3,0.3-0.3,0.3L78,7l-0.4-0.1c0,0,0-0.5,0.2-0.4c0.2,0.2,0.1,0.3,0.4,0.3
	c0.3,0,0-0.4-0.3-0.6c-0.2-0.1-0.5,0-0.7,0.5c-0.1,0.6,0.5,1.4,1.6,1.2c1.1-0.2,1.1-1.2,1.1-1.6c0-0.5-0.5-0.5-0.5-0.3
	c0,0.2-0.3,0.3-0.3,0.3L79,5.3C79,5.3,79,5.3,79,5.3L79,5.3z M80.1,5.3c0.1,0.2,0.2,0.3,0.3,0.3c0.2,0.1,0.4-0.2,0.5-0.3h-0.3
	c0,0,0,0,0,0c-0.1,0.1-0.2,0-0.2,0H80.1L80.1,5.3z M79.1,8.7c0.1-0.2,0.1-0.3,0.1-0.3s-0.1,0.1-0.2,0.3H79.1L79.1,8.7z M78.4,8.7
	c0.2-0.2,0.3-0.3,0.3-0.3s-0.5,0-1.2-0.1c-0.4-0.1-0.7,0.1-0.8,0.4H78.4L78.4,8.7z M23.2,8.7h-1.6c-0.2-0.2-0.3-0.3-0.3-0.3
	s0.5,0,1.2-0.1C22.8,8.3,23.1,8.5,23.2,8.7L23.2,8.7z M21.1,8.7h-0.2c-0.1-0.2-0.1-0.3-0.1-0.3S20.9,8.6,21.1,8.7z M19.5,8.7H20
	C19.9,8.9,19.8,9,19.7,9c-0.6,0.2-0.5,0-0.5,0S19.4,9,19.5,8.7L19.5,8.7z M20.9,8.7c0,0,0,0.1,0.1,0.1c0.2,0.3,0.4,0.6,0.5,0.9
	c0,0.3,0.1,0.9-0.3,1.5c-0.5,0.6-0.7,0.4-0.7,0.4c-0.7,0-1-0.5-0.9-1c0.1-0.5,0.8-0.2,0.8-0.2l0,0.2c0,0.3-0.4,0.4-0.4,0.4
	s0.3,0,0.4-0.1c0.2,0,0.6-0.5,0.6-0.7c0-0.1-0.4-0.4-0.4-0.4s0.2-0.2,0.2-0.5c0.1-0.3-0.3-0.7-0.3-0.7s0.2,0.5-0.1,0.6
	c-0.3,0.1-0.5,0.1-0.8,0.4c-0.3,0.3-0.6,1-0.2,1.6c0.1,0.2,0.3,0.4,0.4,0.5l-0.4,0c-0.1,0-0.1,0.1-0.1,0.1l0,0.3
	c0,0.1,0.1,0.1,0.1,0.1l0.5,0v17l0.3,0v-17l0.5,0v17l0.3,0v-17h0.7c0.1,0,0.1-0.1,0.1-0.1v-0.3c0-0.1-0.1-0.1-0.1-0.1h-0.6
	c0.1-0.1,0.2-0.3,0.4-0.5c0.1-0.2,0.3-0.6,0.3-0.8c0.1-0.3,0.2-0.5,0.2-0.6c0-0.2,0-0.4-0.4-0.8c-0.2-0.2-0.3-0.4-0.4-0.5H20.9
	L20.9,8.7z M21.6,8.7h1.6c0,0.1,0,0.1,0,0.2c-0.1,0.3-0.1,0.4,0,0.7c0,0.3-0.2,0.6-0.2,0.6c-0.2-0.5-0.4-0.6-0.4-0.6
	c0,0.2-0.3,0.3-0.3,0.3C22.3,9.5,21.9,9,21.6,8.7L21.6,8.7z M76.8,8.7h1.6c-0.3,0.3-0.6,0.7-0.8,1.1c0,0-0.3,0-0.3-0.3
	c0,0-0.2,0.1-0.4,0.6c0,0-0.2-0.3-0.2-0.6c0-0.3,0-0.4,0-0.7C76.8,8.9,76.8,8.8,76.8,8.7L76.8,8.7z M78.9,8.7
	c-0.1,0.2-0.3,0.4-0.4,0.5c-0.3,0.3-0.4,0.6-0.4,0.8c0,0.1,0.1,0.3,0.2,0.6c0.1,0.2,0.2,0.6,0.3,0.8c0.2,0.3,0.3,0.4,0.4,0.5h-0.6
	c-0.1,0-0.1,0.1-0.1,0.1v0.3c0,0.1,0.1,0.1,0.1,0.1l0.7,0v17l0.3,0v-17h0.5v17l0.3,0l0-17l0.5,0c0.1,0,0.1-0.1,0.1-0.1v-0.3
	c0-0.1-0.1-0.1-0.1-0.1h-0.4c0.2-0.1,0.3-0.2,0.4-0.5c0.4-0.7,0.1-1.3-0.2-1.6c-0.3-0.3-0.5-0.3-0.8-0.4c-0.3-0.1-0.1-0.6-0.1-0.6
	s-0.4,0.4-0.3,0.7c0.1,0.3,0.2,0.5,0.2,0.5S79,10.3,79,10.4c0,0.1,0.4,0.6,0.6,0.7c0.2,0.1,0.4,0.1,0.4,0.1s-0.4-0.1-0.4-0.4l0-0.2
	c0,0,0.8-0.2,0.8,0.2c0.1,0.5-0.1,0.9-0.9,1c0,0-0.3,0.1-0.7-0.4c-0.5-0.6-0.4-1.2-0.3-1.5c0.1-0.3,0.3-0.6,0.5-0.9
	c0,0,0.1-0.1,0.1-0.1H78.9L78.9,8.7z M80,8.7h0.5C80.6,9,80.9,9,80.9,9s0,0.2-0.5,0C80.2,9,80.1,8.9,80,8.7z M19.9,29.5l0.3,0V44
	c0,0,0,0,0,0c0.1,0.3,0,0.7,0,0.9c0,0.3-0.1,0.5-0.3,0.8c-0.1,0.2-0.1,0.4-0.1,0.6h-0.3c0.1-0.2,0.1-0.3,0.2-0.5
	c0.2-0.3,0-0.6-0.1-0.7c-0.2,0-0.2-0.2-0.2-0.2c0.1-0.2,0.5,0.1,0.5,0.1c0.2-0.5-0.3-0.6-0.3-0.6s-0.2-0.1-0.1-0.2
	c0.1-0.1,0.5,0,0.5,0c0.2-0.4-0.3-0.4-0.4-0.5c-0.1-0.1-0.2-0.2,0-0.2c0.1,0,0.2,0,0.3,0V29.5L19.9,29.5z M20.6,29.5v14.4
	c-0.1,0-0.1,0.1-0.1,0.1s0.6,0.1,0.1,1.3c-0.3,0.7-0.5,1-0.6,1.1h0.5c0,0,0,0,0,0c0.2-0.3,0.6-0.3,0.6-0.4c0-0.1-0.4-0.1-0.6,0
	c0,0,0.2-0.2,0.3-0.3c0.1,0,0.3-0.1,0.3-0.1s-0.2-0.1-0.2-0.3c0.1-0.2,0.5-0.5,0.5-0.6c0-0.1-0.4,0.2-0.4,0c0-0.2,0.1-0.6,0-0.8
	c0,0-0.1-0.1-0.1-0.1V29.5L20.6,29.5L20.6,29.5z M79.1,29.5l0.3,0v14.4c0.1,0,0.1,0.1,0.1,0.1s-0.6,0.1-0.1,1.3
	c0.3,0.7,0.5,1,0.6,1.1l-0.5,0c0,0,0,0,0,0C79.3,46,78.9,46,79,45.9c0-0.1,0.4-0.1,0.6,0c0,0-0.2-0.2-0.3-0.3
	c-0.1,0-0.3-0.1-0.3-0.1s0.3-0.1,0.2-0.3c-0.1-0.2-0.5-0.5-0.5-0.6c0-0.1,0.4,0.2,0.4,0c0-0.2-0.1-0.6,0-0.8c0,0,0.1-0.1,0.1-0.1
	V29.5L79.1,29.5z M79.9,29.5V44c0,0,0,0,0,0c-0.1,0.3,0,0.7,0,0.9c0,0.3,0.1,0.5,0.3,0.8c0.1,0.2,0.1,0.4,0.1,0.6l0.3,0
	c-0.1-0.2-0.1-0.3-0.2-0.5c-0.2-0.3,0-0.6,0.1-0.7c0.2,0,0.2-0.2,0.2-0.2c-0.1-0.2-0.5,0.1-0.5,0.1c-0.2-0.5,0.2-0.6,0.2-0.6
	s0.3-0.1,0.1-0.2c-0.1-0.1-0.5,0-0.5,0c-0.2-0.4,0.3-0.4,0.4-0.5c0.1-0.1,0.2-0.2,0-0.2c-0.1,0-0.2,0-0.3,0V29.5L79.9,29.5
	L79.9,29.5z M78.9,46.3c0.1-0.1-0.1-0.1-0.1-0.1s-0.2,0-0.2,0.1H78.9L78.9,46.3z M21.4,46.3h-0.3c-0.1-0.1,0.1-0.1,0.1-0.1
	S21.3,46.2,21.4,46.3z M19.5,46.3h0.3c0,0.1,0,0.1,0,0.1s0,0,0.1-0.1h0.5c-0.2,0.3-0.4,0.1-0.5,0.2c0,0.1,0.1,0.4,0,0.6
	c-0.1,0.1-0.3,0.2-0.3,0.3c-0.1,0.2-0.2,0.4-0.2,0.4C19.4,47,19.4,46.6,19.5,46.3L19.5,46.3z M21.1,46.3L21.1,46.3
	c0.1,0.1,0,0.2-0.2,0.4c-0.2,0.2-0.4,0.3-0.4,0.5c0,0.2,0.1,0.4,0.3,0.4c0.2,0,0.2-0.1,0-0.3c-0.1-0.1-0.1-0.2,0-0.3
	c0.5-0.1,0.5,0.2,0.6,0.7c0,0.3-0.1,0.4-0.1,0.6c0,0,0,0,0,0c0.1-0.4-0.1-0.3-0.1-0.3s0.1,0.4-0.3,0.5c-0.4,0.1-0.4-0.2-0.5-0.3
	c-0.1-0.1-0.1-0.3-0.3-0.2c-0.1,0.1-0.2,0.3-0.3,0.4c-0.1,0.1-0.2,0.4-0.2,0.4s0.7-0.1,0.9-0.1c0.1,0,0.4,0,0.6-0.1c0,0,0,0.1,0,0.1
	c0,0.2,0.1,0.2,0.2,0c0.1-0.2,0.3-0.5,0.3-1.1c0-0.4-0.3-0.5-0.5-0.6c0.1-0.1,0.2-0.1,0.3-0.3c0-0.1,0-0.2,0-0.2H21.1L21.1,46.3z
	 M78.6,46.3h0.3l0,0c0,0.1,0,0.2,0.2,0.4c0.2,0.2,0.4,0.3,0.4,0.5c0,0.2-0.1,0.4-0.3,0.4c-0.2,0-0.2-0.1,0-0.2
	c0.1-0.1,0.1-0.2,0-0.3c-0.5-0.1-0.6,0.2-0.6,0.7c0,0.3,0.1,0.4,0.1,0.6c0,0,0,0,0,0c-0.1-0.4,0.1-0.3,0.1-0.3s-0.1,0.4,0.3,0.5
	c0.4,0.1,0.4-0.2,0.5-0.3c0.1-0.1,0.1-0.3,0.3-0.2c0.1,0.1,0.2,0.3,0.3,0.4c0.1,0.1,0.1,0.4,0.1,0.4s-0.7-0.1-0.9-0.1
	c-0.1,0-0.4,0-0.6-0.1c0,0,0,0.1,0,0.1c0,0.2-0.1,0.2-0.2,0c-0.1-0.2-0.3-0.5-0.3-1.1c0-0.4,0.3-0.5,0.5-0.6
	c-0.1-0.1-0.2-0.1-0.3-0.3C78.6,46.5,78.6,46.4,78.6,46.3L78.6,46.3z M79.6,46.3c0.2,0.3,0.4,0.1,0.5,0.2c0.1,0.1-0.1,0.4,0.1,0.6
	c0.1,0.1,0.3,0.2,0.3,0.3c0.1,0.2,0.2,0.4,0.2,0.4c0-0.8,0-1.2-0.1-1.5l-0.3,0c0,0.1,0,0.1,0,0.1s0,0-0.1-0.1L79.6,46.3L79.6,46.3z
	 M80.1,50h-0.4c0.1-0.1,0.1-0.3,0-0.3c-0.1,0-0.2,0.2-0.2,0.2s-0.1-0.1-0.2,0c0,0,0,0.1,0,0.1H79l0,0c0,0,0.1-0.1,0.1-0.2
	c0-0.1,0.1,0,0.1-0.1c0-0.1,0.1-0.1,0.3-0.1c0.1,0,0.2-0.2,0.1-0.3c0-0.1-0.3,0.1-0.3,0.1s-0.2-0.1-0.3,0c-0.1,0.1,0,0.3,0,0.3
	s0,0.1-0.1,0c-0.1-0.1-0.1,0.1-0.1,0.3v0l-0.2,0c0-0.6,0.3-1,0.7-1C79.8,48.9,80.1,49.4,80.1,50L80.1,50z M21.3,50l-0.2,0
	c0,0,0,0,0,0c0-0.2,0-0.4-0.1-0.3c-0.1,0.1-0.1,0-0.1,0s0.1-0.2,0-0.3c-0.1-0.1-0.3,0-0.3,0s-0.3-0.2-0.3-0.1c0,0.1,0,0.3,0.1,0.3
	c0.1,0,0.3,0,0.3,0.1c0,0.1,0.1,0,0.1,0.1c0,0.1,0.1,0.2,0.1,0.2l0,0h-0.2c0,0,0-0.1,0-0.1c-0.1-0.1-0.2,0-0.2,0s-0.1-0.2-0.2-0.2
	c-0.1,0-0.1,0.2,0,0.3h-0.4c0-0.6,0.3-1.1,0.7-1C21,49,21.3,49.4,21.3,50L21.3,50z M21.4,49.1c0,0-0.1,0.3,0.1,0.3
	c0.2,0,0.1-0.3,0.1-0.3L21.4,49.1L21.4,49.1z M19.7,49.1c0,0-0.1,0.3,0.1,0.3c0.2,0,0.1-0.3,0.1-0.3L19.7,49.1L19.7,49.1z
	 M78.6,49.1h-0.2c0,0-0.1,0.3,0.1,0.3C78.7,49.4,78.6,49.1,78.6,49.1L78.6,49.1z M80.3,49.1l-0.2,0c0,0-0.1,0.3,0.1,0.3
	C80.4,49.4,80.3,49.1,80.3,49.1z M19.9,50h0.4c0,0,0.1,0,0.1,0c0,0,0,0.1,0,0.2h-0.1v0c0-0.2-0.2-0.1-0.2,0c0,0,0,0,0,0h-0.2
	C19.9,50.2,19.9,50.1,19.9,50C19.9,50,19.9,50,19.9,50L19.9,50z M20.7,50H21c0,0,0.1,0.1,0.2,0l0.2,0c0,0,0,0,0,0.1
	c0,0.1,0,0.1,0,0.2h-0.2c0,0-0.1,0-0.2-0.1c-0.1,0-0.1,0-0.1,0.1h-0.1C20.7,50.2,20.8,50.1,20.7,50L20.7,50z M78.7,50l0.2,0
	c0,0.1,0.1,0,0.2,0h0.2c0,0.1,0,0.2,0,0.2h-0.1c0,0-0.1-0.1-0.1-0.1c-0.1,0-0.1,0-0.2,0.1h-0.2C78.7,50.2,78.7,50.1,78.7,50
	C78.7,50,78.7,50,78.7,50L78.7,50z M79.7,50h0.4c0,0,0,0,0,0.1c0,0.1,0,0.1,0,0.2h-0.2c0,0,0,0,0,0c-0.1-0.1-0.2-0.1-0.2,0l0,0h-0.1
	c0-0.1,0-0.2,0-0.2C79.7,50,79.7,50,79.7,50z M19.9,50.2h0.2c0,0.1,0.1,0.1,0.1,0.1s0.2,0,0.2-0.1h0.1c0,0,0,0,0,0
	c0.1,0.1,0.2,0,0.2,0s0,0,0,0h0.1c0,0,0,0.1,0,0.1c0.1,0.1-0.2,0.1,0,0.3c0,0,0.1,0,0.1,0.1h-0.2c0,0,0-0.1,0-0.1
	c-0.1-0.3-0.2,0-0.2,0.1v0h-0.1c0,0,0,0,0,0c0-0.1,0.1-0.3-0.1-0.3c-0.1,0-0.1,0.2-0.1,0.3H20C19.9,50.6,19.9,50.4,19.9,50.2
	L19.9,50.2z M21.1,50.2h0.2c0,0.2,0,0.3-0.1,0.5H21c0,0,0,0,0,0s0.1-0.2-0.1-0.3c0,0,0.3,0.1,0.2,0C21.1,50.3,21.1,50.3,21.1,50.2
	L21.1,50.2z M78.7,50.2h0.2c0,0,0,0.1,0,0.1c0,0.2,0.2,0,0.2,0c-0.1,0.1-0.1,0.3-0.1,0.3s0,0,0,0h-0.2
	C78.7,50.6,78.7,50.4,78.7,50.2L78.7,50.2z M79.2,50.2C79.2,50.3,79.2,50.3,79.2,50.2c-0.1,0.2,0.1,0.2,0,0.4c0,0-0.1,0-0.1,0.1
	l0.2,0c0,0,0-0.1,0-0.1c0.1-0.3,0.2,0,0.2,0.1v0h0.1c0,0,0,0,0,0c0-0.1-0.1-0.3,0.1-0.3c0.1,0,0.1,0.2,0.1,0.3H80
	c0-0.1,0.1-0.3,0.1-0.5h-0.2c0,0.1-0.1,0.1-0.1,0.1s-0.2,0-0.2-0.1h-0.1c0,0,0,0-0.1,0c-0.1,0.1-0.2,0-0.2,0s0,0,0,0H79.2z M20,50.7
	h0.2c0,0,0,0,0,0s0.1,0.1,0.2,0h0.1c0,0.1,0.1,0.2,0.1,0.2s0.1,0,0.1-0.2h0.2c0,0,0.1,0,0.1,0h0.2c-0.1,0.3-0.3,0.5-0.6,0.5
	C20.3,51.2,20.1,51,20,50.7L20,50.7z M78.8,50.7H79c0,0,0,0,0.1,0l0.2,0c0,0.2,0.1,0.2,0.1,0.2s0.1-0.1,0.1-0.2h0.1
	c0.1,0.1,0.2,0,0.2,0s0,0,0,0H80c-0.1,0.3-0.3,0.5-0.6,0.5C79.1,51.2,78.9,51,78.8,50.7L78.8,50.7z M80.6,53.2l-0.5,0
	c0,0,0-0.1,0-0.1c0.1-0.1,0.3-0.2,0.3-0.3c0.1-0.2,0.2-0.4,0.2-0.4C80.6,52.8,80.6,53,80.6,53.2L80.6,53.2z M79.4,53.2
	c0.1-0.1,0.1-0.1,0.1-0.2c0-0.2-0.1-0.4-0.3-0.4c-0.2,0-0.2,0.1,0,0.3c0.1,0.1,0.1,0.2,0,0.3c-0.5,0.1-0.6-0.2-0.6-0.7
	c0-0.2,0.1-0.4,0.1-0.6c0,0,0,0,0,0c-0.1,0.4,0.1,0.3,0.1,0.3s-0.1-0.4,0.3-0.5c0.4-0.1,0.4,0.1,0.5,0.3c0.1,0.1,0.1,0.3,0.3,0.2
	c0.1-0.1,0.2-0.3,0.3-0.4c0.1-0.1,0.1-0.4,0.1-0.4s-0.7,0.1-0.9,0.1c-0.1,0-0.4,0-0.6,0.1c0,0,0-0.1,0-0.1c0-0.2-0.1-0.2-0.3,0
	c-0.1,0.2-0.3,0.5-0.3,1.1c0,0.2,0.1,0.4,0.3,0.5L79.4,53.2L79.4,53.2z M21.3,53.2h-0.7c-0.1-0.1-0.1-0.1-0.1-0.2
	c0-0.2,0.1-0.4,0.3-0.4c0.2,0,0.2,0.1,0,0.3c-0.1,0.1-0.1,0.2,0,0.3c0.5,0.1,0.5-0.2,0.6-0.7c0-0.2-0.1-0.4-0.1-0.6c0,0,0,0,0,0
	c0.1,0.4-0.1,0.3-0.1,0.3s0.1-0.4-0.3-0.5c-0.4-0.1-0.4,0.1-0.5,0.3c-0.1,0.1-0.1,0.3-0.3,0.2c-0.1-0.1-0.2-0.3-0.3-0.4
	c-0.1-0.1-0.2-0.4-0.2-0.4s0.7,0.1,0.9,0.1c0.1,0,0.4,0,0.6,0.1c0,0,0-0.1,0-0.1c0-0.2,0.1-0.2,0.2,0c0.1,0.2,0.3,0.5,0.3,1.1
	C21.6,53,21.5,53.1,21.3,53.2L21.3,53.2z M19.9,53.2c0,0,0-0.1,0-0.1c-0.1-0.1-0.3-0.2-0.3-0.3c-0.1-0.2-0.2-0.4-0.2-0.4
	c0,0.3,0,0.6,0,0.8L19.9,53.2L19.9,53.2z M21.4,51.2c0,0-0.1-0.3,0.1-0.3c0.2,0,0.1,0.3,0.1,0.3H21.4L21.4,51.2z M19.7,51.2
	c0,0-0.1-0.3,0.1-0.3c0.2,0,0.1,0.3,0.1,0.3H19.7L19.7,51.2z M78.6,51.2c0,0,0.1-0.3-0.1-0.3c-0.2,0-0.1,0.3-0.1,0.3H78.6L78.6,51.2
	z M80.3,51.2c0,0,0.1-0.3-0.1-0.3c-0.2,0-0.1,0.3-0.1,0.3H80.3z M19.4,53.2l0.5,0c0,0.2,0,0.4,0,0.5c0.1,0.1,0.3-0.1,0.5,0.2h-0.5
	c-0.1-0.1-0.1-0.1-0.1-0.1s0,0.1,0,0.1h-0.3C19.5,53.8,19.4,53.5,19.4,53.2L19.4,53.2z M20.6,53.2h0.7c-0.1,0.1-0.2,0.1-0.2,0.1
	c0.1,0,0.2,0.1,0.3,0.3c0,0.1,0,0.2,0,0.2h-0.3l0,0c0.1-0.1,0-0.2-0.2-0.4C20.8,53.4,20.7,53.3,20.6,53.2L20.6,53.2z M78.7,53.2
	l0.7,0c-0.1,0.1-0.2,0.2-0.3,0.3c-0.2,0.2-0.2,0.3-0.2,0.4l0,0h-0.3c0-0.1,0-0.1,0-0.2c0.1-0.3,0.2-0.3,0.3-0.3
	C78.8,53.3,78.8,53.3,78.7,53.2L78.7,53.2z M80.1,53.2l0.5,0c0,0.3,0,0.5-0.1,0.7h-0.3c0-0.1,0-0.1,0-0.1s0,0-0.1,0.1h-0.5
	c0.2-0.3,0.4-0.1,0.5-0.2C80.1,53.6,80,53.4,80.1,53.2z M19.5,53.9h0.3c0,0.2,0,0.4,0.1,0.6c0.1,0.3,0.3,0.5,0.3,0.8
	c0,0.3,0.1,0.7,0,1c0,0,0,0,0,0h0v14.3h-0.3V56.5c0,0-0.1,0-0.1,0c-0.1,0-0.1-0.1,0-0.3c0.1-0.1,0.4,0,0.2-0.5c0,0-0.3,0.2-0.5,0
	c-0.1-0.1,0.1-0.2,0.1-0.2s0.5,0,0.3-0.5c0,0-0.3,0.4-0.5,0.1c0,0,0-0.2,0.2-0.2c0.2,0,0.3-0.4,0.1-0.7
	C19.7,54.2,19.6,54.1,19.5,53.9L19.5,53.9z M19.9,53.9c0.1,0.2,0.3,0.5,0.6,1.1c0.5,1.1-0.1,1.3-0.1,1.3s0,0,0.1,0v14.3h0.3l0-14.2
	c0.1,0,0.1,0,0.1-0.1c0.1-0.2,0-0.6,0-0.8c0-0.2,0.4,0.2,0.4,0c0-0.1-0.5-0.5-0.5-0.6c0-0.2,0.2-0.3,0.2-0.3s-0.1-0.1-0.3-0.1
	c-0.1,0-0.3-0.3-0.3-0.3c0.2,0,0.5,0.1,0.6,0c0-0.1-0.4,0-0.6-0.4c0,0,0,0,0,0H19.9L19.9,53.9z M21.1,53.9h0.3
	C21.3,54,21.2,54,21.2,54S21,54,21.1,53.9L21.1,53.9z M78.6,53.9h0.3C79,54,78.8,54,78.8,54S78.7,54,78.6,53.9L78.6,53.9z
	 M79.6,53.9C79.5,53.9,79.5,53.9,79.6,53.9c-0.2,0.4-0.6,0.3-0.6,0.4s0.4,0.1,0.6,0c0,0-0.2,0.2-0.3,0.3c-0.1,0-0.3,0.1-0.3,0.1
	s0.3,0.1,0.2,0.3c-0.1,0.2-0.5,0.5-0.5,0.6c0,0.1,0.4-0.2,0.4,0c0,0.2-0.1,0.6,0,0.8c0,0,0.1,0.1,0.1,0.1v14.2h0.3V56.4
	c0.1,0,0.1,0,0.1,0s-0.6-0.1-0.1-1.3c0.3-0.7,0.5-1,0.6-1.1H79.6L79.6,53.9z M80.2,53.9h0.3c-0.1,0.2-0.1,0.3-0.2,0.5
	c-0.2,0.3,0,0.6,0.1,0.7c0.2,0,0.2,0.2,0.2,0.2c-0.1,0.2-0.5-0.1-0.5-0.1c-0.2,0.5,0.3,0.5,0.3,0.5s0.3,0.1,0.1,0.2
	c-0.1,0.1-0.5,0-0.5,0c-0.2,0.4,0.1,0.3,0.2,0.5c0.1,0.1,0.1,0.2-0.1,0.3c0,0,0,0-0.1,0l0,14.1h-0.3V56.3h0c0,0,0,0,0,0
	c-0.1-0.3-0.1-0.7-0.1-1c0-0.2,0.1-0.5,0.3-0.8C80.2,54.3,80.2,54.1,80.2,53.9z M19.9,70.6h0.3v16.9l0.5,0V70.6h0.3v16.9h0.7
	c0.1,0,0.1,0.1,0.1,0.1l0,0.3c0,0.1-0.1,0.1-0.1,0.1h-0.6c0.1,0.1,0.2,0.3,0.4,0.5c0.1,0.2,0.3,0.6,0.3,0.8c0.1,0.3,0.2,0.5,0.2,0.6
	c0,0.2,0,0.4-0.4,0.8c-0.2,0.2-0.3,0.4-0.4,0.5h-0.2c0,0,0-0.1,0.1-0.1c0.2-0.3,0.4-0.6,0.5-0.9c0-0.3,0.1-0.9-0.3-1.5
	c-0.5-0.6-0.7-0.4-0.7-0.4c-0.7,0-1,0.5-0.9,1c0.1,0.5,0.8,0.2,0.8,0.2l0-0.2c0-0.3-0.4-0.4-0.4-0.4s0.3,0,0.4,0
	c0.2,0.1,0.6,0.5,0.6,0.7c0,0.1-0.4,0.4-0.4,0.4s0.2,0.2,0.2,0.5c0.1,0.3-0.3,0.7-0.3,0.7s0.2-0.5-0.1-0.6c-0.3-0.1-0.5-0.1-0.8-0.4
	c-0.3-0.3-0.6-1-0.2-1.6c0.1-0.2,0.3-0.4,0.4-0.5h-0.4c-0.1,0-0.1-0.1-0.1-0.1l0-0.3c0-0.1,0.1-0.1,0.1-0.1l0.5,0V70.6L19.9,70.6z
	 M79.1,70.6h0.3l0,16.9h0.5V70.6h0.3l0,16.9l0.5,0c0.1,0,0.1,0.1,0.1,0.1l0,0.3c0,0.1-0.1,0.1-0.1,0.1h-0.4c0.2,0.1,0.3,0.2,0.4,0.5
	c0.4,0.7,0.1,1.3-0.2,1.6c-0.3,0.3-0.5,0.3-0.8,0.4c-0.3,0.1-0.1,0.6-0.1,0.6s-0.4-0.4-0.3-0.7c0.1-0.3,0.2-0.5,0.2-0.5
	S79,89.7,79,89.6c0-0.1,0.4-0.6,0.6-0.7c0.2,0,0.4,0,0.4,0s-0.4,0-0.4,0.4l0,0.2c0,0,0.8,0.2,0.8-0.2c0.1-0.5-0.1-0.9-0.9-1
	c0,0-0.2-0.1-0.7,0.4c-0.5,0.6-0.4,1.2-0.3,1.5c0.1,0.3,0.3,0.6,0.5,0.9c0,0,0.1,0.1,0.1,0.1h-0.2c-0.1-0.2-0.3-0.4-0.4-0.5
	c-0.3-0.4-0.4-0.6-0.4-0.7c0-0.1,0.1-0.3,0.2-0.6c0.1-0.2,0.2-0.6,0.3-0.8c0.2-0.2,0.3-0.4,0.4-0.5h-0.6c-0.1,0-0.1-0.1-0.1-0.1
	l0-0.3c0-0.1,0.1-0.1,0.1-0.1l0.7,0V70.6L79.1,70.6z M80.5,91.2c0.2-0.3,0.4-0.3,0.4-0.3s0-0.1-0.5,0c-0.2,0-0.3,0.1-0.4,0.3H80.5
	L80.5,91.2z M78.4,91.2c-0.3-0.3-0.6-0.8-0.8-1.1c0,0-0.3,0-0.3,0.3c0,0-0.2-0.1-0.4-0.6c0,0-0.2,0.3-0.2,0.6c0,0.3,0,0.4,0,0.7
	c0,0.1,0,0.1,0,0.2H78.4L78.4,91.2z M23.2,91.2c0-0.1,0-0.1,0-0.2c-0.1-0.3-0.1-0.4,0-0.7c0-0.3-0.2-0.6-0.2-0.6
	c-0.2,0.5-0.4,0.6-0.4,0.6c0-0.2-0.3-0.2-0.3-0.2c-0.1,0.4-0.5,0.8-0.8,1.1H23.2L23.2,91.2z M20,91.2c-0.1-0.1-0.2-0.2-0.4-0.3
	c-0.6-0.1-0.5,0-0.5,0s0.2,0,0.4,0.3H20z M19.5,91.2H20c0.3,0.3,0.3,0.9,0.3,0.9s0.5-0.3,1.4-0.4c0.9-0.1,1.4,1.3,1.4,1.3l0.6,0.1
	c0,0-0.3,0.2-0.5,0.4c-0.2,0.2-0.8,1.1-1.3,1.1c-0.5,0-1-1-1.1-1.3c-0.1-0.3-0.4,0.2-0.4,0.2s-0.1,0-0.1-0.3c0-0.3,0.6-0.3,0.6-0.3
	l0.1-0.2c0,0.2,0.3,0.2,0.5,0.2c0.1,0,0.3-0.3,0.3-0.3L22,93l0.4,0.1c0,0,0,0.5-0.2,0.4c-0.2-0.1-0.1-0.3-0.4-0.3
	c-0.3,0,0,0.4,0.3,0.6c0.2,0.1,0.5,0,0.7-0.5c0.1-0.6-0.5-1.3-1.6-1.2c-1.1,0.2-1.1,1.2-1.1,1.6c0,0.5,0.5,0.5,0.5,0.3
	c0-0.2,0.3-0.3,0.3-0.3l0,0.8c0,0,0.1,0.1,0.1,0.1h-0.8c-0.7-0.5-0.8-1.2-0.7-2.4C19.7,91.8,19.6,91.4,19.5,91.2L19.5,91.2z
	 M20.9,91.2c-0.1,0.2-0.1,0.3-0.1,0.3s0.1-0.1,0.2-0.3H20.9L20.9,91.2z M21.6,91.2c-0.2,0.2-0.3,0.3-0.3,0.3s0.5,0,1.2,0
	c0.4,0.1,0.7-0.1,0.8-0.4H21.6L21.6,91.2z M76.8,91.2h1.6c0.2,0.2,0.3,0.3,0.3,0.3s-0.5,0-1.2,0C77.2,91.7,76.9,91.5,76.8,91.2
	L76.8,91.2z M78.9,91.2h0.2c0.1,0.2,0.1,0.3,0.1,0.3S79.1,91.4,78.9,91.2L78.9,91.2z M80,91.2c-0.3,0.3-0.3,0.9-0.3,0.9
	s-0.5-0.3-1.4-0.4c-0.9-0.1-1.4,1.3-1.4,1.3l-0.6,0.1c0,0,0.3,0.2,0.5,0.4c0.2,0.2,0.8,1.1,1.3,1.1c0.5,0,1-1,1.1-1.3
	c0.1-0.3,0.4,0.2,0.4,0.2s0.1,0,0.1-0.3c0-0.3-0.6-0.3-0.6-0.3l-0.1-0.2c0,0.2-0.3,0.2-0.5,0.2c-0.1,0-0.3-0.3-0.3-0.3L78,93
	l-0.4,0.1c0,0,0,0.5,0.2,0.4c0.2-0.1,0.1-0.3,0.4-0.3c0.3,0,0,0.4-0.3,0.6c-0.2,0.1-0.5,0-0.7-0.5c-0.1-0.6,0.5-1.3,1.6-1.2
	c1.1,0.2,1.1,1.2,1.1,1.6c0,0.5-0.5,0.5-0.5,0.3c0-0.2-0.3-0.3-0.3-0.3v0.8c0,0-0.1,0.1-0.1,0.1l0.8,0c0.7-0.5,0.8-1.2,0.7-2.4
	c-0.1-0.6,0-0.9,0.1-1.1H80L80,91.2z M80.9,94.7l-0.3,0c0,0,0,0,0,0c-0.1-0.1-0.2,0-0.2,0l-0.2,0c0.1-0.2,0.2-0.3,0.3-0.3
	C80.6,94.3,80.8,94.6,80.9,94.7L80.9,94.7z M76,94.7h-0.5c0.1-0.1,0.2-0.2,0.3-0.2c0.3-0.2,0.6-0.3,0.8-0.2c0.2,0.1,0.4,0.3,0.4,0.3
	S76.4,94.6,76,94.7L76,94.7z M75.3,94.7c0.3-0.4,0.7-0.6,0.7-0.6s0-0.1,0-0.4c-0.1-0.4-0.3-0.6-0.3-0.7c0,0-0.1,0-0.2,0.1
	c0,0.2-0.1,0.5-0.1,0.5l-0.1,0.2c0,0-0.8-0.3-1-0.4c-0.2-0.1-0.2,0-0.2,0l0.7,1l-0.1,0.2c-0.3,0-0.5,0.1-0.6,0.2H75.3L75.3,94.7z
	 M26,94.7h-1.3c-0.3-0.4-0.7-0.6-0.7-0.6s0-0.1,0-0.4c0.1-0.4,0.3-0.6,0.3-0.7c0,0,0.1,0,0.2,0.1c0,0.2,0.1,0.5,0.1,0.5l0.1,0.2
	c0,0,0.8-0.3,1-0.4c0.2-0.1,0.2,0,0.2,0l-0.7,1l0.1,0.2C25.6,94.5,25.8,94.6,26,94.7L26,94.7z M24.4,94.7c-0.1-0.1-0.2-0.2-0.3-0.2
	c-0.3-0.2-0.6-0.3-0.8-0.2c-0.2,0.1-0.4,0.3-0.4,0.3s0.6,0,1,0.1H24.4L24.4,94.7z M19.9,94.7c-0.1-0.2-0.2-0.3-0.3-0.3
	c-0.2-0.1-0.4,0.2-0.5,0.3h0.3c0,0,0,0,0,0c0.1-0.1,0.2,0,0.2,0H19.9z M19.1,94.7h0.3C19.1,94.9,19.1,94.8,19.1,94.7
	C19.1,94.8,19.1,94.7,19.1,94.7L19.1,94.7z M19.7,94.7h0.2c0,0.1,0.1,0.3,0.1,0.5l-0.3,0c0,0,0-0.1,0.1-0.1
	C19.7,95.1,19.8,94.8,19.7,94.7L19.7,94.7z M20.3,94.7H21c0.6,0.5,1.7,0.3,2,0.2c0.3,0,0.5,0,0.5,0c-0.1,0.1-0.3,0.2-0.4,0.2h-2
	c-0.1,0-0.3-0.1-0.4-0.2C20.5,94.9,20.4,94.8,20.3,94.7L20.3,94.7z M24,94.7h0.5c0.1,0.1,0.3,0.3,0.4,0.5h-0.4
	c0-0.1-0.1-0.1-0.1-0.2C24.2,94.8,24.1,94.8,24,94.7L24,94.7z M24.7,94.7c0.1,0.1,0.1,0.2,0.2,0.3c0,0,0.7-0.3,1.2-0.2
	c0,0-0.1-0.1-0.2-0.2H24.7L24.7,94.7z M74,94.7h1.3c-0.1,0.1-0.1,0.2-0.2,0.3c0,0-0.7-0.3-1.2-0.2C73.9,94.9,73.9,94.8,74,94.7
	L74,94.7z M75.6,94.7c-0.1,0.1-0.3,0.3-0.4,0.5l0.4,0c0-0.1,0.1-0.1,0.1-0.2c0.1-0.1,0.2-0.2,0.3-0.2H75.6L75.6,94.7z M79,94.7
	l0.8,0c-0.1,0.1-0.3,0.2-0.4,0.3c-0.2,0.1-0.3,0.2-0.4,0.2h-2c-0.1-0.1-0.3-0.1-0.4-0.2c0,0,0.2-0.1,0.5,0
	C77.3,95,78.4,95.2,79,94.7L79,94.7z M80.1,94.7l0.2,0c-0.1,0.1,0,0.3,0,0.3c0,0,0,0.1,0.1,0.1H80C80,95,80,94.8,80.1,94.7
	L80.1,94.7z M80.6,94.7l0.3,0c0,0,0,0,0,0S80.9,94.9,80.6,94.7z M19.6,95.2l0.3,0c0,0,0,0,0,0.1c0,0,0.2,0,0.4,0.1h-0.8
	C19.6,95.2,19.6,95.2,19.6,95.2L19.6,95.2z M21.1,95.2h2c-0.1,0-0.2,0.1-0.3,0.1h-1.3C21.3,95.3,21.2,95.2,21.1,95.2L21.1,95.2z
	 M24.4,95.2h0.4c0,0,0,0.1,0.1,0.1h-0.4C24.4,95.2,24.4,95.2,24.4,95.2L24.4,95.2z M75.2,95.2l0.4,0c0,0,0,0.1,0,0.1h-0.4
	C75.2,95.2,75.2,95.2,75.2,95.2L75.2,95.2z M77,95.2h2c-0.1,0-0.2,0.1-0.3,0.1l-1.3,0C77.2,95.3,77.1,95.2,77,95.2L77,95.2z
	 M80,95.2h0.3c0,0,0,0.1,0.1,0.1l-0.8,0C79.8,95.2,80,95.2,80,95.2C80,95.2,80,95.2,80,95.2L80,95.2z M76.3,95.3L76.3,95.3
	c-0.1-0.1-0.1-0.1-0.1-0.1S76.2,95.2,76.3,95.3L76.3,95.3z M23.8,95.3L23.8,95.3C23.8,95.2,23.9,95.2,23.8,95.3
	C23.9,95.2,23.9,95.2,23.8,95.3z M19.6,95.3h0.8c0,0,0.1,0,0.1,0L19.6,95.3C19.6,95.3,19.6,95.3,19.6,95.3L19.6,95.3z M21.4,95.3
	h1.3c-0.1,0-0.1,0-0.2,0h-0.8C21.6,95.3,21.5,95.3,21.4,95.3L21.4,95.3z M23.7,95.3L23.7,95.3C23.8,95.3,23.8,95.3,23.7,95.3
	L23.7,95.3C23.7,95.3,23.7,95.3,23.7,95.3L23.7,95.3z M24.4,95.3h0.4c0,0,0,0,0,0L24.4,95.3C24.4,95.3,24.4,95.3,24.4,95.3
	L24.4,95.3z M75.1,95.3h0.4c0,0,0,0,0,0L75.1,95.3C75.1,95.3,75.1,95.3,75.1,95.3L75.1,95.3z M76.2,95.3L76.2,95.3
	c0.1,0,0.1,0,0.1,0L76.2,95.3C76.2,95.3,76.2,95.3,76.2,95.3L76.2,95.3z M77.3,95.3l1.3,0c-0.1,0-0.2,0-0.2,0h-0.8
	C77.4,95.3,77.4,95.3,77.3,95.3L77.3,95.3z M79.6,95.3l0.8,0c0,0,0,0,0,0L79.6,95.3C79.6,95.3,79.6,95.3,79.6,95.3L79.6,95.3z
	 M74.1,95.3L74.1,95.3L74.1,95.3C74.1,95.3,74.1,95.3,74.1,95.3L74.1,95.3z M25.9,95.3L25.9,95.3C25.9,95.3,25.9,95.3,25.9,95.3
	L25.9,95.3z M19.6,95.3h0.9c0,0,0.1,0.1,0.1,0.2c0,0,0,0,0,0.1l-0.2,0c0,0,0-0.1-0.1-0.1c-0.1,0-0.3,0-0.5,0.1h-0.3
	C19.5,95.5,19.5,95.4,19.6,95.3L19.6,95.3z M21.7,95.3h0.8C22.2,95.4,21.9,95.4,21.7,95.3L21.7,95.3z M23.7,95.3L23.7,95.3
	c0,0.1,0,0.1-0.1,0.2h-0.4C23.3,95.5,23.5,95.4,23.7,95.3L23.7,95.3z M24.4,95.3h0.4c0,0.1,0,0.2,0.1,0.2h-0.5
	C24.5,95.5,24.5,95.4,24.4,95.3L24.4,95.3z M25.9,95.3L25.9,95.3l0.1,0.2h-0.2C25.8,95.5,25.8,95.4,25.9,95.3L25.9,95.3z M74.1,95.3
	L74.1,95.3c0.1,0,0.1,0.1,0.2,0.2l-0.2,0L74.1,95.3L74.1,95.3z M75.1,95.3h0.4c0,0.1,0,0.2,0,0.2h-0.5
	C75.1,95.5,75.1,95.4,75.1,95.3L75.1,95.3z M76.2,95.3L76.2,95.3c0.2,0.1,0.4,0.2,0.6,0.2l-0.4,0C76.4,95.5,76.3,95.4,76.2,95.3
	L76.2,95.3z M77.5,95.3h0.8C78.1,95.4,77.8,95.4,77.5,95.3L77.5,95.3z M79.6,95.3h0.9c0,0.1,0.1,0.2,0.1,0.2h-0.3
	c-0.1-0.1-0.3-0.1-0.5-0.1c-0.1,0-0.1,0-0.1,0.1h-0.2c0,0,0,0,0-0.1C79.5,95.4,79.5,95.4,79.6,95.3L79.6,95.3z M75.9,95.6L75.9,95.6
	L75.9,95.6C75.9,95.6,75.9,95.6,75.9,95.6L75.9,95.6z M24.1,95.6L24.1,95.6C24.1,95.6,24.1,95.6,24.1,95.6L24.1,95.6z M19.5,95.6
	h0.3c-0.1,0.1-0.2,0.2-0.2,0.5c0,0.2,0.1,0.5,0.3,0.8l-0.5,0C19.3,96.5,19.3,96.1,19.5,95.6L19.5,95.6z M20.4,95.6l0.2,0
	c0,0.3-0.2,0.5-0.5,0.6C20.1,96.2,20.4,95.8,20.4,95.6L20.4,95.6z M23.1,95.6c-0.1,0-0.2,0-0.3,0c-0.5,0-1.2-0.1-2,0.2
	c-0.7,0.3-0.6,0.9-0.6,0.9h0c0,0,0.1-0.1,0.3-0.3c0.2-0.2,0.6-0.1,0.7,0.1c0.1,0.1,0.2,0.2,0.3,0.2h0.2c0.1,0,0.1,0,0.2,0
	c0.3-0.1,0.5,0,0.5,0c0,0,0,0.1,0,0.1h0.9c0-0.1,0-0.2,0-0.4c0-0.3,0.1-0.6,0.2-0.8H23.1L23.1,95.6z M24.1,95.6L24.1,95.6
	c0,0.1,0.1,0.3,0,0.5c0,0.1-0.1,0.4-0.1,0.7h-0.3C23.7,96.4,23.8,96,24.1,95.6L24.1,95.6z M24.5,95.6h0.5c0,0,0,0.1,0,0.1
	c-0.1,0.4-0.5,0.3-0.5,0.3C24.5,95.9,24.5,95.7,24.5,95.6L24.5,95.6z M25.7,95.6c0,0.1-0.1,0.2-0.2,0.2c-0.1,0.2-0.8,0.6-1,1l0.6,0
	c0-0.2,0.2-0.4,0.6-0.5c0.3-0.1,0.8,0.1,1,0.5h0.4c-0.3-0.6-1.1-0.9-1.1-0.9l0-0.3H25.7L25.7,95.6z M74.1,95.6l0.2,0
	c0,0.1,0.1,0.2,0.2,0.2c0.1,0.2,0.8,0.6,1,1h-0.6c0-0.2-0.2-0.4-0.6-0.5c-0.3-0.1-0.7,0.1-1,0.5h-0.4c0.3-0.6,1.1-0.9,1.1-0.9
	L74.1,95.6L74.1,95.6z M75.1,95.6c0,0,0,0.1,0,0.1c0.1,0.4,0.5,0.3,0.5,0.3c0-0.1,0-0.2,0-0.4H75.1L75.1,95.6z M75.9,95.6L75.9,95.6
	c0.3,0.4,0.4,0.8,0.4,1.2H76c0-0.3-0.1-0.6-0.1-0.7C75.8,95.8,75.9,95.6,75.9,95.6L75.9,95.6z M76.4,95.6l0.4,0c0.1,0,0.2,0,0.3,0
	c0.5,0,1.2-0.1,1.9,0.2c0.7,0.3,0.6,0.9,0.6,0.9l0,0c0,0-0.1-0.1-0.3-0.3c-0.2-0.2-0.6-0.1-0.7,0.1c-0.1,0.1-0.2,0.2-0.3,0.2l-0.2,0
	c-0.1,0-0.1,0-0.2,0c-0.3-0.1-0.5,0-0.5,0c0,0,0,0.1,0,0.1l-0.9,0c0-0.1,0-0.2,0-0.4C76.7,96.1,76.5,95.8,76.4,95.6L76.4,95.6z
	 M79.5,95.6c0,0.3,0.2,0.5,0.5,0.6c0,0-0.3-0.4-0.3-0.6H79.5L79.5,95.6z M80.2,95.6h0.3c0.2,0.5,0.2,0.9,0.1,1.2l-0.5,0
	c0.2-0.2,0.3-0.6,0.3-0.8C80.4,95.8,80.3,95.7,80.2,95.6L80.2,95.6z M74.5,96.8c0-0.1-0.4-0.1-0.4-0.1l0,0.1L74.5,96.8L74.5,96.8z
	 M72.6,96.8l-1.2,0c-0.1,0-0.2-0.1-0.3-0.1c0,0,0-0.3,0.3-0.3c0,0-0.1-0.2-0.6-0.4c0,0,0.3-0.2,0.6-0.2c0.2,0,0.4,0,0.7,0
	c0.3-0.1,0.7,0.3,0.6,0.8C72.6,96.7,72.6,96.7,72.6,96.8L72.6,96.8z M28.6,96.8l-1.2,0c0-0.1,0-0.1,0-0.2c-0.1-0.5,0.3-0.8,0.6-0.8
	c0.3,0,0.4,0,0.7,0c0.3,0,0.6,0.2,0.6,0.2c-0.5,0.2-0.6,0.4-0.6,0.4c0.2,0,0.2,0.3,0.2,0.3C28.7,96.7,28.7,96.7,28.6,96.8L28.6,96.8
	z M25.9,96.8h-0.5c0-0.1,0.4-0.1,0.4-0.1L25.9,96.8z M19.4,96.8l0.5,0c0.3,0.3,0.9,0.5,2.1,0.2c0,0,0,0.2,0,0.5h-0.2c0,0,0,0,0,0
	c0,0-1.4,0.1-2-0.3C19.6,97.1,19.5,97,19.4,96.8L19.4,96.8z M20.3,96.8C20.3,96.8,20.3,96.8,20.3,96.8
	C20.3,96.8,20.3,96.8,20.3,96.8L20.3,96.8L20.3,96.8z M21.6,96.8c0.1,0,0.2,0,0.2,0H21.6L21.6,96.8z M22.5,96.8h0.9
	c0,0.3,0,0.5,0,0.7h-1C22.3,97.4,22.3,97.2,22.5,96.8L22.5,96.8z M23.7,96.8H24c0,0.2,0,0.5,0,0.7h-0.3C23.7,97.3,23.6,97,23.7,96.8
	L23.7,96.8z M24.5,96.8l0.6,0c0,0.1,0,0.1,0,0.2c0.1,0.2,0.6,0.6,0.6,0.3c0-0.3-0.1-0.2-0.3-0.4c0,0,0,0,0-0.1h0.5l0.1,0.3l0.4,0.2
	c0,0-0.2,0.1-0.3,0.2l-1.5,0c-0.1-0.1-0.2-0.3-0.2-0.4C24.4,97,24.4,96.9,24.5,96.8L24.5,96.8z M26.7,96.8h0.4
	c0.1,0.2,0.1,0.3,0.1,0.5c0,0,0,0.1,0,0.1l-0.3,0C26.9,97.2,26.8,97,26.7,96.8L26.7,96.8z M27.4,96.8l1.2,0
	c-0.3,0.2-0.7,0.5-0.9,0.7l-0.3,0C27.4,97.3,27.4,97.1,27.4,96.8L27.4,96.8z M71.4,96.8l1.2,0c0,0.3,0,0.5,0,0.7l-0.3,0
	C72.1,97.3,71.7,97,71.4,96.8L71.4,96.8z M72.9,96.8h0.4c-0.1,0.2-0.2,0.4-0.2,0.7h-0.3c0,0,0-0.1,0-0.1
	C72.8,97.1,72.8,97,72.9,96.8L72.9,96.8z M74.1,96.8l0.5,0c0,0,0,0,0,0.1c-0.1,0.2-0.3,0.1-0.3,0.4c0,0.3,0.4,0,0.6-0.3
	c0,0,0-0.1,0-0.2h0.6c0,0.1,0.1,0.2,0.1,0.3c0,0.1-0.1,0.3-0.2,0.4h-1.5c-0.1-0.1-0.3-0.2-0.3-0.2l0.4-0.2L74.1,96.8L74.1,96.8z
	 M76,96.8h0.3c0,0.2,0,0.5,0,0.7H76C76,97.3,76,97,76,96.8L76,96.8z M76.6,96.8l0.9,0c0.2,0.4,0.2,0.6,0.2,0.7h-1
	C76.6,97.2,76.6,97.1,76.6,96.8L76.6,96.8z M78.2,96.8l0.2,0C78.3,96.8,78.2,96.8,78.2,96.8L78.2,96.8z M79.7,96.8L79.7,96.8
	C79.7,96.8,79.7,96.8,79.7,96.8C79.7,96.8,79.7,96.8,79.7,96.8L79.7,96.8z M80.1,96.8c-0.3,0.3-0.9,0.5-2.1,0.2c0,0,0,0.2,0,0.5h0.2
	c0,0,0,0,0,0c0,0,1.4,0.1,2-0.3c0.2-0.1,0.3-0.2,0.4-0.4L80.1,96.8L80.1,96.8z M79.6,97.5h-0.7C79.1,97.5,79.3,97.5,79.6,97.5
	L79.6,97.5z M71.6,97.5c-0.3-0.2-0.5-0.3-0.6-0.3c-0.1,0-0.3,0.1-0.6,0.2c-0.1,0-0.2,0.1-0.3,0.1H71.6L71.6,97.5z M53.4,97.5h-1
	c0.2,0,0.5-0.1,0.8,0C53.3,97.5,53.4,97.5,53.4,97.5L53.4,97.5z M51.2,97.5h-0.1C51.2,97.5,51.2,97.5,51.2,97.5L51.2,97.5z
	 M49.1,97.5H49C49,97.5,49.1,97.5,49.1,97.5L49.1,97.5z M47.7,97.5l-1,0c0.1,0,0.2,0,0.2,0C47.3,97.4,47.5,97.5,47.7,97.5L47.7,97.5
	z M29.8,97.5c-0.1,0-0.2-0.1-0.3-0.1c-0.3-0.1-0.5-0.2-0.6-0.2c-0.2,0-0.4,0-0.6,0.3H29.8L29.8,97.5z M21.1,97.5c-0.2,0-0.4,0-0.7,0
	L21.1,97.5z M20.4,97.5l0.7,0c0.3,0,0.4,0.1,0.4,0.1c0,0.2,0,0.3,0,0.5h-2l-0.1,0C19.7,97.7,20.1,97.5,20.4,97.5L20.4,97.5z
	 M21.7,97.5H22c0,0.2,0,0.4,0,0.6l-0.3,0C21.7,97.9,21.7,97.7,21.7,97.5L21.7,97.5z M22.3,97.5h1c0,0.1,0,0.2-0.1,0.3
	c0,0.1,0,0.2-0.1,0.3h-0.5c0-0.1,0-0.1,0-0.2C22.6,97.7,22.4,97.7,22.3,97.5L22.3,97.5z M23.7,97.5H24c0,0.2,0.1,0.4,0.3,0.6h-0.4
	C23.8,97.9,23.8,97.7,23.7,97.5L23.7,97.5z M24.6,97.5l1.5,0c0,0,0,0,0,0.1c0,0.1,0,0.4,0.2,0.5l-0.1,0.1l-0.8,0
	C25.1,97.9,24.8,97.7,24.6,97.5L24.6,97.5z M26.9,97.5l0.3,0c0,0.2-0.1,0.4-0.1,0.6h-0.3c0-0.1,0-0.1,0-0.2
	C26.9,97.7,26.9,97.6,26.9,97.5L26.9,97.5z M27.4,97.5l0.3,0c-0.2,0.2-0.3,0.3-0.3,0.3S27.4,97.7,27.4,97.5L27.4,97.5z M28.4,97.5
	C28.3,97.5,28.3,97.5,28.4,97.5c-0.3,0.3-0.5,0.5-0.7,0.6l0.3,0c0.3-0.2,0.6-0.4,0.9-0.5c0.3-0.1,0.9-0.1,1.5,0.3
	c0,0,0.1,0.1,0.1,0.1l0.4,0c-0.1-0.1-0.2-0.2-0.4-0.3c-0.1-0.1-0.3-0.2-0.5-0.3H28.4L28.4,97.5z M46.7,97.5l1,0
	c0.3,0.1,0.5,0.2,0.6,0.2c0.2,0.1,0.2,0.2,0,0.3c0,0-0.1,0-0.1,0c0,0,0.1,0.1,0.1,0.1l-0.3,0c-0.2-0.2-0.5-0.2-0.5-0.2
	s-0.1-0.2,0.4-0.1c0,0,0,0,0,0c-0.2-0.1-0.4-0.1-0.7-0.1c-0.5,0-0.9,0-0.9,0.4h-0.4c-0.2-0.1-0.3-0.2-0.4-0.1
	c-0.1,0.1-0.2-0.1-0.2-0.1s0-0.4,0.4-0.3c0.3,0.1,0.3,0.2,0.4,0.3C46.3,97.8,46.4,97.6,46.7,97.5L46.7,97.5z M49,97.5h0.1
	c0.1,0,0.1,0,0.1,0.1c0,0.2-0.3,0.1-0.3,0.1l0-0.2C48.9,97.5,48.9,97.5,49,97.5L49,97.5z M51.1,97.5h0.1c0.1,0,0.1,0,0.1,0v0.2
	c0,0-0.3,0.1-0.3-0.1C51,97.5,51.1,97.5,51.1,97.5L51.1,97.5z M52.4,97.5h1c0.3,0.1,0.5,0.3,0.5,0.5c0.1-0.1,0.1-0.2,0.4-0.3
	c0.4-0.1,0.4,0.3,0.4,0.3s0,0.1-0.2,0.1c-0.1,0-0.2,0-0.4,0.1h-0.4c0-0.3-0.3-0.4-0.9-0.4c-0.3,0-0.5,0-0.7,0.1l0,0
	c0.5-0.1,0.4,0.1,0.4,0.1s-0.3-0.1-0.5,0.2h-0.3c0,0,0-0.1,0.1-0.1c0,0-0.1,0-0.1,0c-0.2,0-0.3-0.1,0-0.3
	C52,97.6,52.2,97.5,52.4,97.5L52.4,97.5z M70.2,97.5h1.5c0,0,0.1,0.1,0.1,0.1c0.2,0.2,0.5,0.4,0.6,0.5l-0.3,0
	c-0.3-0.2-0.6-0.4-0.9-0.5c-0.3-0.1-0.9-0.1-1.5,0.3c0,0-0.1,0.1-0.1,0.1h-0.4c0.1-0.1,0.2-0.2,0.4-0.3C69.8,97.7,70,97.6,70.2,97.5
	L70.2,97.5z M72.3,97.5c0.2,0.2,0.3,0.3,0.3,0.3s0-0.1,0-0.3L72.3,97.5L72.3,97.5z M72.8,97.5h0.3c0,0.1,0,0.3,0,0.4
	c0,0.1,0,0.1,0,0.2h-0.3C72.8,97.9,72.8,97.7,72.8,97.5L72.8,97.5z M73.9,97.5h1.5c-0.2,0.3-0.5,0.5-0.8,0.6l-0.8,0L73.7,98
	C73.9,98,73.9,97.7,73.9,97.5C73.9,97.5,73.9,97.5,73.9,97.5L73.9,97.5z M76,97.5h0.3c0,0.2-0.1,0.4-0.2,0.6l-0.4,0
	C75.8,97.9,75.9,97.7,76,97.5L76,97.5z M76.7,97.5h1c-0.1,0.2-0.2,0.2-0.3,0.5c0,0,0,0.1,0,0.2h-0.5c0-0.1,0-0.2-0.1-0.3
	C76.7,97.7,76.7,97.6,76.7,97.5L76.7,97.5z M78,97.5h0.2c0,0.2,0,0.4,0,0.6l-0.3,0C78,97.9,78,97.7,78,97.5L78,97.5z M78.9,97.5h0.7
	c0.3,0.1,0.7,0.2,1,0.6l-0.1,0h-2c0-0.2,0-0.3,0-0.5C78.5,97.6,78.7,97.5,78.9,97.5L78.9,97.5z M70.7,98.1
	C70.7,98.1,70.7,98.1,70.7,98.1c-0.1,0-0.1,0-0.1,0L70.7,98.1L70.7,98.1z M69.1,98.1l-0.6,0l0-0.2c0-0.1,0.1-0.2,0.2-0.2h0.2
	c0.1,0,0.2,0.1,0.2,0.2V98.1L69.1,98.1z M57.6,98.1l-1.5,0c0.2-0.2,0.4-0.4,0.5-0.4c0.2,0-0.3,0.4-0.1,0.4
	C56.8,98.1,57.3,97.9,57.6,98.1C57.6,98.1,57.6,98.1,57.6,98.1L57.6,98.1z M55.7,98.1h-0.1C55.6,98,55.6,98,55.7,98.1
	C55.6,98,55.7,98,55.7,98.1L55.7,98.1z M55.2,98.1l-0.2,0C55.1,98,55.1,98,55.2,98.1C55.2,98,55.2,98.1,55.2,98.1L55.2,98.1z
	 M51.2,98.1c-0.2-0.3-0.7-0.4-1.2-0.4c-0.5,0-0.9,0.1-1.2,0.4h0.7c0,0,0,0,0,0c-0.1-0.1,0.2-0.1,0.3-0.1c0.1,0,0.1,0.1,0,0.2h0.2
	c0-0.1,0-0.2,0.2-0.2c0.1,0,0.1,0.1,0,0.2l0,0c0.1-0.1,0.3,0,0.3,0s0.1,0,0.1,0H51.2L51.2,98.1z M45.1,98.1l-0.2,0
	C45,98.1,45,98,45.1,98.1C45.1,98,45.1,98,45.1,98.1L45.1,98.1z M44.6,98.1h-0.1C44.5,98,44.5,98,44.6,98.1
	C44.5,98,44.6,98,44.6,98.1L44.6,98.1z M44,98.1l-1.5,0c0,0,0,0,0,0c0.2-0.1,0.7,0,0.9,0c0.2,0-0.2-0.4-0.1-0.4
	C43.6,97.7,43.8,97.9,44,98.1L44,98.1z M31.5,98.1h-0.6l0-0.2c0-0.1,0.1-0.2,0.2-0.2l0.2,0c0.1,0,0.2,0.1,0.2,0.2L31.5,98.1
	L31.5,98.1z M29.4,98.1h-0.1C29.3,98.1,29.3,98.1,29.4,98.1C29.4,98.1,29.4,98.1,29.4,98.1z M19.5,98.1h2c0,0.1,0,0.3,0,0.4l-1.7,0
	c0.2-0.2,0.3-0.3,0.3-0.3L19.5,98.1L19.5,98.1z M21.7,98.1l0.3,0c0,0.1,0,0.3,0,0.4h-0.3C21.7,98.4,21.7,98.2,21.7,98.1L21.7,98.1z
	 M22.7,98.1h0.5c-0.1,0.2-0.1,0.3-0.2,0.4l-0.5,0C22.6,98.4,22.6,98.2,22.7,98.1L22.7,98.1z M23.9,98.1h0.4c0,0,0,0,0.1,0.1h0.8
	c0,0-0.1,0.3-0.3,0.3c0,0,0,0-0.1,0h-0.8c0,0,0,0,0-0.1C24,98.3,23.9,98.2,23.9,98.1L23.9,98.1z M25.4,98.1l0.8,0l-0.1,0.1
	c0,0,0,0.2,0,0.3l-0.4,0c0.1-0.1,0.2-0.2,0-0.3C25.7,98.2,25.5,98.2,25.4,98.1L25.4,98.1z M26.8,98.1h0.3c0,0.2-0.1,0.3-0.1,0.4
	h-0.3C26.7,98.4,26.8,98.2,26.8,98.1L26.8,98.1z M27.6,98.1l0.3,0c0,0,0,0,0,0c-0.2,0.1-0.5,0.1-0.5,0.1S27.5,98.2,27.6,98.1
	L27.6,98.1z M29.3,98.1h0.1c0.1,0.1,0.3,0.3,0.5,0.4l-2,0c0.1-0.1,0.4-0.3,0.6-0.3c0.3,0.1,0.5,0.2,0.5,0.2S29.2,98.2,29.3,98.1
	L29.3,98.1z M30.4,98.1l0.4,0c0.1,0.1,0.1,0.1,0.1,0.2v-0.2h0.6l0,0.2h11v0.2H30.6C30.6,98.4,30.5,98.3,30.4,98.1L30.4,98.1z
	 M42.6,98.1c-0.1,0.1,0,0.3,0,0.4h0.1c0.1-0.1,0.4-0.4,1.5,0c0,0,0,0,0,0h0.7c-0.1-0.1-0.1-0.1-0.2-0.2c0-0.1-0.1-0.1-0.1-0.2h-0.1
	c0,0.1-0.1,0.1-0.3,0.1c-0.1,0-0.1-0.1-0.2-0.1L42.6,98.1L42.6,98.1z M45,98.1l0.2,0c0,0.1,0.1,0.3,0.2,0.4l-0.4,0
	C45,98.4,44.9,98.2,45,98.1L45,98.1z M45.9,98.1h0.4c0,0,0,0.1,0,0.2c0.1,0.1,0.2,0.2,0.3,0c0.2-0.2,0.3-0.2,0.3,0
	c0,0.1,0,0.2-0.1,0.2l-0.6,0C46.2,98.4,46.1,98.3,45.9,98.1C46,98.1,46,98.1,45.9,98.1L45.9,98.1z M48,98.1l0.3,0
	c0.1,0.1,0.1,0.3,0.1,0.4h-0.2c0-0.1,0-0.1,0-0.3C48.1,98.2,48.1,98.1,48,98.1L48,98.1z M48.9,98.1h0.7c0,0.1,0,0.1,0,0.1
	s-0.2-0.1-0.3,0c-0.1,0.1,0,0.3,0,0.3s0,0,0,0h-0.5c0,0,0,0,0,0C48.7,98.3,48.8,98.2,48.9,98.1L48.9,98.1z M50,98.1
	C49.9,98.1,49.9,98.1,50,98.1c0,0-0.1,0.1-0.2,0.1c-0.1,0,0.1,0.1-0.1,0.1c-0.1,0-0.1,0.1-0.1,0.1l0.3,0c0,0,0-0.1,0-0.1
	c0.1-0.2,0.4,0,0.4,0s0,0,0,0.1l0.2,0c0,0,0-0.1,0.1-0.1c0.3-0.1,0.4,0.1,0.4,0.1s0,0,0,0l0.4,0c0,0,0,0,0,0c0-0.2-0.1-0.3-0.2-0.4
	h-0.4c0,0,0,0.1-0.1,0.1c-0.2,0.2-0.3-0.1-0.4,0c-0.1,0.1-0.2,0-0.2-0.1l0,0H50L50,98.1z M50.4,98.1L50.4,98.1
	C50.4,98.1,50.4,98.1,50.4,98.1C50.4,98.1,50.4,98.1,50.4,98.1L50.4,98.1z M51.9,98.1h0.3c0,0-0.1,0.1-0.1,0.2c0,0.1,0,0.2,0,0.2
	l-0.2,0C51.8,98.4,51.8,98.2,51.9,98.1L51.9,98.1z M53.8,98.1h0.4c0,0,0,0-0.1,0.1c-0.1,0.1-0.2,0.3-0.3,0.3h-0.6
	c0-0.1-0.1-0.1-0.1-0.2c0-0.2,0.1-0.2,0.3,0c0.1,0.2,0.2,0.1,0.4,0C53.8,98.2,53.8,98.1,53.8,98.1L53.8,98.1z M55,98.1l0.2,0
	c0,0.1,0,0.3,0,0.4h-0.4C55,98.4,55,98.2,55,98.1L55,98.1z M55.6,98.1h0.1c0,0.1,0.1,0.1,0.3,0.1c0.1,0,0.1-0.1,0.2-0.1l1.5,0
	c0,0,0.1,0.1,0,0.2h10.8v-0.2l0.6,0v0.2c0-0.1,0.1-0.1,0.1-0.2h0.4c-0.2,0.2-0.2,0.3-0.3,0.4l-11.9,0c-0.1-0.1-0.4-0.4-1.5,0
	c0,0,0,0,0,0h-0.7c0.1-0.1,0.1-0.1,0.2-0.2C55.5,98.2,55.5,98.1,55.6,98.1L55.6,98.1z M70.6,98.1l0.1,0c0.1,0.1,0.4,0.4,0.4,0.4
	s0.2-0.2,0.5-0.2c0.2,0,0.5,0.2,0.6,0.3h-2C70.2,98.3,70.5,98.2,70.6,98.1L70.6,98.1z M72.1,98.1l0.3,0c0.1,0.1,0.2,0.1,0.2,0.1
	S72.3,98.2,72.1,98.1C72.1,98.1,72.1,98.1,72.1,98.1L72.1,98.1z M72.9,98.1h0.3c0,0.2,0.1,0.3,0.2,0.4l-0.4,0
	C73,98.4,72.9,98.2,72.9,98.1L72.9,98.1z M73.8,98.1l0.8,0c-0.1,0.1-0.2,0.1-0.3,0.1c-0.2,0.1-0.1,0.2,0,0.3h-0.3
	c-0.1-0.2,0-0.3,0-0.3L73.8,98.1L73.8,98.1z M75.7,98.1l0.4,0c0,0.1-0.1,0.2-0.2,0.3c0,0,0,0,0,0.1l-0.7,0c0,0,0,0-0.1,0
	c-0.2,0-0.3-0.3-0.3-0.3L75.7,98.1C75.6,98.1,75.6,98.1,75.7,98.1L75.7,98.1z M76.8,98.1h0.5c0,0.1,0.1,0.3,0.2,0.4l-0.5,0
	C77,98.4,76.9,98.2,76.8,98.1L76.8,98.1z M78,98.1l0.3,0c0,0.1,0,0.3,0,0.4H78C78,98.4,78,98.2,78,98.1L78,98.1z M78.5,98.1h2
	l-0.6,0.1c0,0,0.2,0.1,0.3,0.3l-1.7,0C78.5,98.4,78.5,98.2,78.5,98.1z M19.8,98.5l1.7,0c0,0.1,0,0.2,0,0.3h-0.6l0-0.1
	c0,0,0,0.1,0,0.1h-1.1C19.7,98.7,19.8,98.6,19.8,98.5L19.8,98.5z M21.7,98.5H22c0,0.1,0,0.2,0.1,0.3l-0.3,0
	C21.8,98.7,21.7,98.6,21.7,98.5L21.7,98.5z M22.5,98.5l0.5,0c-0.2,0.2-0.4,0.3-0.7,0.3C22.2,98.8,22.4,98.7,22.5,98.5L22.5,98.5z
	 M24.1,98.5h0.8c0,0.1,0,0.2,0,0.3l-0.6,0C24.2,98.7,24.1,98.6,24.1,98.5L24.1,98.5z M25.7,98.5l0.4,0c0,0.1-0.1,0.2-0.3,0.2
	c-0.3,0-0.3-0.1-0.3-0.1S25.6,98.6,25.7,98.5L25.7,98.5z M26.7,98.5H27c-0.1,0.2-0.1,0.3-0.1,0.3s0.1,0,0.2,0h-0.7
	C26.5,98.7,26.6,98.6,26.7,98.5L26.7,98.5z M27.9,98.5l2,0c0,0.1,0.1,0.1,0.1,0.1c0,0,0,0.1,0,0.1h-0.1c0-0.1-0.1-0.1-0.2-0.1
	l-0.2,0c0,0,0,0,0,0.1h-1c0,0,0,0,0-0.1C28.3,98.4,27.8,98.6,27.9,98.5C27.8,98.6,27.9,98.5,27.9,98.5L27.9,98.5z M30.6,98.5h11.9
	l0,0.1h-11v0.2l-0.9,0c0,0,0-0.1,0-0.1C30.6,98.7,30.7,98.6,30.6,98.5L30.6,98.5z M42.6,98.5L42.6,98.5
	C42.7,98.5,42.6,98.6,42.6,98.5C42.6,98.6,42.6,98.5,42.6,98.5L42.6,98.5z M44.2,98.5h0.7c0.1,0.1,0.1,0.1,0.1,0.1c0,0,0-0.1,0-0.1
	l0.4,0c0,0,0.1,0.1,0.2,0.1c0.1,0,0.2,0.1,0.2,0.2h-0.9C44.7,98.7,44.5,98.6,44.2,98.5L44.2,98.5z M46.3,98.5l0.6,0
	c-0.1,0.1-0.2,0.1-0.3,0.1C46.5,98.6,46.4,98.6,46.3,98.5L46.3,98.5z M48.1,98.5h0.2c0,0,0,0.1,0,0.1c0,0,0,0.1,0,0.2l-0.6,0h0
	C47.9,98.7,48.1,98.7,48.1,98.5L48.1,98.5z M48.7,98.5h0.5c-0.1,0.1-0.2,0.2-0.1,0.3l-0.3,0C48.7,98.7,48.7,98.6,48.7,98.5
	L48.7,98.5z M49.5,98.5l0.3,0c0,0.1,0.1,0.2,0.1,0.2s-0.2,0-0.2,0.1h-0.2c0.1,0,0.1-0.1,0.1-0.1C49.5,98.6,49.5,98.5,49.5,98.5
	L49.5,98.5z M50.3,98.5l0.2,0c0,0.1,0.2,0.1,0.3,0.1c0.1,0,0.2-0.1,0.2-0.1l0.4,0c0,0.1,0,0.2-0.1,0.3h-0.5c0,0,0-0.1-0.1-0.1
	c-0.2-0.1-0.3-0.1-0.3,0.1l0,0l-0.1,0c0,0,0,0-0.1,0c0,0,0,0-0.1,0H50c0,0,0-0.1,0-0.1c0,0,0.2,0,0.3-0.1
	C50.3,98.6,50.3,98.5,50.3,98.5L50.3,98.5z M51.8,98.5l0.2,0c0,0.2,0.2,0.2,0.3,0.3h0l-0.6,0c0-0.1,0-0.1,0-0.2
	C51.8,98.6,51.8,98.5,51.8,98.5L51.8,98.5z M53.2,98.5h0.6c-0.1,0.1-0.2,0.1-0.3,0.1C53.4,98.6,53.3,98.6,53.2,98.5L53.2,98.5z
	 M54.8,98.5h0.4c0,0,0,0.1,0,0.1c0,0,0.1,0,0.1-0.1H56c-0.3,0.1-0.5,0.2-0.7,0.3l-0.8,0c0-0.1,0.1-0.1,0.2-0.2
	C54.7,98.6,54.8,98.5,54.8,98.5L54.8,98.5z M57.5,98.5l11.9,0c0,0.1,0,0.2,0,0.2c0,0,0,0.1,0,0.1l-0.9,0l0-0.2L57.5,98.5L57.5,98.5
	C57.5,98.6,57.5,98.5,57.5,98.5L57.5,98.5z M70.1,98.5h2c0,0,0.1,0.1,0.1,0.1s-0.5-0.2-0.6,0.1c0,0,0,0,0,0.1h-1c0,0,0-0.1,0-0.1
	l-0.2,0c-0.1,0-0.2,0-0.2,0.1l-0.1,0c0,0,0-0.1,0-0.1C70,98.6,70.1,98.6,70.1,98.5L70.1,98.5z M73,98.5l0.4,0
	c0.1,0.1,0.2,0.2,0.3,0.3l-0.7,0c0.1,0,0.1,0,0.1,0S73.1,98.7,73,98.5L73,98.5z M73.9,98.5h0.3c0.1,0.1,0.2,0.1,0.2,0.1
	s0,0.1-0.3,0.1C74,98.7,74,98.6,73.9,98.5L73.9,98.5z M75.1,98.5l0.7,0c0,0.1-0.1,0.2-0.2,0.3l-0.6,0C75.2,98.7,75.2,98.6,75.1,98.5
	L75.1,98.5z M77.1,98.5l0.5,0c0.1,0.2,0.2,0.3,0.2,0.3C77.5,98.8,77.2,98.7,77.1,98.5L77.1,98.5z M78,98.5h0.3c0,0.1,0,0.2-0.1,0.3
	l-0.3,0C78,98.7,78,98.6,78,98.5L78,98.5z M78.5,98.5l1.7,0c0.1,0.1,0.1,0.2,0.2,0.3h-1.1c0,0,0-0.1,0-0.1l0,0.1h-0.6
	C78.6,98.7,78.5,98.6,78.5,98.5L78.5,98.5z M76.9,98.8l-0.7,0c0-0.2,0.2-0.3,0.5-0.2C76.9,98.6,76.9,98.7,76.9,98.8L76.9,98.8z
	 M23.8,98.8l-0.7,0c0-0.1,0.1-0.2,0.2-0.2C23.6,98.5,23.8,98.6,23.8,98.8z M19.6,98.8h1.1c-0.6,1-1.3,0.7-1.3,0.7s0-0.3,0.1-0.6
	C19.6,98.9,19.6,98.8,19.6,98.8L19.6,98.8z M20.8,98.8h0.6c-0.2,0.7-0.5,0.7-0.5,0.7L20.8,98.8L20.8,98.8z M21.8,98.8l0.3,0
	c0,0.1,0.1,0.2,0.1,0.2c0.3,0.4,1.2,0.7,1.3,0c0,0,0-0.4-0.1-0.2C23.2,99,23,99.1,23,99.1s0-0.1,0-0.3l0.7,0c0,0,0,0.1,0,0.1l0,0.2
	c0,0,0.7-0.2,0.8,0.2c0.1,0.4-0.3,0.7-0.3,0.7s0.2-0.5,0-0.5c-0.2-0.1-0.3-0.1-0.5,0.1c-0.2,0.2-1,0.3-1.3,0.2
	C22.4,99.6,21.9,99.4,21.8,98.8L21.8,98.8z M24.3,98.8c0.5,0.8,1.2,0.9,2.4,0.7C28,99.3,28,100,28,100s0.1,0,0-0.5
	c-0.1-0.5-0.7-0.6-1-0.7h-0.7C26,99,25.5,99,25.3,99c-0.2,0-0.3-0.1-0.4-0.2L24.3,98.8L24.3,98.8z M28.4,98.8h1
	c0,0.2-0.1,0.7,0.3,0.8c0.4,0.1,0.9-0.1,0.9-0.8l0.9,0v0.3h11v0.1c0.1,0,0.1-0.1,0.2-0.1c0.3-0.2,0.9-0.2,1.1-0.2
	c0.3,0,0.6,0.2,0.9,0.3c0.3,0.1,0.9,0.1,0.9,0.1s-0.1-0.2-0.9-0.5h0.9c0.1,0.2,0,0.3,0.1,0.3c0.1,0.1,0.5,0,0.7,0.1
	c0.2,0.1,0.2,0.3,0.4,0.3c0.2,0.1,0.4,0.2,0.4,0.2c-1.6,0-2-0.2-2.3-0.3c-0.3-0.2-0.7-0.1-0.8,0.1c-0.1,0.2-0.3,0.2-0.3,0.2
	c-0.3-0.2,0.2-0.5,0.2-0.5c-0.6-0.2-0.6,0.3-0.6,0.3s-0.1,0.3-0.3,0.1c-0.2-0.1,0-0.5,0-0.5c-0.5-0.2-0.4,0.3-0.6,0.4
	c-0.1,0.1-0.3,0.1-0.3,0c0,0,0-0.1,0-0.2H31.5v0.4c0,0.1-0.1,0.2-0.2,0.2l-0.2,0c-0.1,0-0.2-0.1-0.2-0.2v-0.6
	c-0.1,0.2-0.2,0.4-0.5,0.6c-0.6,0.4-1.3,0.1-1.6-0.2C28.5,99.3,28.5,99.1,28.4,98.8L28.4,98.8z M29.9,98.8c0.1,0.1,0.1,0.3,0.1,0.3
	s0-0.2,0-0.3H29.9L29.9,98.8z M47.8,98.8l0.6,0c0,0.3,0.1,0.8,0.1,0.8s-0.3,0-0.4-0.2c-0.2-0.1-0.4-0.2-0.5-0.3
	C47.5,98.9,47.7,98.9,47.8,98.8L47.8,98.8z M48.8,98.8l0.3,0c0,0,0,0,0,0c0.1,0,0.2,0,0.3,0h0.2c0,0,0,0,0,0.1
	c0,0.1,0.3,0.1,0.4-0.1h0.2c-0.1,0-0.1,0.2,0,0.2c0.1,0.1,0.2,0,0.2,0s0-0.1-0.1-0.2l0.1,0c0,0.2,0.4,0.1,0.4,0.1s0-0.1,0-0.1h0.5
	c-0.2,0.3-0.7,0.4-1.3,0.4C49.5,99.2,49,99.1,48.8,98.8L48.8,98.8z M51.8,98.8l0.6,0c0.1,0.1,0.3,0.1,0.2,0.3
	c-0.1,0.1-0.3,0.2-0.5,0.3c-0.2,0.1-0.5,0.2-0.5,0.2S51.7,99.1,51.8,98.8L51.8,98.8z M54.5,98.8l0.8,0c-0.7,0.3-0.8,0.5-0.8,0.5
	s0.6,0,0.9-0.1c0.3-0.1,0.7-0.3,0.9-0.3c0.3,0,0.8,0,1.1,0.2c0,0,0.1,0,0.1,0v0l11,0v-0.3l0.9,0c0.1,0.7,0.5,0.9,0.9,0.8
	c0.4-0.1,0.3-0.6,0.3-0.8h1c-0.1,0.3-0.1,0.5-0.4,0.8c-0.3,0.3-0.9,0.6-1.6,0.2c-0.3-0.2-0.5-0.4-0.5-0.6l0,0.6
	c0,0.1-0.1,0.2-0.2,0.2h-0.2c-0.1,0-0.2-0.1-0.2-0.2l0-0.4l-10.7,0c0,0.1,0,0.1,0,0.2c0,0.2-0.2,0.1-0.3,0c-0.1-0.1-0.1-0.5-0.6-0.4
	c0,0,0.2,0.3,0,0.5c-0.2,0.1-0.2-0.1-0.2-0.1s0-0.5-0.6-0.3c0,0,0.4,0.3,0.2,0.5c0,0-0.2,0-0.3-0.2c0-0.2-0.5-0.3-0.8-0.1
	c-0.3,0.2-0.7,0.3-2.3,0.3c0,0,0.2-0.1,0.4-0.2c0.2,0,0.2-0.2,0.4-0.3c0.2-0.1,0.5,0,0.7-0.1C54.5,99.1,54.4,98.9,54.5,98.8
	L54.5,98.8z M70,98.8c0,0.1,0,0.3,0,0.3s0-0.2,0.1-0.3L70,98.8L70,98.8z M73,98.8l0.7,0C74,99,74.5,99,74.7,99
	c0.2,0,0.3-0.1,0.4-0.2l0.6,0c-0.5,0.7-1.2,0.9-2.4,0.7C72,99.3,72,100,72,100s-0.1,0,0-0.5C72.1,99,72.7,98.8,73,98.8L73,98.8z
	 M76.2,98.8c0,0,0,0.1,0,0.1l0,0.2c0,0-0.7-0.2-0.8,0.2c-0.1,0.4,0.3,0.7,0.3,0.7s-0.2-0.5,0-0.5c0.2-0.1,0.3-0.1,0.5,0.1
	c0.2,0.2,1,0.3,1.3,0.2c0.2-0.1,0.6-0.3,0.8-0.9l-0.3,0c0,0.1-0.1,0.2-0.1,0.2c-0.3,0.4-1.2,0.7-1.3,0c0,0,0-0.4,0.1-0.2
	c0.2,0.2,0.3,0.2,0.3,0.2s0-0.1,0-0.3L76.2,98.8L76.2,98.8z M78.6,98.8h0.6l-0.1,0.7C79.1,99.5,78.8,99.5,78.6,98.8L78.6,98.8z
	 M79.3,98.8h1.1c0,0,0,0.1,0.1,0.1c0.1,0.3,0.1,0.6,0.1,0.6S79.9,99.7,79.3,98.8L79.3,98.8z M51.4,99.4l0-0.2c0,0-0.3-0.1-0.3,0.1
	C51,99.5,51.4,99.4,51.4,99.4L51.4,99.4z M48.9,99.4c0,0,0.3,0.1,0.3-0.1c0-0.2-0.3-0.1-0.3-0.1L48.9,99.4z"/>
</svg>
