<?xml version="1.0" standalone="no"?><!DOCTYPE svg PUBLIC "-//W3C//DTD SVG 1.1//EN" "http://www.w3.org/Graphics/SVG/1.1/DTD/svg11.dtd"><svg class="icon" width="200px" height="200.00px" viewBox="0 0 1024 1024" version="1.1" xmlns="http://www.w3.org/2000/svg"><path fill="#999999" d="M50.5856 532.8896h968.3968v7.0656H50.5856zM49.7664 537.088c-6.0416 2.6624-12.9024 4.096-19.6608 3.9936-6.7584-0.2048-13.6192-0.9216-20.3776-4.5056-3.1744-1.9456-6.5536-5.12-7.5776-9.4208-1.024-4.4032 0.4096-8.9088 3.3792-11.776 2.8672-3.072 7.68-4.096 11.264-2.8672 3.584 1.3312 6.4512 4.1984 6.9632 7.5776-3.8912-5.632-11.6736-5.3248-14.0288-1.1264-2.9696 4.3008-1.2288 8.9088 3.584 11.5712 4.7104 2.7648 11.1616 3.9936 17.3056 5.12 6.144 1.024 12.4928 1.536 19.1488 1.4336zM22.3232 514.9696c-0.9216-5.632-0.512-11.6736 2.048-17.3056 2.4576-5.632 7.5776-10.5472 13.9264-12.3904 6.144-1.9456 14.2336-0.7168 18.5344 4.8128 4.3008 5.0176 4.7104 13.2096 0.2048 17.2032 1.8432-5.5296-0.9216-10.5472-4.1984-13.5168-3.3792-2.8672-8.0896-3.2768-12.3904-1.8432-9.3184 2.56-14.6432 12.1856-18.1248 23.04zM61.0304 498.176c0.7168-5.3248 5.12-9.6256 9.9328-12.1856 4.9152-2.56 10.6496-3.4816 16.2816-3.072s11.3664 2.6624 15.7696 6.656c4.3008 4.096 7.2704 9.8304 7.3728 16.1792-0.1024 6.3488-3.3792 12.3904-8.6016 15.9744-5.3248 3.6864-13.2096 3.3792-17.92-0.512-5.12-3.4816-7.68-11.0592-4.3008-16.5888 1.536-2.6624 4.5056-4.7104 7.5776-4.3008 2.8672 0.2048 5.7344 2.3552 5.8368 5.0176-1.024-2.4576-3.6864-3.4816-5.8368-3.1744-2.2528 0.2048-3.7888 1.9456-4.5056 3.9936-1.536 4.096 0.7168 8.3968 4.3008 10.5472 7.4752 5.0176 16.7936-2.6624 16.4864-10.8544 0.1024-8.4992-7.5776-16.0768-16.7936-17.408-4.608-0.8192-9.6256-0.7168-14.1312 0.8192-4.9152 1.2288-9.216 4.1984-11.4688 8.9088zM102.1952 516.7104c3.8912-2.6624 9.216-3.072 13.9264-2.2528 4.8128 0.8192 9.1136 2.6624 13.2096 3.9936 4.096 1.4336 7.9872 2.4576 11.5712 2.1504 3.6864-0.3072 7.168-1.7408 9.0112-4.4032l4.096-6.3488 1.2288 7.0656c1.4336 7.9872-3.2768 15.7696-9.8304 18.2272 4.7104-4.9152 5.8368-11.776 4.1984-16.896l5.3248 0.7168c-2.56 5.4272-8.2944 8.192-13.4144 8.6016-5.4272 0.6144-10.4448-1.1264-14.6432-2.9696-8.4992-3.6864-15.2576-9.1136-24.6784-7.8848zM5.0176 532.8896h968.3968v7.0656H5.0176zM974.2336 537.088c6.656 0 13.0048-0.512 19.2512-1.4336 6.0416-1.1264 12.5952-2.3552 17.3056-5.12 4.8128-2.56 6.5536-7.2704 3.584-11.5712-2.3552-4.096-10.1376-4.5056-14.0288 1.1264 0.512-3.3792 3.3792-6.3488 6.9632-7.5776 3.584-1.3312 8.3968-0.2048 11.264 2.8672 2.9696 2.8672 4.5056 7.3728 3.3792 11.776-1.1264 4.3008-4.4032 7.4752-7.5776 9.4208-6.7584 3.6864-13.6192 4.4032-20.3776 4.5056-6.8608 0.1024-13.7216-1.2288-19.7632-3.9936zM1001.6768 514.9696c-3.4816-10.8544-8.8064-20.48-18.0224-23.04-4.4032-1.4336-9.1136-1.024-12.3904 1.8432-3.2768 2.9696-6.0416 7.9872-4.1984 13.5168-4.5056-4.096-4.096-12.288 0.2048-17.2032 4.3008-5.632 12.3904-6.8608 18.5344-4.8128 6.2464 1.9456 11.4688 6.7584 13.9264 12.3904 2.4576 5.5296 2.8672 11.6736 1.9456 17.3056zM962.9696 498.176c-2.2528-4.7104-6.5536-7.68-11.264-9.1136-4.608-1.536-9.5232-1.6384-14.1312-0.8192-9.216 1.4336-16.896 9.0112-16.7936 17.408-0.3072 8.192 9.0112 15.872 16.4864 10.8544 3.584-2.048 5.8368-6.3488 4.3008-10.5472-0.6144-1.9456-2.2528-3.7888-4.5056-3.9936-2.1504-0.2048-4.9152 0.7168-5.8368 3.1744 0.2048-2.7648 2.9696-4.9152 5.8368-5.0176 3.072-0.3072 6.144 1.7408 7.5776 4.3008 3.2768 5.4272 0.8192 13.1072-4.3008 16.5888-4.8128 3.8912-12.6976 4.1984-17.92 0.512a19.1488 19.1488 0 0 1-8.6016-15.9744c0.1024-6.3488 2.9696-12.0832 7.3728-16.1792s10.1376-6.2464 15.7696-6.656c5.632-0.512 11.264 0.512 16.2816 3.072 4.608 2.7648 9.0112 7.0656 9.728 12.3904zM921.8048 516.7104c-9.3184-1.2288-16.1792 4.096-24.6784 7.8848-4.1984 1.8432-9.216 3.6864-14.6432 2.9696-5.12-0.4096-10.9568-3.1744-13.4144-8.6016l5.3248-0.7168c-1.6384 5.12-0.512 11.9808 4.1984 16.896-6.4512-2.4576-11.1616-10.24-9.8304-18.2272l1.2288-7.0656 4.096 6.3488c1.7408 2.7648 5.3248 4.096 9.0112 4.4032 3.6864 0.2048 7.4752-0.7168 11.5712-2.1504 4.096-1.4336 8.3968-3.2768 13.2096-3.9936 4.7104-0.7168 10.0352-0.4096 13.9264 2.2528z" /></svg>