<?xml version="1.0" encoding="utf-8"?>
<!-- Generator: Adobe Illustrator 19.2.1, SVG Export Plug-In . SVG Version: 6.00 Build 0)  -->
<svg version="1.2" baseProfile="tiny" id="图层_1"
	 xmlns="http://www.w3.org/2000/svg" xmlns:xlink="http://www.w3.org/1999/xlink" x="0px" y="0px" viewBox="0 0 100 100"
	 xml:space="preserve">
<path fill="#E53A35" d="M20.1,87V13.6h0.5l0,73.4H20.1z M19.2,87V13.6l-0.5,0l0,73.4H19.2z M81.4,86.2V13.6h-0.5v72.6H81.4z
	 M79.9,86.2V13.6h-0.5l0,72.6H79.9z M68.4,97.4H31.9l0,0.5h36.4L68.4,97.4z M68.4,98.9l-36.4,0v0.5h36.4L68.4,98.9z M68.9,0.8H31.1
	v0.5h37.8L68.9,0.8z M68.9,2.3l-37.8,0l0,0.5h37.8L68.9,2.3z M82,88C82,88,82,88,82,88c0-0.3-0.2-0.4-0.4-0.3
	c-0.2,0.1-0.3,0.4-0.3,0.1c0-0.3,0.2-0.4,0.4-0.5c0.2-0.1,0.3-0.3,0.2-0.4c-0.1-0.2-0.4-0.1-0.5,0c-0.1,0.1-0.2,0-0.1-0.2
	c0.1-0.2,0.3-0.2,0.5-0.3c0.2,0,0.4-0.1,0.3-0.4c0-0.3-0.4-0.5-0.8-0.3c-0.6,0.4-0.9,1-0.7,2c0,0.1,0,0.3,0.1,0.4H82L82,88z
	 M79.5,88c-0.2-0.4-0.3-0.7-0.3-1.1c0-0.7,0.2-1,0.5-1.1c0.4-0.1,0.9,0.3,0.6,0.7c-0.3,0.4-0.7,0.2-0.6,1c0,0.2,0.1,0.4,0.2,0.6
	H79.5z M79.5,88c0.1,0.2,0.2,0.4,0.4,0.6c0.2,0.2-0.1,0.2-0.2,0.1c-0.3-0.3-0.4-0.2-0.4,0c0,0.6,0.3,0.8,0.7,1.1
	c0.2,0.1,0.7,0.5,0.4,0.6c-0.2,0.1-0.5-0.1-0.6-0.3c-0.3-0.3-0.4,0-0.4,0.2c0,0.6,0.6,0.9,0.9,1.1c0.2,0.1,0.4,0.1,0.6,0.2
	c0.1,0.1,0.3,0.3,0.1,0.4c-0.1,0.1-0.3,0-0.4-0.1c-0.3-0.2-0.3-0.1-0.3,0.2c0,0.3,0.3,0.4,0.5,0.5l1,0c0-0.1,0.1-0.3,0-0.4
	c-0.1-1.2-0.7-2.3-1.5-3.2c-0.3-0.3-0.5-0.6-0.6-0.9H79.5L79.5,88z M80.7,88H82c-0.1,0.2-0.4,0.2-0.4,0.6c0,0.5,0.3,1.2,0.5,1.7
	C81.5,89.7,81,89,80.7,88L80.7,88z M79.3,92.6h-0.5c0-0.2,0-0.3,0-0.4c0.1-0.3,0.4-0.9,1-0.6c0.1,0.1-0.3,0.3-0.5,0.6
	C79.3,92.3,79.3,92.4,79.3,92.6L79.3,92.6z M77.5,92.6c0.1-0.6-0.5-1-1-0.9c-0.4,0.1-0.6,0.4-0.7,0.8c0,0,0,0.1,0,0.1l0.5,0
	c0-0.1,0.1-0.3,0.2-0.4c0.2-0.2,0.5-0.1,0.6,0.1c0.1,0.1,0.1,0.2,0,0.3H77.5L77.5,92.6z M75.2,92.1L74,91.8c0,0,0,0,0,0l0.2,0.7h1.1
	L75.2,92.1z M75.9,95.9l1.5,0c-0.1,0-0.2,0-0.3,0C76.7,95.7,76.3,95.7,75.9,95.9L75.9,95.9z M74.2,92.6l0.1,0.5l1.2,0.3v0v0
	l-0.2-0.7H74.2L74.2,92.6z M75.7,92.6l0.5,0c-0.1,0.3,0,0.6,0.2,0.8c0.3,0.3,0.7,0.5,1,0.9c0.2,0.3,0.2,0.6-0.1,0.8c0,0,0,0,0,0
	c0,0,0,0,0,0c-0.3,0.2-0.6,0.3-0.9,0.1c-0.4-0.3-0.6-0.7-0.9-1c-0.3-0.3-0.8-0.3-1.1,0.1c-0.2,0.2-0.1,0.4,0.1,0.6
	c0.3,0.3,0.5-0.3,0.8-0.1c0.2,0.1-0.2,0.5-0.4,0.5c-0.6,0.1-1-0.5-0.9-1c0.1-0.4,0.4-0.6,0.8-0.7c0.4-0.1,0.6,0,1.2,0.1c0,0,0,0,0,0
	c0,0,0,0,0,0C75.7,93.1,75.6,92.9,75.7,92.6L75.7,92.6z M77.1,92.6C77,92.7,76.9,92.9,77,93c0.1,0.2,0.5-0.2,0.5-0.4l0,0H77.1
	L77.1,92.6z M78.8,92.6c0,0.1,0.1,0.3,0.1,0.4c-0.4,0.3-0.7,0.4-0.8,0.8c-0.2,0.4-0.2,0.8,0,1.2c0,0.1,0,0.3,0.1,0.4
	c0.1,0.1,0.2,0.1,0.3,0.1c0.2,0.2,0.4,0.4,0.6,0.5l1.2,0c0,0,0.1,0,0.1-0.1c0.7-0.4,1-0.7,1.9-0.4c-0.2-0.4-0.4-0.7-1-0.8
	c-0.1-0.3-0.6-0.4-0.8-0.4c0.3,0.6-0.1,1-0.6,1.3c-0.3,0.1-0.8-0.1-1-0.4c0-0.1,0-0.2-0.1-0.3c-0.1-0.1-0.1-0.1-0.2-0.1
	c-0.1-0.3-0.1-0.5,0-0.8c0.1-0.3,0.4-0.5,0.7-0.6c0.1,0,0.5,0,0.5,0.3c0,0.3-0.3,0.6-0.5,0.3c-0.1-0.3-0.5,0-0.2,0.4
	c0.4,0.4,1.1,0.1,1.2-0.6c0-0.6-0.5-0.7-0.8-0.9c-0.1-0.1-0.1-0.1-0.1-0.2H78.8L78.8,92.6z M80.9,92.6l1,0c-0.1,0.6-0.6,1.1-1.1,1.4
	c-0.1,0.1-0.1,0-0.1-0.1c0.1-0.2,0.7-0.8,0.5-1.1C81.2,92.7,81.1,92.6,80.9,92.6L80.9,92.6z M81.6,95.9l-0.4,0
	c0.1-0.1,0.2-0.2,0.3-0.1C81.6,95.8,81.6,95.9,81.6,95.9L81.6,95.9z M77.8,95.9c0,0,0-0.1,0-0.1c0,0,0-0.1,0-0.1l0,0c0,0,0,0,0,0
	l0,0l0,0l0,0c0,0,0.1-0.1,0.1-0.1c0.1,0,0.2,0.1,0.2,0.2c0,0,0,0.1,0,0.1H77.8z M75.6,96.1h1.9c0,0,0,0-0.1-0.1c0,0-0.1-0.1-0.1-0.1
	l-1.5,0c0,0,0,0,0,0C75.8,96,75.7,96,75.6,96.1L75.6,96.1z M77.8,95.9c0,0,0.1,0.1,0.1,0.1c0.1,0,0.1,0,0.1,0c0,0,0,0,0,0H77.8
	L77.8,95.9z M79,95.9c0.1,0.1,0.3,0.1,0.5,0.1l0.3,0c0.1,0,0.3-0.1,0.4-0.1L79,95.9L79,95.9z M81.2,95.9c0,0,0,0.1-0.1,0.1l0.5,0
	c0,0,0-0.1,0-0.1L81.2,95.9L81.2,95.9z M78.4,96.1C78.4,96.1,78.4,96.1,78.4,96.1L78.4,96.1C78.5,96.1,78.5,96.1,78.4,96.1z
	 M76.8,96.3l0.8,0c0,0,0,0-0.1,0c0-0.1,0-0.1,0-0.2h-1.9c-0.1,0.1-0.1,0.1-0.2,0.2h0.7C76.4,96.2,76.6,96.2,76.8,96.3L76.8,96.3z
	 M78.4,96.1c0,0-0.1,0-0.1,0.1l0,0c0,0,0,0,0,0l0,0l0,0l0,0c0,0-0.1,0.1-0.1,0.1h0.4l0,0C78.7,96.2,78.6,96.1,78.4,96.1L78.4,96.1
	L78.4,96.1z M79.5,96.1c0.1,0,0.2,0,0.3,0L79.5,96.1L79.5,96.1z M81.2,96.3h0.5c0-0.1,0-0.1,0-0.2l-0.5,0
	C81.2,96.1,81.2,96.2,81.2,96.3z M77,96.5c0.1,0.1,0.2,0.1,0.3,0.1c0.1,0.1,0.1,0.1,0.2,0.2l0.6,0c-0.1-0.2-0.3-0.4-0.4-0.6l-0.8,0
	c0,0,0,0,0.1,0C76.9,96.4,76.9,96.4,77,96.5L77,96.5z M76.1,96.3h-0.7c-0.1,0.1-0.2,0.3-0.3,0.5c-0.2-0.1-0.6-0.2-0.8-0.1
	c-0.1,0-0.3,0.1-0.4,0.2l1.7,0c0.1-0.2,0.3-0.4,0.5-0.5C76.1,96.3,76.1,96.3,76.1,96.3L76.1,96.3z M75.9,96.8c0-0.1,0.2-0.2,0.5,0
	H75.9L75.9,96.8z M78.2,96.3L78.2,96.3c0,0.1,0.1,0.2,0.2,0.2c0.1,0,0.1,0,0.1-0.1l0,0l0,0c0,0,0,0,0,0l0,0c0,0,0.1-0.1,0.1-0.1
	H78.2L78.2,96.3z M81.2,96.3C81.2,96.3,81.2,96.3,81.2,96.3c0,0.2,0,0.5-0.2,0.6h0.5c0,0,0,0,0.1-0.1c0.1-0.1,0.1-0.3,0.2-0.5H81.2
	L81.2,96.3z M80.6,96.8C80.6,96.8,80.6,96.8,80.6,96.8c-0.1-0.1-0.2,0-0.3,0H80.6L80.6,96.8z M79.3,96.8c0-0.2-0.1-0.3-0.3-0.3
	c-0.1,0-0.1,0-0.2,0.1l0,0l0,0l0,0l0,0l0,0c0,0,0,0,0,0l0,0c0,0-0.1,0.1-0.1,0.2H79.3L79.3,96.8z M75.5,96.8l-1.7,0
	c-0.2,0.2-0.3,0.4-0.2,0.8c0.1,0.1,0.3-0.3,0.6-0.4c0.2-0.1,0.5-0.1,0.6,0.1c0.3,0.2,0.3,0.8,0.9,0.7c0.6,0,1-0.8,0.6-1.2
	c0,0,0,0-0.1,0h-0.5c0,0.1,0,0.2,0.1,0.2c0.4,0.2,0.1,0.5-0.3,0.5c-0.3,0-0.3-0.4-0.3-0.5C75.5,97,75.5,96.9,75.5,96.8L75.5,96.8z
	 M78.1,96.8c0.2,0.4,0.3,0.8,0,1.3c-0.1,0.1-0.1,0.2-0.2,0.3h-1.4c0-0.1,0-0.2,0-0.2c0.6,0.3,1-0.1,1.3-0.6c0.1-0.2,0-0.5-0.2-0.7
	L78.1,96.8L78.1,96.8z M78.7,96.8C78.7,96.8,78.7,96.8,78.7,96.8c0,0.2,0.1,0.3,0.3,0.3c0.1,0,0.1,0,0.2-0.1l0,0c0,0,0,0,0,0l0,0
	l0,0c0.1-0.1,0.1-0.1,0.1-0.2H78.7L78.7,96.8z M80.3,96.8h0.3c0.1,0.1,0.2,0,0.3,0h0.5c-0.4,0.6-0.9,0.3-0.9,0.6
	c0,0.1,0.2,0.2,0.5,0.2c0.2-0.1,0.7-0.6,1-0.5c0.2,0.2,0,0.5-0.4,0.7c-0.4,0.2-0.9,0-0.9,0.2c0.1,0.2,0.4,0.3,0.6,0.2
	c0.3-0.2,0.5-0.2,0.6,0c0,0.1-0.1,0.3-0.2,0.3h-0.5c0,0-0.1,0-0.1,0c-0.1,0-0.1,0-0.1,0l-1.3,0c0,0-0.1-0.1-0.1-0.1
	c-0.1,0-0.1,0-0.1,0.1H79c0,0,0,0,0,0c-0.2-0.4,0.3-0.5,0.2-0.8c-0.1-0.2,0.2-0.3,0.4-0.2h0l0,0c-0.1-0.3,0-0.5,0.2-0.4
	C80,97.1,80.1,96.9,80.3,96.8L80.3,96.8z M74.5,98.5c-0.1-0.1-0.2-0.2-0.4-0.2c-0.2,0-0.4,0-0.2,0.2H74.5L74.5,98.5z M73.6,98.5
	h-2.4c0,0-0.1,0-0.1-0.1c-0.5-0.4-1-0.7-1.5-0.8c-0.8-0.1-0.5,0.3-1,0.6c-0.4,0.3-0.8-0.1-0.7-0.6c0.1-0.3,0.5-0.5,1.1-0.5
	c0.6,0,1.2,0.3,1.7,0.7c0.3,0.2,0.2-0.1,0.1-0.2c-0.3-0.3-0.3-0.4,0-0.4c0.5-0.1,0.8,0.3,1.1,0.7c0.1,0.3,0.5,0.7,0.6,0.4
	c0.1-0.2-0.1-0.4-0.3-0.6c-0.3-0.3,0-0.4,0.2-0.4c0.6,0.1,0.9,0.6,1.1,0.9C73.5,98.3,73.6,98.4,73.6,98.5L73.6,98.5z M68.8,98.5h0.9
	C69.4,98.4,69.1,98.4,68.8,98.5z M77.8,98.5h-1.4c0.1,0.2,0.2,0.5,0.4,0.6c0.1,0.6,0.4,0.8,0.8,1C77.4,99.3,77.5,98.9,77.8,98.5
	L77.8,98.5z M68.8,98.5c-0.4,0.1-0.8,0.4-1,0.8c-0.2,0.4,0,0.7,0.3,0.8c0.3,0,0.4-0.1,0.4-0.3c0-0.2,0.1-0.4,0.3-0.5
	c0.2-0.1,0.3,0.1,0.2,0.1c-0.1,0.1-0.2,0.3,0,0.5c0.1,0.1,0.4,0,0.4-0.2c0.1-0.2,0.2-0.4,0.5-0.4c0.3,0-0.1,0.2-0.1,0.3
	c-0.1,0.2,0,0.4,0.2,0.4c0.3,0,0.3-0.4,0.7-0.4c0.5-0.1,1.2,0.3,1.7,0.5c-0.6-0.7-1.5-1.2-2.7-1.5c0,0-0.1,0-0.1,0H68.8L68.8,98.5z
	 M71.2,98.5h2.4c0,0.1,0.1,0.3,0.2,0.4c0.1,0.1,0.3,0.3,0.4,0.1c0.1-0.1,0-0.3-0.1-0.4c0,0,0-0.1,0-0.1h0.6c0.2,0.2,0.3,0.6,0.4,0.7
	c0.2,0.2,0.8-0.4,1.1-0.5c0.1-0.1,0.1,0,0.1,0.1c-0.3,0.6-1.1,1.2-1.8,1.1C73.2,99.8,72.1,99.1,71.2,98.5L71.2,98.5z M79,98.5
	c0.2,0.4-0.3,0.6-0.5,0.6c-0.5,0-0.6,0.2-0.5,0.3c0.2,0.3,0.8,0.1,1,0c0.6-0.3,0.5-0.7,0.5-0.9H79L79,98.5z M79.7,98.5l1.3,0
	c0,0,0,0,0,0c0.1,0.1,0.2,0.2,0.3,0.3c0.2,0.1,0.4,0.1,0.6-0.1c0.2,0.3,0.3,0.9,0.1,1.2l0,0c0,0,0,0,0,0c-0.3,0.1-1,0.1-1.2-0.1
	c0.2-0.3,0.2-0.5,0.1-0.6c-0.1-0.1-0.2-0.2-0.3-0.3c0,0-0.1,0,0,0.1c0.1,0.5,0,0.9-0.3,0.8c-0.2,0-0.1-0.3,0-0.6
	c0.1-0.2,0-0.5-0.2-0.6c-0.1,0,0,0.5-0.2,0.9c-0.1,0.3-0.5,0.6-0.6,0.4c-0.2-0.2,0.4-0.8,0.4-1C79.8,98.7,79.7,98.5,79.7,98.5
	L79.7,98.5z M81.7,98.5h-0.5C81.4,98.5,81.6,98.5,81.7,98.5z M20.5,88c0.2-0.4,0.3-0.7,0.3-1.1c0-0.7-0.2-1-0.5-1.1
	c-0.4-0.1-0.9,0.3-0.6,0.7c0.3,0.4,0.7,0.2,0.6,1c0,0.2-0.1,0.4-0.2,0.6H20.5L20.5,88z M18,88C18,88,18,88,18,88
	c0-0.3,0.2-0.4,0.4-0.3c0.2,0.1,0.3,0.4,0.3,0.1c0-0.3-0.2-0.4-0.4-0.5c-0.2-0.1-0.3-0.3-0.2-0.4c0.1-0.2,0.4-0.1,0.5,0
	c0.1,0.1,0.2,0,0.1-0.2c-0.1-0.2-0.3-0.2-0.5-0.3c-0.2,0-0.4-0.1-0.3-0.4c0-0.3,0.4-0.5,0.8-0.3c0.6,0.4,0.9,1,0.7,2
	c0,0.1,0,0.3-0.1,0.4H18z M18,88c0.1,0.2,0.4,0.2,0.4,0.6c0.1,0.5-0.3,1.2-0.5,1.7c0.6-0.6,1.1-1.3,1.4-2.3H18L18,88z M20.1,88h0.4
	c-0.1,0.2-0.2,0.4-0.4,0.6c-0.2,0.2,0.1,0.2,0.2,0.1c0.3-0.3,0.4-0.2,0.4,0c0.1,0.6-0.3,0.8-0.7,1.1c-0.2,0.1-0.7,0.5-0.4,0.6
	c0.2,0.1,0.5-0.1,0.6-0.3c0.3-0.3,0.4,0,0.4,0.2c0,0.6-0.6,0.9-0.9,1.1c-0.2,0.1-0.4,0.1-0.6,0.2c-0.1,0.1-0.3,0.3-0.1,0.4
	c0.1,0.1,0.3,0,0.4-0.1c0.3-0.2,0.3-0.1,0.3,0.2c0,0.3-0.3,0.4-0.5,0.5h-1c0-0.1-0.1-0.3,0-0.4c0.1-1.2,0.7-2.3,1.5-3.2
	C19.7,88.6,19.9,88.3,20.1,88L20.1,88z M25.9,92.6l0.1-0.7c0,0,0,0,0,0l-1.2,0.3l-0.1,0.5L25.9,92.6L25.9,92.6z M24.3,92.6
	c0,0,0-0.1,0-0.1c-0.1-0.4-0.4-0.6-0.7-0.8c-0.5-0.2-1.2,0.3-1,0.9h0.4c0-0.1-0.1-0.2,0-0.3c0.1-0.2,0.4-0.2,0.6-0.1
	c0.1,0.1,0.2,0.3,0.2,0.4H24.3L24.3,92.6z M21.2,92.1c-0.1-0.3-0.4-0.9-1-0.6c-0.2,0.1,0.3,0.3,0.4,0.6c0.1,0.1,0.1,0.3,0,0.4h0.5
	C21.2,92.4,21.2,92.2,21.2,92.1z M24.1,95.9h-1.5c0.1,0,0.2,0,0.3,0C23.3,95.7,23.7,95.7,24.1,95.9L24.1,95.9z M18,92.6
	c0.1,0.6,0.6,1.1,1.1,1.4c0.1,0.1,0.1,0,0.1-0.1c-0.1-0.2-0.7-0.8-0.5-1.1c0.1-0.1,0.2-0.2,0.4-0.3H18L18,92.6z M20.7,92.6h0.5
	c0,0.1-0.1,0.3-0.1,0.4c0.4,0.3,0.7,0.4,0.8,0.8c0.2,0.4,0.2,0.8,0,1.2c0,0.1,0,0.3-0.1,0.4c-0.1,0.1-0.2,0.1-0.3,0.1
	c-0.2,0.2-0.4,0.4-0.6,0.5l-1.2,0c0,0-0.1,0-0.1-0.1c-0.7-0.4-1-0.7-1.9-0.4c0.2-0.4,0.4-0.7,1-0.8c0.1-0.3,0.6-0.4,0.8-0.4
	c-0.3,0.6,0.1,1,0.6,1.3c0.3,0.1,0.8-0.1,1-0.4c0-0.1,0-0.2,0.1-0.3c0-0.1,0.1-0.1,0.2-0.1c0.1-0.3,0.1-0.5,0-0.8
	c-0.1-0.3-0.4-0.5-0.7-0.6c-0.1,0-0.5,0-0.5,0.3c0,0.3,0.3,0.6,0.5,0.3c0.1-0.3,0.5,0,0.1,0.4c-0.4,0.4-1.1,0.1-1.2-0.6
	c0-0.6,0.5-0.7,0.8-0.9C20.6,92.7,20.6,92.6,20.7,92.6L20.7,92.6z M22.5,92.6L22.5,92.6c0.1,0.3,0.4,0.6,0.5,0.5
	c0.1-0.2,0-0.3-0.1-0.5H22.5L22.5,92.6z M23.8,92.6h0.5c0.1,0.4,0,0.6-0.1,1.1c0,0,0,0,0,0c0,0,0,0,0,0c0.5-0.1,0.8-0.2,1.2-0.1
	c0.4,0.1,0.6,0.4,0.8,0.7c0.2,0.5-0.3,1.2-0.9,1c-0.3-0.1-0.6-0.4-0.4-0.5c0.3-0.2,0.5,0.3,0.8,0.1c0.2-0.1,0.2-0.4,0-0.6
	c-0.3-0.4-0.9-0.4-1.1-0.1c-0.3,0.3-0.5,0.7-0.9,1c-0.3,0.2-0.6,0.1-0.9-0.1c0,0,0,0,0,0c0,0,0,0,0,0c-0.3-0.3-0.3-0.5-0.1-0.8
	c0.2-0.4,0.7-0.6,1-0.9C23.8,93.1,23.9,92.8,23.8,92.6L23.8,92.6z M24.7,92.6l-0.2,0.7v0v0l1.2-0.3l0.1-0.5L24.7,92.6L24.7,92.6z
	 M22.2,95.9c0,0,0-0.1,0-0.1c0,0,0-0.1,0-0.1l0,0c0,0,0,0,0,0l0,0l0,0l0,0c0,0-0.1-0.1-0.1-0.1c-0.1,0-0.2,0.1-0.2,0.2
	c0,0,0,0.1,0,0.1H22.2L22.2,95.9z M18.5,95.8c-0.1,0-0.1,0.1-0.1,0.1h0.4C18.7,95.8,18.6,95.8,18.5,95.8z M24.4,96.1h-1.9
	c0,0,0,0,0.1-0.1c0,0,0.1-0.1,0.1-0.1h1.5c0,0,0,0,0,0C24.2,96,24.3,96,24.4,96.1L24.4,96.1z M18.4,95.9c0,0,0,0.1,0,0.1l0.5,0
	c0-0.1,0-0.1-0.1-0.1H18.4L18.4,95.9z M19.8,95.9c0.1,0.1,0.3,0.1,0.4,0.1h0.3c0.2,0,0.3-0.1,0.5-0.1L19.8,95.9L19.8,95.9z
	 M21.9,95.9C21.9,95.9,21.9,95.9,21.9,95.9C21.9,96,22,96,22,96c0.1,0,0.1,0,0.1-0.1H21.9L21.9,95.9z M21.6,96.1
	C21.6,96.1,21.5,96.1,21.6,96.1L21.6,96.1C21.6,96.1,21.6,96.1,21.6,96.1z M23.2,96.3h-0.8c0,0,0,0,0,0c0-0.1,0-0.1,0-0.2h1.9
	c0.1,0.1,0.1,0.1,0.2,0.2h-0.7C23.6,96.2,23.4,96.2,23.2,96.3L23.2,96.3z M18.3,96.1c0,0.1,0,0.1,0,0.2h0.5c0-0.1,0-0.1,0-0.2
	L18.3,96.1L18.3,96.1z M20.2,96.1c0.1,0,0.2,0,0.3,0H20.2L20.2,96.1z M21.3,96.3L21.3,96.3h0.4c0-0.1,0-0.1,0-0.1c0,0,0,0,0,0l0,0
	l0,0c0,0,0,0,0,0c0,0,0,0,0,0c0,0-0.1,0-0.1-0.1h-0.1C21.4,96.1,21.3,96.2,21.3,96.3z M23,96.5c-0.1,0.1-0.2,0.1-0.3,0.1
	c-0.1,0.1-0.1,0.1-0.2,0.2h-0.6c0.1-0.2,0.3-0.4,0.4-0.6h0.8c0,0,0,0-0.1,0C23.1,96.4,23.1,96.4,23,96.5L23,96.5z M23.9,96.3h0.7
	c0.1,0.1,0.2,0.3,0.3,0.5c0.2-0.1,0.6-0.2,0.8-0.1c0.1,0,0.3,0.1,0.4,0.2h-1.7c-0.1-0.2-0.3-0.4-0.5-0.5
	C23.9,96.3,23.9,96.3,23.9,96.3L23.9,96.3z M24.1,96.8c0-0.1-0.2-0.2-0.5,0H24.1L24.1,96.8z M18.4,96.3c0,0.2,0.1,0.4,0.2,0.5
	c0,0,0,0.1,0.1,0.1h0.5c-0.2-0.1-0.3-0.4-0.2-0.5c0,0,0,0,0,0H18.4L18.4,96.3z M21.3,96.3c0,0.1,0,0.1,0.1,0.1l0,0v0l0,0l0,0
	c0,0,0.1,0.1,0.2,0.1c0.1,0,0.2-0.1,0.2-0.2l0,0H21.3L21.3,96.3z M21.3,96.8c0-0.1,0-0.1-0.1-0.2l0,0c0,0,0,0,0,0l0,0l0,0l0,0l0,0
	l0,0c-0.1-0.1-0.1-0.1-0.2-0.1c-0.2,0-0.3,0.1-0.3,0.3l0,0H21.3L21.3,96.8z M19.4,96.8L19.4,96.8l0.3,0
	C19.7,96.8,19.6,96.8,19.4,96.8z M24.5,96.8h1.7c0.2,0.2,0.3,0.4,0.2,0.8c-0.1,0.1-0.3-0.3-0.6-0.4c-0.2-0.1-0.5-0.1-0.6,0.1
	c-0.2,0.2-0.3,0.8-0.9,0.7c-0.6,0-1-0.8-0.6-1.2c0,0,0,0,0.1,0h0.5c0,0.1,0,0.2-0.1,0.2c-0.3,0.2-0.1,0.5,0.3,0.5
	c0.3,0,0.3-0.4,0.3-0.5C24.5,97,24.5,96.9,24.5,96.8L24.5,96.8z M21.9,96.8c-0.2,0.4-0.3,0.8,0,1.3c0.1,0.1,0.1,0.2,0.2,0.3h1.4
	c0-0.1,0-0.2,0-0.2c-0.6,0.3-1-0.1-1.3-0.6c-0.1-0.2,0-0.5,0.2-0.7H21.9L21.9,96.8z M18.6,96.8c0.4,0.6,0.9,0.3,0.9,0.6
	c0,0.1-0.2,0.2-0.5,0.2c-0.2-0.1-0.7-0.6-1-0.5c-0.2,0.2,0,0.5,0.4,0.7c0.4,0.2,0.9,0,0.9,0.2c-0.1,0.2-0.4,0.3-0.6,0.2
	c-0.3-0.2-0.5-0.2-0.6,0c0,0.1,0.1,0.3,0.2,0.3h0.5c0,0,0.1,0,0.1,0c0.1,0,0.1,0,0.1,0h1.3c0,0,0.1-0.1,0.1-0.1c0.1,0,0.1,0,0.1,0.1
	H21c0,0,0,0,0,0c0.2-0.4-0.3-0.5-0.2-0.8c0.1-0.2-0.2-0.3-0.4-0.2h0c0,0,0,0,0,0c0.1-0.3,0-0.5-0.2-0.4c-0.2,0.1-0.3-0.1-0.5-0.2
	l-0.3,0c-0.1,0.1-0.2,0-0.3,0H18.6L18.6,96.8z M20.7,96.8h0.6c0,0,0,0,0,0c0,0.1-0.1,0.3-0.3,0.3c-0.1,0-0.1,0-0.2-0.1l0,0
	c0,0,0,0,0,0l0,0l0,0C20.7,97,20.7,96.9,20.7,96.8L20.7,96.8z M31.2,98.5c-0.3-0.1-0.5-0.1-0.9,0H31.2L31.2,98.5z M28.8,98.5
	C28.9,98.4,28.9,98.4,28.8,98.5c0.6-0.5,1.1-0.8,1.6-0.9c0.8-0.1,0.5,0.3,1,0.6c0.4,0.3,0.8-0.1,0.7-0.6C32,97.3,31.6,97,31,97.1
	c-0.6,0-1.2,0.3-1.7,0.7c-0.2,0.2-0.2-0.1-0.1-0.2c0.3-0.3,0.3-0.4,0-0.4c-0.6-0.1-0.9,0.3-1.1,0.7c-0.1,0.2-0.5,0.7-0.6,0.4
	c-0.1-0.2,0.1-0.4,0.3-0.6c0.3-0.3,0-0.4-0.2-0.4c-0.6,0.1-0.9,0.6-1.1,0.9c0,0.1,0,0.2-0.1,0.3H28.8L28.8,98.5z M25.8,98.2
	c-0.2,0-0.3,0.1-0.4,0.2H26C26.2,98.2,26,98.2,25.8,98.2z M22.2,98.5h1.4c-0.1,0.2-0.2,0.5-0.4,0.6c-0.1,0.6-0.4,0.8-0.8,1
	C22.6,99.3,22.5,98.9,22.2,98.5L22.2,98.5z M18.3,98.5c0.1,0,0.3,0,0.5,0H18.3L18.3,98.5z M19,98.5h1.3c-0.1,0.1-0.1,0.2,0,0.4
	c0.1,0.2,0.6,0.7,0.4,1c-0.2,0.2-0.5,0-0.6-0.4c-0.2-0.4,0-0.9-0.2-0.9c-0.2,0-0.3,0.4-0.2,0.6c0.2,0.3,0.2,0.5,0,0.6
	c-0.3,0.1-0.4-0.3-0.3-0.8c0-0.1,0-0.1,0-0.1c-0.1,0.1-0.2,0.2-0.3,0.3c-0.1,0.2-0.1,0.4,0.1,0.6c-0.3,0.2-0.9,0.3-1.2,0.1
	c0,0,0,0,0,0l0,0c-0.1-0.3-0.1-1,0.1-1.2c0.3,0.2,0.5,0.2,0.6,0.1C18.8,98.7,18.9,98.6,19,98.5C19,98.5,19,98.5,19,98.5L19,98.5z
	 M20.5,98.5c0,0.1,0,0.5,0.5,0.9c0.2,0.1,0.8,0.3,1,0c0.1-0.1-0.1-0.4-0.5-0.3c-0.2,0-0.7-0.1-0.5-0.6H20.5L20.5,98.5z M25.5,98.5
	c-0.2,0.2-0.3,0.6-0.4,0.7c-0.2,0.2-0.8-0.4-1.1-0.5c-0.1-0.1-0.1,0-0.1,0.1c0.3,0.6,1.1,1.2,1.8,1.1c1.1-0.1,2.2-0.7,3.1-1.4h-2.4
	c0,0.1-0.1,0.3-0.2,0.4c-0.1,0.1-0.3,0.3-0.4,0.1c-0.1-0.1,0-0.3,0.1-0.4c0,0,0-0.1,0-0.1H25.5L25.5,98.5z M31.2,98.5
	c0.4,0.1,0.8,0.4,1,0.8c0.2,0.4,0,0.7-0.3,0.8c-0.3,0-0.4-0.1-0.4-0.3c0-0.2-0.1-0.4-0.3-0.5c-0.2-0.1-0.3,0.1-0.2,0.1
	c0.1,0.1,0.2,0.3,0,0.5c-0.1,0.1-0.4,0-0.4-0.2c-0.1-0.2-0.2-0.4-0.5-0.4c-0.3,0,0.1,0.2,0.1,0.3c0.1,0.2,0,0.4-0.2,0.4
	c-0.3,0-0.3-0.4-0.7-0.4c-0.5-0.1-1.2,0.3-1.7,0.5c0.6-0.7,1.5-1.2,2.7-1.5c0,0,0,0,0.1,0H31.2z M77.8,1.5l-1.4,0
	c0.1-0.2,0.2-0.5,0.4-0.6c0.1-0.6,0.4-0.8,0.8-1C77.4,0.7,77.5,1.1,77.8,1.5L77.8,1.5z M81.7,1.5c-0.1,0-0.3,0-0.5,0H81.7L81.7,1.5z
	 M81,1.5h-1.3c0.1-0.1,0.1-0.2,0-0.4c0-0.2-0.6-0.7-0.4-1c0.2-0.2,0.5,0,0.6,0.4c0.2,0.4,0,0.9,0.2,0.9c0.2-0.1,0.3-0.4,0.2-0.6
	c-0.2-0.3-0.2-0.5,0-0.6c0.3,0,0.4,0.3,0.3,0.8c0,0.1,0,0.1,0,0.1c0.1-0.1,0.2-0.2,0.3-0.3C81,0.7,81,0.5,80.8,0.2
	C81.1,0,81.7,0,82,0.1c0,0,0,0,0,0v0c0.1,0.3,0.1,1-0.1,1.2c-0.2-0.2-0.5-0.2-0.6-0.1C81.2,1.3,81.1,1.4,81,1.5
	C81,1.5,81,1.5,81,1.5L81,1.5z M79.5,1.5c0-0.1,0-0.5-0.5-0.9c-0.2-0.1-0.8-0.3-1,0C77.9,0.8,78,1,78.5,1c0.2,0,0.7,0.1,0.5,0.6
	H79.5L79.5,1.5z M74.5,1.5C74.7,1.3,74.8,1,75,0.9c0.2-0.2,0.8,0.4,1.1,0.5c0.1,0.1,0.1,0,0.1-0.1c-0.3-0.6-1.1-1.2-1.8-1.1
	c-1.1,0.1-2.2,0.7-3.1,1.4h2.4c0-0.1,0.1-0.3,0.2-0.4c0.1-0.1,0.3-0.3,0.4-0.1c0.1,0.1,0,0.3-0.1,0.4c0,0,0,0,0,0.1L74.5,1.5
	L74.5,1.5z M68.8,1.5c-0.4-0.1-0.8-0.4-1-0.8c-0.2-0.4,0-0.7,0.3-0.8c0.3,0,0.4,0.1,0.4,0.3c0,0.2,0.1,0.4,0.3,0.5
	c0.2,0.1,0.3-0.1,0.2-0.1c-0.1-0.1-0.2-0.3,0-0.5c0.1-0.1,0.4,0,0.4,0.2c0.1,0.2,0.2,0.4,0.5,0.4c0.3,0-0.1-0.2-0.1-0.3
	c-0.1-0.2,0-0.4,0.2-0.4c0.3,0,0.3,0.4,0.7,0.5c0.5,0.1,1.2-0.3,1.7-0.5c-0.6,0.7-1.5,1.2-2.7,1.5c0,0-0.1,0-0.1,0H68.8z M75.5,3.1
	l-1.7,0c-0.2-0.2-0.3-0.4-0.2-0.8c0.1-0.2,0.3,0.3,0.6,0.4c0.2,0.1,0.5,0.1,0.6-0.1c0.3-0.2,0.3-0.8,0.9-0.8c0.6,0,1,0.8,0.6,1.2
	c0,0,0,0-0.1,0h-0.5c0-0.1,0-0.1,0.1-0.2c0.4-0.2,0.1-0.5-0.3-0.5c-0.3,0-0.3,0.4-0.3,0.5C75.5,3,75.5,3.1,75.5,3.1L75.5,3.1z
	 M78.1,3.1c0.2-0.4,0.3-0.8,0-1.3c-0.1-0.1-0.1-0.2-0.2-0.3l-1.4,0c0,0.1,0,0.2,0,0.2c0.6-0.3,1,0.1,1.3,0.6c0.1,0.2,0,0.5-0.2,0.7
	H78.1L78.1,3.1z M68.8,1.5c0.3,0,0.5,0,0.9,0H68.8L68.8,1.5z M71.2,1.5C71.1,1.6,71.1,1.6,71.2,1.5C70.5,2,70,2.3,69.6,2.4
	c-0.8,0.1-0.5-0.3-1-0.6c-0.4-0.3-0.8,0.1-0.7,0.6C68,2.7,68.4,2.9,69,2.9c0.6,0,1.2-0.3,1.7-0.7C71,2.1,71,2.3,70.9,2.4
	c-0.3,0.3-0.3,0.4,0,0.4c0.5,0.1,0.8-0.3,1.1-0.7c0.1-0.2,0.5-0.6,0.6-0.4c0.1,0.2-0.1,0.5-0.3,0.6c-0.3,0.3,0,0.4,0.2,0.4
	c0.6,0,0.9-0.6,1.1-0.9c0-0.1,0-0.1,0.1-0.2H71.2L71.2,1.5z M74,1.5c-0.1,0.2,0,0.2,0.2,0.2c0.2,0,0.3-0.1,0.4-0.2L74,1.5L74,1.5z
	 M79,1.5L79,1.5c-0.2,0.4,0.3,0.5,0.2,0.8c-0.1,0.2,0.2,0.3,0.4,0.2c0,0,0,0,0,0v0c-0.1,0.3,0,0.5,0.2,0.4c0.2-0.1,0.3,0.1,0.5,0.2
	l0.3,0c0.1,0,0.2,0,0.3,0h0.5c-0.4-0.6-0.9-0.3-0.9-0.6c0-0.1,0.2-0.2,0.5-0.1c0.2,0.1,0.7,0.6,1,0.4c0.2-0.2,0-0.5-0.4-0.6
	c-0.4-0.2-0.9,0-0.9-0.2c0.1-0.2,0.4-0.3,0.6-0.2c0.3,0.2,0.5,0.2,0.6,0c0-0.1-0.1-0.2-0.2-0.3h-0.5c0,0-0.1,0-0.1,0
	c-0.1,0-0.1,0-0.1,0h-1.3c0,0-0.1,0-0.1,0.1c-0.1,0-0.1,0-0.1-0.1H79L79,1.5z M78.7,3.1L78.7,3.1c0-0.2,0.1-0.3,0.3-0.3
	c0.1,0,0.1,0,0.2,0.1l0,0c0,0,0,0,0,0v0l0,0c0.1,0,0.1,0.1,0.1,0.2H78.7z M77,3.5c0.1-0.1,0.2-0.1,0.3-0.1c0.1-0.1,0.1-0.1,0.2-0.3
	h0.6c-0.1,0.2-0.3,0.4-0.4,0.6h-0.8c0,0,0,0,0.1,0C76.9,3.6,76.9,3.5,77,3.5L77,3.5z M76.1,3.7h-0.7c-0.1-0.1-0.2-0.3-0.3-0.5
	c-0.2,0.1-0.6,0.2-0.8,0.1c-0.1,0-0.3-0.1-0.4-0.2l1.7,0c0.1,0.2,0.3,0.4,0.5,0.5C76.1,3.7,76.1,3.7,76.1,3.7L76.1,3.7z M75.9,3.1
	c0,0.1,0.2,0.2,0.5,0H75.9L75.9,3.1z M78.7,3.1c0,0.1,0,0.1,0.1,0.2l0,0c0,0,0,0,0,0l0,0l0,0l0,0c0,0,0,0,0,0l0,0
	c0.1,0,0.1,0.1,0.2,0.1c0.2,0,0.3-0.1,0.3-0.3l0,0H78.7L78.7,3.1z M80.3,3.1c0.1,0,0.2,0.1,0.3,0c0,0,0,0,0,0L80.3,3.1L80.3,3.1z
	 M80.9,3.1c0.2,0.1,0.3,0.4,0.2,0.5l0,0h0.5c0-0.2-0.1-0.4-0.2-0.5c0,0,0-0.1-0.1-0.1H80.9L80.9,3.1z M78.6,3.5L78.6,3.5
	C78.6,3.5,78.6,3.5,78.6,3.5L78.6,3.5L78.6,3.5c-0.1,0-0.1-0.1-0.2-0.1c-0.1,0-0.2,0.1-0.2,0.2l0,0h0.4C78.7,3.6,78.6,3.6,78.6,3.5z
	 M76.8,3.7h0.8c0,0,0,0-0.1,0c0,0.1,0,0.1,0,0.2h-1.9c-0.1-0.1-0.1-0.1-0.2-0.2h0.7C76.4,3.8,76.6,3.8,76.8,3.7L76.8,3.7z M78.2,3.7
	c0,0.1,0,0.1,0.1,0.1c0,0,0,0,0,0l0,0l0,0h0c0,0,0,0,0,0c0,0,0.1,0,0.1,0h0.1c0.1,0,0.2-0.1,0.2-0.2l0,0H78.2L78.2,3.7z M81.2,3.7
	c0,0.1,0,0.2,0,0.2h0.5c0-0.1,0-0.1,0-0.2H81.2L81.2,3.7z M79.5,3.9h0.3C79.7,3.9,79.6,3.9,79.5,3.9z M75.6,3.9h1.9c0,0,0,0-0.1,0.1
	c0,0-0.1,0.1-0.1,0.1h-1.5c0,0,0,0,0,0C75.8,4,75.7,4,75.6,3.9L75.6,3.9z M78.4,3.9L78.4,3.9C78.5,3.9,78.5,3.9,78.4,3.9
	C78.4,3.9,78.4,3.9,78.4,3.9L78.4,3.9z M79.5,3.9c-0.2,0-0.3,0.1-0.5,0.1l1.2,0c-0.1-0.1-0.3-0.1-0.4-0.1H79.5L79.5,3.9z M81.2,3.9
	c0,0.1,0,0.1,0.1,0.1l0.4,0c0,0,0-0.1,0-0.1H81.2L81.2,3.9z M78.1,4C78.1,4,78,4,78,4c-0.1,0-0.1,0-0.1,0.1L78.1,4
	C78.1,4,78.1,4,78.1,4z M75.9,4.1h1.5c-0.1,0-0.2,0-0.3,0C76.7,4.3,76.3,4.2,75.9,4.1L75.9,4.1z M77.8,4.1
	C77.8,4.1,77.8,4.1,77.8,4.1c0,0.1,0,0.2,0,0.2l0,0c0,0,0,0,0,0l0,0c0,0,0,0,0,0l0,0c0,0,0.1,0,0.1,0c0.1,0,0.2-0.1,0.2-0.2
	c0,0,0-0.1,0-0.1H77.8L77.8,4.1z M79,4.1l1.2,0c0,0,0.1,0,0.1,0c0.7,0.5,1,0.7,1.9,0.4c-0.2,0.4-0.4,0.7-1,0.8
	c-0.1,0.4-0.6,0.4-0.8,0.5c0.3-0.6-0.1-1-0.6-1.3c-0.3-0.1-0.8,0.2-1,0.4c0,0.1,0,0.2-0.1,0.3c-0.1,0.1-0.1,0.1-0.2,0.1
	c-0.1,0.2-0.1,0.5,0,0.8c0.1,0.3,0.4,0.5,0.7,0.5c0.1,0,0.5,0,0.5-0.3c0-0.3-0.3-0.6-0.5-0.3c-0.1,0.3-0.5,0-0.2-0.4
	c0.4-0.4,1.1-0.1,1.2,0.6c0,0.6-0.5,0.7-0.8,0.9c-0.1,0.1-0.1,0.1-0.1,0.2h-0.5c0-0.1,0.1-0.3,0.1-0.4c-0.4-0.3-0.7-0.4-0.8-0.8
	c-0.2-0.4-0.2-0.8,0-1.3c0-0.1,0-0.3,0.1-0.4c0.1-0.1,0.2-0.1,0.3-0.1C78.6,4.3,78.8,4.2,79,4.1L79,4.1z M81.2,4.1
	c0.1,0.1,0.2,0.2,0.3,0.1c0.1,0,0.1-0.1,0.1-0.1L81.2,4.1L81.2,4.1z M82,7.4c-0.1-0.6-0.6-1.1-1.1-1.4c-0.1-0.1-0.1,0-0.1,0.1
	c0.1,0.2,0.7,0.8,0.5,1.1c-0.1,0.1-0.2,0.2-0.4,0.3L82,7.4L82,7.4z M77.5,7.4L77.5,7.4C77.4,7.1,77.1,6.8,77,7
	c-0.1,0.2,0,0.3,0.1,0.4H77.5L77.5,7.4z M76.2,7.4h-0.5c-0.1-0.3,0-0.6,0.1-1.1c0,0,0,0,0,0h0c-0.5,0.1-0.8,0.2-1.2,0
	C74.2,6.3,74,6,73.8,5.7c-0.2-0.5,0.3-1.2,0.9-1C75,4.7,75.4,5,75.2,5.2c-0.3,0.2-0.4-0.3-0.8-0.1c-0.2,0.1-0.3,0.4-0.1,0.6
	c0.3,0.4,0.9,0.4,1.1,0.1c0.3-0.3,0.5-0.7,0.9-1c0.3-0.2,0.6-0.2,0.9,0.1c0,0,0,0,0,0c0,0,0,0,0,0c0.2,0.3,0.3,0.6,0.1,0.9
	c-0.2,0.4-0.7,0.6-1,0.9C76.2,6.9,76.1,7.1,76.2,7.4L76.2,7.4z M75.4,6.7L75.4,6.7L75.4,6.7L74.2,7l-0.1,0.5h1.1L75.4,6.7z
	 M74.2,7.4L74,8.1c0,0,0,0,0,0l1.2-0.3l0.1-0.5H74.2L74.2,7.4z M75.7,7.4c0,0,0,0.1,0,0.1c0.1,0.4,0.4,0.6,0.7,0.8
	c0.5,0.2,1.2-0.3,1-0.9h-0.4c0,0.1,0.1,0.2,0,0.3c-0.1,0.2-0.4,0.2-0.6,0c-0.1-0.1-0.2-0.2-0.2-0.4H75.7L75.7,7.4z M78.8,7.4
	c0,0.2,0,0.3,0,0.4c0.1,0.3,0.4,0.8,1,0.6c0.1-0.1-0.3-0.3-0.5-0.6c-0.1-0.1-0.1-0.3,0-0.4H78.8L78.8,7.4z M80.9,7.4l1,0
	c0,0.1,0.1,0.3,0,0.4c-0.1,1.2-0.7,2.3-1.5,3.2c-0.3,0.3-0.5,0.6-0.6,0.9h-0.4c0.1-0.2,0.2-0.4,0.4-0.6c0.2-0.2-0.1-0.2-0.2-0.1
	c-0.3,0.3-0.4,0.3-0.4,0c0-0.6,0.3-0.9,0.7-1.1c0.2-0.1,0.7-0.5,0.4-0.6c-0.2-0.1-0.5,0.1-0.6,0.3c-0.3,0.3-0.4,0-0.4-0.2
	c0-0.6,0.6-1,0.9-1.1c0.2-0.1,0.4-0.1,0.6-0.2c0.1-0.1,0.3-0.3,0.1-0.4c-0.1-0.1-0.3,0-0.4,0.1c-0.3,0.2-0.3,0.1-0.3-0.2
	C80.4,7.7,80.7,7.5,80.9,7.4L80.9,7.4z M81.5,11.3c0-0.5,0.3-1.2,0.5-1.7C81.5,10.2,81,11,80.7,12H82C81.9,11.8,81.6,11.7,81.5,11.3
	z M79.5,12c-0.2,0.3-0.3,0.7-0.3,1.1c0,0.6,0.2,1,0.5,1.1c0.4,0.2,0.9-0.3,0.6-0.7c-0.3-0.4-0.7-0.2-0.6-1c0-0.2,0.1-0.4,0.2-0.6
	H79.5L79.5,12z M82,12C82,12,82,12,82,12c0,0.3-0.2,0.4-0.4,0.3c-0.2-0.1-0.3-0.4-0.3-0.1c0,0.3,0.2,0.4,0.4,0.5
	c0.2,0.1,0.3,0.3,0.2,0.4c-0.1,0.2-0.4,0.1-0.5,0c-0.1-0.1-0.2,0-0.1,0.2c0.1,0.2,0.3,0.2,0.5,0.3c0.2,0.1,0.4,0.1,0.3,0.4
	c0,0.3-0.4,0.5-0.8,0.3c-0.6-0.4-0.9-1-0.7-2c0-0.1,0-0.2,0.1-0.4H82z M22.2,1.5h1.4c-0.1-0.2-0.2-0.5-0.4-0.6
	c-0.1-0.6-0.4-0.8-0.8-1C22.6,0.7,22.5,1.1,22.2,1.5L22.2,1.5z M31.2,1.5c0.4-0.1,0.8-0.4,1-0.8c0.2-0.4,0-0.7-0.3-0.8
	c-0.3,0-0.4,0.1-0.4,0.3c0,0.2-0.1,0.4-0.3,0.5c-0.2,0.1-0.3-0.1-0.2-0.1c0.1-0.1,0.2-0.3,0-0.5c-0.1-0.1-0.4,0-0.4,0.2
	c-0.1,0.2-0.2,0.4-0.5,0.4c-0.3,0,0.1-0.2,0.1-0.3c0.1-0.2,0-0.4-0.2-0.4c-0.3,0-0.3,0.4-0.7,0.5c-0.5,0.1-1.2-0.3-1.7-0.5
	c0.6,0.7,1.5,1.2,2.7,1.5c0,0,0,0,0.1,0L31.2,1.5L31.2,1.5z M28.8,1.5h-2.4c0-0.1-0.1-0.3-0.2-0.4c-0.1-0.1-0.3-0.3-0.4-0.1
	c-0.1,0.1,0,0.3,0.1,0.4c0,0,0,0,0,0.1h-0.6C25.3,1.3,25.2,1,25,0.9c-0.2-0.2-0.8,0.4-1.1,0.5c-0.1,0.1-0.1,0-0.1-0.1
	c0.3-0.6,1.1-1.2,1.8-1.1C26.8,0.2,27.9,0.8,28.8,1.5L28.8,1.5z M21,1.5C20.8,1.1,21.3,1,21.5,1c0.5,0,0.6-0.2,0.5-0.3
	c-0.2-0.3-0.8-0.1-1,0c-0.5,0.4-0.5,0.7-0.5,0.9H21L21,1.5z M20.3,1.5l-1.3,0c0,0,0,0,0,0c-0.1-0.1-0.2-0.2-0.3-0.3
	c-0.2-0.1-0.4-0.1-0.6,0.1c-0.2-0.3-0.3-0.9-0.1-1.2v0h0c0.3-0.1,1-0.1,1.2,0.1C19,0.5,19,0.7,19.1,0.9c0.1,0.1,0.2,0.2,0.3,0.3
	c0,0,0.1,0,0-0.1c-0.2-0.5,0-0.9,0.3-0.8c0.2,0,0.2,0.3,0,0.6c-0.1,0.2,0,0.5,0.2,0.6c0.2,0,0-0.5,0.2-0.9c0.1-0.3,0.5-0.6,0.6-0.4
	c0.2,0.2-0.4,0.8-0.4,1C20.2,1.3,20.3,1.5,20.3,1.5L20.3,1.5z M18.3,1.5h0.5C18.6,1.5,18.4,1.5,18.3,1.5z M24.5,3.1h1.7
	c0.2-0.2,0.3-0.4,0.2-0.8c-0.1-0.2-0.3,0.3-0.6,0.4c-0.2,0.1-0.5,0.1-0.6-0.1c-0.2-0.2-0.3-0.8-0.9-0.8c-0.6,0-1,0.8-0.6,1.2
	c0,0,0,0,0.1,0l0.5,0c0-0.1,0-0.1-0.1-0.2c-0.3-0.2-0.1-0.5,0.3-0.5c0.3,0,0.3,0.4,0.3,0.5C24.5,3,24.5,3.1,24.5,3.1L24.5,3.1z
	 M21.9,3.1c-0.2-0.4-0.3-0.8,0-1.3c0.1-0.1,0.1-0.2,0.2-0.3h1.4c0,0.1,0,0.2,0,0.2c-0.6-0.3-1,0.1-1.3,0.6c-0.1,0.2,0,0.5,0.2,0.7
	L21.9,3.1L21.9,3.1z M18.3,1.5c-0.2,0-0.3,0.1-0.2,0.3c0,0.2,0.3,0.2,0.6,0c0.2-0.1,0.5,0,0.6,0.2c0,0.2-0.5,0-0.9,0.2
	C18,2.4,17.8,2.7,18,2.9c0.2,0.2,0.8-0.4,1-0.4c0.3-0.1,0.4,0,0.5,0.1c0,0.2-0.4-0.1-0.9,0.6h0.5c0.1,0,0.2,0,0.3,0h0.3
	c0.2-0.1,0.3-0.3,0.5-0.2c0.2,0.1,0.3-0.2,0.2-0.4c0,0,0,0,0,0s0,0,0,0c0.2,0.1,0.5,0,0.4-0.2c-0.1-0.3,0.3-0.4,0.2-0.8v0h-0.5
	c0,0,0,0.1-0.1,0.1c0,0-0.1,0-0.1-0.1l-1.3,0c0,0,0,0-0.1,0c0,0-0.1,0-0.1,0H18.3L18.3,1.5z M25.5,1.5c0.1,0.1,0.2,0.2,0.4,0.2
	c0.2,0,0.4,0,0.2-0.2H25.5L25.5,1.5z M26.4,1.5h2.4c0,0,0.1,0,0.1,0.1c0.5,0.4,1,0.7,1.5,0.8c0.8,0.1,0.5-0.3,1-0.6
	c0.4-0.3,0.8,0.1,0.7,0.6C32,2.7,31.6,2.9,31,2.9c-0.6,0-1.2-0.3-1.7-0.7C29,2.1,29,2.3,29.1,2.4c0.3,0.3,0.3,0.4,0,0.4
	c-0.6,0.1-0.9-0.3-1.1-0.7c-0.1-0.2-0.5-0.6-0.6-0.4c-0.1,0.2,0.1,0.5,0.3,0.6c0.3,0.3,0,0.4-0.2,0.4c-0.6,0-0.9-0.6-1.1-0.9
	C26.5,1.7,26.4,1.6,26.4,1.5L26.4,1.5z M30.3,1.5c0.3,0,0.6,0,0.9,0L30.3,1.5L30.3,1.5z M20.7,3.1c0-0.1,0-0.1,0.1-0.2l0,0l0,0h0
	l0,0c0-0.1,0.1-0.1,0.2-0.1c0.2,0,0.3,0.1,0.3,0.3l0,0L20.7,3.1z M23,3.5c-0.1-0.1-0.2-0.1-0.3-0.1c-0.1-0.1-0.1-0.1-0.2-0.3l-0.6,0
	c0.1,0.2,0.3,0.4,0.4,0.6h0.8c0,0,0,0-0.1,0C23.1,3.6,23.1,3.5,23,3.5L23,3.5z M23.9,3.7h0.7c0.1-0.1,0.2-0.3,0.3-0.5
	c0.2,0.1,0.6,0.2,0.8,0.1c0.1,0,0.3-0.1,0.4-0.2h-1.7c-0.1,0.2-0.3,0.4-0.5,0.5C23.9,3.7,23.9,3.7,23.9,3.7L23.9,3.7z M24.1,3.1
	c0,0.1-0.2,0.2-0.5,0L24.1,3.1L24.1,3.1z M18.6,3.1C18.6,3.2,18.5,3.2,18.6,3.1c-0.1,0.2-0.2,0.4-0.2,0.6h0.5l0,0
	c0-0.2,0-0.4,0.2-0.5H18.6L18.6,3.1z M19.4,3.1C19.4,3.1,19.4,3.1,19.4,3.1c0.1,0.1,0.2,0,0.3,0H19.4L19.4,3.1z M20.7,3.1L20.7,3.1
	c0,0.2,0.1,0.3,0.3,0.3c0.1,0,0.1,0,0.2-0.1l0,0c0,0,0,0,0,0l0,0l0,0l0,0c0,0,0,0,0,0l0,0c0-0.1,0.1-0.1,0.1-0.2L20.7,3.1L20.7,3.1z
	 M21.8,3.7c0-0.1-0.1-0.2-0.2-0.2c-0.1,0-0.1,0-0.2,0.1l0,0l0,0l0,0l0,0c0,0-0.1,0.1-0.1,0.1H21.8L21.8,3.7z M23.2,3.7h-0.8
	c0,0,0,0,0,0c0,0.1,0,0.1,0,0.2h1.9c0.1-0.1,0.1-0.1,0.2-0.2h-0.7C23.6,3.8,23.4,3.8,23.2,3.7L23.2,3.7z M18.4,3.7
	c0,0.1,0,0.2,0,0.2h0.5c0-0.1,0-0.1,0-0.2H18.4L18.4,3.7z M21.3,3.7L21.3,3.7c0,0.1,0.1,0.2,0.2,0.2h0.1c0,0,0.1,0,0.1,0
	c0,0,0,0,0,0l0,0l0,0l0,0c0,0,0,0,0,0c0,0,0-0.1,0-0.1H21.3L21.3,3.7z M20.2,3.9h0.3C20.4,3.9,20.3,3.9,20.2,3.9z M24.4,3.9h-1.9
	c0,0,0,0,0.1,0.1c0,0,0.1,0.1,0.1,0.1h1.5c0,0,0,0,0,0C24.2,4,24.3,4,24.4,3.9L24.4,3.9z M18.3,3.9c0,0.1,0,0.1,0,0.1h0.4
	c0,0,0-0.1,0.1-0.1H18.3L18.3,3.9z M20.2,3.9c-0.1,0-0.3,0.1-0.4,0.1l1.2,0c-0.1-0.1-0.3-0.1-0.5-0.1H20.2L20.2,3.9z M21.5,3.9
	L21.5,3.9C21.6,3.9,21.6,3.9,21.5,3.9C21.6,3.9,21.5,3.9,21.5,3.9L21.5,3.9z M22,4C22,4,21.9,4,21.9,4c0,0,0,0,0,0l0.3,0
	C22.1,4,22.1,4,22,4z M24.1,4.1h-1.5c0.1,0,0.2,0,0.2,0C23.3,4.3,23.7,4.2,24.1,4.1L24.1,4.1z M18.4,4.1c0,0.1,0.1,0.1,0.1,0.1
	c0.1,0,0.2,0,0.3-0.1H18.4L18.4,4.1z M19.8,4.1l1.2,0c0.2,0.1,0.4,0.3,0.6,0.5c0.1,0,0.2,0,0.3,0.1C22,4.8,22,4.9,21.9,5
	c0.2,0.4,0.2,0.9,0,1.3c-0.2,0.3-0.4,0.5-0.8,0.8c0,0.1,0.1,0.2,0.1,0.4l-0.5,0c0-0.1-0.1-0.1-0.1-0.2c-0.2-0.2-0.8-0.3-0.8-0.9
	c0-0.6,0.8-1,1.2-0.6c0.4,0.4,0,0.7-0.1,0.4c-0.2-0.3-0.5-0.1-0.5,0.3c0,0.3,0.4,0.3,0.5,0.3c0.3-0.1,0.6-0.3,0.7-0.5
	c0.1-0.3,0.1-0.6,0-0.8c-0.1,0-0.1,0-0.2-0.1c-0.1-0.1-0.1-0.2-0.1-0.3c-0.2-0.2-0.7-0.5-1-0.4c-0.6,0.2-0.9,0.6-0.6,1.3
	c-0.2,0-0.7-0.1-0.8-0.5c-0.6-0.1-0.8-0.4-1-0.8C18.7,4.8,19,4.6,19.8,4.1C19.7,4.1,19.8,4.1,19.8,4.1L19.8,4.1z M21.9,4.1
	c0,0,0,0.1,0,0.1c0,0.1,0.1,0.2,0.2,0.2c0.1,0,0.1,0,0.1,0l0,0c0,0,0,0,0,0l0,0c0,0,0,0,0,0l0,0c0,0,0-0.1,0-0.1c0,0,0-0.1,0-0.1
	L21.9,4.1L21.9,4.1z M25.9,7.4L25.8,7l-1.2-0.3l0,0l0,0l0.2,0.7L25.9,7.4L25.9,7.4z M24.3,7.4h-0.5c0.1-0.3,0-0.6-0.2-0.8
	c-0.3-0.3-0.7-0.5-1-0.9c-0.2-0.3-0.2-0.6,0.1-0.9c0,0,0,0,0,0c0,0,0,0,0,0c0.3-0.3,0.6-0.3,0.9-0.1c0.4,0.3,0.6,0.7,0.9,1
	c0.3,0.3,0.8,0.3,1.1-0.1c0.2-0.2,0.1-0.5,0-0.6c-0.3-0.3-0.5,0.2-0.8,0.1C24.7,5,25,4.7,25.3,4.6c0.6-0.1,1,0.5,0.9,1
	C26,6,25.8,6.3,25.4,6.4c-0.4,0.1-0.7,0.1-1.2,0c0,0,0,0,0,0c0,0,0,0,0,0C24.3,6.8,24.4,7.1,24.3,7.4L24.3,7.4z M22.9,7.4
	C23,7.3,23.1,7.1,23,7c-0.1-0.2-0.5,0.2-0.5,0.4l0,0H22.9L22.9,7.4z M18.7,7.2c-0.2-0.2,0.4-0.8,0.5-1.1C19.3,6,19.3,6,19.2,6
	c-0.5,0.3-1,0.8-1.1,1.4h1C18.9,7.3,18.8,7.3,18.7,7.2z M18,7.4c0,0.1-0.1,0.3,0,0.4c0.1,1.2,0.7,2.3,1.5,3.2
	c0.2,0.3,0.4,0.6,0.6,0.9h0.4c-0.1-0.2-0.2-0.4-0.4-0.6c-0.2-0.2,0.1-0.2,0.2-0.1c0.3,0.3,0.4,0.3,0.4,0c0.1-0.6-0.3-0.9-0.7-1.1
	c-0.2-0.1-0.7-0.5-0.4-0.6c0.2-0.1,0.5,0.1,0.6,0.3c0.3,0.3,0.4,0,0.4-0.2c0-0.6-0.6-1-0.9-1.1c-0.2-0.1-0.4-0.1-0.6-0.2
	c-0.1-0.1-0.3-0.3-0.1-0.4c0.1-0.1,0.3,0,0.4,0.1c0.3,0.2,0.3,0.1,0.3-0.2c0-0.3-0.3-0.4-0.5-0.5H18L18,7.4z M20.7,7.4l0.5,0
	c0,0.2,0,0.3,0,0.4c-0.1,0.3-0.4,0.8-1,0.6c-0.2-0.1,0.3-0.3,0.4-0.6C20.7,7.7,20.7,7.6,20.7,7.4L20.7,7.4z M22.5,7.4
	c-0.1,0.6,0.5,1,1,0.9c0.4-0.1,0.6-0.4,0.7-0.8c0,0,0-0.1,0-0.1h-0.5c0,0.1-0.1,0.3-0.2,0.4c-0.2,0.2-0.5,0.1-0.6,0
	c-0.1-0.1-0.1-0.2,0-0.3H22.5L22.5,7.4z M24.7,7.4l0.1,0.5L26,8.1c0,0,0,0,0,0l-0.1-0.7L24.7,7.4L24.7,7.4z M18,12
	c0.1-0.2,0.4-0.2,0.4-0.6c0.1-0.5-0.3-1.2-0.5-1.7c0.6,0.5,1.1,1.3,1.4,2.3H18z M18,12C18,12,18,12,18,12c0,0.3,0.2,0.4,0.4,0.3
	c0.2-0.1,0.3-0.4,0.3-0.1c0,0.3-0.2,0.4-0.4,0.5c-0.2,0.1-0.3,0.3-0.2,0.4c0.1,0.2,0.4,0.1,0.5,0c0.1-0.1,0.2,0,0.1,0.2
	c-0.1,0.2-0.3,0.2-0.5,0.3c-0.2,0.1-0.4,0.1-0.3,0.4c0,0.3,0.4,0.5,0.8,0.3c0.6-0.4,0.9-1,0.7-2c0-0.1,0-0.3-0.1-0.4H18L18,12z
	 M20.5,12c0.2,0.3,0.3,0.7,0.3,1.1c0,0.6-0.2,1-0.5,1.1c-0.4,0.2-0.9-0.3-0.6-0.7c0.3-0.4,0.7-0.2,0.6-1c0-0.2-0.1-0.4-0.2-0.6H20.5
	z"/>
</svg>
