<?xml version="1.0" encoding="utf-8"?>
<!-- Generator: Adobe Illustrator 19.2.1, SVG Export Plug-In . SVG Version: 6.00 Build 0)  -->
<svg version="1.2" baseProfile="tiny" id="图层_1"
	 xmlns="http://www.w3.org/2000/svg" xmlns:xlink="http://www.w3.org/1999/xlink" x="0px" y="0px" viewBox="0 0 100 100"
	 xml:space="preserve">
<path id="XMLID_13388_" fill="#999999" d="M96.2,45.2c1.1,3,4,5.2,3.8,8.7c-0.3,4.5-3.6,5.4-6.9,7.2c-0.9,0.5-1.7,1.1-2.4,1.8
	c-2,1.9-1.4,6.3-3.9,8c-2.1,1.4-5.6,1.1-8.7,0.9c-2.3,4.6-8.2,11.6-16,11.9c1.9-3.6,4.7-6.8,4.3-11.5l0.9-0.2
	c-1.4-0.1-2.8-0.4-4.2-0.9c-3.2-1.1-5.4-3.6-8.9-3.6c-3.5,0-7.1,1.1-10.3,2.3c-3.7,1.3-7,3.4-11.1,2.2c-2.2-0.7-3.7-2.5-5.9-3.1
	C21.6,67.3,16,70.9,11,67.8C6.9,65.3,0.7,64.6,0,54.3c-0.2-3.9,4.6-4.6,3.3-8.6C1.5,40,1,36.3,2.5,30.5c1.3-5.3,7.9-9.1,13.7-9.5
	c3.8-0.2,11,2.5,14.9,2.1c8.8-0.8,17.4-10.8,26.4-5.1c3.2,2,10.2,1.8,14.5,2.6c8.8,1.6,14-7.2,23.8,10.2
	C97.2,33.6,95.2,42.3,96.2,45.2L96.2,45.2z"/>
</svg>
