<?xml version="1.0" encoding="utf-8"?>
<!-- Generator: Adobe Illustrator 19.2.1, SVG Export Plug-In . SVG Version: 6.00 Build 0)  -->
<svg version="1.2" baseProfile="tiny" id="图层_1"
	 xmlns="http://www.w3.org/2000/svg" xmlns:xlink="http://www.w3.org/1999/xlink" x="0px" y="0px" viewBox="0 0 100 100"
	 xml:space="preserve">
<path fill="#E53A35" d="M50.2,74.4c-8.1,0-15.9-1.9-22.2-5.3H13.9c-2.3,0-4.1-1.8-4.1-4.1v-5.9c-0.3,0-0.5,0-0.8,0C4,59.1,0,55,0,50
	c0-5,4-9.1,9-9.1c0.3,0,0.5,0,0.8,0v-5.9c0-2.3,1.8-4.1,4.1-4.1H28c6.3-3.4,14.1-5.3,22.2-5.3s15.9,1.9,22.2,5.3h14.1
	c2.3,0,4.1,1.8,4.1,4.1v5.8c0.1,0,0.3,0,0.4,0c4.9,0,9,4.1,9,9.1c0,5-4,9.1-9,9.1c-0.1,0-0.3,0-0.4,0v5.8c0,2.3-1.8,4.1-4.1,4.1
	H72.4C66.1,72.5,58.2,74.4,50.2,74.4z M11.2,57.4v7.5c0,1.5,1.2,2.7,2.7,2.7h14.5l0.2,0.1c6.1,3.4,13.8,5.3,21.7,5.3
	s15.6-1.9,21.7-5.3l0.2-0.1h14.5c1.5,0,2.7-1.2,2.7-2.7v-7.4l0.8,0.1c0.3,0,0.7,0.1,1,0.1c4.2,0,7.6-3.5,7.6-7.7
	c0-4.2-3.4-7.7-7.6-7.7c-0.3,0-0.7,0-1,0.1l-0.8,0.1v-7.4c0-1.5-1.2-2.7-2.7-2.7H72l-0.2-0.1C65.8,28.9,58.1,27,50.2,27
	s-15.6,1.9-21.7,5.3l-0.2,0.1H13.9c-1.5,0-2.7,1.2-2.7,2.7v7.5l-0.8-0.2c-0.5-0.1-0.9-0.1-1.4-0.1c-4.2,0-7.6,3.5-7.6,7.7
	c0,4.2,3.4,7.7,7.6,7.7c0.5,0,0.9,0,1.4-0.1L11.2,57.4z M30.6,32.2C30.6,32.3,30.7,32.3,30.6,32.2c13.3,0.1,26.6,0.1,39.8,0
	c0,0,0,0,0,0c0,0,0,0,0,0C57.2,32.2,43.9,32.2,30.6,32.2C30.7,32.2,30.6,32.2,30.6,32.2z M30.6,67.8C30.6,67.8,30.7,67.8,30.6,67.8
	c13.3,0.1,26.6,0.1,39.8,0c0,0,0,0,0,0c0,0,0,0,0,0C57.2,67.7,43.9,67.7,30.6,67.8C30.7,67.8,30.6,67.8,30.6,67.8z M49.4,33
	c0.4,0.4,1.2,0.4,1.6,0c0.4-0.4,0.4-1.2,0-1.6c-0.4-0.4-1.2-0.4-1.6,0C48.9,31.9,48.9,32.6,49.4,33z M51.6,32.8
	c0.3,0.3,0.8,0.3,1.2,0c0.3-0.3,0.3-0.8,0-1.2c-0.3-0.3-0.8-0.3-1.2,0C51.3,32,51.3,32.5,51.6,32.8z M47.5,32.8
	c0.3,0.3,0.8,0.3,1.1,0c0.3-0.3,0.3-0.8,0-1.2c-0.3-0.3-0.8-0.3-1.1,0C47.2,32,47.2,32.5,47.5,32.8z M49.4,68.6
	c0.4,0.4,1.2,0.4,1.6,0c0.4-0.4,0.4-1.2,0-1.6c-0.4-0.4-1.2-0.4-1.6,0C48.9,67.4,48.9,68.1,49.4,68.6z M51.6,68.4
	c0.3,0.3,0.8,0.3,1.2,0c0.3-0.3,0.3-0.8,0-1.2c-0.3-0.3-0.8-0.3-1.2,0C51.3,67.5,51.3,68,51.6,68.4z M47.5,68.4
	c0.3,0.3,0.8,0.3,1.1,0c0.3-0.3,0.3-0.8,0-1.2c-0.3-0.3-0.8-0.3-1.1,0C47.2,67.5,47.2,68,47.5,68.4z"/>
</svg>
