<?xml version="1.0" encoding="utf-8"?>
<!-- Generator: Adobe Illustrator 19.2.1, SVG Export Plug-In . SVG Version: 6.00 Build 0)  -->
<svg version="1.2" baseProfile="tiny" id="图层_1"
	 xmlns="http://www.w3.org/2000/svg" xmlns:xlink="http://www.w3.org/1999/xlink" x="0px" y="0px" viewBox="0 0 100 100"
	 xml:space="preserve">
<path id="XMLID_13335_" fill="#999999" d="M50,6.2c0.4,0,1.1,0.1,1.4,0.9l11.1,22.5c1.4,2.8,4.1,4.8,7.2,5.3l24.8,3.6
	c0.9,0.1,1.2,0.7,1.3,1.1c0.1,0.4,0.2,1-0.4,1.6l-18,17.5c-2.3,2.2-3.3,5.4-2.8,8.5L79,91.9c0.1,0.5,0,0.9-0.3,1.3
	c-0.3,0.4-0.8,0.6-1.2,0.6c-0.3,0-0.5-0.1-0.7-0.2L54.5,81.9c-1.4-0.7-2.9-1.1-4.5-1.1s-3.1,0.4-4.5,1.1L23.3,93.6
	c-0.3,0.1-0.5,0.2-0.7,0.2c-0.5,0-0.9-0.2-1.2-0.6c-0.3-0.4-0.4-0.8-0.3-1.3l4.2-24.7c0.5-3.1-0.5-6.3-2.8-8.5l-18-17.5
	c-0.6-0.6-0.5-1.3-0.4-1.6c0.1-0.4,0.4-1,1.3-1.1l24.8-3.6c3.1-0.5,5.8-2.4,7.2-5.3L48.6,7.1C48.9,6.3,49.6,6.2,50,6.2 M50,2.2
	c-2,0-4,1-5,3.1L33.9,27.8c-0.8,1.7-2.4,2.8-4.2,3.1L4.8,34.5c-4.6,0.7-6.4,6.3-3.1,9.6l18,17.5c1.3,1.3,1.9,3.1,1.6,5L17,91.3
	c-0.6,3.6,2.3,6.6,5.5,6.6c0.9,0,1.7-0.2,2.6-0.7l22.2-11.7c0.8-0.4,1.7-0.6,2.6-0.6s1.8,0.2,2.6,0.6l22.2,11.7
	c0.9,0.5,1.7,0.7,2.6,0.7c3.3,0,6.1-2.9,5.5-6.6l-4.2-24.7c-0.3-1.8,0.3-3.7,1.6-5l18-17.5c3.3-3.2,1.5-8.9-3.1-9.6l-24.8-3.6
	c-1.8-0.3-3.4-1.4-4.2-3.1L55,5.3C54,3.2,52,2.2,50,2.2L50,2.2z"/>
</svg>
