<?xml version="1.0" encoding="utf-8"?>
<!-- Generator: Adobe Illustrator 19.2.1, SVG Export Plug-In . SVG Version: 6.00 Build 0)  -->
<svg version="1.2" baseProfile="tiny" id="图层_1"
	 xmlns="http://www.w3.org/2000/svg" xmlns:xlink="http://www.w3.org/1999/xlink" x="0px" y="0px" viewBox="0 0 100 100"
	 xml:space="preserve">
<path id="XMLID_375_" fill="#999999" d="M94,51.3c3.7,4.1,5,9.9,3.1,15.5c-2,5.5-6.7,9.2-12.1,10.1c0.6,5.4-1.7,11-6.6,14.3
	c-4.8,3.3-10.9,3.5-15.7,1.1c-2.7,4.8-7.8,7.9-13.7,7.8c-5.9-0.1-10.9-3.5-13.4-8.3c-5,2.3-11,1.8-15.7-1.7c-4.7-3.5-6.8-9.2-6-14.6
	c-5.4-1.1-10-4.9-11.7-10.5C0.4,59.3,2,53.5,5.8,49.6c-3.7-4-5.2-9.8-3.4-15.4c1.9-5.5,6.6-9.3,11.9-10.3c-0.7-5.4,1.5-11,6.3-14.5
	C25.4,6,31.4,5.7,36.4,8.1C39,3.3,44.1,0,49.9,0C56.2,0,61.6,3.8,64,9.2c5.2-2.8,11.8-2.4,16.7,1.5c4.6,3.6,6.6,9.3,5.7,14.7
	c5.3,1.2,9.9,5.1,11.5,10.7C99.6,41.7,97.9,47.5,94,51.3L94,51.3z M84.6,39.9c-1.2-4-4.4-6.9-8.3-7.7c0.7-3.9-0.8-8-4.1-10.6
	c-3.6-2.8-8.3-3-12-1C58.4,16.7,54.6,14,50,14c-4.2,0-7.9,2.3-9.7,5.8c-3.5-1.7-7.9-1.5-11.3,1c-3.4,2.5-5,6.5-4.5,10.4
	c-3.9,0.7-7.2,3.4-8.6,7.4c-1.3,4-0.3,8.2,2.4,11.1c-2.7,2.8-3.9,7-2.6,11c1.3,4,4.6,6.8,8.4,7.6c-0.6,3.9,0.9,8,4.3,10.5
	c3.4,2.5,7.7,2.8,11.3,1.2c1.8,3.5,5.4,5.9,9.6,6c4.2,0.1,7.9-2.2,9.8-5.6c3.5,1.8,7.8,1.6,11.3-0.8c3.5-2.4,5.1-6.4,4.7-10.3
	c3.9-0.6,7.3-3.3,8.7-7.2c1.4-4,0.4-8.2-2.2-11.1C84.5,48.1,85.7,43.9,84.6,39.9L84.6,39.9z"/>
</svg>
