<?xml version="1.0" encoding="utf-8"?>
<!-- Generator: Adobe Illustrator 19.2.1, SVG Export Plug-In . SVG Version: 6.00 Build 0)  -->
<svg version="1.2" baseProfile="tiny" id="图层_1"
	 xmlns="http://www.w3.org/2000/svg" xmlns:xlink="http://www.w3.org/1999/xlink" x="0px" y="0px" viewBox="0 0 100 100"
	 xml:space="preserve">
<path fill="#E53A35" d="M83.8,0.9h-0.5c0,0,0-0.1,0-0.1c0-0.2,0.2-0.3,0.4-0.2c0.1,0.1,0.3,0.2,0.3,0.2S83.8,0.8,83.8,0.9L83.8,0.9z
	 M82.9,0.9h-0.6c0-0.1,0.1-0.2,0.3-0.2c0.3-0.1,0.4,0,0.4,0S83,0.7,82.9,0.9L82.9,0.9z M82,0.9h-0.6c-0.1-0.1-0.3-0.2-0.5-0.2
	c-0.2,0-0.5,0-0.6,0c-0.1,0-0.2,0.1-0.2,0.2h-0.3c-0.1-0.1-0.2-0.1-0.2-0.2c-0.2-0.1-0.2-0.2-0.2-0.2s1.1,0,1.7-0.1
	c0.6-0.1,0.9,0,1,0.3C82,0.8,82,0.8,82,0.9L82,0.9z M79.3,0.9H76l-0.4-0.5c0,0,0.5,0.1,1.3,0.1c0.7-0.1,1.4,0,1.7,0
	C78.7,0.4,79.1,0.6,79.3,0.9L79.3,0.9z M75,0.9h-1.9c0-0.1,0.1-0.2,0.2-0.2c0.1,0,0.1,0.1,0.2,0.1c0.3,0.3,0.4-0.1,0.3-0.3
	c-0.2-0.2-0.8-0.3-1,0.1c-0.1,0.1-0.1,0.2-0.1,0.4h-0.6c0-0.1,0-0.2,0.1-0.3H50H27.8c0.1,0.1,0.1,0.2,0.1,0.3h-0.6
	c0-0.1,0-0.3-0.1-0.4c-0.2-0.3-0.8-0.3-1-0.1c-0.2,0.2,0,0.6,0.3,0.3c0.1-0.1,0.1-0.1,0.2-0.1c0.1,0,0.2,0.1,0.2,0.2H25
	c0,0,0.1-0.1,0.1-0.1c0.1-0.1,0.2-0.3,0.5-0.5C26,0.1,26.6,0,27,0c0.2,0,0.4,0.1,0.5,0.2H50h22.5C72.6,0.1,72.8,0,73,0
	c0.4-0.1,1,0.1,1.4,0.3c0.3,0.1,0.5,0.4,0.5,0.5C75,0.8,75,0.8,75,0.9L75,0.9z M24.1,0.9h-3.3c0.2-0.2,0.5-0.4,0.8-0.4
	c0.3,0,0.9-0.1,1.7,0c0.7,0,1.3-0.1,1.3-0.1L24.1,0.9L24.1,0.9z M20.3,0.9H20c0-0.1-0.1-0.1-0.2-0.2c-0.1-0.1-0.4-0.1-0.7,0
	c-0.2,0-0.3,0.1-0.5,0.2H18c0,0,0-0.1,0-0.1c0.1-0.3,0.5-0.4,1-0.3c0.6,0.1,1.7,0.1,1.7,0.1s-0.1,0-0.2,0.2
	C20.4,0.7,20.3,0.8,20.3,0.9L20.3,0.9z M17.7,0.9h-0.6c-0.1-0.2,0-0.3,0-0.3s0.1-0.1,0.4,0C17.6,0.7,17.7,0.8,17.7,0.9L17.7,0.9z
	 M16.8,0.9h-0.5c-0.1-0.1-0.1-0.1-0.1-0.1s0.1-0.1,0.3-0.2C16.6,0.5,16.7,0.6,16.8,0.9C16.8,0.8,16.8,0.8,16.8,0.9z M16.7,1.4
	c-0.2-0.1-0.3-0.2-0.4-0.3C16.1,1,16,0.9,16,0.9S16,0.9,15.9,1c-0.1,0.1,0,0.3,0.2,0.3c0.2,0,0.4,0,0.4,0.1H16.7L16.7,1.4z
	 M16.3,0.9h0.5c0,0.2-0.1,0.3,0.1,0.3c0.2,0,0.3-0.1,0.2-0.3c0,0,0,0,0,0h0.6c0,0.1,0,0.1,0,0.2c0,0.1,0,0.2,0,0.3h-0.7
	c-0.2-0.2-0.4-0.3-0.5-0.4C16.4,0.9,16.3,0.9,16.3,0.9L16.3,0.9z M18,0.9h0.6c0,0-0.1,0.1-0.1,0.1c-0.1,0.1-0.1,0.3-0.1,0.4h-0.5
	C18,1.2,18,1,18,0.9L18,0.9z M20,0.9h0.3c-0.1,0.1-0.2,0.2-0.3,0.3c-0.1,0.1-0.1,0.1-0.1,0.2h-1c0,0,0-0.1,0-0.1
	c0.1-0.4,0.6-0.4,0.7-0.4C19.8,0.9,20,0.9,20,0.9C20,0.9,20,0.9,20,0.9L20,0.9z M20.7,0.9h3.3l-0.2,0.2c0,0,0,0,0.1,0.3h-0.7
	c-0.1-0.3-0.3-0.3-0.3-0.3s0,0.1,0,0.3H22c0.2-0.1,0.3-0.3,0.3-0.4c0-0.1,0-0.2-0.6,0c-0.2,0.1-0.4,0.2-0.5,0.4h-0.7
	C20.5,1.2,20.6,1,20.7,0.9C20.7,0.9,20.7,0.9,20.7,0.9L20.7,0.9z M25,0.9h1.9c0,0.1-0.1,0.3-0.3,0.4c-0.8,0.4-1.6,0-1.8-0.2
	C24.7,1,24.8,0.9,25,0.9L25,0.9z M27.3,0.9h0.6c0,0,0,0.1,0,0.1c0,0.1,0,0.1-0.1,0.2H50h22.2c0-0.1,0-0.1-0.1-0.2c0,0,0-0.1,0-0.1
	h0.6c0,0.2,0,0.4,0.1,0.5H27.2C27.3,1.2,27.3,1,27.3,0.9L27.3,0.9z M73.1,0.9H75c0.1,0.1,0.3,0.1,0.2,0.2c-0.2,0.1-1,0.5-1.8,0.2
	C73.2,1.1,73.1,1,73.1,0.9L73.1,0.9z M76,0.9h3.3c0,0,0,0,0,0.1c0.1,0.1,0.2,0.3,0.3,0.5h-0.7c-0.1-0.1-0.3-0.3-0.5-0.4
	c-0.6-0.3-0.6-0.2-0.6,0c0,0.1,0.1,0.3,0.3,0.4h-0.9c0-0.2,0-0.3,0-0.3s-0.2,0.1-0.3,0.3h-0.7c0.1-0.3,0.1-0.3,0.1-0.3L76,0.9
	L76,0.9z M79.7,0.9H80c0,0,0,0.1,0,0.1c0,0,0.2,0,0.4,0c0.2,0,0.6,0.1,0.8,0.4c0,0,0,0.1,0,0.1h-1c0-0.1-0.1-0.1-0.1-0.2
	C79.9,1,79.8,0.9,79.7,0.9L79.7,0.9z M81.3,0.9H82C82,1,82,1.2,82.1,1.4l-0.5,0c0-0.1-0.1-0.3-0.1-0.4C81.4,0.9,81.4,0.9,81.3,0.9
	L81.3,0.9z M82.3,0.9h0.6l0,0c-0.1,0.2,0,0.3,0.2,0.3c0.2,0,0.1-0.1,0.1-0.3h0.5c-0.1,0-0.1,0.1-0.2,0.1c-0.1,0.1-0.3,0.2-0.5,0.4
	l-0.7,0c0-0.1,0-0.2,0-0.3C82.3,1,82.3,0.9,82.3,0.9L82.3,0.9z M83.4,1.4c0-0.1,0.2,0,0.4-0.1c0.2,0,0.3-0.2,0.2-0.3
	C84,0.9,84,0.9,84,0.9S83.9,1,83.7,1.1c-0.1,0.1-0.2,0.2-0.4,0.3H83.4L83.4,1.4z M75.9,1.4C75.9,1.3,76,1.3,76,1.3s-0.1-0.2-0.6,0.1
	H75.9L75.9,1.4z M24.7,1.4c-0.5-0.3-0.6-0.1-0.6-0.1s0,0.1,0.1,0.1H24.7z M16,1.5c0,0-0.1,0.2,0,0.4c0.1,0.3,0.3,0.2,0.5,0.2
	c0.2,0,1,0,1,0s-0.5-0.4-0.8-0.7h-0.1c0,0,0,0,0,0c0,0.2-0.2,0.2-0.4,0.2C16,1.5,16,1.5,16,1.5L16,1.5z M16.9,1.4h0.7
	c0,0.3-0.1,0.5-0.1,0.5S17.3,1.6,16.9,1.4L16.9,1.4z M17.9,1.4h0.5c0,0.1,0,0.3,0,0.4c0,0.2,0.3,0.2,0.3,0.1c0-0.1,0-0.2,0.1-0.5h1
	c-0.1,0.2-0.1,0.4,0,0.8h-1.8c-0.1-0.1-0.1-0.1-0.1-0.2C17.9,2,17.9,1.7,17.9,1.4L17.9,1.4z M20.4,1.4h0.7c-0.2,0.2-0.3,0.5-0.4,0.8
	h-0.6c0-0.1,0.1-0.2,0.1-0.3C20.3,1.7,20.4,1.6,20.4,1.4L20.4,1.4z M22,1.4h0.9c0,0.1,0,0.2,0,0.3c0,0.1,0,0.3,0,0.5h-1.7
	c0.2-0.3,0.4-0.5,0.7-0.7C21.9,1.5,22,1.4,22,1.4L22,1.4z M23.3,1.4h0.7C23.9,1.5,24,1.7,24,2c0,0.1,0,0.1,0,0.2h-0.6
	c0-0.1,0-0.1,0-0.2C23.4,1.7,23.3,1.5,23.3,1.4L23.3,1.4z M24.1,1.4h0.5c0,0,0.1,0.1,0.1,0.1c0.6,0.3,1.5,0.5,2,0.2
	c0.2-0.1,0.3-0.2,0.4-0.3h45.6c0.1,0.1,0.2,0.2,0.4,0.3c0.6,0.2,1.4,0.1,2-0.2c0,0,0.1,0,0.1-0.1h0.5c-0.2,0.2-0.5,0.5-0.7,0.7
	c-0.1,0-0.1,0.1-0.1,0.1h-1.5c0,0,0,0,0,0C73,2,72.7,1.8,72.5,1.6H50H27.5C27.3,1.8,27,2,26.6,2.2h0H25c-0.1,0-0.1-0.1-0.1-0.1
	C24.6,1.9,24.3,1.6,24.1,1.4L24.1,1.4z M76.1,1.4h0.7c-0.1,0.1-0.1,0.3-0.1,0.6c0,0.1,0,0.1,0,0.2H76C76,2.1,76,2,76,2
	C76,1.7,76,1.5,76.1,1.4L76.1,1.4z M77.1,1.4H78c0.1,0.1,0.1,0.1,0.2,0.1c0.2,0.1,0.5,0.3,0.7,0.7h-1.7c0-0.2,0-0.4,0-0.5
	C77.1,1.6,77.1,1.5,77.1,1.4L77.1,1.4z M78.8,1.4h0.7c0.1,0.2,0.1,0.3,0.2,0.5c0,0.1,0.1,0.2,0.1,0.3h-0.6C79.1,1.9,79,1.6,78.8,1.4
	L78.8,1.4z M80.2,1.4h1c0.1,0.3,0,0.4,0.1,0.5c0,0.1,0.3,0.1,0.3-0.1c0-0.1,0-0.2,0-0.4l0.5,0c0,0.3,0.1,0.6,0.1,0.6
	c0,0.1,0,0.1-0.1,0.2h-1.8C80.3,1.8,80.3,1.6,80.2,1.4L80.2,1.4z M82.3,1.4l0.7,0c-0.3,0.3-0.6,0.5-0.6,0.5S82.4,1.6,82.3,1.4
	L82.3,1.4z M83.3,1.4c-0.4,0.3-0.8,0.7-0.8,0.7s0.8,0,1,0c0.2,0,0.4,0.1,0.5-0.2c0.1-0.3,0-0.4,0-0.4s0,0.1-0.2,0.1
	c-0.2,0.1-0.4,0-0.4-0.2c0,0,0,0,0,0H83.3L83.3,1.4z M75.8,2.2c0-0.1-0.1-0.2-0.1-0.2c-0.1,0.1-0.1,0.1-0.2,0.2H75.8L75.8,2.2z
	 M24.5,2.2c-0.1-0.1-0.1-0.1-0.2-0.2c0,0,0,0.1-0.1,0.2H24.5z M17.9,2.2h1.8c0,0.1,0,0.3,0.1,0.4c0,0.4,0,0.6-0.1,0.8h-0.5l-1.1-1
	C18.1,2.3,18,2.2,17.9,2.2L17.9,2.2z M20.2,2.2h0.6c0,0.1-0.1,0.3-0.1,0.4c-0.1,0.4,0,0.6,0.1,0.8l-0.7,0c0,0,0-0.1,0-0.1
	c0.1-0.5-0.1-0.7-0.1-0.7S20.1,2.4,20.2,2.2L20.2,2.2z M21.2,2.2h1.7c0,0.1,0,0.3-0.1,0.4c-0.1,0.3-0.3,0.2-0.3,0.1
	c-0.1-0.1-0.1-0.2-0.3-0.3c-0.2-0.1-0.3,0-0.3,0.2c0,0.2,0.2,0.5,0.8,0.4c0.5,0,0.7-0.3,0.7-0.9H24c0,0.6-0.3,0.9-0.8,1.2h-1.8
	c-0.3-0.2-0.5-0.5-0.4-0.9C21.1,2.4,21.2,2.3,21.2,2.2L21.2,2.2z M24.2,2.2h0.3c0.5,0.4,0.9,0.5,0.9,0.5c-0.1,0.3,0,0.5,0.1,0.7
	h-1.1c0,0-0.1-0.1-0.1-0.1C24.1,2.9,24.2,2.5,24.2,2.2L24.2,2.2z M25,2.2c0.3,0.2,0.8,0.4,1.5,0H25L25,2.2z M73.4,2.2H75
	C74.6,2.4,74.2,2.5,73.4,2.2L73.4,2.2z M75.5,2.2c-0.5,0.4-0.9,0.5-0.9,0.5c0.1,0.3,0,0.5-0.1,0.7h1.1c0,0,0.1-0.1,0.1-0.1
	c0.1-0.3,0.1-0.8,0-1H75.5L75.5,2.2z M76,2.2h0.6c0,0.6,0.2,0.9,0.7,0.9c0.6,0,0.8-0.2,0.8-0.4c0-0.2-0.2-0.3-0.3-0.2
	c-0.2,0.1-0.3,0.2-0.3,0.3c0,0.1-0.3,0.2-0.3-0.1c0-0.1,0-0.2-0.1-0.4h1.7c0,0.1,0.1,0.2,0.1,0.3c0.1,0.4-0.1,0.7-0.4,0.9h-1.8
	C76.3,3.1,76,2.8,76,2.2L76,2.2z M79.2,2.2h0.6c0.1,0.2,0.1,0.4,0.1,0.4s-0.1,0.2,0,0.7c0,0,0,0.1,0,0.1l-0.7,0
	c0.1-0.1,0.2-0.4,0.1-0.8C79.3,2.5,79.3,2.3,79.2,2.2L79.2,2.2z M80.2,2.2h1.8c-0.1,0.1-0.1,0.1-0.3,0.2l-1.1,1l-0.5,0
	c-0.1-0.1-0.1-0.4-0.1-0.8C80.2,2.4,80.2,2.3,80.2,2.2L80.2,2.2z M84.3,3.4c0-0.1,0-0.1,0-0.1c0.1-0.5-0.1-0.7-0.4-0.8
	c-0.4-0.1-1.3-0.2-1.5-0.2c-0.2,0-0.2,0.1-0.2,0.1L81,3.4l2.7,0c-0.1-0.1-0.1-0.1-0.3-0.2C83.1,3.1,82.7,3,82.6,3
	c-0.1,0-0.1-0.3,0.1-0.3c0.3,0,0.8,0.1,1.1,0.1c0.2,0.1,0.3,0.3,0.3,0.5H84.3L84.3,3.4z M19,3.4l-1.2-1.1c0,0,0-0.1-0.2-0.1
	c-0.2,0-1.1,0.1-1.5,0.2c-0.4,0.1-0.5,0.3-0.4,0.8c0,0,0,0.1,0,0.1h0.2c0.1-0.2,0.2-0.4,0.3-0.5c0.2-0.1,0.8-0.2,1.1-0.1
	c0.3,0,0.3,0.3,0.1,0.3c-0.1,0-0.5,0.1-0.9,0.2c-0.2,0-0.2,0.1-0.3,0.2H19z M15.7,3.4h0.2c0,0.1,0,0.1,0,0.2c0,0.2,0,0.3,0,0.4
	C16,4,16,4,16,4c0,0,0.2-0.1,0.2-0.3c0-0.1,0-0.2,0.1-0.3H19l0.4,0.4c0,0-0.2,0.3-1.2,0.2c-1-0.1-1.2-0.1-1.6,0.1
	c-0.4,0.2-0.4,0.3-0.6,0.5c-0.2,0.1-0.2,0.2-0.2,0.2S15.8,3.9,15.7,3.4L15.7,3.4z M19.3,3.4l0.3,0.3c0,0,0.1,0,0.2-0.3H19.3
	L19.3,3.4z M20.1,3.4c-0.1,0.4-0.4,0.8-0.9,0.8c-0.5,0-1,0-1.2,0.1c-0.2,0.1-0.5,0.2-0.9,0.2c-0.4,0.1-1,0.2-1.2,0.6h1.1
	c0.3-0.1,0.6-0.3,1-0.3c0.6-0.1,1-0.1,1.2,0.1C19.3,4.9,19.3,5,19.3,5h0.1l0.6-0.8l1.1-0.6c0,0-0.2,0-0.3-0.2L20.1,3.4L20.1,3.4z
	 M21.5,3.4h1.8c-0.1,0.1-0.2,0.1-0.3,0.2c-0.6,0.3-1,0.1-1.3-0.1C21.6,3.4,21.5,3.4,21.5,3.4L21.5,3.4z M24.3,3.4h1.1
	c0.1,0.1,0.1,0.2,0.1,0.2c0,0-0.3,0.1-0.6,0.1C24.8,3.7,24.5,3.6,24.3,3.4L24.3,3.4z M74.5,3.4h1.1c-0.2,0.3-0.4,0.3-0.7,0.3
	c-0.3,0-0.6-0.2-0.6-0.1C74.4,3.5,74.5,3.5,74.5,3.4L74.5,3.4z M76.8,3.4h1.8c-0.1,0-0.1,0.1-0.1,0.1c-0.3,0.2-0.7,0.4-1.3,0.1
	C77,3.5,76.9,3.4,76.8,3.4L76.8,3.4z M79.2,3.4l0.7,0c0.1,0.4,0.4,0.8,0.9,0.8c0.5,0,1,0,1.2,0.1c0.2,0.1,0.5,0.2,0.9,0.2
	c0.4,0.1,1,0.2,1.2,0.6h-1.1c-0.3-0.1-0.6-0.3-0.9-0.3c-0.6-0.1-1-0.1-1.2,0.1C80.7,4.9,80.7,5,80.7,5h-0.1L80,4.2l-1.1-0.6
	C78.9,3.5,79.1,3.5,79.2,3.4L79.2,3.4z M80.2,3.4c0.1,0.2,0.2,0.3,0.2,0.3l0.3-0.3L80.2,3.4L80.2,3.4z M81,3.4l-0.4,0.4
	c0,0,0.2,0.3,1.2,0.2c1-0.1,1.2-0.1,1.6,0.1c0.4,0.2,0.4,0.3,0.6,0.5c0.2,0.1,0.2,0.2,0.2,0.2s0-0.8,0.1-1.3h-0.2c0,0.1,0,0.1,0,0.2
	c0,0.2,0,0.3,0,0.4C84,4,84,4,84,4c0,0-0.2-0.1-0.2-0.3c0-0.1,0-0.2-0.1-0.3L81,3.4L81,3.4z M80,5C79.9,5,79.9,5,80,5
	c-0.3-0.3-0.2-0.2-0.6-0.5c-0.4-0.3-0.6-0.6-0.6-0.6c-0.4,0.8-0.9,0.6-0.9,0.6C77.9,4.6,78,4.8,78,5H80L80,5z M22,5h-2
	c0,0,0,0,0.1-0.1c0.2-0.2,0.2-0.2,0.6-0.5c0.4-0.3,0.6-0.6,0.6-0.6c0.4,0.8,1,0.6,1,0.6C22.1,4.6,22,4.8,22,5z M15.9,5h1.1
	c-0.3,0.2-0.6,0.3-0.7,0.5c-0.3,0.4-0.1,0.6,0.2,0.6c0.3-0.1,0.4-0.7,1.2-1c0.8-0.3,1.5,0.3,1.6,0.8c0,0.1,0,0.3,0,0.4h-0.6
	c0-0.4-0.3-0.6-0.5-0.6c-0.3,0-0.4,0.1-0.3,0.3c0.1,0.1,0.2,0.2,0.3,0.2c0.1,0,0.1,0.1,0.1,0.1h-2.7c0-0.4,0-0.8,0.2-1.3
	C15.9,5.1,15.9,5,15.9,5L15.9,5z M19.3,5c0,0.1,0.1,0.1,0.1,0.1L19.4,5H19.3L19.3,5z M20,5h2c0,0.5,0.3,1.1,0.3,1.1
	c-0.1,0-0.5-0.2-1.1-0.3c-0.6-0.1-0.6,0.3-0.6,0.3c-0.1-0.6-0.8-0.9-0.8-0.9S19.9,5.2,20,5L20,5z M78,5h2c0.2,0.2,0.3,0.3,0.3,0.3
	s-0.7,0.3-0.8,0.9c0,0,0-0.4-0.6-0.3c-0.6,0.1-1,0.3-1.1,0.3C77.7,6.1,78,5.5,78,5L78,5z M80.6,5h0.1c0,0.1,0,0.1,0,0.1L80.6,5
	L80.6,5z M82.9,5c0.3,0.2,0.6,0.3,0.7,0.5c0.3,0.4,0.1,0.6-0.2,0.6c-0.3-0.1-0.4-0.7-1.2-1c-0.8-0.3-1.5,0.3-1.6,0.8
	c0,0.1,0,0.3,0,0.4h0.6c0-0.4,0.3-0.6,0.5-0.6c0.3,0,0.4,0.1,0.3,0.3c-0.1,0.1-0.2,0.2-0.3,0.2c0,0-0.1,0.1-0.1,0.1h2.7
	c0-0.4,0-0.8-0.2-1.3c0,0,0-0.1,0-0.1H82.9z M15.7,6.4h2.7c0,0.1-0.1,0.1-0.3,0.2c-0.4,0.1-0.8,0.1-1,0.1c-0.4,0-0.7,0-0.7,0
	S16.7,7,17.5,7c0.8,0,1.3-0.1,1.3-0.6c0,0,0,0,0-0.1h0.6c-0.1,0.4-0.4,0.9-1.1,1.1c-0.9,0.3-1.8-0.1-1.8-0.1l-0.6,0.5h-0.2
	c0-0.1,0.1-0.2,0.1-0.3c0.1-0.4-0.1-0.5-0.1-1C15.7,6.5,15.7,6.4,15.7,6.4L15.7,6.4z M80.6,6.4h0.6c0,0,0,0,0,0.1
	c0,0.5,0.5,0.6,1.3,0.6c0.8,0,1.1-0.4,1.1-0.4s-0.3,0-0.7,0c-0.3,0-0.7,0-1.1-0.1c-0.2,0-0.3-0.1-0.3-0.2h2.7c0,0.1,0,0.1,0,0.1
	c0,0.5-0.2,0.6-0.1,1c0,0.1,0.1,0.2,0.1,0.3h-0.2l-0.6-0.5c0,0-1,0.4-1.8,0.1C81,7.2,80.7,6.8,80.6,6.4L80.6,6.4z M83.2,7.8
	c0-0.1,0-0.2,0-0.2s-0.1,0.1-0.3,0.2H83.2L83.2,7.8z M82.5,7.8L82.5,7.8c0,0-1.1-0.2-1.5,0l0,0H82.5L82.5,7.8z M19,7.8
	C19,7.8,19,7.8,19,7.8c-0.5-0.2-1.5,0-1.5,0l0,0H19L19,7.8z M17.1,7.8c-0.2-0.1-0.3-0.2-0.3-0.2s-0.1,0.1,0,0.2L17.1,7.8z M15.7,7.8
	h0.2L15.7,8C15.7,8,15.7,8,15.7,7.8L15.7,7.8z M16.8,7.8l0.3,0c0.2,0.2,0.5,0.4,0.6,0.6H17c0,0,0,0,0-0.1
	C16.8,8.1,16.8,7.9,16.8,7.8L16.8,7.8z M17.5,7.8C17.7,8,17.9,8.2,18,8.4h1.5c0-0.2-0.1-0.4-0.5-0.6H17.5L17.5,7.8z M81,7.8h1.5
	C82.3,8,82.1,8.2,82,8.4h-1.5C80.5,8.2,80.6,7.9,81,7.8L81,7.8z M82.9,7.8c-0.2,0.2-0.5,0.4-0.6,0.6H83c0,0,0,0,0-0.1
	c0.1-0.2,0.2-0.4,0.2-0.5H82.9L82.9,7.8z M84.1,7.8h0.2C84.3,8,84.3,8,84.3,8L84.1,7.8L84.1,7.8z M83.8,8.4h-0.4c0,0,0-0.1,0.1-0.1
	C83.5,8.2,83.6,8.2,83.8,8.4L83.8,8.4z M16.7,8.4h-0.4C16.4,8.2,16.5,8.2,16.7,8.4C16.6,8.3,16.7,8.3,16.7,8.4z M16.2,8.4h0.4
	c0.2,0.2,0.5,0.8,0.1,1.4c-0.4,0.6-0.8,0.2-0.6,0c0.2-0.2-0.1-0.4-0.3-0.2c-0.2,0.1-0.2,0.7,0.2,0.9c0.4,0.1,1,0,1.3-0.4
	c0.3-0.4,0-1.1-0.3-1.6h0.7c0,0,0,0,0,0c0.3,0.3,0.5,0.7,0,1.4c-0.3,0.4-0.5,0.7-0.8,0.9v17h-0.3V10.9c-0.1,0-0.2,0.1-0.2,0.1
	c-0.1,0-0.3,0-0.5-0.1v16.8h-0.3v-17c-0.2-0.1-0.3-0.3-0.3-0.5c-0.1-0.6,0.2-1.1,0.6-1.5C16.1,8.5,16.2,8.4,16.2,8.4L16.2,8.4z
	 M18,8.4c0.2,0.3,0.3,0.4,0.3,0.4C19,8.7,19.4,9,19.4,9c0,0,0.2-0.3,0.2-0.5c0-0.1,0-0.1,0-0.1H18L18,8.4z M80.5,8.4H82
	c-0.2,0.3-0.3,0.4-0.3,0.4c-0.7-0.1-1.1,0.1-1,0.2c0,0-0.2-0.3-0.2-0.5C80.5,8.5,80.5,8.4,80.5,8.4L80.5,8.4z M82.3,8.4
	C82.3,8.4,82.3,8.4,82.3,8.4c-0.3,0.3-0.6,0.7-0.1,1.4c0.3,0.4,0.5,0.7,0.8,0.9v17h0.3V10.9c0.1,0,0.2,0.1,0.2,0.1
	c0.1,0,0.3,0,0.5-0.1v16.8h0.3v-17c0.1-0.1,0.3-0.3,0.3-0.5c0.1-0.6-0.2-1.1-0.6-1.5c-0.1-0.1-0.2-0.2-0.3-0.3h-0.4
	c-0.2,0.2-0.5,0.8-0.1,1.4c0.4,0.6,0.8,0.2,0.6,0c-0.2-0.2,0.1-0.4,0.3-0.2c0.2,0.1,0.2,0.7-0.2,0.9c-0.4,0.1-1,0-1.3-0.4
	c-0.3-0.4,0-1.1,0.3-1.6H82.3z M15.6,27.7H16l0,16.8c0.2-0.1,0.5-0.1,0.7-0.1V27.7H17v16.8c0.1,0,0.1,0.1,0.2,0.1
	c0.4,0.3,0.8,1.1,0.4,1.5c-0.4,0.4-0.7,0.2-1,0c-0.3-0.2-0.4-0.5-0.4-0.5l0.4-0.2c0,0,0.2,0.3,0.4,0.4c0.1,0.1,0.3,0.1,0.3,0
	c0-0.1,0-0.7-0.5-1c-0.4-0.3-1.2,0.2-1.1,0.9c0.2,0.7,1,1,1.6,1.6c0.3,0.3,0.6,0.6,0.8,1.1c0.2,0.6,0,1.3-0.6,1.5
	c0.6,0.3,0.8,1,0.6,1.6c-0.1,0.4-0.4,0.7-0.8,1.1c-0.6,0.6-1.4,0.9-1.6,1.6c-0.2,0.7,0.6,1.2,1.1,0.9c0.5-0.3,0.5-0.9,0.5-1
	c0-0.1-0.2-0.1-0.3,0c-0.1,0.1-0.4,0.4-0.4,0.4l-0.4-0.2c0,0,0.1-0.3,0.4-0.5c0.3-0.2,0.6-0.3,1,0.1c0.4,0.4,0,1.2-0.4,1.5
	c-0.1,0.1-0.1,0.1-0.2,0.1v16.8h-0.3V55.6c-0.2,0-0.5,0-0.7-0.1v16.8h-0.3v-17c-0.1-0.1-0.1-0.1-0.2-0.2c-0.2-0.2-0.3-0.5-0.3-0.8
	c0-0.5,0.3-0.9,0.6-1.1c0.4-0.3,1.1-0.9,1.1-0.9c-1.3,0-1.3-0.3-1.5-0.6c-0.1-0.3,0-0.9,0.7-1c0.6-0.1,1,0.1,1,0.1l-0.2,0.3
	c0,0-0.1,0-0.3-0.1c-0.2-0.1-0.5,0-0.7,0.3c-0.1,0.3,0.1,0.4,0.2,0.5c0.1,0,0.6,0.1,1-0.1c0.4-0.2,0.7-0.7,0.5-1.2
	c-0.2-0.5-0.7-0.5-0.7-0.5H16V50v-0.2h0.7c0,0,0.5,0,0.7-0.5c0.2-0.5-0.1-1-0.5-1.2c-0.4-0.2-0.9-0.1-1-0.1c-0.1,0-0.3,0.2-0.2,0.5
	c0.1,0.3,0.5,0.4,0.7,0.3c0.2-0.1,0.3-0.1,0.3-0.1l0.2,0.3c0,0-0.3,0.3-1,0.1c-0.6-0.1-0.8-0.7-0.7-1c0.1-0.3,0.2-0.6,1.5-0.6
	c0,0-0.8-0.6-1.1-0.9c-0.2-0.2-0.6-0.6-0.6-1.1c0-0.3,0.1-0.6,0.3-0.8c0.1-0.1,0.1-0.1,0.2-0.2V27.7L15.6,27.7z M83,27.7h0.3v16.7
	c0.2,0,0.4,0,0.7,0.1V27.7h0.3v17c0.1,0.1,0.1,0.1,0.2,0.2c0.2,0.2,0.3,0.5,0.3,0.8c0,0.5-0.3,0.9-0.6,1.1c-0.4,0.3-1.1,0.9-1.1,0.9
	c1.3,0,1.3,0.3,1.5,0.6c0.1,0.3,0,0.9-0.7,1c-0.6,0.1-1-0.1-1-0.1l0.2-0.3c0,0,0.1,0,0.3,0.1c0.2,0.1,0.6-0.1,0.7-0.3
	c0.1-0.3-0.1-0.4-0.2-0.5c-0.1,0-0.6-0.1-1,0.1c-0.4,0.2-0.7,0.7-0.5,1.2c0.2,0.5,0.8,0.5,0.8,0.5H84l0,0.2l0,0.2h-0.7
	c0,0-0.5,0-0.8,0.5c-0.2,0.5,0.1,1,0.5,1.2c0.4,0.2,0.9,0.1,1,0.1c0.1,0,0.3-0.2,0.2-0.5c-0.1-0.3-0.4-0.4-0.7-0.3
	c-0.2,0.1-0.3,0.1-0.3,0.1L83,50.9c0,0,0.3-0.3,1-0.1c0.6,0.1,0.8,0.7,0.7,1c-0.1,0.3-0.2,0.6-1.5,0.6c0,0,0.8,0.6,1.1,0.9
	c0.2,0.2,0.6,0.6,0.6,1.1c0,0.2,0,0.5-0.3,0.8c-0.1,0.1-0.1,0.1-0.2,0.2v17h-0.3V55.5c-0.3,0.1-0.5,0.1-0.7,0.1v16.7H83l0-16.8
	c-0.1,0-0.1-0.1-0.2-0.1c-0.3-0.3-0.8-1.1-0.4-1.5c0.4-0.4,0.6-0.3,1-0.1c0.3,0.2,0.4,0.5,0.4,0.5l-0.4,0.2c0,0-0.3-0.3-0.4-0.4
	c-0.1-0.1-0.3-0.1-0.3,0c0,0.1,0.1,0.7,0.5,1c0.4,0.3,1.2-0.2,1.1-0.9c-0.2-0.7-1-1-1.6-1.6c-0.3-0.3-0.6-0.6-0.8-1.1
	c-0.1-0.6,0-1.3,0.6-1.6c-0.6-0.3-0.8-1-0.6-1.5c0.1-0.4,0.4-0.8,0.8-1.1c0.6-0.6,1.4-0.9,1.6-1.6c0.2-0.7-0.6-1.2-1.1-0.9
	c-0.5,0.3-0.5,0.8-0.5,1c0,0.1,0.2,0.1,0.3,0c0.1-0.1,0.4-0.4,0.4-0.4l0.4,0.2c0,0-0.1,0.3-0.4,0.5c-0.3,0.2-0.6,0.3-1,0
	c-0.4-0.4,0-1.2,0.4-1.5c0.1-0.1,0.1-0.1,0.2-0.1V27.7z M15.6,72.3H16l0,16.8c0.2-0.1,0.3-0.1,0.5-0.1c0.1,0,0.1,0,0.2,0.1V72.3H17
	v17c0.3,0.2,0.5,0.5,0.8,0.8c0.5,0.7,0.2,1.1,0,1.4c0,0,0,0,0,0H17c0.3-0.5,0.6-1.1,0.3-1.6c-0.3-0.4-0.9-0.6-1.3-0.4
	c-0.4,0.1-0.4,0.7-0.2,0.8c0.2,0.1,0.5,0,0.3-0.2c-0.2-0.2,0.2-0.6,0.6,0c0.4,0.6,0.1,1.2-0.1,1.4h-0.4c-0.1-0.1-0.2-0.2-0.3-0.3
	c-0.5-0.4-0.7-1-0.6-1.5c0-0.2,0.1-0.4,0.3-0.5V72.3L15.6,72.3z M83,72.3h0.3v16.8c0.1,0,0.2-0.1,0.2-0.1c0.1,0,0.3,0,0.5,0.1V72.3
	h0.3v17c0.1,0.1,0.3,0.3,0.3,0.5c0.1,0.6-0.2,1.1-0.6,1.5c-0.1,0.1-0.2,0.2-0.3,0.3h-0.4c-0.2-0.2-0.5-0.8-0.1-1.4
	c0.4-0.6,0.8-0.2,0.6,0c-0.2,0.2,0.1,0.4,0.3,0.2c0.2-0.1,0.2-0.7-0.2-0.8c-0.4-0.1-1,0-1.3,0.4c-0.3,0.5,0,1.1,0.3,1.6h-0.7
	c0,0,0,0,0,0c-0.3-0.3-0.5-0.7,0-1.4c0.3-0.4,0.5-0.7,0.8-0.8L83,72.3L83,72.3z M82,91.6c-0.2-0.3-0.3-0.5-0.3-0.5
	c-0.7,0.1-1.1-0.1-1-0.2c0,0-0.2,0.3-0.2,0.5c0,0.1,0,0.1,0,0.1H82L82,91.6z M19.5,91.6c0-0.1,0-0.1,0-0.1c0-0.2-0.2-0.5-0.2-0.5
	c0,0-0.3,0.3-1,0.2c0,0-0.1,0.2-0.3,0.5H19.5z M16.2,91.6h0.4c0,0,0,0.1-0.1,0.1C16.5,91.8,16.4,91.8,16.2,91.6L16.2,91.6z M17,91.6
	h0.7c-0.2,0.2-0.4,0.4-0.6,0.6h-0.3C16.8,92.1,16.8,91.9,17,91.6C17,91.7,17,91.6,17,91.6L17,91.6z M18,91.6
	c-0.1,0.2-0.3,0.3-0.5,0.6H19c0.4-0.1,0.5-0.4,0.5-0.6H18L18,91.6z M80.5,91.6H82c0.1,0.2,0.3,0.3,0.6,0.6H81
	C80.6,92.1,80.5,91.8,80.5,91.6L80.5,91.6z M82.3,91.6c0.2,0.2,0.4,0.4,0.6,0.6l0.3,0c0-0.1-0.1-0.3-0.2-0.5c0,0,0,0,0-0.1H82.3
	L82.3,91.6z M83.3,91.6h0.4C83.6,91.8,83.5,91.8,83.3,91.6C83.4,91.7,83.4,91.7,83.3,91.6L83.3,91.6z M84.3,92.2h-0.2l0.3-0.2
	C84.3,92,84.3,92,84.3,92.2L84.3,92.2z M15.9,92.2l-0.2,0c0-0.1-0.1-0.2-0.1-0.2L15.9,92.2z M15.7,92.2l0.2,0l0.6,0.5
	c0,0,1-0.4,1.8-0.1c0.6,0.2,1,0.6,1.1,1.1h-0.6c0,0,0,0,0,0c0-0.5-0.5-0.6-1.3-0.6c-0.8,0-1.1,0.4-1.1,0.4s0.3,0,0.7,0
	c0.3,0,0.7,0,1,0.1c0.2,0,0.3,0.1,0.3,0.2h-2.7c0,0,0-0.1,0-0.1c0-0.5,0.1-0.6,0.1-1C15.8,92.4,15.7,92.3,15.7,92.2L15.7,92.2z
	 M16.8,92.2c0,0.1,0,0.2,0,0.2s0.1-0.1,0.3-0.2H16.8L16.8,92.2z M17.5,92.2L17.5,92.2c0,0,1,0.2,1.5,0c0,0,0,0,0,0H17.5L17.5,92.2z
	 M81,92.2h1.5l0,0C82.5,92.2,81.5,92.3,81,92.2L81,92.2L81,92.2z M82.9,92.2l0.3,0c0,0.1,0,0.2,0,0.2S83.1,92.3,82.9,92.2L82.9,92.2
	z M84.1,92.2l-0.6,0.5c0,0-1-0.4-1.8-0.1c-0.6,0.2-1,0.6-1.1,1.1h0.6c0,0,0,0,0,0c0-0.5,0.5-0.6,1.3-0.6c0.8,0,1.1,0.4,1.1,0.4
	s-0.3,0-0.7,0c-0.3,0-0.7,0-1.1,0.1c-0.2,0-0.3,0.1-0.3,0.2h2.7c0,0,0-0.1,0-0.1c0-0.5-0.2-0.6-0.1-1c0-0.1,0.1-0.3,0.1-0.3H84.1z
	 M15.7,93.6h2.7c0,0.1-0.1,0.1-0.1,0.1c-0.1,0-0.2,0.1-0.3,0.2c-0.1,0.1,0,0.3,0.3,0.3c0.3,0,0.5-0.2,0.5-0.6h0.6
	c0.1,0.2,0.1,0.3,0,0.4c-0.1,0.5-0.8,1.2-1.6,0.8c-0.8-0.3-0.9-0.9-1.2-1c-0.3-0.1-0.5,0.2-0.2,0.6c0.1,0.2,0.4,0.4,0.7,0.5h-1.1
	c0,0,0-0.1,0-0.1C15.8,94.4,15.7,94.1,15.7,93.6L15.7,93.6z M80.6,93.6h0.6c0,0.4,0.3,0.6,0.5,0.6c0.3,0,0.4-0.1,0.3-0.3
	c-0.1-0.1-0.2-0.2-0.3-0.2c0,0-0.1-0.1-0.1-0.1h2.7c0,0.4,0,0.8-0.2,1.3c0,0,0,0.1,0,0.1h-1.1c0.3-0.1,0.6-0.3,0.7-0.5
	c0.3-0.4,0.1-0.6-0.2-0.6c-0.3,0.1-0.4,0.7-1.2,1c-0.8,0.3-1.5-0.3-1.6-0.8C80.5,93.9,80.5,93.8,80.6,93.6L80.6,93.6z M80.7,95
	C80.6,94.9,80.6,94.9,80.7,95h-0.1H80.7L80.7,95z M80,95h-2c0-0.5-0.3-1.1-0.3-1.1c0.1,0,0.5,0.2,1.1,0.3c0.6,0.1,0.6-0.3,0.6-0.3
	c0.1,0.6,0.8,0.9,0.8,0.9S80.2,94.8,80,95L80,95z M22,95h-2c-0.2-0.2-0.3-0.2-0.3-0.2s0.7-0.3,0.8-0.9c0,0,0,0.4,0.6,0.3
	c0.6-0.1,1-0.3,1.1-0.3C22.3,93.9,22,94.5,22,95L22,95z M19.4,95L19.4,95c-0.1-0.1-0.1-0.1-0.1,0H19.4z M15.9,95h1.1
	c0.3,0.2,0.6,0.3,1,0.3c0.6,0.1,1,0.1,1.2-0.1c0.1-0.1,0.1-0.1,0.1-0.2h0.1l0.6,0.8l1.1,0.6c0,0-0.2,0-0.3,0.2h-0.7
	c-0.1-0.4-0.4-0.8-0.9-0.8c-0.5,0-1,0-1.2-0.1c-0.2-0.1-0.5-0.1-0.9-0.2C16.8,95.5,16.1,95.4,15.9,95L15.9,95z M20,95
	C20.1,95,20.1,95,20,95c0.3,0.3,0.2,0.3,0.6,0.5c0.4,0.3,0.6,0.6,0.6,0.6c0.4-0.8,1-0.6,1-0.6C22.1,95.4,22,95.2,22,95H20L20,95z
	 M78,95h2c0,0,0,0-0.1,0.1c-0.2,0.2-0.2,0.2-0.6,0.5c-0.4,0.3-0.6,0.6-0.6,0.6c-0.4-0.8-0.9-0.6-0.9-0.6C77.9,95.4,78,95.2,78,95
	L78,95z M80.6,95L80,95.8l-1.1,0.6c0,0,0.2,0,0.3,0.2h0.7c0.1-0.4,0.4-0.8,0.9-0.8c0.5,0,1,0,1.2-0.1c0.2-0.1,0.5-0.1,0.9-0.2
	c0.4-0.1,1-0.2,1.2-0.6h-1.1c-0.3,0.2-0.6,0.3-0.9,0.3c-0.6,0.1-1,0.1-1.2-0.1c-0.1-0.1-0.1-0.1-0.1-0.2H80.6L80.6,95z M84.3,96.6
	h-0.2c0-0.1,0-0.1,0-0.2c0-0.2,0-0.3,0-0.4C84,96,84,96,84,96c0,0-0.2,0.1-0.2,0.3c0,0.1,0,0.2-0.1,0.3H81l-0.4-0.4
	c0,0,0.2-0.3,1.2-0.2c1,0.1,1.2,0.1,1.6-0.1c0.4-0.2,0.4-0.3,0.6-0.5c0.2-0.1,0.2-0.2,0.2-0.2S84.2,96.2,84.3,96.6L84.3,96.6z
	 M80.7,96.6h-0.5c0.1-0.2,0.2-0.3,0.2-0.3L80.7,96.6L80.7,96.6z M78.5,96.6h-1.8c0.1-0.1,0.2-0.1,0.3-0.1c0.6-0.3,1-0.1,1.3,0.1
	C78.5,96.6,78.5,96.6,78.5,96.6L78.5,96.6z M75.7,96.6h-1.1c0-0.1-0.1-0.2-0.1-0.2c-0.1,0,0.3-0.1,0.6-0.1
	C75.2,96.3,75.5,96.4,75.7,96.6L75.7,96.6z M25.5,96.6h-1.1c0.2-0.3,0.4-0.3,0.7-0.3c0.3,0,0.6,0.2,0.6,0.1
	C25.6,96.4,25.5,96.5,25.5,96.6L25.5,96.6z M23.2,96.6h-1.8c0,0,0.1-0.1,0.1-0.1c0.3-0.2,0.7-0.4,1.3-0.1
	C23.1,96.5,23.1,96.6,23.2,96.6L23.2,96.6z M19.8,96.6c-0.1-0.2-0.2-0.3-0.2-0.3l-0.3,0.3H19.8L19.8,96.6z M19,96.6l0.4-0.4
	c0,0-0.2-0.3-1.2-0.2c-1,0.1-1.2,0.1-1.6-0.1c-0.4-0.2-0.4-0.3-0.6-0.5s-0.2-0.2-0.2-0.2s0,0.8-0.1,1.3h0.2c0-0.1,0-0.1,0-0.2
	c0-0.2,0-0.3,0-0.4C16,96,16,96,16,96c0,0,0.2,0.1,0.2,0.3c0,0.1,0,0.2,0.1,0.3H19z M15.7,96.6h0.2c0.1,0.2,0.2,0.4,0.3,0.5
	c0.2,0.1,0.8,0.2,1.1,0.1c0.3,0,0.3-0.3,0.1-0.3c-0.1,0-0.5-0.1-0.9-0.2c-0.2,0-0.2-0.1-0.3-0.2H19l-1.2,1.1c0,0,0,0.1-0.2,0.1
	c-0.2,0-1.1-0.1-1.5-0.2c-0.4-0.1-0.5-0.3-0.4-0.8C15.7,96.8,15.7,96.7,15.7,96.6L15.7,96.6z M19.3,96.6l-1.1,1
	c-0.1,0.1-0.2,0.2-0.3,0.2h1.8c0-0.1,0-0.3,0.1-0.4c0-0.4,0-0.6-0.1-0.8H19.3L19.3,96.6z M20.1,96.6h0.7c-0.1,0.1-0.2,0.4-0.1,0.8
	c0,0.2,0.1,0.3,0.1,0.4h-0.6c-0.1-0.2-0.1-0.4-0.1-0.4s0.1-0.2,0.1-0.6C20.1,96.7,20.1,96.7,20.1,96.6L20.1,96.6z M21.5,96.6h1.8
	c0.4,0.3,0.8,0.6,0.8,1.2h-0.6c0-0.6-0.2-0.9-0.7-1c-0.6,0-0.8,0.2-0.8,0.4c0,0.2,0.1,0.3,0.3,0.3c0.2-0.1,0.2-0.2,0.3-0.3
	c0-0.1,0.3-0.2,0.3,0.1c0,0.1,0,0.3,0.1,0.4h-1.7c-0.1-0.1-0.1-0.2-0.1-0.3C21,97.1,21.2,96.8,21.5,96.6L21.5,96.6z M24.3,96.6h1.1
	c-0.1,0.2-0.1,0.4-0.1,0.7c0,0-0.4,0.1-0.9,0.5h-0.3c-0.1-0.3-0.1-0.8,0-1C24.3,96.7,24.3,96.7,24.3,96.6L24.3,96.6z M74.5,96.6h1.1
	c0,0.1,0.1,0.1,0.1,0.2c0.1,0.3,0.1,0.7,0,1h-0.3c-0.5-0.4-0.9-0.5-0.9-0.5C74.6,97.1,74.6,96.8,74.5,96.6L74.5,96.6z M76.8,96.6
	h1.8c0.3,0.2,0.5,0.5,0.4,0.9c0,0.1-0.1,0.2-0.1,0.3h-1.7c0-0.1,0-0.3,0.1-0.4c0.1-0.3,0.3-0.2,0.3-0.1c0,0.1,0.1,0.2,0.3,0.3
	c0.2,0.1,0.3,0,0.3-0.3c0-0.2-0.3-0.4-0.8-0.4c-0.5,0-0.6,0.4-0.7,1H76C76,97.2,76.3,96.9,76.8,96.6L76.8,96.6z M79.2,96.6h0.7
	c0,0,0,0.1,0,0.1c-0.1,0.5,0,0.6,0,0.6s0,0.2-0.1,0.4h-0.6c0.1-0.1,0.1-0.3,0.1-0.4C79.4,97,79.3,96.8,79.2,96.6L79.2,96.6z
	 M80.2,96.6h0.5l1.1,1c0.1,0.1,0.2,0.2,0.3,0.2h-1.8c0-0.1,0-0.3-0.1-0.4C80.1,97,80.2,96.8,80.2,96.6L80.2,96.6z M81,96.6l1.2,1.1
	c0,0,0,0.1,0.2,0.1c0.2,0,1.1-0.1,1.5-0.2c0.4-0.1,0.5-0.3,0.4-0.8c0,0,0-0.1,0-0.2h-0.2c-0.1,0.2-0.2,0.4-0.3,0.5
	c-0.2,0.1-0.8,0.2-1.1,0.1c-0.3,0-0.3-0.3-0.1-0.3c0.1,0,0.5-0.1,0.9-0.2c0.1,0,0.2-0.1,0.3-0.2H81L81,96.6z M75,97.8
	c-0.3-0.2-0.8-0.4-1.5,0H75L75,97.8z M26.6,97.8c-0.7-0.4-1.2-0.2-1.5,0H26.6z M17.9,97.8h1.8c-0.1,0.4-0.1,0.6,0,0.8l-1,0
	c-0.1-0.3-0.1-0.4-0.1-0.5c0-0.1-0.3-0.1-0.3,0.1c0,0.1,0,0.3,0,0.4h-0.5c0-0.3-0.1-0.5-0.1-0.6C17.9,97.9,17.9,97.9,17.9,97.8
	L17.9,97.8z M20.2,97.8h0.6c0.1,0.3,0.2,0.6,0.4,0.8h-0.7c-0.1-0.2-0.1-0.3-0.2-0.5C20.2,98,20.2,97.9,20.2,97.8L20.2,97.8z
	 M21.2,97.8h1.7c0,0.2,0,0.4,0,0.5c0,0.1,0,0.2,0,0.2H22c0,0-0.1-0.1-0.1-0.1C21.7,98.4,21.4,98.1,21.2,97.8L21.2,97.8z M23.4,97.8
	H24c0,0.1,0,0.1,0,0.2c0,0.3-0.1,0.4-0.1,0.6h-0.7c0.1-0.1,0.1-0.3,0.1-0.6C23.4,97.9,23.4,97.9,23.4,97.8L23.4,97.8z M24.2,97.8
	h0.3c-0.1,0.1-0.1,0.1-0.2,0.2C24.3,98,24.3,97.9,24.2,97.8L24.2,97.8z M25,97.8c-0.1,0-0.1,0.1-0.1,0.1c-0.3,0.2-0.6,0.5-0.7,0.7
	h0.5c0,0,0.1,0,0.1-0.1c0.6-0.3,1.5-0.5,2-0.2c0.2,0.1,0.3,0.2,0.4,0.3l45.6,0c0.1-0.1,0.2-0.2,0.4-0.3c0.6-0.2,1.4-0.1,2,0.2
	c0,0,0.1,0,0.1,0.1h0.5c-0.2-0.2-0.5-0.5-0.7-0.7c-0.1,0-0.1-0.1-0.1-0.1h-1.5c0,0,0,0,0,0c-0.4,0.2-0.7,0.4-0.9,0.6H50H27.5
	c-0.2-0.2-0.5-0.4-0.9-0.6h0H25L25,97.8z M75.5,97.8h0.3c0,0.1-0.1,0.2-0.1,0.2C75.7,97.9,75.6,97.9,75.5,97.8L75.5,97.8z M76,97.8
	h0.6c0,0.1,0,0.1,0,0.2c0,0.3,0.1,0.4,0.1,0.6h-0.7c0-0.1,0-0.3-0.1-0.6C76,97.9,76,97.9,76,97.8L76,97.8z M77.1,97.8h1.7
	c-0.2,0.3-0.4,0.5-0.7,0.7c-0.1,0-0.1,0.1-0.2,0.1h-0.9c0-0.1,0-0.1,0-0.2C77.1,98.2,77.1,98,77.1,97.8L77.1,97.8z M79.2,97.8h0.6
	c0,0.1-0.1,0.2-0.1,0.3c-0.1,0.1-0.1,0.3-0.2,0.5h-0.7C79,98.4,79.1,98.1,79.2,97.8L79.2,97.8z M80.2,97.8h1.8
	c0.1,0,0.1,0.1,0.1,0.2c0,0.1,0,0.3-0.1,0.6h-0.5c0-0.1,0-0.3,0-0.4c0-0.2-0.3-0.2-0.3-0.1c-0.1,0.1,0,0.2-0.1,0.5h-1
	C80.3,98.4,80.3,98.2,80.2,97.8L80.2,97.8z M83.4,98.6h-0.1c-0.4-0.3-0.8-0.6-0.8-0.6s0.8,0,1,0c0.2,0,0.4-0.1,0.5,0.2
	c0.1,0.3,0,0.4,0,0.4s0-0.1-0.2-0.1C83.6,98.4,83.4,98.4,83.4,98.6L83.4,98.6L83.4,98.6z M83.1,98.6c-0.3-0.2-0.6-0.5-0.6-0.5
	s-0.1,0.3-0.1,0.5H83.1L83.1,98.6z M17.7,98.6h-0.7c0.3-0.2,0.7-0.5,0.7-0.5S17.6,98.4,17.7,98.6L17.7,98.6z M16.7,98.6
	c0.4-0.3,0.8-0.6,0.8-0.6s-0.8,0-1,0s-0.4-0.1-0.5,0.2c-0.1,0.3,0,0.4,0,0.4s0-0.1,0.2-0.1c0.2-0.1,0.4,0,0.4,0.2v0L16.7,98.6z
	 M16.6,98.6l0.1,0c-0.2,0.1-0.3,0.3-0.4,0.3C16.1,99,16,99.1,16,99.1s-0.1,0-0.1-0.1c-0.1-0.1,0-0.3,0.2-0.3
	C16.3,98.6,16.5,98.7,16.6,98.6L16.6,98.6z M16.9,98.6c-0.2,0.2-0.4,0.3-0.5,0.4c-0.1,0.1-0.1,0.1-0.2,0.2h0.5
	c0-0.2-0.1-0.3,0.1-0.3c0.2,0,0.3,0.1,0.2,0.3c0,0,0,0,0,0h0.6c0-0.1,0-0.2,0-0.3c0-0.1,0-0.2,0-0.3H16.9L16.9,98.6z M17.9,98.6h0.5
	c0,0.2,0.1,0.3,0.1,0.4c0,0.1,0.1,0.1,0.1,0.1H18C18,99,18,98.8,17.9,98.6L17.9,98.6z M18.9,98.6l1,0c0,0.1,0.1,0.1,0.1,0.2
	c0.1,0.2,0.2,0.3,0.3,0.4H20c0,0,0-0.1,0-0.1c0,0-0.2,0-0.4,0C19.4,99.1,19,99.1,18.9,98.6C18.9,98.6,18.9,98.6,18.9,98.6L18.9,98.6
	z M20.4,98.6h0.7c0.1,0.2,0.3,0.3,0.5,0.4c0.6,0.3,0.6,0.1,0.6,0c0-0.1-0.1-0.3-0.3-0.4h0.9c0,0.2,0,0.3,0,0.3s0.2-0.1,0.3-0.3h0.7
	c0,0.3-0.1,0.3-0.1,0.3l0.2,0.2h-3.3c0,0,0,0-0.1-0.1C20.6,99,20.5,98.8,20.4,98.6L20.4,98.6z M24.1,98.6c-0.1,0.1-0.1,0.1-0.1,0.1
	s0.1,0.2,0.6-0.1H24.1L24.1,98.6z M27.2,98.6l45.6,0c-0.1,0.2-0.2,0.4-0.1,0.6h-0.6c0-0.1,0-0.1,0-0.1c0-0.1,0-0.1,0.1-0.2H50H27.8
	c0,0.1,0.1,0.1,0.1,0.2c0,0,0,0.1,0,0.1h-0.6C27.3,99,27.3,98.8,27.2,98.6L27.2,98.6z M75.3,98.6h0.5c0.1,0.1,0.1,0.1,0.1,0.1
	S75.9,98.9,75.3,98.6L75.3,98.6z M76.1,98.6c0.1,0.3,0.1,0.3,0.1,0.3L76,99.1h3.3c0,0,0,0,0-0.1c0.1-0.1,0.2-0.3,0.3-0.5h-0.7
	c-0.1,0.2-0.3,0.3-0.5,0.4c-0.6,0.3-0.6,0.1-0.6,0c0-0.1,0.1-0.3,0.3-0.4h-0.9c0,0.2,0,0.3,0,0.3s-0.2-0.1-0.3-0.3H76.1L76.1,98.6z
	 M80.2,98.6h1c0,0,0,0.1,0,0.1c-0.1,0.4-0.6,0.4-0.8,0.4c-0.2,0-0.4,0-0.4,0c0,0,0,0,0,0.1h-0.3c0.1-0.1,0.2-0.2,0.3-0.4
	C80.1,98.7,80.2,98.7,80.2,98.6L80.2,98.6z M81.6,98.6h0.5c0,0.2-0.1,0.4-0.1,0.6h-0.6c0.1,0,0.1-0.1,0.1-0.1
	C81.5,98.9,81.5,98.8,81.6,98.6L81.6,98.6z M82.3,98.6h0.7c0.2,0.2,0.4,0.3,0.5,0.4c0.1,0.1,0.1,0.1,0.2,0.2h-0.5
	c0-0.2,0.1-0.3-0.1-0.3c-0.2,0-0.3,0.1-0.2,0.3c0,0,0,0,0,0h-0.6c0-0.1,0-0.2,0-0.3C82.3,98.8,82.3,98.7,82.3,98.6L82.3,98.6z
	 M83.3,98.6c0.2,0.1,0.3,0.3,0.4,0.3c0.2,0.1,0.3,0.2,0.3,0.2s0.1,0,0.1-0.1c0.1-0.1,0-0.3-0.2-0.3c-0.2,0-0.4,0-0.4-0.1H83.3
	L83.3,98.6z M75,99.1c0.1-0.1,0.3-0.1,0.2-0.2c-0.2-0.1-1-0.5-1.8-0.2c-0.3,0.1-0.3,0.3-0.3,0.4H75L75,99.1z M26.9,99.1H25
	c-0.1-0.1-0.3-0.1-0.2-0.2c0.2-0.1,1-0.5,1.8-0.2C26.8,98.9,26.9,99,26.9,99.1z M16.3,99.1h0.5c0,0,0,0.1,0,0.1
	c-0.1,0.2-0.2,0.3-0.4,0.2c-0.2-0.1-0.3-0.2-0.3-0.2S16.2,99.2,16.3,99.1L16.3,99.1z M17.1,99.1h0.6c0,0.1-0.1,0.2-0.3,0.2
	c-0.3,0.1-0.4,0-0.4,0S17,99.3,17.1,99.1L17.1,99.1z M18,99.1h0.6c0.1,0.1,0.3,0.2,0.5,0.2c0.2,0,0.5,0,0.7,0c0.1,0,0.2-0.1,0.2-0.2
	h0.3c0.1,0.1,0.1,0.1,0.2,0.2c0.2,0.1,0.2,0.2,0.2,0.2s-1.1,0-1.7,0.1C18.5,99.7,18.1,99.6,18,99.1C18,99.2,18,99.2,18,99.1L18,99.1
	z M20.7,99.1h3.3l0.4,0.5c0,0-0.5-0.1-1.3-0.1c-0.7,0.1-1.4,0-1.7,0C21.3,99.6,21,99.4,20.7,99.1L20.7,99.1z M25,99.1h1.9
	c0,0.1-0.1,0.2-0.2,0.2c-0.1,0-0.1-0.1-0.2-0.1c-0.3-0.2-0.4,0.1-0.3,0.3c0.2,0.2,0.8,0.3,1-0.1c0.1-0.1,0.1-0.2,0.1-0.4h0.6
	c0,0.1,0,0.2-0.1,0.3H50h22.2c-0.1-0.1-0.1-0.2-0.1-0.3h0.6c0,0.1,0,0.3,0.1,0.4c0.2,0.3,0.8,0.3,1,0.1c0.2-0.2,0-0.6-0.3-0.3
	c-0.1,0.1-0.1,0.1-0.2,0.1c-0.1,0-0.2-0.1-0.2-0.2H75c0,0-0.1,0.1-0.1,0.1c-0.1,0.1-0.2,0.3-0.5,0.5c-0.4,0.2-1,0.3-1.4,0.3
	c-0.2,0-0.4-0.1-0.5-0.2H50H27.5c-0.1,0.1-0.3,0.2-0.5,0.2c-0.4,0-1-0.1-1.4-0.3c-0.3-0.1-0.5-0.4-0.5-0.5
	C25.1,99.2,25,99.2,25,99.1L25,99.1z M76,99.1h3.3c-0.2,0.2-0.5,0.4-0.8,0.4c-0.3,0-0.9,0.1-1.7,0c-0.7,0-1.3,0.1-1.3,0.1L76,99.1
	L76,99.1z M79.7,99.1H80c0,0.1,0.1,0.1,0.2,0.2c0.1,0.1,0.4,0.1,0.6,0c0.2,0,0.3-0.1,0.5-0.2H82c0,0,0,0.1,0,0.1
	c-0.1,0.3-0.5,0.4-1,0.3c-0.6-0.1-1.7-0.1-1.7-0.1s0.1,0,0.2-0.2C79.6,99.3,79.7,99.2,79.7,99.1L79.7,99.1z M82.3,99.1h0.6
	c0.1,0.2,0.1,0.3,0.1,0.3s-0.1,0.1-0.4,0C82.4,99.3,82.4,99.2,82.3,99.1L82.3,99.1z M83.2,99.1h0.5c0.1,0.1,0.1,0.1,0.1,0.1
	s-0.1,0.1-0.3,0.2C83.5,99.5,83.3,99.4,83.2,99.1C83.2,99.2,83.2,99.2,83.2,99.1z"/>
</svg>
