<?xml version="1.0" standalone="no"?><!DOCTYPE svg PUBLIC "-//W3C//DTD SVG 1.1//EN" "http://www.w3.org/Graphics/SVG/1.1/DTD/svg11.dtd"><svg class="icon" width="200px" height="200.00px" viewBox="0 0 1024 1024" version="1.1" xmlns="http://www.w3.org/2000/svg"><path fill="#999999" d="M472.6784 512.8192L68.4032 512l404.2752-0.8192c0.4096 0 0.8192 0.4096 0.8192 0.8192s-0.4096 0.8192-0.8192 0.8192zM472.6784 506.2656l-79.6672-0.4096 79.6672-0.4096c0.2048 0 0.4096 0.2048 0.4096 0.4096s-0.2048 0.4096-0.4096 0.4096zM472.6784 518.7584l-79.6672-0.4096 79.6672-0.4096c0.2048 0 0.4096 0.2048 0.4096 0.4096s-0.2048 0.4096-0.4096 0.4096zM551.3216 511.1808l404.2752 0.8192-404.2752 0.8192c-0.4096 0-0.8192-0.4096-0.8192-0.8192s0.4096-0.8192 0.8192-0.8192zM551.3216 505.2416l79.6672 0.4096-79.6672 0.4096c-0.2048 0-0.4096-0.2048-0.4096-0.4096s0.2048-0.4096 0.4096-0.4096zM551.3216 517.7344l79.6672 0.4096-79.6672 0.4096c-0.2048 0-0.4096-0.2048-0.4096-0.4096s0.2048-0.4096 0.4096-0.4096zM512 512c-4.3008 1.2288-8.8064 2.6624-13.312 4.096s-9.216 2.8672-13.9264 4.096c-0.4096 0-0.8192-0.2048-0.8192-0.4096v-0.2048-15.1552c0-0.4096 0.4096-0.6144 0.6144-0.6144h0.2048c4.7104 1.2288 9.4208 2.6624 13.9264 4.096s9.0112 2.8672 13.312 4.096z m0 0c-4.7104-1.2288-9.4208-2.4576-14.1312-3.4816-4.5056-1.024-9.0112-2.2528-13.5168-3.4816l0.8192-0.6144v15.1552l-0.8192-0.6144c4.5056-1.2288 8.8064-2.2528 13.5168-3.4816 4.7104-1.024 9.4208-2.2528 14.1312-3.4816zM512 512c4.7104 1.2288 9.4208 2.4576 14.1312 3.4816 4.5056 1.024 9.0112 2.2528 13.5168 3.4816l-0.8192 0.6144v-15.1552l0.8192 0.6144c-4.5056 1.2288-8.8064 2.2528-13.5168 3.4816-4.7104 1.024-9.4208 2.2528-14.1312 3.4816z m0 0c4.3008-1.2288 8.8064-2.6624 13.312-4.096s9.216-2.8672 13.9264-4.096c0.4096 0 0.8192 0.2048 0.8192 0.4096v15.36c0 0.4096-0.2048 0.6144-0.6144 0.6144h-0.2048c-4.7104-1.2288-9.4208-2.6624-13.9264-4.096s-9.0112-2.8672-13.312-4.096zM493.568 511.5904l18.432 0.4096-18.432 0.4096c-0.2048 0-0.4096-0.2048-0.4096-0.4096s0.2048-0.4096 0.4096-0.4096zM530.432 512.4096l-18.432-0.4096 18.432-0.4096c0.2048 0 0.4096 0.2048 0.4096 0.4096s-0.2048 0.4096-0.4096 0.4096zM512 512m-2.8672 0a2.8672 2.8672 0 1 0 5.7344 0 2.8672 2.8672 0 1 0-5.7344 0Z" /></svg>