<?xml version="1.0" standalone="no"?><!DOCTYPE svg PUBLIC "-//W3C//DTD SVG 1.1//EN" "http://www.w3.org/Graphics/SVG/1.1/DTD/svg11.dtd"><svg class="icon" width="200px" height="200.00px" viewBox="0 0 1024 1024" version="1.1" xmlns="http://www.w3.org/2000/svg"><path fill="#999999" d="M38.2976 512m-3.4816 0a3.4816 3.4816 0 1 0 6.9632 0 3.4816 3.4816 0 1 0-6.9632 0ZM62.6688 512m-3.8912 0a3.8912 3.8912 0 1 0 7.7824 0 3.8912 3.8912 0 1 0-7.7824 0ZM86.8352 512m-4.3008 0a4.3008 4.3008 0 1 0 8.6016 0 4.3008 4.3008 0 1 0-8.6016 0ZM111.2064 512m-4.7104 0a4.7104 4.7104 0 1 0 9.4208 0 4.7104 4.7104 0 1 0-9.4208 0ZM135.5776 512m-5.12 0a5.12 5.12 0 1 0 10.24 0 5.12 5.12 0 1 0-10.24 0ZM159.9488 512m-5.5296 0a5.5296 5.5296 0 1 0 11.0592 0 5.5296 5.5296 0 1 0-11.0592 0ZM184.1152 512m-5.9392 0a5.9392 5.9392 0 1 0 11.8784 0 5.9392 5.9392 0 1 0-11.8784 0ZM208.4864 512m-6.3488 0a6.3488 6.3488 0 1 0 12.6976 0 6.3488 6.3488 0 1 0-12.6976 0ZM232.8576 512m-6.7584 0a6.7584 6.7584 0 1 0 13.5168 0 6.7584 6.7584 0 1 0-13.5168 0ZM257.2288 512m-7.168 0a7.168 7.168 0 1 0 14.336 0 7.168 7.168 0 1 0-14.336 0ZM281.3952 512m-7.3728 0a7.3728 7.3728 0 1 0 14.7456 0 7.3728 7.3728 0 1 0-14.7456 0ZM305.7664 512m-7.7824 0a7.7824 7.7824 0 1 0 15.5648 0 7.7824 7.7824 0 1 0-15.5648 0ZM330.1376 512m-8.192 0a8.192 8.192 0 1 0 16.384 0 8.192 8.192 0 1 0-16.384 0ZM354.304 512m-8.6016 0a8.6016 8.6016 0 1 0 17.2032 0 8.6016 8.6016 0 1 0-17.2032 0ZM378.6752 512m-9.0112 0a9.0112 9.0112 0 1 0 18.0224 0 9.0112 9.0112 0 1 0-18.0224 0ZM403.0464 512m-9.4208 0a9.4208 9.4208 0 1 0 18.8416 0 9.4208 9.4208 0 1 0-18.8416 0ZM427.4176 512m-9.8304 0a9.8304 9.8304 0 1 0 19.6608 0 9.8304 9.8304 0 1 0-19.6608 0ZM451.584 512m-10.24 0a10.24 10.24 0 1 0 20.48 0 10.24 10.24 0 1 0-20.48 0ZM475.9552 512m-10.6496 0a10.6496 10.6496 0 1 0 21.2992 0 10.6496 10.6496 0 1 0-21.2992 0ZM500.3264 512m-11.0592 0a11.0592 11.0592 0 1 0 22.1184 0 11.0592 11.0592 0 1 0-22.1184 0ZM525.9264 512m-10.6496 0a10.6496 10.6496 0 1 0 21.2992 0 10.6496 10.6496 0 1 0-21.2992 0ZM551.3216 512m-10.24 0a10.24 10.24 0 1 0 20.48 0 10.24 10.24 0 1 0-20.48 0ZM576.9216 512m-9.8304 0a9.8304 9.8304 0 1 0 19.6608 0 9.8304 9.8304 0 1 0-19.6608 0ZM602.5216 512m-9.4208 0a9.4208 9.4208 0 1 0 18.8416 0 9.4208 9.4208 0 1 0-18.8416 0ZM628.1216 512m-9.0112 0a9.0112 9.0112 0 1 0 18.0224 0 9.0112 9.0112 0 1 0-18.0224 0ZM653.5168 512m-8.6016 0a8.6016 8.6016 0 1 0 17.2032 0 8.6016 8.6016 0 1 0-17.2032 0ZM679.1168 512m-8.192 0a8.192 8.192 0 1 0 16.384 0 8.192 8.192 0 1 0-16.384 0ZM704.7168 512m-7.7824 0a7.7824 7.7824 0 1 0 15.5648 0 7.7824 7.7824 0 1 0-15.5648 0ZM730.112 512m-7.3728 0a7.3728 7.3728 0 1 0 14.7456 0 7.3728 7.3728 0 1 0-14.7456 0ZM755.712 512m-7.168 0a7.168 7.168 0 1 0 14.336 0 7.168 7.168 0 1 0-14.336 0ZM781.312 512m-6.7584 0a6.7584 6.7584 0 1 0 13.5168 0 6.7584 6.7584 0 1 0-13.5168 0ZM806.912 512m-6.3488 0a6.3488 6.3488 0 1 0 12.6976 0 6.3488 6.3488 0 1 0-12.6976 0ZM832.3072 512m-5.9392 0a5.9392 5.9392 0 1 0 11.8784 0 5.9392 5.9392 0 1 0-11.8784 0ZM857.9072 512m-5.5296 0a5.5296 5.5296 0 1 0 11.0592 0 5.5296 5.5296 0 1 0-11.0592 0ZM883.5072 512m-5.12 0a5.12 5.12 0 1 0 10.24 0 5.12 5.12 0 1 0-10.24 0ZM909.1072 512m-4.7104 0a4.7104 4.7104 0 1 0 9.4208 0 4.7104 4.7104 0 1 0-9.4208 0ZM934.5024 512m-4.3008 0a4.3008 4.3008 0 1 0 8.6016 0 4.3008 4.3008 0 1 0-8.6016 0ZM960.1024 512m-3.8912 0a3.8912 3.8912 0 1 0 7.7824 0 3.8912 3.8912 0 1 0-7.7824 0ZM985.7024 512m-3.4816 0a3.4816 3.4816 0 1 0 6.9632 0 3.4816 3.4816 0 1 0-6.9632 0Z" /></svg>