<?xml version="1.0" standalone="no"?><!DOCTYPE svg PUBLIC "-//W3C//DTD SVG 1.1//EN" "http://www.w3.org/Graphics/SVG/1.1/DTD/svg11.dtd"><svg class="icon" width="200px" height="200.00px" viewBox="0 0 1024 1024" version="1.1" xmlns="http://www.w3.org/2000/svg"><path fill="#999999" d="M646.144 524.6976h215.6544M861.7984 525.312H646.144c-0.4096 0-0.8192-0.4096-0.8192-0.8192s0.4096-0.8192 0.8192-0.8192h215.8592c0.4096 0 0.8192 0.4096 0.8192 0.8192s-0.6144 0.8192-1.024 0.8192zM159.9488 524.6976h215.8592M375.808 525.312H159.9488c-0.4096 0-0.8192-0.4096-0.8192-0.8192s0.4096-0.8192 0.8192-0.8192h215.8592c0.4096 0 0.8192 0.4096 0.8192 0.8192s-0.4096 0.8192-0.8192 0.8192zM154.0096 524.6976c0 3.6864-3.072 6.7584-6.7584 6.7584-3.6864 0-6.7584-3.072-6.7584-6.7584 0-3.6864 3.072-6.7584 6.7584-6.7584 3.6864 0 6.7584 3.072 6.7584 6.7584zM146.0224 519.5776c1.2288 0 2.2528 0.4096 3.2768 1.024h-1.4336c-1.024 0.2048-2.048 0.6144-2.8672 1.4336-1.024 0.8192-1.024 2.2528-1.8432 3.072-1.2288-2.048 0.4096-5.5296 2.8672-5.5296zM135.5776 524.6976c0 4.3008-3.4816 7.7824-7.7824 7.7824-4.3008 0-7.7824-3.4816-7.7824-7.7824 0-4.3008 3.4816-7.7824 7.7824-7.7824 4.3008-0.2048 7.7824 3.4816 7.7824 7.7824zM126.3616 518.7584c1.4336 0 2.6624 0.4096 3.8912 1.2288h-1.6384c-1.2288 0.2048-2.4576 0.8192-3.4816 1.6384-1.024 1.024-1.2288 2.6624-2.2528 3.4816-1.4336-2.4576 0.6144-6.3488 3.4816-6.3488zM114.2784 524.6976c0 5.12-4.096 9.4208-9.4208 9.4208-5.12 0-9.4208-4.096-9.4208-9.4208 0-5.12 4.096-9.4208 9.4208-9.4208 5.3248 0 9.4208 4.096 9.4208 9.4208zM103.2192 517.5296c1.6384 0 3.2768 0.6144 4.5056 1.4336h-2.048c-1.4336 0.2048-3.072 0.8192-4.096 1.8432-1.4336 1.2288-1.6384 3.072-2.6624 4.3008-1.4336-2.8672 0.8192-7.5776 4.3008-7.5776zM869.9904 524.6976c0 3.6864 3.072 6.7584 6.7584 6.7584s6.7584-3.072 6.7584-6.7584c0-3.6864-3.072-6.7584-6.7584-6.7584s-6.7584 3.072-6.7584 6.7584zM877.9776 519.5776c-1.2288 0-2.2528 0.4096-3.2768 1.024h1.4336c1.024 0.2048 2.048 0.6144 2.8672 1.4336 1.024 0.8192 1.024 2.2528 1.8432 3.072 1.2288-2.048-0.4096-5.5296-2.8672-5.5296zM888.4224 524.6976c0 4.3008 3.4816 7.7824 7.7824 7.7824 4.3008 0 7.7824-3.4816 7.7824-7.7824 0-4.3008-3.4816-7.7824-7.7824-7.7824-4.3008-0.2048-7.7824 3.4816-7.7824 7.7824zM897.6384 518.7584c-1.4336 0-2.6624 0.4096-3.8912 1.2288h1.6384c1.2288 0.2048 2.4576 0.8192 3.4816 1.6384 1.024 1.024 1.2288 2.6624 2.2528 3.4816 1.4336-2.4576-0.6144-6.3488-3.4816-6.3488zM909.7216 524.6976c0 5.12 4.096 9.4208 9.4208 9.4208 5.12 0 9.4208-4.096 9.4208-9.4208 0-5.12-4.096-9.4208-9.4208-9.4208-5.3248 0-9.4208 4.096-9.4208 9.4208zM920.7808 517.5296c-1.6384 0-3.2768 0.6144-4.5056 1.4336h2.048c1.4336 0.2048 3.072 0.8192 4.096 1.8432 1.4336 1.2288 1.6384 3.072 2.6624 4.3008 1.4336-2.8672-0.8192-7.5776-4.3008-7.5776zM422.912 533.9136h-0.4096c-0.2048 0-0.4096 0-0.6144-0.2048-0.2048 0-0.2048 0-0.4096-0.2048-0.2048 0-0.2048-0.2048-0.4096-0.2048-1.2288-0.6144-2.6624-2.048-3.4816-4.3008-0.4096-1.2288-0.6144-2.4576-0.6144-4.096v-0.6144V523.6736c0-0.4096 0.2048-0.6144 0.2048-1.024s0.2048-0.8192 0.2048-1.024c0.2048-0.4096 0.2048-0.8192 0.4096-1.2288 0.6144-1.6384 1.4336-3.2768 2.4576-4.7104 1.2288-1.4336 2.6624-2.8672 4.5056-4.096 3.6864-2.2528 8.3968-3.072 12.9024-2.2528 0.6144 0 1.2288 0.2048 1.6384 0.4096 0.6144 0.2048 1.2288 0.2048 1.6384 0.4096 0.6144 0.2048 1.2288 0.4096 1.6384 0.6144h0.4096l0.4096 0.2048 0.8192 0.4096c1.024 0.4096 2.2528 1.024 3.2768 1.6384 0.6144 0.2048 1.024 0.6144 1.6384 1.024l0.8192 0.4096 0.8192 0.6144c2.048 1.4336 4.096 2.8672 5.9392 4.5056 1.024 0.8192 1.8432 1.6384 2.8672 2.4576 1.024 0.8192 1.8432 1.6384 2.8672 2.4576 1.8432 1.6384 3.8912 3.2768 5.9392 4.9152 2.048 1.4336 4.096 3.072 6.3488 4.3008l0.4096 0.2048h0.2048l0.2048 0.2048 0.8192 0.4096 0.8192 0.4096c0.2048 0.2048 0.6144 0.2048 0.8192 0.4096l1.6384 0.6144c0.6144 0.2048 1.2288 0.4096 1.8432 0.4096 1.2288 0.4096 2.4576 0.4096 3.6864 0.8192 0.6144 0 1.2288 0.2048 1.8432 0.2048 0.6144 0 1.2288 0.2048 1.8432 0h1.8432c0.6144 0 1.2288 0 1.8432-0.2048h0.8192c0.2048 0 0.6144 0 0.8192-0.2048 0.6144 0 1.2288-0.2048 1.8432-0.2048 2.2528-0.6144 4.5056-1.2288 6.7584-2.2528 1.024-0.4096 2.048-1.024 3.072-1.6384 0.4096-0.2048 1.024-0.6144 1.4336-0.8192 0.4096-0.4096 1.024-0.6144 1.4336-1.024 0.8192-0.6144 1.8432-1.4336 2.4576-2.048 0.4096-0.4096 0.8192-0.8192 1.2288-1.024 0.4096-0.4096 0.6144-0.8192 1.024-1.2288 1.4336-1.6384 2.4576-3.2768 3.6864-5.12 1.2288-1.8432 2.4576-3.4816 3.6864-5.12 2.6624-3.072 6.5536-5.12 10.0352-5.12 0.8192 0 1.8432 0.2048 2.4576 0.4096 0.2048 0 0.4096 0.2048 0.6144 0.2048l0.2048 0.2048c0.2048 0 0 0 0 0h0.2048c0.2048 0 0.4096 0.2048 0.4096 0.2048 0.2048 0.2048 0.4096 0.2048 0.6144 0.4096 1.2288 1.024 2.048 2.2528 2.4576 3.4816 0.8192 2.2528 0.2048 4.5056-0.4096 5.5296l-0.6144 0.6144c-0.2048 0.2048-0.4096 0.2048-0.4096 0.4096-0.2048 0.2048-0.4096 0.2048-0.4096 0.2048l-0.2048-0.2048s0.6144-0.4096 1.024-1.4336c0.6144-1.024 0.8192-2.8672-0.2048-4.7104-0.4096-0.8192-1.2288-1.8432-2.048-2.4576l-0.4096-0.2048c-0.2048 0-0.4096-0.2048-0.4096-0.2048h-0.4096c-0.2048 0-0.4096 0-0.4096-0.2048-0.6144-0.2048-1.2288-0.2048-2.048-0.2048-2.8672 0.2048-5.7344 2.048-7.9872 4.9152-1.2288 1.4336-2.2528 3.072-3.2768 4.9152-0.6144 0.8192-1.024 1.8432-1.6384 2.6624-0.6144 1.024-1.2288 1.8432-2.048 2.8672-2.8672 3.6864-6.9632 6.7584-11.6736 8.8064-2.2528 1.024-4.9152 1.6384-7.3728 2.2528-0.6144 0-1.2288 0.2048-2.048 0.2048-0.4096 0-0.6144 0-1.024 0.2048h-5.12c-0.6144 0-1.2288 0-2.048-0.2048-0.6144 0-1.2288-0.2048-2.048-0.2048-1.2288-0.4096-2.6624-0.6144-3.8912-1.024l-1.8432-0.6144-1.8432-0.8192c-0.4096-0.2048-0.6144-0.2048-0.8192-0.4096l-0.8192-0.4096-0.8192-0.4096-0.2048-0.2048h-0.2048l-0.4096-0.2048c-2.2528-1.4336-4.3008-3.072-6.144-4.7104-2.048-1.6384-3.8912-3.4816-5.7344-5.12-3.8912-3.4816-7.7824-6.5536-11.8784-8.8064l-0.8192-0.4096-0.8192-0.4096c-0.6144-0.2048-1.024-0.4096-1.6384-0.8192-1.024-0.4096-2.048-0.8192-3.2768-1.2288-2.2528-0.8192-4.3008-1.2288-6.3488-1.4336-4.096-0.6144-8.192 0.2048-11.264 1.8432-1.4336 0.8192-2.8672 2.048-3.8912 3.2768-1.024 1.2288-1.8432 2.6624-2.4576 4.096-0.2048 0.4096-0.2048 0.6144-0.4096 1.024s-0.2048 0.8192-0.4096 1.024c-0.2048 0.4096-0.2048 0.6144-0.4096 1.024v0.8192c-0.2048 1.2288-0.2048 2.4576 0.2048 3.4816 0.4096 2.048 1.6384 3.4816 2.4576 4.096 0.2048 0 0.2048 0.2048 0.4096 0.2048s0.2048 0.2048 0.2048 0.2048c0.2048 0.2048 0.4096 0.2048 0.4096 0.2048 0.2048 0.2048 0.4096 0.2048 0.4096 0.2048l0.6144-0.4096zM400.384 531.456h-2.4576c-1.6384-0.2048-3.8912-0.6144-6.5536-2.4576-2.4576-1.8432-4.7104-5.12-5.5296-9.216-0.4096-2.048-0.4096-4.5056 0.2048-6.7584 0.6144-2.4576 1.6384-4.7104 3.2768-6.7584s3.4816-4.096 5.9392-5.5296c1.2288-0.8192 2.4576-1.4336 3.8912-1.8432 0.6144-0.2048 1.4336-0.4096 2.048-0.6144l0.6144-0.2048H402.432l1.024-0.2048c1.6384-0.2048 3.072-0.2048 4.5056-0.2048 1.4336 0.2048 3.072 0.4096 4.5056 0.8192 3.072 0.8192 5.9392 2.048 8.6016 3.8912 1.2288 0.8192 2.6624 1.8432 3.6864 3.072 1.2288 1.024 2.2528 2.2528 3.2768 3.6864 2.048 2.4576 3.8912 5.3248 5.7344 7.9872 1.8432 2.6624 3.8912 5.3248 6.144 7.5776s4.9152 4.3008 7.7824 5.7344c5.7344 3.072 12.0832 4.9152 18.2272 4.9152 6.3488 0 12.4928-1.6384 18.0224-3.6864 2.8672-1.024 5.7344-2.048 8.3968-3.2768 0.6144-0.2048 1.4336-0.6144 2.048-0.8192 0.6144-0.4096 1.2288-0.6144 1.8432-1.024 0.6144-0.4096 1.2288-0.6144 1.8432-1.024 0.6144-0.4096 1.2288-0.6144 1.8432-1.024 4.5056-2.8672 8.3968-6.5536 11.0592-10.4448 0.6144-1.024 1.2288-2.048 1.8432-2.8672 0.2048-0.4096 0.6144-1.024 0.8192-1.4336 0.2048-0.6144 0.4096-1.024 0.6144-1.6384 0.2048-0.4096 0.4096-1.024 0.6144-1.4336 0.2048-0.4096 0.2048-1.024 0.4096-1.4336 0.2048-0.4096 0.2048-1.024 0.4096-1.4336 0.2048-0.4096 0.2048-1.024 0.2048-1.4336 0.2048-1.8432 0.2048-3.6864 0.2048-5.3248-0.2048-1.6384-0.4096-3.2768-0.8192-4.5056-0.8192-2.6624-1.8432-4.7104-2.6624-5.9392-0.4096-0.6144-0.8192-1.024-1.024-1.4336-0.2048-0.4096-0.4096-0.4096-0.4096-0.4096l0.2048-0.2048 0.4096 0.4096c0.2048 0.2048 0.8192 0.6144 1.2288 1.2288 1.024 1.2288 2.4576 3.072 3.4816 5.9392 0.6144 1.4336 1.024 3.072 1.2288 4.7104 0.2048 1.8432 0.4096 3.6864 0.2048 5.7344-0.2048 2.048-0.4096 4.3008-1.2288 6.5536-0.2048 0.6144-0.4096 1.024-0.6144 1.6384-0.2048 0.6144-0.4096 1.024-0.8192 1.6384-0.6144 1.024-1.2288 2.2528-1.8432 3.2768-1.4336 2.2528-3.072 4.3008-5.12 6.144-2.048 2.048-4.096 3.6864-6.5536 5.3248l-1.8432 1.2288c-0.6144 0.4096-1.2288 0.8192-2.048 1.024-0.6144 0.4096-1.4336 0.6144-2.048 1.024-0.6144 0.4096-1.2288 0.6144-2.048 0.8192-2.8672 1.2288-5.7344 2.2528-8.6016 3.2768-5.9392 2.048-12.4928 3.4816-19.2512 3.2768-6.7584-0.2048-13.5168-2.4576-19.0464-6.144-2.8672-1.8432-5.3248-4.096-7.7824-6.5536-2.2528-2.4576-4.096-5.12-5.9392-7.7824-0.8192-1.4336-1.8432-2.6624-2.8672-3.8912-1.024-1.2288-1.8432-2.6624-2.8672-3.6864-2.048-2.4576-4.3008-4.5056-6.9632-5.9392-2.6624-1.4336-5.3248-2.6624-8.192-3.072-1.4336-0.2048-2.8672-0.4096-4.096-0.4096-1.4336 0-2.6624 0-4.096 0.2048l-1.024 0.2048h-0.4096l-0.4096 0.2048-1.8432 0.6144c-1.2288 0.4096-2.2528 1.024-3.4816 1.6384-2.048 1.2288-3.8912 2.8672-5.3248 4.7104-0.8192 0.8192-1.2288 1.8432-1.8432 2.8672-0.2048 0.4096-0.4096 1.024-0.6144 1.4336-0.2048 0.4096-0.4096 1.024-0.4096 1.4336-0.6144 2.048-0.6144 4.096-0.4096 5.9392 0.2048 1.8432 0.8192 3.4816 1.4336 5.12 0.8192 1.4336 1.6384 2.6624 2.6624 3.4816 2.048 1.8432 4.3008 2.4576 5.7344 2.8672 0.8192 0.2048 1.4336 0.2048 1.6384 0.2048h0.6144v0.2048zM402.6368 524.9024s-0.2048 0-0.6144 0.2048c-0.4096 0-1.024 0.2048-2.048 0-0.8192-0.2048-1.8432-0.6144-2.8672-1.4336-1.024-0.8192-1.8432-1.8432-2.4576-3.2768-0.4096-0.6144-0.6144-1.4336-0.8192-2.2528-0.2048-0.4096-0.2048-0.8192-0.2048-1.2288v-0.6144-0.6144c-0.2048-1.8432 0-3.6864 0.6144-5.5296 0.6144-1.8432 1.4336-3.6864 2.8672-5.3248l0.6144-0.6144 0.2048-0.2048 0.2048-0.2048c0.2048-0.2048 0.4096-0.2048 0.6144-0.4096l0.6144-0.4096c0.4096-0.4096 1.024-0.4096 1.4336-0.8192 0.4096-0.2048 1.024-0.4096 1.4336-0.6144 1.8432-0.6144 3.8912-1.024 5.9392-1.2288 2.048-0.2048 3.8912 0 5.7344 0.2048 1.8432 0.2048 3.6864 0.8192 5.12 1.4336 1.6384 0.6144 2.8672 1.6384 4.096 2.4576 1.2288 0.8192 2.2528 1.8432 3.072 2.6624 0.8192 0.8192 1.4336 1.6384 2.048 2.2528 0.6144 0.6144 0.8192 1.2288 1.2288 1.4336 0.2048 0.4096 0.4096 0.6144 0.4096 0.6144s-0.2048-0.2048-0.6144-0.4096c-0.4096-0.2048-0.8192-0.6144-1.4336-1.2288-1.2288-1.024-3.072-2.4576-5.5296-3.6864-1.2288-0.6144-2.4576-1.2288-3.8912-1.8432-1.4336-0.4096-3.072-0.8192-4.7104-1.024-1.6384-0.2048-3.4816-0.2048-5.12 0s-3.4816 0.4096-5.12 1.024c-0.4096 0.2048-0.8192 0.4096-1.2288 0.4096-0.4096 0.2048-0.8192 0.4096-1.024 0.6144l-0.4096 0.2048c-0.2048 0-0.4096 0.2048-0.6144 0.4096l-0.2048 0.2048-0.2048 0.2048s0.2048 0 0 0l-0.4096 0.4096c-1.024 1.2288-2.048 2.4576-2.4576 4.096-0.6144 1.4336-0.8192 3.072-0.8192 4.5056v1.2288c0 0.4096 0 0.6144 0.2048 1.024 0 0.6144 0.2048 1.4336 0.4096 2.048 0.4096 1.2288 1.024 2.2528 1.6384 3.072 0.6144 0.8192 1.4336 1.4336 2.2528 1.6384 0.8192 0.2048 1.4336 0.4096 1.8432 0.4096-0.2048 0.2048 0.2048 0.2048 0.2048 0.2048zM447.2832 508.5184v-0.4096c0-0.2048 0-0.6144-0.4096-1.024-0.2048-0.2048-0.4096-0.2048-0.6144-0.4096h-0.6144c-0.4096 0.2048-0.6144 0.4096-0.8192 0.8192v0.4096c0 0.2048 0 0.4096 0.2048 0.6144 0.2048 0.4096 0.6144 0.8192 1.024 0.8192h0.6144c0.2048 0 0.2048-0.2048 0.4096-0.4096s0.2048-0.4096 0.2048-0.4096z m0 0s0 0.2048-0.2048 0.4096c0 0.2048-0.2048 0.2048-0.4096 0.4096s-0.4096 0.2048-0.6144 0.4096c-0.4096 0.2048-1.2288 0.2048-1.8432-0.2048-0.4096-0.2048-0.6144-0.6144-0.8192-1.024v-0.4096-0.4096c0-0.2048 0-0.4096 0.2048-0.6144 0.4096-0.8192 1.2288-1.4336 2.2528-1.2288 0.4096 0 0.8192 0.2048 1.024 0.4096 0.2048 0.2048 0.4096 0.4096 0.4096 0.8192 0.2048 0.4096 0.2048 0.8192 0.2048 1.2288-0.2048 0-0.2048 0.2048-0.2048 0.2048zM454.2464 511.3856v-0.4096c0-0.2048 0-0.6144-0.4096-1.024-0.2048-0.2048-0.4096-0.2048-0.6144-0.4096h-0.6144c-0.4096 0.2048-0.6144 0.4096-0.8192 0.8192v0.4096c0 0.2048 0 0.4096 0.2048 0.6144 0.2048 0.4096 0.6144 0.8192 1.024 0.8192h0.6144c0.2048 0 0.2048-0.2048 0.4096-0.4096s0.2048-0.4096 0.2048-0.4096z m0 0s0 0.2048-0.2048 0.4096c0 0.2048-0.2048 0.2048-0.4096 0.4096s-0.4096 0.2048-0.6144 0.4096c-0.4096 0.2048-1.2288 0.2048-1.8432-0.2048-0.4096-0.2048-0.6144-0.6144-0.8192-1.024v-0.4096-0.4096c0-0.2048 0-0.4096 0.2048-0.6144 0.4096-0.8192 1.2288-1.4336 2.2528-1.2288 0.4096 0 0.8192 0.2048 1.024 0.4096 0.2048 0.2048 0.4096 0.4096 0.4096 0.8192 0.2048 0.4096 0.2048 0.8192 0.2048 1.2288-0.2048 0-0.2048 0.2048-0.2048 0.2048zM460.3904 515.2768v-0.4096c0-0.2048 0-0.6144-0.4096-1.024-0.2048-0.2048-0.4096-0.2048-0.6144-0.4096h-0.6144c-0.4096 0.2048-0.6144 0.4096-0.8192 0.8192v0.4096c0 0.2048 0 0.4096 0.2048 0.6144 0.2048 0.4096 0.6144 0.8192 1.024 0.8192h0.6144c0.2048 0 0.2048-0.2048 0.4096-0.4096s0.2048-0.4096 0.2048-0.4096z m0 0s0 0.2048-0.2048 0.4096c0 0.2048-0.2048 0.2048-0.4096 0.4096s-0.4096 0.2048-0.6144 0.4096c-0.4096 0.2048-1.2288 0.2048-1.8432-0.2048-0.4096-0.2048-0.6144-0.6144-0.8192-1.024v-0.4096-0.4096c0-0.2048 0-0.4096 0.2048-0.6144 0.4096-0.8192 1.2288-1.4336 2.2528-1.2288 0.4096 0 0.8192 0.2048 1.024 0.4096 0.2048 0.2048 0.4096 0.4096 0.4096 0.8192 0.2048 0.4096 0.2048 0.8192 0.2048 1.2288-0.2048 0-0.2048 0.2048-0.2048 0.2048zM423.3216 532.48m-1.6384 0a1.6384 1.6384 0 1 0 3.2768 0 1.6384 1.6384 0 1 0-3.2768 0ZM401.6128 529.8176c0 1.024-0.8192 1.6384-1.6384 1.6384-1.024 0-1.6384-0.8192-1.6384-1.6384 0-1.024 0.8192-1.6384 1.6384-1.6384s1.6384 0.8192 1.6384 1.6384zM403.8656 523.4688c0 1.024-0.8192 1.6384-1.6384 1.6384-1.024 0-1.6384-0.8192-1.6384-1.6384 0-1.024 0.8192-1.6384 1.6384-1.6384s1.6384 0.8192 1.6384 1.6384zM538.2144 520.8064c0 1.024-0.8192 1.6384-1.6384 1.6384-1.024 0-1.6384-0.8192-1.6384-1.6384 0-1.024 0.8192-1.6384 1.6384-1.6384s1.6384 0.8192 1.6384 1.6384zM598.8352 533.7088s0.2048 0 0.4096-0.2048c0.2048 0 0.4096-0.2048 0.4096-0.2048l0.2048-0.2048c0.2048 0 0.2048-0.2048 0.4096-0.2048 1.024-0.6144 2.048-2.048 2.4576-4.096 0.2048-1.024 0.2048-2.2528 0.2048-3.4816v-0.8192c-0.2048-0.4096-0.2048-0.6144-0.4096-1.024s-0.2048-0.8192-0.4096-1.024c-0.2048-0.4096-0.2048-0.6144-0.4096-1.024-0.6144-1.4336-1.4336-2.6624-2.4576-4.096-1.024-1.2288-2.2528-2.4576-3.8912-3.2768-3.072-1.6384-7.168-2.4576-11.264-1.8432-2.048 0.2048-4.3008 0.6144-6.3488 1.4336-1.2288 0.4096-2.2528 0.8192-3.2768 1.2288-0.6144 0.2048-1.024 0.4096-1.6384 0.8192l-0.8192 0.4096-0.8192 0.4096c-4.3008 2.2528-8.192 5.3248-11.8784 8.8064-1.8432 1.6384-3.8912 3.4816-5.7344 5.12-2.048 1.6384-4.096 3.2768-6.144 4.7104l-0.4096 0.2048h-0.2048l-0.2048 0.2048-0.8192 0.4096-1.024 0.6144c-0.2048 0.2048-0.6144 0.4096-0.8192 0.4096l-1.8432 0.8192-1.8432 0.6144c-1.2288 0.4096-2.6624 0.6144-3.8912 1.024-0.6144 0.2048-1.2288 0.2048-2.048 0.2048-0.6144 0-1.2288 0.2048-2.048 0.2048h-5.12c-0.4096 0-0.6144 0-1.024-0.2048-0.6144 0-1.2288-0.2048-2.048-0.2048-2.4576-0.6144-5.12-1.2288-7.3728-2.2528-4.7104-1.8432-8.8064-5.12-11.6736-8.8064-0.8192-0.8192-1.4336-1.8432-2.048-2.8672-0.6144-1.024-1.2288-1.8432-1.6384-2.6624-1.024-1.8432-2.048-3.4816-3.2768-4.9152-2.2528-2.8672-5.3248-4.7104-7.9872-4.9152-0.6144 0-1.4336 0-2.048 0.2048-0.2048 0-0.4096 0-0.4096 0.2048h-0.2048c0.2048 0 0 0 0 0h-0.2048c-0.2048 0-0.4096 0.2048-0.4096 0.2048l-0.4096 0.2048c-1.024 0.6144-1.6384 1.6384-2.048 2.4576-0.8192 1.8432-0.6144 3.6864-0.2048 4.7104 0.6144 1.024 1.2288 1.2288 1.024 1.4336l-0.2048 0.2048s-0.2048 0-0.4096-0.2048c-0.2048 0-0.4096-0.2048-0.4096-0.4096l-0.6144-0.6144c-0.8192-1.024-1.2288-3.072-0.4096-5.5296 0.4096-1.2288 1.024-2.4576 2.4576-3.4816 0.2048-0.2048 0.4096-0.2048 0.6144-0.4096 0.2048 0 0.4096-0.2048 0.4096-0.2048h0.2048l0.2048-0.2048c0.2048 0 0.4096-0.2048 0.6144-0.2048 0.8192-0.2048 1.6384-0.4096 2.4576-0.4096 3.4816 0 7.3728 2.048 10.0352 5.12 1.4336 1.6384 2.6624 3.2768 3.6864 5.12 1.2288 1.6384 2.2528 3.4816 3.6864 5.12 0.4096 0.4096 0.6144 0.8192 1.024 1.2288 0.4096 0.4096 0.8192 0.8192 1.2288 1.024 0.8192 0.8192 1.6384 1.4336 2.4576 2.048 0.4096 0.4096 0.8192 0.6144 1.4336 1.024 0.4096 0.2048 0.8192 0.6144 1.4336 0.8192 1.024 0.6144 2.048 1.2288 3.072 1.6384 2.048 1.024 4.3008 1.6384 6.7584 2.2528 0.6144 0 1.2288 0.2048 1.8432 0.2048 0.2048 0 0.6144 0.2048 0.8192 0.2048h0.8192c0.6144 0 1.2288 0.2048 1.8432 0.2048h3.6864c0.6144 0 1.2288 0 1.8432-0.2048 1.2288-0.2048 2.4576-0.4096 3.6864-0.8192 0.6144-0.2048 1.2288-0.2048 1.8432-0.4096l1.6384-0.6144c0.2048 0 0.6144-0.2048 0.8192-0.4096l0.8192-0.4096 0.8192-0.4096 0.2048-0.2048s0.2048 0 0 0h0.2048l0.4096-0.2048c2.2528-1.2288 4.3008-2.6624 6.3488-4.3008s3.8912-3.2768 5.9392-4.9152c1.024-0.8192 1.8432-1.6384 2.8672-2.4576 1.024-0.8192 1.8432-1.6384 2.8672-2.4576 1.8432-1.6384 3.8912-3.2768 5.9392-4.5056l0.8192-0.6144 0.8192-0.4096c0.6144-0.4096 1.024-0.6144 1.6384-1.024 1.024-0.6144 2.2528-1.2288 3.2768-1.6384l0.8192-0.4096 0.4096-0.2048h0.4096c0.6144-0.2048 1.2288-0.4096 1.6384-0.6144 0.6144-0.2048 1.2288-0.2048 1.6384-0.4096 0.6144-0.2048 1.2288-0.2048 1.6384-0.4096 4.7104-0.8192 9.4208 0.2048 12.9024 2.2528 1.8432 1.2288 3.2768 2.6624 4.5056 4.096 1.024 1.6384 1.8432 3.072 2.4576 4.7104 0.2048 0.4096 0.2048 0.8192 0.4096 1.2288 0.2048 0.4096 0.2048 0.8192 0.2048 1.024 0 0.4096 0.2048 0.8192 0.2048 1.024V524.4928c0 1.4336-0.2048 2.8672-0.6144 4.096-0.8192 2.2528-2.2528 3.6864-3.4816 4.3008-0.2048 0-0.2048 0.2048-0.4096 0.2048s-0.2048 0-0.4096 0.2048c-0.2048 0-0.4096 0.2048-0.6144 0.2048h-0.4096l0.8192 0.2048zM621.568 531.2512h0.6144c0.4096 0 1.024 0 1.6384-0.2048 1.4336-0.2048 3.6864-1.024 5.7344-2.8672 1.024-0.8192 2.048-2.048 2.6624-3.4816 0.8192-1.4336 1.2288-3.072 1.4336-5.12 0.2048-1.8432 0-3.8912-0.4096-5.9392 0-0.4096-0.4096-1.024-0.4096-1.4336-0.2048-0.4096-0.4096-1.024-0.6144-1.4336-0.6144-1.024-1.024-1.8432-1.8432-2.8672-1.4336-1.8432-3.2768-3.4816-5.3248-4.7104-1.024-0.6144-2.2528-1.2288-3.4816-1.6384l-1.8432-0.6144-0.4096-0.2048h-0.4096l-1.024-0.2048c-1.2288-0.2048-2.6624-0.4096-4.096-0.2048-1.4336 0-2.8672 0.2048-4.096 0.4096-2.8672 0.6144-5.5296 1.6384-8.192 3.072-2.6624 1.4336-4.9152 3.4816-6.9632 5.9392-1.024 1.2288-2.048 2.4576-2.8672 3.6864-1.024 1.2288-1.8432 2.6624-2.8672 3.8912-1.8432 2.6624-3.6864 5.3248-5.9392 7.7824-2.2528 2.4576-4.9152 4.7104-7.7824 6.5536-5.7344 3.6864-12.288 5.9392-19.0464 6.144-6.7584 0.2048-13.312-1.4336-19.2512-3.2768-3.072-1.024-5.9392-2.048-8.6016-3.2768-0.8192-0.4096-1.4336-0.6144-2.048-0.8192-0.6144-0.4096-1.4336-0.6144-2.048-1.024-0.6144-0.4096-1.2288-0.8192-2.048-1.024l-1.8432-1.2288c-2.4576-1.6384-4.7104-3.4816-6.5536-5.3248-2.048-2.048-3.6864-4.096-5.12-6.144-0.6144-1.024-1.2288-2.2528-1.8432-3.2768-0.2048-0.6144-0.6144-1.024-0.8192-1.6384-0.2048-0.6144-0.4096-1.024-0.6144-1.6384-0.8192-2.2528-1.2288-4.5056-1.2288-6.5536-0.2048-2.048 0-4.096 0.2048-5.7344 0.2048-1.8432 0.6144-3.4816 1.2288-4.7104 1.024-2.8672 2.4576-4.7104 3.4816-5.9392 0.4096-0.6144 1.024-1.024 1.2288-1.2288l0.4096-0.4096 0.2048 0.2048-0.4096 0.4096c-0.2048 0.4096-0.6144 0.8192-1.024 1.4336-0.8192 1.2288-2.048 3.2768-2.6624 5.9392-0.4096 1.4336-0.6144 2.8672-0.8192 4.5056-0.2048 1.6384 0 3.4816 0.2048 5.3248 0 0.4096 0.2048 1.024 0.2048 1.4336 0.2048 0.4096 0.2048 1.024 0.4096 1.4336 0.2048 0.4096 0.2048 1.024 0.4096 1.4336 0.2048 0.4096 0.4096 1.024 0.6144 1.4336 0.2048 0.4096 0.4096 1.024 0.6144 1.6384 0.2048 0.4096 0.4096 1.024 0.8192 1.4336 0.6144 1.024 1.2288 2.048 1.8432 2.8672 2.6624 3.8912 6.5536 7.5776 11.0592 10.4448 0.6144 0.4096 1.2288 0.8192 1.8432 1.024 0.6144 0.4096 1.2288 0.6144 1.8432 1.024 0.6144 0.4096 1.2288 0.6144 1.8432 1.024 0.6144 0.2048 1.4336 0.6144 2.048 0.8192 2.6624 1.2288 5.5296 2.2528 8.3968 3.2768 5.7344 2.048 11.8784 3.6864 18.0224 3.6864 6.144 0 12.6976-1.8432 18.2272-4.9152 2.8672-1.6384 5.5296-3.4816 7.7824-5.7344 2.2528-2.2528 4.3008-4.9152 6.144-7.5776 1.8432-2.6624 3.6864-5.3248 5.7344-7.9872 1.024-1.2288 2.048-2.4576 3.2768-3.6864 1.2288-1.2288 2.4576-2.048 3.6864-3.072 2.6624-1.8432 5.5296-3.072 8.6016-3.8912 1.4336-0.4096 3.072-0.6144 4.5056-0.8192 1.4336-0.2048 3.072 0 4.5056 0.2048l1.024 0.2048H620.1344l0.6144 0.2048c0.8192 0.2048 1.4336 0.4096 2.048 0.6144 1.4336 0.6144 2.6624 1.2288 3.8912 1.8432 2.4576 1.4336 4.5056 3.4816 5.9392 5.5296 1.6384 2.048 2.6624 4.5056 3.2768 6.7584 0.6144 2.2528 0.6144 4.7104 0.2048 6.7584-0.6144 4.3008-3.072 7.5776-5.5296 9.216-2.4576 1.8432-4.9152 2.2528-6.5536 2.4576h-2.4576v-0.2048zM619.3152 524.9024h0.6144c0.4096 0 1.024-0.2048 1.8432-0.4096s1.4336-0.8192 2.2528-1.6384c0.6144-0.8192 1.2288-1.8432 1.6384-3.072 0.2048-0.6144 0.4096-1.2288 0.4096-2.048 0-0.4096 0-0.6144 0.2048-1.024v-0.6144-0.6144c0-1.4336-0.4096-3.072-0.8192-4.5056-0.6144-1.4336-1.4336-2.8672-2.4576-4.096l-0.4096-0.4096-0.2048-0.2048-0.2048-0.2048c-0.2048-0.2048-0.4096-0.4096-0.6144-0.4096l-0.4096-0.2048c-0.2048-0.2048-0.8192-0.4096-1.024-0.6144-0.4096-0.2048-0.8192-0.4096-1.2288-0.4096-1.6384-0.6144-3.2768-0.8192-5.12-1.024-1.6384-0.2048-3.4816-0.2048-5.12 0s-3.2768 0.4096-4.7104 1.024c-1.4336 0.4096-2.8672 1.024-3.8912 1.8432-2.4576 1.2288-4.3008 2.6624-5.5296 3.6864-0.6144 0.6144-1.2288 0.8192-1.4336 1.2288-0.4096 0.2048-0.6144 0.4096-0.6144 0.4096s0.2048-0.2048 0.4096-0.6144c0.2048-0.4096 0.6144-0.8192 1.2288-1.4336 0.6144-0.6144 1.2288-1.4336 2.048-2.2528 0.8192-0.8192 1.8432-1.6384 3.072-2.6624 1.2288-0.8192 2.4576-1.6384 4.096-2.4576 1.4336-0.6144 3.2768-1.2288 5.12-1.4336 1.8432-0.2048 3.6864-0.4096 5.7344-0.2048 2.048 0.2048 3.8912 0.4096 5.9392 1.2288 0.4096 0.2048 1.024 0.4096 1.4336 0.6144 0.4096 0.2048 0.8192 0.4096 1.4336 0.8192l0.6144 0.4096c0.2048 0.2048 0.4096 0.2048 0.6144 0.4096l0.2048 0.2048 0.2048 0.2048 0.6144 0.6144c1.4336 1.4336 2.4576 3.4816 2.8672 5.3248 0.6144 1.8432 0.8192 3.6864 0.6144 5.5296v1.2288c0 0.4096-0.2048 0.8192-0.2048 1.2288-0.2048 0.8192-0.6144 1.4336-0.8192 2.2528-0.6144 1.4336-1.4336 2.4576-2.4576 3.2768-1.024 0.8192-2.048 1.2288-2.8672 1.4336-0.8192 0.2048-1.6384 0-2.048 0-0.8192-0.4096-1.024-0.4096-1.024-0.4096zM574.464 508.5184s0-0.2048-0.2048-0.4096c0-0.2048 0-0.6144 0.2048-1.2288 0.2048-0.2048 0.2048-0.4096 0.4096-0.8192 0.2048-0.2048 0.6144-0.4096 1.024-0.4096 0.8192 0 1.8432 0.4096 2.2528 1.2288 0 0.2048 0.2048 0.4096 0.2048 0.6144v0.8192c-0.2048 0.4096-0.4096 0.8192-0.8192 1.024-0.6144 0.4096-1.4336 0.4096-1.8432 0.2048-0.2048-0.2048-0.4096-0.2048-0.6144-0.4096l-0.4096-0.4096-0.2048-0.2048z m0 0s0 0.2048 0.2048 0.4096c0 0.2048 0.2048 0.2048 0.4096 0.4096h0.6144c0.4096 0 0.8192-0.4096 1.024-0.8192 0-0.2048 0.2048-0.4096 0.2048-0.6144v-0.2048-0.2048c-0.2048-0.4096-0.4096-0.6144-0.8192-0.8192h-0.6144c-0.2048 0-0.4096 0.2048-0.6144 0.4096-0.4096 0.4096-0.4096 0.8192-0.4096 1.024v0.4096zM567.5008 511.3856s0-0.2048-0.2048-0.4096c0-0.2048 0-0.6144 0.2048-1.2288 0.2048-0.2048 0.2048-0.4096 0.4096-0.8192 0.2048-0.2048 0.6144-0.4096 1.024-0.4096 0.8192 0 1.8432 0.4096 2.2528 1.2288 0 0.2048 0.2048 0.4096 0.2048 0.6144v0.8192c-0.2048 0.4096-0.4096 0.8192-0.8192 1.024-0.6144 0.4096-1.4336 0.4096-1.8432 0.2048-0.2048-0.2048-0.4096-0.2048-0.6144-0.4096l-0.4096-0.4096-0.2048-0.2048z m0 0s0 0.2048 0.2048 0.4096c0 0.2048 0.2048 0.2048 0.4096 0.4096h0.6144c0.4096 0 0.8192-0.4096 1.024-0.8192 0-0.2048 0.2048-0.4096 0.2048-0.6144v-0.2048-0.2048c-0.2048-0.4096-0.4096-0.6144-0.8192-0.8192h-0.6144c-0.2048 0-0.4096 0.2048-0.6144 0.4096-0.4096 0.4096-0.4096 0.8192-0.4096 1.024v0.4096zM561.3568 515.2768s0-0.2048-0.2048-0.4096c0-0.2048 0-0.6144 0.2048-1.2288 0.2048-0.2048 0.2048-0.4096 0.4096-0.8192 0.2048-0.2048 0.6144-0.4096 1.024-0.4096 0.8192 0 1.8432 0.4096 2.2528 1.2288 0 0.2048 0.2048 0.4096 0.2048 0.6144v0.8192c-0.2048 0.4096-0.4096 0.8192-0.8192 1.024-0.6144 0.4096-1.4336 0.4096-1.8432 0.2048-0.2048-0.2048-0.4096-0.2048-0.6144-0.4096l-0.4096-0.4096-0.2048-0.2048z m0 0s0 0.2048 0.2048 0.4096c0 0.2048 0.2048 0.2048 0.4096 0.4096h0.6144c0.4096 0 0.8192-0.4096 1.024-0.8192 0-0.2048 0.2048-0.4096 0.2048-0.6144v-0.2048-0.2048c-0.2048-0.4096-0.4096-0.6144-0.8192-0.8192h-0.6144c-0.2048 0-0.4096 0.2048-0.6144 0.4096-0.4096 0.4096-0.4096 0.8192-0.4096 1.024v0.4096zM598.4256 532.48m-1.6384 0a1.6384 1.6384 0 1 0 3.2768 0 1.6384 1.6384 0 1 0-3.2768 0ZM620.1344 529.8176c0 1.024 0.8192 1.6384 1.6384 1.6384 1.024 0 1.6384-0.8192 1.6384-1.6384 0-1.024-0.8192-1.6384-1.6384-1.6384s-1.6384 0.8192-1.6384 1.6384zM617.8816 523.4688c0 1.024 0.8192 1.6384 1.6384 1.6384 1.024 0 1.6384-0.8192 1.6384-1.6384 0-1.024-0.8192-1.6384-1.6384-1.6384s-1.6384 0.8192-1.6384 1.6384zM483.5328 520.8064c0 1.024 0.8192 1.6384 1.6384 1.6384 1.024 0 1.6384-0.8192 1.6384-1.6384 0-1.024-0.8192-1.6384-1.6384-1.6384s-1.6384 0.8192-1.6384 1.6384z" /></svg>