<?xml version="1.0" standalone="no"?><!DOCTYPE svg PUBLIC "-//W3C//DTD SVG 1.1//EN" "http://www.w3.org/Graphics/SVG/1.1/DTD/svg11.dtd"><svg class="icon" width="200px" height="200.00px" viewBox="0 0 1024 1024" version="1.1" xmlns="http://www.w3.org/2000/svg"><path fill="#999999" d="M352.8704 503.3984c3.2768-1.4336 6.5536-2.4576 10.0352-3.2768 3.4816-0.6144 6.9632-1.024 10.4448-1.024 6.9632 0 13.9264 1.2288 20.6848 3.072 13.5168 3.6864 26.0096 10.4448 38.5024 16.384 12.4928 6.144 25.3952 11.6736 39.1168 13.1072 6.7584 0.6144 13.7216 0.4096 20.48-1.2288 3.2768-0.8192 6.5536-2.048 9.6256-3.4816 3.072-1.6384 5.9392-3.4816 8.6016-5.9392-2.4576 2.4576-5.3248 4.5056-8.3968 6.3488-3.072 1.6384-6.3488 3.072-9.6256 3.8912-6.7584 1.8432-13.9264 2.2528-20.8896 1.8432-3.4816-0.2048-6.9632-0.8192-10.4448-1.6384-3.4816-0.8192-6.7584-1.8432-10.0352-2.8672-6.5536-2.2528-12.9024-5.12-19.2512-8.192-12.4928-6.144-24.7808-12.6976-38.0928-16.5888-6.5536-2.048-13.5168-3.2768-20.2752-3.4816-3.4816 0-6.9632 0-10.24 0.6144-3.6864 0.4096-6.9632 1.2288-10.24 2.4576zM373.1456 498.8928c0-2.048 0.2048-4.3008 0.2048-6.3488 0-0.2048-0.4096-0.2048-0.4096 0 0 2.048-0.2048 4.3008-0.2048 6.3488 0 0.2048 0.4096 0.2048 0.4096 0zM384.2048 499.712c0.8192-1.6384 1.6384-3.4816 2.6624-5.12 0.2048-0.2048-0.2048-0.4096-0.4096-0.2048-0.8192 1.6384-1.6384 3.4816-2.6624 5.12 0 0.2048 0.4096 0.4096 0.4096 0.2048zM383.1808 501.76c0.2048 1.8432 0.6144 3.8912 0.8192 5.7344 0 0.2048 0.4096 0.2048 0.4096 0-0.2048-1.8432-0.6144-3.8912-0.8192-5.7344 0-0.4096-0.4096-0.4096-0.4096 0zM372.3264 500.736c-0.4096 2.2528-0.4096 4.5056 0 6.7584 0 0.2048 0.4096 0.2048 0.4096 0-0.4096-2.048-0.4096-4.3008 0-6.5536 0-0.2048-0.4096-0.4096-0.4096-0.2048zM396.6976 500.9408c0.2048-1.8432 1.024-3.4816 2.2528-4.9152 0.2048-0.2048-0.2048-0.4096-0.2048-0.2048-1.2288 1.4336-2.048 3.2768-2.4576 5.12 0 0.2048 0.4096 0.4096 0.4096 0zM395.4688 504.2176c0 2.048 0 4.096 0.2048 6.3488 0 0.2048 0.4096 0.2048 0.4096 0 0-2.048 0-4.096-0.2048-6.3488 0-0.4096-0.4096-0.4096-0.4096 0zM406.3232 505.2416c0.2048-1.4336 0.8192-2.6624 2.048-3.4816 0.2048-0.2048 0-0.4096-0.2048-0.4096-1.2288 0.8192-2.048 2.2528-2.2528 3.6864 0 0.4096 0.4096 0.4096 0.4096 0.2048zM405.504 507.904c-0.8192 1.2288-1.024 2.8672-0.6144 4.3008 0 0.2048 0.4096 0.2048 0.4096 0-0.4096-1.4336-0.2048-2.8672 0.6144-3.8912 0-0.4096-0.2048-0.6144-0.4096-0.4096zM414.5152 508.5184c1.024-1.4336 2.048-2.8672 3.2768-4.3008 0.2048-0.2048-0.2048-0.4096-0.4096-0.2048-1.024 1.4336-2.048 2.8672-3.2768 4.3008 0 0.2048 0.2048 0.4096 0.4096 0.2048zM414.5152 512.4096c-0.8192 1.8432-1.024 3.6864-0.8192 5.7344 0 0.2048 0.4096 0.2048 0.4096 0-0.4096-1.8432 0-3.6864 0.8192-5.3248 0-0.6144-0.4096-0.8192-0.4096-0.4096zM423.7312 514.2528c0.6144-2.048 1.6384-3.8912 3.2768-5.3248 0.2048-0.2048 0-0.4096-0.2048-0.2048-1.6384 1.4336-2.6624 3.4816-3.2768 5.5296-0.2048 0 0.2048 0.2048 0.2048 0zM423.7312 516.9152c-0.8192 2.2528-0.4096 4.5056 1.024 6.3488 0.2048 0.2048 0.4096 0 0.4096-0.2048-1.2288-1.8432-1.6384-4.096-1.024-6.144 0 0-0.2048-0.2048-0.4096 0zM434.5856 518.9632c0.8192-2.048 1.6384-4.096 2.4576-6.3488 0-0.2048-0.2048-0.4096-0.4096 0-0.8192 2.048-1.6384 4.096-2.4576 6.3488 0 0.2048 0.2048 0.2048 0.4096 0zM433.9712 522.8544c0.4096 2.048 0.4096 4.096-0.4096 5.9392 0 0.2048 0.2048 0.4096 0.4096 0 0.8192-2.048 0.8192-4.096 0.4096-6.144-0.2048-0.2048-0.4096 0-0.4096 0.2048zM443.5968 523.0592c0.4096-1.4336 1.024-2.8672 1.4336-4.3008 0-0.2048-0.2048-0.4096-0.4096 0-0.4096 1.4336-1.024 2.8672-1.4336 4.3008 0 0.2048 0.2048 0.2048 0.4096 0zM444.0064 526.336c0 1.4336 0.2048 3.072 0.2048 4.5056 0 0.2048 0.4096 0.2048 0.4096 0 0-1.4336-0.2048-3.072-0.2048-4.5056-0.2048-0.2048-0.4096-0.2048-0.4096 0zM454.4512 526.336c0.6144-1.8432 1.4336-3.6864 2.048-5.5296 0-0.2048-0.2048-0.4096-0.4096 0-0.6144 1.8432-1.4336 3.6864-2.048 5.5296 0 0 0.2048 0.2048 0.4096 0zM454.8608 530.6368c-0.2048 2.048 0.2048 4.096 1.2288 6.144 0.2048 0.2048 0.4096 0 0.4096-0.2048-0.8192-1.8432-1.2288-3.8912-1.2288-5.9392 0-0.2048-0.4096-0.2048-0.4096 0zM464.4864 528.7936c0-1.8432 0.2048-3.6864 0.2048-5.7344 0-0.2048-0.4096-0.2048-0.4096 0 0 1.8432-0.2048 3.6864-0.2048 5.7344 0 0.4096 0.4096 0.4096 0.4096 0zM464.896 534.3232c0.6144 1.6384 1.024 3.4816 1.6384 5.12 0 0.2048 0.4096 0.2048 0.4096 0-0.6144-1.6384-1.024-3.4816-1.6384-5.12 0-0.4096-0.4096-0.2048-0.4096 0zM476.16 530.8416c0-1.8432 0-3.8912 0.2048-5.7344 0-0.2048-0.4096-0.2048-0.4096 0 0 1.8432 0 3.8912-0.2048 5.7344 0 0.4096 0.4096 0.4096 0.4096 0zM477.7984 535.552c0.6144 2.2528 1.6384 4.3008 3.072 5.9392 0.2048 0.2048 0.4096 0 0.2048-0.2048-1.4336-1.6384-2.6624-3.4816-3.072-5.7344 0.2048-0.2048-0.2048-0.2048-0.2048 0zM488.0384 530.0224c-1.024-1.8432-1.2288-3.8912-0.8192-5.7344 0-0.2048-0.2048-0.4096-0.4096 0-0.6144 2.048-0.2048 4.3008 0.8192 6.144 0.2048 0 0.4096-0.2048 0.4096-0.4096zM490.2912 532.6848c1.024 1.6384 2.4576 2.8672 4.3008 3.2768 0.2048 0 0.4096-0.2048 0-0.4096-1.8432-0.4096-3.2768-1.6384-4.096-3.072 0-0.2048-0.4096 0-0.2048 0.2048zM498.8928 526.336c-0.6144-2.2528-1.4336-4.3008-2.048-6.5536 0-0.2048-0.4096-0.2048-0.4096 0 0.6144 2.2528 1.4336 4.3008 2.048 6.5536 0 0.4096 0.4096 0.2048 0.4096 0zM501.9648 530.432c2.2528 1.2288 4.5056 2.4576 6.5536 3.6864 0.2048 0.2048 0.4096-0.2048 0.2048-0.4096-2.2528-1.2288-4.5056-2.4576-6.5536-3.6864-0.4096 0-0.4096 0.4096-0.2048 0.4096zM353.28 514.6624c-4.7104-8.192-11.6736-18.2272-22.528-16.5888-4.096 0.6144-7.9872 3.4816-9.0112 7.5776-1.024 3.6864 0.6144 7.168 4.096 8.8064 3.2768 1.4336 7.5776 1.024 9.6256-2.2528 0.4096-0.6144-1.4336-0.8192-1.8432-0.2048-2.048 3.4816-7.168 2.6624-9.216-0.4096-2.6624-3.6864-0.2048-8.8064 3.072-11.0592 4.5056-3.072 10.4448-1.2288 14.5408 1.8432 4.096 3.2768 6.9632 7.9872 9.4208 12.4928 0.4096 0.6144 2.2528 0.4096 1.8432-0.2048zM343.8592 502.3744c-0.8192-4.096-1.6384-8.3968-0.6144-12.6976 0.6144-3.2768 2.6624-6.7584 5.7344-8.192 2.6624-1.2288 6.144-0.6144 7.9872 1.6384 2.048 2.6624 1.2288 6.5536-1.6384 8.192-3.6864 2.2528-7.5776-1.6384-7.3728-5.3248 0-0.6144-1.8432-0.8192-1.8432 0-0.2048 4.096 3.4816 7.3728 7.3728 7.168 3.6864-0.2048 7.168-3.8912 6.5536-7.5776-0.6144-3.4816-4.3008-5.5296-7.5776-5.7344-4.096-0.2048-7.5776 2.2528-9.6256 5.7344-2.8672 5.12-1.8432 11.264-0.8192 16.7936 0.2048 0.6144 2.048 0.6144 1.8432 0zM363.52 514.8672c-21.504 15.1552-48.7424 9.0112-72.0896 2.4576-25.1904-6.9632-50.7904-12.0832-76.8-14.5408-25.6-2.2528-51.4048-2.048-77.0048 0.4096-6.5536 0.6144-13.1072 1.2288-19.456 2.6624-4.9152 1.024-10.0352 2.6624-13.9264 5.9392-3.4816 2.8672-6.3488 6.9632-6.5536 11.4688-0.2048 4.3008 1.6384 8.8064 5.3248 11.0592 3.2768 2.048 7.5776 1.8432 10.6496-0.2048 3.4816-2.048 5.12-6.3488 2.6624-10.0352-2.048-2.8672-5.9392-4.5056-9.216-3.072-1.2288 0.4096-2.6624 1.2288-3.072 2.6624-0.4096 1.6384 0.4096 3.072 1.8432 3.6864 0.6144 0.2048 2.048-0.4096 1.024-0.8192-0.8192-0.4096-1.2288-1.4336-1.024-2.2528 0.2048-1.024 1.6384-1.8432 2.6624-2.2528 2.4576-0.8192 4.9152 0.8192 6.3488 2.6624 2.8672 3.8912 0 8.6016-4.3008 9.8304-5.3248 1.6384-9.4208-2.8672-10.4448-7.5776-1.024-4.7104 0.8192-9.216 4.096-12.6976 7.7824-7.9872 20.6848-8.192 30.9248-9.4208 11.264-1.2288 22.7328-2.048 34.2016-2.2528 22.7328-0.6144 45.4656 0.8192 67.9936 4.096 11.264 1.6384 22.528 3.8912 33.5872 6.3488 10.8544 2.6624 21.504 5.7344 32.1536 8.3968 20.48 4.9152 44.032 6.9632 62.2592-5.9392 0.4096-0.6144-1.2288-1.024-1.8432-0.6144zM112.4352 520.3968c19.2512-16.1792 46.08-4.096 67.3792-0.6144 5.7344 1.024 11.6736 1.4336 17.6128 0.8192 3.6864-0.4096 8.6016-1.2288 10.4448-4.7104 2.2528-3.8912-1.4336-7.5776-4.7104-9.216-3.6864-1.8432-8.6016-2.8672-12.288-0.6144-3.4816 2.048-4.3008 7.5776 0 9.216 3.072 1.2288 7.168-1.8432 5.3248-5.12-0.4096-0.6144-2.2528-0.4096-1.8432 0.2048 1.2288 2.2528-1.4336 5.3248-3.4816 3.072s-0.8192-5.3248 1.4336-6.7584c4.096-2.4576 12.0832 0.4096 13.9264 4.7104 2.2528 4.9152-3.6864 7.3728-7.3728 7.9872-4.9152 0.8192-10.24 0.4096-15.1552-0.2048-16.9984-2.048-33.1776-9.0112-50.3808-7.7824-8.192 0.6144-15.9744 3.072-22.3232 8.3968-0.8192 0.8192 1.024 1.024 1.4336 0.6144zM208.2816 511.1808c6.3488-1.8432 15.1552-4.096 20.2752 2.048 1.8432 2.2528 2.4576 5.7344 1.2288 8.3968-1.2288 2.8672-4.7104 4.096-7.5776 2.6624-3.072-1.6384-3.6864-6.144-1.8432-9.0112 0.4096-0.6144-1.4336-0.8192-1.8432-0.2048-2.048 3.072-1.2288 7.3728 1.6384 9.4208 2.6624 2.048 6.9632 1.8432 9.6256-0.2048 2.6624-2.2528 3.072-6.144 1.8432-9.216-1.4336-3.4816-4.9152-5.5296-8.6016-6.3488-5.3248-1.2288-10.6496 0.2048-15.5648 1.8432-1.4336 0.2048 0 0.8192 0.8192 0.6144zM229.5808 512.8192c3.8912-4.096 9.6256-3.4816 14.7456-2.2528 5.12 1.2288 10.24 3.2768 15.36 4.9152 10.6496 3.6864 21.2992 7.7824 32.3584 10.8544 18.432 5.3248 38.0928 7.7824 56.9344 2.8672 9.8304-2.6624 19.0464-7.3728 26.2144-14.5408 0.6144-0.6144-1.2288-1.024-1.6384-0.6144-14.336 14.1312-35.2256 18.2272-54.6816 16.5888-22.528-1.8432-43.4176-11.0592-64.7168-18.0224-7.7824-2.6624-19.456-7.3728-26.4192-0.2048-0.4096 0.6144 1.4336 1.024 1.8432 0.4096zM671.1296 503.3984c-3.2768-1.2288-6.5536-2.048-10.0352-2.6624-3.4816-0.6144-6.9632-0.6144-10.24-0.6144-6.9632 0.2048-13.7216 1.4336-20.2752 3.4816-13.312 3.8912-25.6 10.6496-38.0928 16.5888-6.3488 3.072-12.6976 5.9392-19.2512 8.192-3.2768 1.2288-6.7584 2.2528-10.0352 2.8672-3.4816 0.8192-6.9632 1.2288-10.4448 1.6384-6.9632 0.6144-14.1312 0-20.8896-1.8432-3.2768-1.024-6.5536-2.2528-9.6256-3.8912-3.072-1.6384-5.9392-3.8912-8.3968-6.3488 2.6624 2.2528 5.5296 4.3008 8.6016 5.9392 3.072 1.6384 6.3488 2.6624 9.6256 3.4816 6.7584 1.6384 13.7216 1.8432 20.48 1.2288 13.7216-1.4336 26.624-6.9632 39.1168-13.1072 12.4928-5.9392 24.7808-12.6976 38.5024-16.384 6.7584-1.8432 13.7216-3.072 20.6848-3.072 3.4816 0 6.9632 0.4096 10.4448 1.024 3.2768 1.024 6.7584 2.048 9.8304 3.4816zM651.264 498.8928c0-2.048-0.2048-4.3008-0.2048-6.3488 0-0.2048-0.4096-0.2048-0.4096 0 0 2.048 0.2048 4.3008 0.2048 6.3488 0 0.2048 0.4096 0.2048 0.4096 0zM640 499.5072c-0.8192-1.6384-1.6384-3.4816-2.6624-5.12-0.2048-0.2048-0.4096 0-0.4096 0.2048 0.8192 1.6384 1.6384 3.4816 2.6624 5.12 0.2048 0.2048 0.6144 0 0.4096-0.2048zM640.4096 501.5552c-0.2048 1.8432-0.6144 3.8912-0.8192 5.7344 0 0.2048 0.4096 0.4096 0.4096 0 0.2048-1.8432 0.6144-3.8912 0.8192-5.7344 0-0.2048-0.4096-0.2048-0.4096 0zM651.4688 500.9408c0.4096 2.048 0.4096 4.3008 0 6.5536 0 0.2048 0.4096 0.4096 0.4096 0 0.4096-2.2528 0.4096-4.5056 0-6.7584-0.2048-0.2048-0.6144 0-0.4096 0.2048zM627.712 500.9408c-0.4096-1.8432-1.2288-3.6864-2.4576-5.12-0.2048-0.2048-0.4096 0-0.2048 0.2048 1.2288 1.4336 2.048 3.072 2.2528 4.9152 0 0.4096 0.4096 0.2048 0.4096 0zM628.1216 504.2176c0 2.048 0 4.096-0.2048 6.3488 0 0.2048 0.4096 0.2048 0.4096 0 0-2.048 0-4.096 0.2048-6.3488 0-0.4096-0.4096-0.4096-0.4096 0zM618.0864 505.2416c-0.2048-1.4336-1.024-2.8672-2.2528-3.6864-0.2048-0.2048-0.4096 0.2048-0.2048 0.4096 1.024 0.8192 1.8432 2.048 2.048 3.4816 0 0 0.4096 0 0.4096-0.2048zM618.0864 508.1088c0.6144 1.2288 0.8192 2.6624 0.6144 3.8912 0 0.2048 0.2048 0.4096 0.4096 0 0.4096-1.4336 0.2048-3.072-0.6144-4.3008-0.2048 0-0.4096 0.2048-0.4096 0.4096zM609.6896 508.3136c-1.024-1.4336-2.048-2.8672-3.2768-4.3008-0.2048-0.2048-0.4096 0-0.4096 0.2048 1.024 1.4336 2.048 2.8672 3.2768 4.3008 0.4096 0.2048 0.6144 0 0.4096-0.2048zM609.28 512.4096c0.8192 1.6384 1.024 3.4816 0.8192 5.3248 0 0.2048 0.4096 0.4096 0.4096 0 0.4096-1.8432 0-3.8912-0.8192-5.7344-0.2048 0-0.6144 0.2048-0.4096 0.4096zM600.6784 514.048c-0.6144-2.048-1.8432-4.096-3.2768-5.5296-0.2048-0.2048-0.4096 0-0.2048 0.2048 1.4336 1.4336 2.6624 3.2768 3.2768 5.3248-0.2048 0.4096 0.2048 0.2048 0.2048 0zM599.8592 517.12c0.6144 2.048 0.4096 4.3008-1.024 6.144-0.2048 0.2048 0.2048 0.4096 0.4096 0.2048 1.4336-1.8432 1.6384-4.3008 1.024-6.3488-0.2048-0.4096-0.4096-0.2048-0.4096 0zM589.824 518.9632c-0.8192-2.048-1.6384-4.096-2.4576-6.3488 0-0.2048-0.4096-0.2048-0.4096 0 0.8192 2.048 1.6384 4.096 2.4576 6.3488 0.2048 0.2048 0.4096 0.2048 0.4096 0zM589.6192 522.6496c-0.6144 2.048-0.4096 4.3008 0.4096 6.144 0 0.2048 0.4096 0.2048 0.4096 0-0.8192-1.8432-0.8192-4.096-0.4096-5.9392 0-0.2048-0.2048-0.4096-0.4096-0.2048zM580.8128 523.0592c-0.4096-1.4336-1.024-2.8672-1.4336-4.3008 0-0.2048-0.4096-0.2048-0.4096 0 0.4096 1.4336 1.024 2.8672 1.4336 4.3008 0.2048 0.2048 0.4096 0.2048 0.4096 0zM579.584 526.336c0 1.4336-0.2048 3.072-0.2048 4.5056 0 0.2048 0.4096 0.2048 0.4096 0 0-1.4336 0.2048-3.072 0.2048-4.5056 0-0.2048-0.2048-0.2048-0.4096 0zM569.9584 526.1312c-0.6144-1.8432-1.4336-3.6864-2.048-5.5296 0-0.2048-0.4096-0.2048-0.4096 0 0.6144 1.8432 1.4336 3.6864 2.048 5.5296 0.2048 0.4096 0.4096 0.2048 0.4096 0zM568.7296 530.6368c0.2048 2.048-0.2048 4.096-1.2288 5.9392-0.2048 0.2048 0.2048 0.4096 0.4096 0.2048 1.024-1.8432 1.4336-3.8912 1.2288-6.144 0-0.2048-0.4096-0.2048-0.4096 0zM559.9232 528.7936c0-1.8432-0.2048-3.6864-0.2048-5.7344 0-0.2048-0.4096-0.2048-0.4096 0 0 1.8432 0.2048 3.6864 0.2048 5.7344 0 0.4096 0.4096 0.4096 0.4096 0zM558.6944 534.1184c-0.6144 1.6384-1.024 3.4816-1.6384 5.12 0 0.2048 0.2048 0.4096 0.4096 0 0.6144-1.6384 1.024-3.4816 1.6384-5.12 0 0-0.4096-0.2048-0.4096 0zM548.2496 530.8416c0-1.8432 0-3.8912-0.2048-5.7344 0-0.2048-0.4096-0.2048-0.4096 0 0 1.8432 0 3.8912 0.2048 5.7344 0 0.4096 0.4096 0.4096 0.4096 0zM545.792 535.552c-0.4096 2.048-1.6384 4.096-3.072 5.7344-0.2048 0.2048 0 0.4096 0.2048 0.2048 1.6384-1.6384 2.6624-3.6864 3.072-5.9392 0.2048-0.2048-0.2048-0.2048-0.2048 0zM536.3712 530.2272c1.024-1.8432 1.2288-4.096 0.8192-6.144 0-0.2048-0.4096-0.2048-0.4096 0 0.4096 2.048 0.2048 4.096-0.8192 5.7344 0 0.4096 0.2048 0.6144 0.4096 0.4096zM533.504 532.48c-0.8192 1.6384-2.4576 2.6624-4.096 3.072-0.2048 0-0.2048 0.4096 0 0.4096 1.8432-0.4096 3.4816-1.6384 4.3008-3.2768 0.2048-0.2048-0.2048-0.4096-0.2048-0.2048zM525.5168 526.5408c0.6144-2.2528 1.4336-4.3008 2.048-6.5536 0-0.2048-0.2048-0.4096-0.4096 0-0.6144 2.2528-1.4336 4.3008-2.048 6.5536 0 0 0.4096 0.2048 0.4096 0zM522.0352 530.2272c-2.2528 1.2288-4.5056 2.4576-6.5536 3.6864-0.2048 0.2048 0 0.4096 0.2048 0.4096 2.2528-1.2288 4.5056-2.4576 6.5536-3.6864 0-0.2048 0-0.6144-0.2048-0.4096zM672.5632 515.072c2.6624-4.5056 5.3248-9.216 9.4208-12.4928 3.8912-3.072 10.0352-5.12 14.5408-1.8432 3.2768 2.2528 5.7344 7.3728 3.072 11.0592-2.048 2.8672-7.168 3.6864-9.216 0.4096-0.4096-0.6144-2.2528-0.4096-1.8432 0.2048 1.6384 2.8672 5.3248 3.4816 8.3968 2.6624 3.4816-1.024 5.9392-3.8912 5.5296-7.5776-0.4096-4.096-3.6864-7.5776-7.5776-8.8064-4.5056-1.4336-9.4208 0-13.312 2.4576-4.9152 3.2768-7.9872 8.6016-11.0592 13.7216-0.2048 0.4096 1.6384 0.6144 2.048 0.2048zM681.984 502.3744c1.024-4.9152 1.8432-10.4448-0.2048-15.36-1.4336-3.6864-4.7104-6.7584-8.8064-7.168-3.2768-0.2048-7.3728 1.2288-8.6016 4.5056-1.4336 3.6864 1.2288 7.7824 4.7104 8.6016 4.3008 1.024 9.0112-2.4576 8.6016-6.9632 0-0.8192-1.8432-0.6144-1.8432 0 0.2048 3.072-2.8672 6.9632-6.3488 5.9392-3.072-1.024-4.7104-4.9152-3.2768-7.7824 1.2288-2.6624 4.7104-3.8912 7.5776-3.072 3.2768 1.024 5.5296 4.096 6.5536 7.168 1.4336 4.5056 0.6144 9.4208-0.4096 13.9264 0 0.8192 1.8432 1.024 2.048 0.2048zM659.2512 515.4816c15.9744 11.264 36.6592 11.264 55.0912 7.5776 10.6496-2.048 21.0944-5.3248 31.5392-8.192 11.0592-2.8672 22.1184-5.3248 33.3824-7.168 22.3232-3.6864 45.056-5.5296 67.7888-5.5296 11.4688 0 22.7328 0.6144 34.2016 1.6384 5.7344 0.4096 11.264 1.2288 16.7936 1.8432 5.7344 0.8192 11.4688 1.6384 16.5888 4.096 4.7104 2.4576 9.216 6.7584 10.0352 12.288 0.6144 4.9152-1.6384 11.264-7.168 12.288-4.7104 0.8192-10.4448-3.4816-8.6016-8.6016 0.8192-2.2528 3.2768-4.3008 5.7344-4.3008 1.2288 0 3.072 0.8192 3.6864 1.8432 0.6144 0.8192 0.2048 2.6624-0.8192 3.072-1.2288 0.4096 0.2048 1.2288 1.024 0.8192 3.072-1.2288 2.048-4.5056-0.4096-5.7344-2.6624-1.6384-6.144-1.024-8.6016 0.8192-2.8672 2.2528-3.8912 5.9392-1.8432 9.0112 1.8432 2.8672 5.3248 4.3008 8.8064 4.096 9.4208-0.2048 12.288-11.8784 7.9872-18.6368-5.7344-9.8304-18.2272-11.264-28.4672-12.4928-51.4048-6.5536-104.0384-3.072-154.2144 10.24-26.0096 6.9632-56.9344 17.408-81.5104 0-0.4096 0-2.048 0.4096-1.024 1.024zM912.9984 519.9872c-11.4688-9.6256-27.4432-9.6256-41.3696-7.168-9.216 1.6384-18.432 4.5056-27.648 5.9392-4.7104 0.8192-9.6256 1.2288-14.5408 1.024-3.8912-0.2048-10.24-0.4096-12.0832-4.7104-2.4576-5.9392 7.5776-10.0352 11.8784-9.216 2.8672 0.4096 5.5296 3.072 4.5056 6.144-0.4096 1.6384-2.048 3.072-3.6864 1.8432-1.2288-0.8192-1.4336-2.4576-0.8192-3.4816 0.4096-0.6144-1.4336-0.8192-1.8432-0.2048-1.6384 2.8672 1.4336 5.7344 4.3008 5.3248 3.6864-0.4096 5.12-5.12 2.8672-7.7824-2.6624-3.2768-7.168-3.2768-10.8544-2.2528-3.4816 1.024-8.3968 3.4816-8.6016 7.7824-0.2048 3.8912 3.8912 5.9392 7.168 6.7584 5.3248 1.2288 11.264 1.024 16.7936 0.4096 12.288-1.4336 24.1664-5.5296 36.4544-7.3728 12.288-1.6384 25.8048-1.024 35.84 7.3728 0.6144 0.4096 2.4576 0.2048 1.6384-0.4096zM816.7424 510.3616c-4.5056-1.4336-9.216-2.6624-14.1312-2.048-3.6864 0.4096-7.5776 2.2528-9.4208 5.5296-1.6384 2.8672-1.8432 6.9632 0.4096 9.6256 2.2528 2.6624 6.3488 3.2768 9.4208 1.8432 3.6864-1.8432 5.12-6.7584 2.6624-10.0352-0.4096-0.6144-2.2528-0.4096-1.8432 0.2048 1.6384 2.4576 1.4336 6.144-0.8192 8.192-2.4576 2.2528-6.144 1.6384-7.9872-0.8192-1.6384-2.4576-1.4336-5.7344-0.2048-8.192 1.6384-2.8672 4.7104-4.5056 7.7824-4.9152 4.5056-0.8192 8.8064 0.6144 13.1072 1.8432 0.4096 0.2048 1.024 0.2048 1.2288-0.2048 0.4096-0.6144 0.2048-1.024-0.2048-1.024zM796.0576 512.4096c-5.7344-5.9392-14.9504-3.4816-21.9136-1.2288-10.8544 3.4816-21.504 7.5776-32.1536 11.0592-20.0704 6.5536-41.3696 11.4688-62.2592 6.9632-10.8544-2.2528-21.0944-7.168-29.2864-15.1552-0.4096-0.4096-2.2528-0.2048-1.6384 0.6144 13.1072 12.6976 31.5392 17.6128 49.3568 17.408 21.504-0.2048 41.7792-7.7824 61.6448-14.7456 5.9392-2.048 11.6736-4.096 17.8176-5.9392 5.5296-1.6384 12.288-2.8672 16.7936 1.6384 0.4096 0.4096 2.2528 0 1.6384-0.6144zM512 507.4944c1.6384 0.6144 5.9392 2.8672 5.5296 7.3728 0 0.4096-0.2048 1.4336-0.6144 1.4336-1.024 0-2.8672-1.2288-3.6864-2.048l-1.2288-1.024-1.2288 1.024c-0.8192 0.8192-2.6624 2.048-3.6864 2.048-0.4096 0-0.6144-1.2288-0.6144-1.4336-0.4096-4.5056 3.8912-6.7584 5.5296-7.3728m0-1.8432s-8.192 2.4576-7.3728 9.6256c0.2048 2.4576 1.2288 3.2768 2.4576 3.2768 2.2528 0 4.9152-2.4576 4.9152-2.4576s2.8672 2.4576 4.9152 2.4576c1.2288 0 2.2528-0.8192 2.4576-3.2768 0.8192-7.3728-7.3728-9.6256-7.3728-9.6256z" /></svg>