<?xml version="1.0" encoding="UTF-8"?>
<svg id="Layer_1" xmlns="http://www.w3.org/2000/svg" xmlns:xlink="http://www.w3.org/1999/xlink" version="1.1" viewBox="0 0 30 33">
  <!-- Generator: Adobe Illustrator 29.7.1, SVG Export Plug-In . SVG Version: 2.1.1 Build 8)  -->
  <defs>
    <style>
      .st0 {
        mask: url(#mask);
      }

      .st1 {
        fill: url(#linear-gradient2);
      }

      .st2 {
        fill: url(#linear-gradient1);
      }

      .st3 {
        fill: url(#linear-gradient3);
      }

      .st4 {
        fill: url(#linear-gradient);
      }

      .st5 {
        fill: #c4c4c4;
      }

      .st6 {
        fill: #fff;
      }
    </style>
    <mask id="mask" x="-1.26" y="-.87" width="32.49" height="35.4" maskUnits="userSpaceOnUse">
      <g id="mask0_13247_81097">
        <path class="st5" d="M12.18,1.04c1.74-1,3.88-1,5.62,0l9.2,5.31c1.74,1,2.81,2.86,2.81,4.87v10.62c0,2.01-1.07,3.86-2.81,4.87l-9.2,5.31c-1.74,1-3.88,1-5.62,0l-9.2-5.31c-1.74-1-2.81-2.86-2.81-4.87v-10.62c0-2.01,1.07-3.86,2.81-4.87L12.18,1.04Z"/>
      </g>
    </mask>
    <linearGradient id="linear-gradient" x1="15.18" y1="33.4" x2="14.9" y2="22.12" gradientTransform="translate(0 34) scale(1 -1)" gradientUnits="userSpaceOnUse">
      <stop offset="0" stop-color="#ff8fa3"/>
      <stop offset="1" stop-color="#ff7d94"/>
    </linearGradient>
    <linearGradient id="linear-gradient1" x1="10.31" y1="6.67" x2="1.37" y2="17.38" gradientTransform="translate(0 34) scale(1 -1)" gradientUnits="userSpaceOnUse">
      <stop offset="0" stop-color="#ff4c6e"/>
      <stop offset="1" stop-color="#ff8ca0"/>
    </linearGradient>
    <linearGradient id="linear-gradient2" x1="19.98" y1="5.59" x2="28.52" y2="17.01" gradientTransform="translate(0 34) scale(1 -1)" gradientUnits="userSpaceOnUse">
      <stop offset="0" stop-color="#ff4b6e"/>
      <stop offset="1" stop-color="#ff889e"/>
    </linearGradient>
    <linearGradient id="linear-gradient3" x1="14.98" y1="27.85" x2="14.98" y2="8.09" gradientTransform="translate(0 34) scale(1 -1)" gradientUnits="userSpaceOnUse">
      <stop offset="0" stop-color="#ff8ca0"/>
      <stop offset="1" stop-color="#f76f88"/>
    </linearGradient>
  </defs>
  <g class="st0">
    <g>
      <path class="st4" d="M14.98-.87l16.24,9.38-8.22,4.43-3.4-1.85-3.09.31-7.72-2.78-1.85,2.47-.93,1.23-1.85-1.23-5.44-2.57L14.98-.87Z"/>
      <path class="st2" d="M.04,8.65l6.3,3.06,3.7,8.95v.31l1.23,1.54,5.56,4.32-1.85,7.71L.04,25.91V8.65Z"/>
      <path class="st1" d="M19.92,20.96l4.01-8.64,6-3.67v17.26l-14.95,8.63-.31-7.71,5.25-5.87Z"/>
      <path class="st3" d="M14.98,6.15c-2.55,0-4.88.97-6.64,2.56l1.42,12.26c.39.18,2.62.93,3.05.93h3.09c.55,0,4.32-1.16,4.32-.62l-.31-1.3c0,.55-.44.99-.99.99h-7.9c-.55,0-.99-.44-.99-.99v-4.78c0-.43-.09-.85-.27-1.24l-1.42-5.25c-1.59,1.75-3.24,4.76-3.24,7.32,0,5.46,4.42,9.88,9.88,9.88s9.88-4.42,9.88-9.88-4.42-9.88-9.88-9.88Z"/>
      <g>
        <path class="st6" d="M17.51,22.11c-1.54.42-3.11.56-4.65.18-1.87-.45-3-1.54-3.48-3.47-.39-1.48-.4-3.04.04-4.59.22-.78.62-1.52,1.11-2.2.9-1.15,2.13-2.07,3.48-2.39,1.11-.26,2.4-.02,3.19.71.61.56.94,1.2,1.08,1.91.18.8.09,1.54-.29,2.12-.69,1.07-1.27,1.18-1.85.96-.56-.22-.71-.68-.47-1.25.26-.5.23-1.29.06-1.73-.16-.38-.67-.77-1.25-.69-.99.13-1.74,1.08-2.25,1.76-.98,1.38-.97,2.82-.68,4.28.42,1.87,1.4,2.42,3.43,2.47.73.03,1.48-.07,2.21-.25,1.11-.29,1.95-.88,2.68-1.69.34-.38.92-.2,1.1.1.32.46.4,1.07-.12,1.74-.9,1.15-2.02,1.68-3.32,2.03Z"/>
        <path class="st6" d="M17.18,22.11c-1.54.42-3.11.56-4.65.18-1.87-.45-3-1.54-3.48-3.47-.39-1.48-.4-3.04.04-4.59.22-.78.62-1.52,1.11-2.2.9-1.15,2.13-2.07,3.48-2.39,1.11-.26,2.4-.02,3.19.71.61.56.94,1.2,1.08,1.91.18.8.09,1.54-.29,2.12-.69,1.07-1.27,1.18-1.85.96-.56-.22-.71-.68-.47-1.25.26-.5.23-1.29.06-1.73-.16-.38-.67-.77-1.25-.69-.99.13-1.74,1.08-2.25,1.76-.98,1.38-.97,2.82-.68,4.28.42,1.87,1.4,2.42,3.43,2.47.73.03,1.48-.07,2.21-.25,1.11-.29,1.95-.88,2.68-1.69.34-.38.92-.2,1.1.1.32.46.4,1.07-.12,1.74-.9,1.15-2.02,1.68-3.32,2.03Z"/>
      </g>
    </g>
  </g>
</svg>