<?xml version="1.0" encoding="UTF-8"?>
<svg id="Layer_1" xmlns="http://www.w3.org/2000/svg" version="1.1" viewBox="0 0 125.95 33">
  <!-- Generator: Adobe Illustrator 29.7.1, SVG Export Plug-In . SVG Version: 2.1.1 Build 8)  -->
  <defs>
    <style>
      .st0 {
        fill: #282828;
      }
    </style>
  </defs>
  <path class="st0" d="M13.79,28.68c-2.79.21-5.54-.07-8.07-1.32-3.07-1.5-4.64-3.89-4.82-7.61-.18-2.86.32-5.71,1.61-8.39.64-1.36,1.57-2.57,2.64-3.64,1.93-1.79,4.36-3.04,6.78-3.14,2-.07,4.14.82,5.25,2.43.86,1.25,1.21,2.54,1.21,3.89.04,1.54-.36,2.86-1.21,3.79-1.54,1.71-2.57,1.71-3.5,1.11-.89-.61-1-1.5-.39-2.46.61-.82.82-2.29.68-3.14-.14-.75-.89-1.64-1.93-1.71-1.75-.11-3.36,1.36-4.46,2.43-2.14,2.18-2.61,4.82-2.61,7.61.11,3.57,1.61,4.93,5.07,5.75,1.25.32,2.57.39,3.89.32,2-.14,3.64-.93,5.18-2.14.71-.57,1.64-.04,1.86.57.39.96.32,2.11-.79,3.14-1.93,1.79-4.04,2.36-6.39,2.54v-.03Z"/>
  <path class="st0" d="M28.43,29.43c-.64.29-1.64.21-2.14-.54-.82-1.18-1.29-2.14-1.68-3.46-.36-1.36-.71-3.86-.71-5.68,0-1.68.04-2.54.11-4.36.04-1.39.86-2.79,2.57-2.79.71-.04,1.68.5,1.82,1.25.18.64.25,1.32.21,2,.04,1.64.18,3.29.32,4.89.21,2.04.68,3.93,1.07,5.93.21,1.32-.43,2.29-1.57,2.75h0ZM26.71,7.11c-1.04.04-1.89-.96-1.79-2.54.07-1.07.82-1.68,1.61-1.71,1.21-.11,2.25.93,2.25,2.07s-1.14,2.14-2.07,2.18Z"/>
  <path class="st0" d="M42.78,23.04c-.29-.93-.68-2.54-1.21-2.54-.82,0-1.57,1.75-2,2.82-.64,1.57-1.21,3.14-1.89,4.71-.39.89-1.14,1.32-2.11,1.54-.82.21-1.64-.32-1.75-1.18-.07-.54-.07-1.11-.07-1.68,0-1.5.04-2.96,0-4.46-.07-1.11-.25-2.25-.36-3.36-.07-.68-.14-1.39-.07-2.04.07-.71.54-1.25,1.29-1.46s1.68.04,2.07.71c.39.68.68,1.46,1,2.79.46-.57.96-1.14,1.25-1.46.68-.71,1.36-1.39,2.14-2.04,1.32-1.04,2.93-.71,3.75.79.5.89.86,1.89,1.18,2.82.36,1,.71,2,1.11,3.04.43,1.14.82,2.29,1.18,3.5s-.07,2.46-1.46,2.82c-1,.25-1.93-.07-2.36-1-.64-1.36-1.21-2.82-1.68-4.32h-.01Z"/>
  <path class="st0" d="M61.28,25.68c1.46-.18,3-.43,4.36-.61.96-.18,1.54.25,1.61.82.11.89-.86,1.79-1.57,2.14-2.64,1.39-5.43,2.18-8.43,2.11-2.21-.07-3.93-.96-5.11-2.79-1.07-1.64-1.5-3.11-1.54-4.64-.04-2.07.46-4.18,1.57-6.53,1.14-2.46,3.32-5.25,6.28-5.25,1.5,0,2.96.75,4.07,2.18,1.04,1.32,1.75,2.93,1.75,4.11.04.89-.36,1.75-1.11,2.39-1.46,1.21-3,2.36-4.5,3.46-.61.46-1.29.86-2.25,1.46,1,1.54,3.36,1.36,4.86,1.14h.01ZM58.42,18.39c.39-.36.68-.86.96-1.36.25-.46-.11-1.21-.68-1.64-.43-.32-1.18-.32-1.57.07-1.14,1.11-2,2.93-2.21,4.86,1.64-.54,2.57-1.14,3.5-1.93Z"/>
  <path class="st0" d="M70.17,6.18c.07-.57.07-1.14.18-1.71.25-.93,1.32-1.32,2.25-.93,1.04.46,1.61,1.14,1.57,2.36,0,1.57-.04,3.18-.04,4.78,0,2.29,0,4.53.04,6.82.14,3.25.43,6.39,1.07,9.53.32,1.46-.54,2.54-1.96,2.54-.93.04-1.39-.32-1.61-1-.64-1.82-.96-3.71-1.18-5.64-.46-3.86-.61-7.75-.5-11.61.07-1.71.14-3.43.18-5.14Z"/>
  <path class="st0" d="M89.13,26.68c-1.79,1.5-3.86,2.32-6.28,2.21-2.07-.11-3.61-1.71-4.07-3.78-.68-2.89.21-6.28,2.21-8.21,1-1,2.29-1.61,3.82-1.61,1.75,0,3,.86,4.18,2,1.18,1.18,1.89,2.61,2.14,4.21.32,2.04-.43,3.89-2,5.18ZM87.06,22.71c.25-1.36-1.29-3.64-2.93-3.32-2.04.36-1.86,4.61-.89,5.25.89.64,3.54-.21,3.82-1.93Z"/>
  <path class="st0" d="M101.62,20.72c.46-2,.93-4,1.36-6,.14-.64.39-1.29.75-1.82.43-.61,1.14-.75,1.86-.5.64.21,1.14.75,1.18,1.54,0,.43.04.93-.07,1.36-.61,2.86-1.29,5.78-2.11,8.61-.43,1.43-1.04,2.79-1.86,4.04-.68,1.04-1.71,1.57-2.79,1.54-1.57-.07-2.79-1.21-3.43-2.54-1.57-3.21-2.89-6.46-3.54-9.96-.18-1.04-.25-2.04.25-3.04.32-.64.93-1.07,1.61-1.04.75.04,1.39.32,1.68,1,.36.82.54,1.71.71,2.61.46,2.29,1.21,4.43,2.11,6.5.14.29.39.68.82,1.29.68-1.25,1.21-2.46,1.46-3.57v-.02Z"/>
  <path class="st0" d="M119.12,25.68c1.46-.18,3-.43,4.36-.61.96-.18,1.54.25,1.61.82.11.89-.86,1.79-1.57,2.14-2.64,1.39-5.43,2.18-8.43,2.11-2.21-.07-3.93-.96-5.11-2.79-1.07-1.64-1.5-3.11-1.54-4.64-.04-2.07.46-4.18,1.57-6.53,1.14-2.46,3.32-5.25,6.28-5.25,1.5,0,2.96.75,4.07,2.18,1.04,1.32,1.75,2.93,1.75,4.11.04.89-.36,1.75-1.11,2.39-1.46,1.21-3,2.36-4.5,3.46-.61.46-1.29.86-2.25,1.46,1,1.54,3.36,1.36,4.86,1.14h.01ZM116.26,18.39c.39-.36.68-.86.96-1.36.25-.46-.11-1.21-.68-1.64-.43-.32-1.18-.32-1.57.07-1.14,1.11-2,2.93-2.21,4.86,1.64-.54,2.57-1.14,3.5-1.93Z"/>
</svg>